<svg xmlns="http://www.w3.org/2000/svg" viewBox="0 0 124.76 41.49"><defs><style>.cls-1{fill:#cf202e;}.cls-2{fill:#434345;}</style></defs><g id="Layer_2" data-name="Layer 2"><g id="Layer_1-2" data-name="Layer 1"><path class="cls-1" d="M0,0V41.49H29.68V0ZM23.4,33.23c-.36,1.22-.7,2.43-1.06,3.64a0,0,0,0,1,0,0,4.61,4.61,0,0,1-1.12,0H7.15a3.42,3.42,0,0,1-.91,0c-.64-.27,1-1.64,1.08-2s0-.45,0-.68v-8.6a3.2,3.2,0,0,0,0-.88,1.25,1.25,0,0,0-.21-.3c-.3-.38-.9-.8-1-1.25-.06-.27.24-.29.41-.37H20.73a4.44,4.44,0,0,1,1.83.18.61.61,0,0,1,.18.25,6.44,6.44,0,0,1,.15,1c.08.56.15,1.11.22,1.67a4.32,4.32,0,0,1,.1.95c-.06.31-.36.52-.63.27a2,2,0,0,1-.34-.6c-.39-.76-.68-1.72-1.57-2.1a6,6,0,0,0-2.15-.16H12a1.45,1.45,0,0,0-.63.05l0,0a4.9,4.9,0,0,0,0,1.16V29h5.31a1.51,1.51,0,0,0,.52,0c.43-.15.67-.88.76-1.26,0-.12,0-.34.12-.42s.49,0,.65,0v5.06c0,.08,0,.28-.06.32a.64.64,0,0,1-.56,0,1.16,1.16,0,0,1-.13-.37c-.11-.34-.29-1.16-.71-1.26l-.5,0H12.8a8.1,8.1,0,0,0-1.44.05,3.2,3.2,0,0,0,0,1v3.45h8.21a2.28,2.28,0,0,0,.75,0,1.55,1.55,0,0,0,.51-.39,4.44,4.44,0,0,0,.56-.75l.95-1.59c.09-.16.28-.55.45-.63a3.48,3.48,0,0,1,1,0Zm2.54-28c-.22,1-.44,2.07-.65,3.11l-1.44,6.78c-.18.84-.36,1.68-.53,2.53a6.46,6.46,0,0,0-.22,1.08h0s-.14,0-.19,0H15.36a1.37,1.37,0,0,0-.5,0H8.79a15.92,15.92,0,0,1-2.13-.05c-.11-.09-.16-.52-.18-.66L6,16l-1.71-8C4.17,7.21,4,6.52,3.89,5.84A2.1,2.1,0,0,1,3.76,5c0-.19.15-.25.29-.34a.79.79,0,0,1,.4.16,2.43,2.43,0,0,1,.35.49l.59.91L7.64,9.68l.66,1,.3.49h.06l.15-.38L9.17,10c.54-1.28,1.08-2.57,1.63-3.85.14-.33.45-1.51,1-1.42s.75,1.11.92,1.48c.71,1.67,1.43,3.33,2.14,5h0L17.08,6c.15-.33.47-1.44,1-1.35s.73,1.2.88,1.54l2.1,5h0q1.71-2.67,3.43-5.32c.17-.27.85-1.62,1.32-1.14A.58.58,0,0,1,25.94,5.19Z"/><polygon class="cls-2" points="39.09 7.95 39.09 12.3 46.95 12.3 46.95 14.74 39.09 14.74 39.09 19.18 48.15 19.18 48.15 21.62 36.37 21.62 36.37 5.51 47.88 5.51 47.88 7.95 39.09 7.95"/><polygon class="cls-2" points="66.21 21.62 66.19 9.59 61.1 19.94 59.33 19.94 54.25 9.59 54.25 21.62 51.69 21.62 51.69 5.51 54.91 5.51 60.23 16.21 65.52 5.51 68.72 5.51 68.72 21.62 66.21 21.62"/><path class="cls-2" d="M75.91,14.32H79.5c2.49,0,3.89-1.05,3.89-3.24S82,8,79.5,8H75.91Zm3.71-8.81c4,0,6.37,2,6.37,5.5s-2.32,5.75-6.37,5.75H75.91v4.86H73.2V5.51Z"/><rect class="cls-2" x="88.91" y="5.51" width="2.72" height="16.11"/><path class="cls-2" d="M102.62,14.32c2.48,0,3.91-1.05,3.91-3.24S105.1,8,102.62,8H98.8v6.37Zm.74,2.42c-.23,0-.49,0-.74,0H98.8v4.86H96.09V5.51h6.53c4.12,0,6.49,2,6.49,5.5a5.16,5.16,0,0,1-3.34,5.22l3.61,5.39H106.3Z"/><polygon class="cls-2" points="115.66 7.95 115.66 12.3 123.53 12.3 123.53 14.74 115.66 14.74 115.66 19.18 124.73 19.18 124.73 21.62 112.95 21.62 112.95 5.51 124.45 5.51 124.45 7.95 115.66 7.95"/><path class="cls-2" d="M44,29.11l-.6.77a3.72,3.72,0,0,0-2.6-1.11,3.47,3.47,0,1,0,0,6.94,3.82,3.82,0,0,0,2.6-1.06l.61.7a4.87,4.87,0,0,1-3.26,1.35,4.44,4.44,0,1,1,0-8.87A4.76,4.76,0,0,1,44,29.11"/><rect class="cls-2" x="51.01" y="27.85" width="1.01" height="8.8"/><polygon class="cls-2" points="66.12 36.65 60.84 29.59 60.84 36.65 59.84 36.65 59.84 27.86 60.88 27.86 66.16 34.93 66.16 27.86 67.15 27.86 67.15 36.65 66.12 36.65"/><polygon class="cls-2" points="75.99 28.82 75.99 31.71 80.43 31.71 80.43 32.68 75.99 32.68 75.99 35.7 81.12 35.7 81.12 36.65 74.99 36.65 74.99 27.86 80.96 27.86 80.96 28.82 75.99 28.82"/><polygon class="cls-2" points="96.29 36.65 96.28 29.4 93.08 35.72 92.47 35.72 89.28 29.4 89.28 36.65 88.33 36.65 88.33 27.86 89.57 27.86 92.79 34.19 95.99 27.86 97.22 27.86 97.22 36.65 96.29 36.65"/><path class="cls-2" d="M108.21,29l-2,4.46h4Zm-2.38,5.43-1,2.22h-1.07l3.94-8.8h1l3.93,8.8h-1.09l-1-2.22Z"/><path class="cls-2" d="M124.54,28.63l-.42.95a4.52,4.52,0,0,0-2.43-.74c-1.13,0-1.87.42-1.87,1.16,0,2.27,5,1.09,4.94,4.28,0,1.47-1.3,2.41-3.18,2.41a5,5,0,0,1-3.37-1.34l.45-.91a4.39,4.39,0,0,0,2.93,1.24c1.27,0,2.06-.51,2.06-1.35,0-2.31-4.94-1.08-4.94-4.24,0-1.38,1.22-2.27,3-2.27a5.2,5.2,0,0,1,2.79.81"/></g></g></svg>