<svg xmlns="http://www.w3.org/2000/svg" viewBox="0 0 285.34 58.15">
	<defs>
		<style>
			.cls-1{fill:#444345;}.cls-2{fill:#d0222e;}
		</style>
	</defs>
	<g id="Layer_2" data-name="Layer 2">
		<g id="Layer_1-2" data-name="Layer 1">
			<polygon class="cls-1" points="52.79 35.06 52.79 40.25 62.17 40.25 62.17 43.15 52.79 43.15 52.79 48.45 63.6 48.45 63.6 51.35 49.56 51.35 49.56 32.16 63.27 32.16 63.27 35.06 52.79 35.06" />
			<polygon class="cls-1" points="85.13 51.35 85.1 37.01 79.04 49.35 76.93 49.35 70.87 37.01 70.87 51.35 67.82 51.35 67.82 32.16 71.66 32.16 78 44.91 84.3 32.16 88.12 32.16 88.12 51.35 85.13 51.35" />
			<path class="cls-1" d="M96.7,42.66H101c3,0,4.64-1.26,4.64-3.87s-1.68-3.73-4.64-3.73H96.7Zm4.42-10.5c4.82,0,7.59,2.38,7.59,6.55,0,4.33-2.77,6.86-7.59,6.86H96.7v5.78H93.47V32.16Z" />
			<rect class="cls-1" x="112.2" y="32.16" width="3.24" height="19.2" />
			<path class="cls-1" d="M128.54,42.66c3,0,4.67-1.26,4.67-3.87s-1.71-3.73-4.67-3.73H124v7.6Zm.88,2.88a8.34,8.34,0,0,1-.88,0H124v5.78h-3.24V32.16h7.79c4.91,0,7.74,2.38,7.74,6.55a6.18,6.18,0,0,1-4,6.23l4.31,6.41h-3.68Z" />
			<polygon class="cls-1" points="144.09 35.06 144.09 40.25 153.47 40.25 153.47 43.15 144.09 43.15 144.09 48.45 154.9 48.45 154.9 51.35 140.86 51.35 140.86 32.16 154.57 32.16 154.57 35.06 144.09 35.06" />
			<path class="cls-1" d="M176.43,34.73l-.69.88a8.9,8.9,0,0,0-6-2.36,8.51,8.51,0,1,0,0,17,9.08,9.08,0,0,0,6-2.33l.72.79a10.09,10.09,0,0,1-6.78,2.66,9.61,9.61,0,1,1,0-19.22,10.15,10.15,0,0,1,6.75,2.57" />
			<rect class="cls-1" x="181.37" y="32.18" width="1.15" height="19.17" />
			<polygon class="cls-1" points="203.31 51.35 190.53 33.94 190.53 51.35 189.37 51.35 189.37 32.18 190.72 32.18 203.53 49.6 203.53 32.18 204.65 32.18 204.65 51.35 203.31 51.35" />
			<polygon class="cls-1" points="212.66 33.31 212.66 40.96 222.64 40.96 222.64 42.11 212.66 42.11 212.66 50.23 224.23 50.23 224.23 51.35 211.51 51.35 211.51 32.18 223.88 32.18 223.88 33.31 212.66 33.31" />
			<polygon class="cls-1" points="246.97 51.35 246.94 33.77 239.07 49.27 238.55 49.27 230.62 33.77 230.62 51.35 229.53 51.35 229.53 32.18 231.12 32.18 238.82 47.27 246.47 32.18 248.06 32.18 248.06 51.35 246.97 51.35" />
			<path class="cls-1" d="M261.15,33.5l-5.08,11.24h10.21Zm-5.57,12.4-2.47,5.45h-1.26l8.69-19.17h1.24l8.77,19.17h-1.26L266.8,45.9Z" />
			<path class="cls-1" d="M284.68,33.69l-.52,1a9.65,9.65,0,0,0-5-1.39c-3,0-5,1.26-5,3.26,0,5.84,11.27,2.82,11.22,9.9,0,3-2.66,4.88-6.67,4.88a10.1,10.1,0,0,1-6.83-2.77l.61-1a9,9,0,0,0,6.25,2.6c3.29,0,5.4-1.42,5.4-3.67.06-6-11.21-2.94-11.21-9.85,0-2.77,2.52-4.55,6.3-4.55a10.66,10.66,0,0,1,5.49,1.56" />
			<path class="cls-2" d="M37.15,6.26c-.31,1.52-.63,3-.95,4.55l-2.1,9.9c-.25,1.23-.52,2.47-.78,3.7A10.27,10.27,0,0,0,33,26h0c0,.07-.21,0-.29,0h-11a2.55,2.55,0,0,0-.74,0H12.09A23.74,23.74,0,0,1,9,26a2.73,2.73,0,0,1-.27-1c-.21-1-.43-2-.64-3.06Q6.81,16.1,5.56,10.22l-.63-3A3.36,3.36,0,0,1,4.74,6c0-.27.22-.36.43-.5a1.3,1.3,0,0,1,.58.24,3.92,3.92,0,0,1,.52.71c.28.45.57.89.86,1.33l3.28,5.09,1,1.51.43.71h.09l.21-.55c.18-.41.35-.83.53-1.25Q13.84,10.42,15,7.6c.21-.48.66-2.2,1.4-2.07s1.1,1.62,1.35,2.17L20.91,15H21c1.08-2.51,2.17-5,3.25-7.52.21-.48.68-2.11,1.44-2S26.72,7.25,27,7.75L30,15h0l5-7.78c.25-.39,1.25-2.36,1.94-1.65a.83.83,0,0,1,.15.65M33.44,46.6q-.77,2.65-1.54,5.31a.09.09,0,0,1,0,.05,7,7,0,0,1-1.65,0H9.7a5.28,5.28,0,0,1-1.33,0c-.93-.39,1.47-2.4,1.58-2.9,0-.33,0-.66,0-1V35.52a4.66,4.66,0,0,0,0-1.3,1.62,1.62,0,0,0-.31-.43c-.44-.55-1.3-1.17-1.45-1.83-.08-.39.37-.43.6-.54H29.55c.72,0,2.19-.09,2.67.27a.81.81,0,0,1,.26.36,8.47,8.47,0,0,1,.22,1.44c.11.81.22,1.62.32,2.43a5.43,5.43,0,0,1,.14,1.39c-.07.45-.52.76-.92.39a3.1,3.1,0,0,1-.49-.87c-.58-1.11-1-2.52-2.29-3.06a8.72,8.72,0,0,0-3.14-.24H16.8a2.12,2.12,0,0,0-.92.07.1.1,0,0,0,0,0,6.67,6.67,0,0,0-.05,1.69v5.13h7.76a2.73,2.73,0,0,0,.76,0c.64-.23,1-1.29,1.11-1.85,0-.17,0-.49.18-.61s.72-.07.95-.07v7.39c0,.12,0,.42-.09.47a.94.94,0,0,1-.82,0,1.44,1.44,0,0,1-.18-.54c-.16-.5-.44-1.7-1-1.85l-.73,0H18a11.5,11.5,0,0,0-2.11.08,4.58,4.58,0,0,0-.06,1.45v5h12a3.88,3.88,0,0,0,1.09-.07,2.34,2.34,0,0,0,.74-.57,6.17,6.17,0,0,0,.82-1.1l1.39-2.32c.13-.23.41-.8.65-.92a4.84,4.84,0,0,1,1.44-.06c-.16.59-.33,1.17-.49,1.76M0,58.15H41.78V0H0Z" />
		</g>
	</g>
</svg>
