<svg xmlns="http://www.w3.org/2000/svg" viewBox="0 0 39.83 35.69"><defs><style>.cls-1{fill:#434345;}</style></defs><g id="Layer_2" data-name="Layer 2"><g id="Layer_1-2" data-name="Layer 1"><path class="cls-1" d="M14.2,30.51H5.47a.25.25,0,0,0,0,.5H14.2a.25.25,0,0,0,0-.5Z"/><path class="cls-1" d="M14.2,31.14H5.47A.33.33,0,0,1,5.2,31a.39.39,0,0,1-.09-.26.35.35,0,0,1,.36-.37H14.2a.38.38,0,0,1,0,.75Zm-8.73-.5a.11.11,0,0,0-.11.12.12.12,0,0,0,0,.09.08.08,0,0,0,.08,0H14.2a.12.12,0,0,0,.12-.13.12.12,0,0,0-.12-.12Z"/><path class="cls-1" d="M24.33,30.51H15.6a.25.25,0,0,0,0,.5h8.73a.25.25,0,0,0,0-.5Z"/><path class="cls-1" d="M24.33,31.14H15.6a.38.38,0,0,1,0-.75h8.73a.33.33,0,0,1,.27.12.38.38,0,0,1,.09.25A.36.36,0,0,1,24.33,31.14Zm-8.73-.5a.12.12,0,0,0-.12.12.12.12,0,0,0,.12.13h8.73c.11,0,.11-.11.11-.13a.16.16,0,0,0,0-.09.1.1,0,0,0-.08,0Z"/><path class="cls-1" d="M34.45,30.51H25.73a.25.25,0,0,0,0,.5h8.72a.25.25,0,0,0,0-.5Z"/><path class="cls-1" d="M34.46,31.14H25.73a.36.36,0,0,1-.28-.12.39.39,0,0,1-.09-.26.36.36,0,0,1,.37-.37h8.73a.34.34,0,0,1,.27.12.38.38,0,0,1,.09.25A.36.36,0,0,1,34.46,31.14Zm-8.73-.5a.12.12,0,0,0-.12.12.12.12,0,0,0,0,.09.1.1,0,0,0,.09,0h8.73c.11,0,.11-.11.11-.13a.16.16,0,0,0,0-.09.11.11,0,0,0-.08,0Z"/><path class="cls-1" d="M20,35.06H11.24a.25.25,0,0,0,0,.5H20a.25.25,0,0,0,0-.5Z"/><path class="cls-1" d="M20,35.69H11.24a.36.36,0,0,1-.37-.38.36.36,0,0,1,.37-.37H20a.36.36,0,0,1,.37.37A.36.36,0,0,1,20,35.69Zm-8.72-.5a.12.12,0,0,0-.12.12.12.12,0,0,0,.12.13H20a.12.12,0,0,0,.12-.13.12.12,0,0,0-.12-.12Z"/><path class="cls-1" d="M30.09,35.06H21.36a.25.25,0,0,0,0,.5h8.73a.25.25,0,0,0,0-.5Z"/><path class="cls-1" d="M30.09,35.69H21.36a.36.36,0,0,1-.36-.38.35.35,0,0,1,.36-.37h8.73a.36.36,0,0,1,.37.37A.36.36,0,0,1,30.09,35.69Zm-8.73-.5a.11.11,0,0,0-.11.12s0,.13.11.13h8.73a.12.12,0,0,0,.12-.13.12.12,0,0,0-.12-.12Z"/><path class="cls-1" d="M39.52,22.81a89.44,89.44,0,0,0-33.61-1c-1.75.27-3.61.89-5.36,1-.41,0,.13.5.08.05a9.54,9.54,0,0,1,0-1.31V5.15a7.58,7.58,0,0,1,0-2.47c-.25.46.08.3.75.4,1,.16,1.9.3,2.84.43q3.89.57,7.8.94a90.21,90.21,0,0,0,18.73-.31c2.34-.27,4.66-.58,7-.94a6.37,6.37,0,0,1,1.61-.26c.09,0-.15-.49-.14.1.07,6.67,0,13.34,0,20a.25.25,0,0,0,.5,0V2.66a.26.26,0,0,0-.32-.24,114.73,114.73,0,0,1-19.47,2A114.75,114.75,0,0,1,.44,2.42a.25.25,0,0,0-.31.24V23.05a.25.25,0,0,0,.31.24,87.69,87.69,0,0,1,39,0C39.7,23.36,39.84,22.88,39.52,22.81Z"/><path class="cls-1" d="M39.45,23.42h-.09a87.13,87.13,0,0,0-38.89,0,.39.39,0,0,1-.33-.07A.37.37,0,0,1,0,23.05V2.66a.31.31,0,0,1,.13-.27A.39.39,0,0,1,.46,2.3a113.27,113.27,0,0,0,19.46,2A113.26,113.26,0,0,0,39.37,2.3a.39.39,0,0,1,.33.09.31.31,0,0,1,.13.27V23.05a.33.33,0,0,1-.22.33A.29.29,0,0,1,39.45,23.42ZM.39,2.54a.15.15,0,0,0-.1,0,.09.09,0,0,0,0,.08V23.05a.11.11,0,0,0,0,.09.14.14,0,0,0,.12,0,87.32,87.32,0,0,1,38.67-.08v-.26A89.05,89.05,0,0,0,5.93,21.9c-.68.1-1.39.26-2.08.42a22.67,22.67,0,0,1-3.1.55c0,.13-.05.2-.11.22a.22.22,0,0,1-.26,0,.25.25,0,0,1-.1-.27.26.26,0,0,1,.2-.15c0-.23,0-.48,0-.71s0-.29,0-.43V5.15c0-.16,0-.39,0-.66a6.42,6.42,0,0,1,0-1.57.78.78,0,0,1,.09-.3h0l.23.12h0a.69.69,0,0,0,0,.17,1.7,1.7,0,0,1,.23,0c.13,0,.3,0,.49,0,.91.15,1.86.29,2.84.43,2.78.4,5.32.7,7.79.93A89.37,89.37,0,0,0,30.74,4c2.3-.27,4.65-.58,7-.95A4.08,4.08,0,0,0,38.21,3a6.93,6.93,0,0,1,.89-.16c0-.08,0-.14.12-.16a.16.16,0,0,1,.19,0c0,.05.12.2.07.3l0,.07h-.11c.05,4.44,0,9,0,13.32,0,2.08,0,4.17,0,6.25l.22.05h0v-20a.09.09,0,0,0,0-.08.14.14,0,0,0-.13,0,113.58,113.58,0,0,1-19.49,2A113.6,113.6,0,0,1,.42,2.55ZM39.33,22.89v.16a.11.11,0,0,0,.13.11h0s0,0,0,0a.14.14,0,0,0,0-.14s0,0-.08-.06h0ZM.64,3.14A8.44,8.44,0,0,0,.7,4.46c0,.28.05.51.05.69V21.49c0,.14,0,.29,0,.44s0,.46,0,.69a22.07,22.07,0,0,0,3.06-.54c.69-.16,1.41-.32,2.1-.43a89,89,0,0,1,33.19.93c0-2.07,0-4.13,0-6.2,0-4.37,0-8.88,0-13.32a4.09,4.09,0,0,0-.81.15c-.18,0-.36.09-.51.11-2.33.36-4.69.68-7,.95A89.86,89.86,0,0,1,12,4.57C9.54,4.34,7,4,4.21,3.64L1.36,3.21c-.18,0-.34,0-.46,0Z"/><path class="cls-1" d="M39.39.14C29.55,2.77,18.6,2.51,8.58,1.47c-.32,0-.31.47,0,.5C18.64,3,29.64,3.27,39.52.62a.25.25,0,0,0-.13-.48Z"/><path class="cls-1" d="M21.74,2.84A129.38,129.38,0,0,1,8.57,2.1a.4.4,0,0,1-.28-.62.33.33,0,0,1,.31-.13C21.29,2.66,31.07,2.24,39.36,0l0,.13,0-.13a.38.38,0,0,1,.45.27.36.36,0,0,1-.26.46A68.49,68.49,0,0,1,21.74,2.84ZM8.55,1.6a.06.06,0,0,0-.06,0,.14.14,0,0,0,0,.14.13.13,0,0,0,.11.08C21.33,3.16,31.15,2.73,39.49.5a.11.11,0,0,0,.08-.15.12.12,0,0,0-.15-.09C31.1,2.48,21.3,2.91,8.57,1.6Z"/><path class="cls-1" d="M.47,25.36l-.19-.72a65.84,65.84,0,0,1,12.41-1.86l0,.75A65.75,65.75,0,0,0,.47,25.36Z"/><path class="cls-1" d="M14.15,9.2c0-.1.07-.13.15-.18a.39.39,0,0,1,.21.08,1.2,1.2,0,0,1,.18.26l.31.47,1.17,1.81.34.54.16.25h0a1.54,1.54,0,0,1,.08-.19l.18-.45.85-2c.08-.17.24-.78.5-.73s.39.57.48.77c.37.86.74,1.73,1.12,2.6h0c.39-.9.77-1.79,1.16-2.68.08-.17.24-.75.51-.71s.38.63.46.81c.37.86.73,1.73,1.1,2.59h0L25,9.66c.09-.14.44-.84.68-.59a.31.31,0,0,1,.06.23c-.11.54-.23,1.09-.34,1.63l-.75,3.52-.27,1.32a5.05,5.05,0,0,0-.12.56h0s-.07,0-.1,0H20.19a.8.8,0,0,0-.27,0H16.76a7.76,7.76,0,0,1-1.1,0c-.06-.05-.09-.27-.1-.35-.07-.36-.15-.72-.23-1.09-.3-1.39-.59-2.79-.89-4.19-.08-.35-.15-.71-.23-1.07A1.09,1.09,0,0,1,14.15,9.2Z"/></g></g></svg>