<svg xmlns="http://www.w3.org/2000/svg" viewBox="0 0 66.02 66.02"><defs><style>.cls-1{fill:#fff;}</style></defs><g id="Layer_2" data-name="Layer 2"><g id="Layer_1-2" data-name="Layer 1"><path class="cls-1" d="M33,0A33,33,0,1,0,66,33,33,33,0,0,0,33,0ZM24.27,9.84c0-.15.12-.2.23-.27a.58.58,0,0,1,.31.13,1.49,1.49,0,0,1,.28.38l.47.72,1.77,2.74c.17.28.35.55.52.82l.24.38h.05c0-.1.07-.19.11-.29s.19-.45.28-.68l1.29-3c.11-.26.36-1.19.76-1.12s.59.88.72,1.17c.57,1.31,1.13,2.63,1.7,3.94h0c.59-1.35,1.17-2.7,1.75-4.06.12-.26.37-1.14.78-1.07s.58.95.7,1.22l1.65,3.93h0l2.7-4.19c.14-.22.67-1.28,1-.9a.43.43,0,0,1,.09.35c-.17.82-.35,1.64-.52,2.46q-.56,2.67-1.13,5.34l-.42,2a5.81,5.81,0,0,0-.17.85h0s-.11,0-.15,0H33.42a1.3,1.3,0,0,0-.4,0H28.24a12.91,12.91,0,0,1-1.69,0c-.08-.07-.12-.41-.14-.52-.11-.55-.23-1.1-.35-1.65l-1.35-6.35c-.11-.54-.23-1.08-.34-1.63A1.68,1.68,0,0,1,24.27,9.84ZM33,23.18A9.77,9.77,0,1,1,23.24,33,9.76,9.76,0,0,1,33,23.18ZM48,56.12S18,56.38,18,56.12V53.38c0-4.44,6.35-8.08,14.12-8.08h1.82C41.69,45.3,48,48.94,48,53.38Z"/></g></g></svg>