<svg xmlns="http://www.w3.org/2000/svg" viewBox="0 0 34.92 34.62"><defs><style>.cls-1{fill:#434345;}.cls-2{fill:#fff;}</style></defs><g id="Layer_2" data-name="Layer 2"><g id="Layer_1-2" data-name="Layer 1"><path class="cls-1" d="M33.29,12.41a7.9,7.9,0,0,1-.91-.48A2.66,2.66,0,0,1,31.09,9c.08-.42.2-.83.28-1.26a2.52,2.52,0,0,0-1.79-3,6.19,6.19,0,0,0-2,0,2.78,2.78,0,0,1-3.09-1.95c-.12-.34-.22-.68-.36-1A2.65,2.65,0,0,0,20.05.56l-.93.72a2.67,2.67,0,0,1-3.26,0c-.37-.26-.7-.56-1.07-.81a2.62,2.62,0,0,0-4,1.22c-.16.42-.3.85-.47,1.26A2.67,2.67,0,0,1,7.48,4.67l-1.07-.1A2.63,2.63,0,0,0,3.57,7.7c.08.43.2.84.29,1.26a2.7,2.7,0,0,1-1.41,3c-.38.2-.77.39-1.14.6a2.68,2.68,0,0,0-.77,3.88c.4.41.78.84,1.2,1.23a2.62,2.62,0,0,1,.43,3.12c-.23.41-.47.81-.68,1.22a2.62,2.62,0,0,0,1.7,3.72c.47.12.95.18,1.42.31a2.58,2.58,0,0,1,2,2.14c.09.51.08,1,.13,1.56a2.61,2.61,0,0,0,3.54,2.29c.42-.15.83-.33,1.26-.48a2.66,2.66,0,0,1,3,.87c.29.37.55.75.84,1.12a2.6,2.6,0,0,0,4,.23,10.19,10.19,0,0,0,.85-1.11,2.72,2.72,0,0,1,3.46-1c.35.14.7.29,1.06.41A2.64,2.64,0,0,0,28.18,30c.06-.48.06-1,.09-1.45a2.27,2.27,0,0,1,1-1.89,6.22,6.22,0,0,1,2-.74c2.27-.48,3.12-2.33,1.94-4.33a9.56,9.56,0,0,1-.57-1.1,2.77,2.77,0,0,1,1.13-3.3A2.74,2.74,0,0,0,33.29,12.41Z"/><path class="cls-2" d="M9.17,15,8.8,16.84h2.68l-.13.65H8.67l-.43,2.16H7.48l1.07-5.33h3.76l-.13.66Z"/><path class="cls-2" d="M15.73,17.91l1,1.74h-.8L15,18H13.4l-.32,1.63h-.77l1.07-5.33h2c1.25,0,2,.57,2,1.56A2,2,0,0,1,15.73,17.91Zm.84-2c0-.64-.46-1-1.27-1H14l-.48,2.39h1.32C15.93,17.37,16.57,16.88,16.57,16Z"/><path class="cls-2" d="M19.53,15l-.33,1.64h2.68l-.13.64H19.07L18.73,19h3.12l-.13.66H17.84l1.07-5.33h3.76l-.13.66Z"/><path class="cls-2" d="M24.63,15l-.33,1.64H27l-.13.64H24.17L23.83,19h3.11l-.13.66H22.94L24,14.32h3.76l-.12.66Z"/></g></g></svg>