<svg xmlns="http://www.w3.org/2000/svg" viewBox="0 0 44.69 28.15"><defs><style>.cls-1{fill:#434345;}</style></defs><g id="Layer_2" data-name="Layer 2"><g id="Layer_1-2" data-name="Layer 1"><path class="cls-1" d="M6.79,24.86l-.06-.17L.17,5.35A.75.75,0,0,1,.4,4.52a.74.74,0,0,1,.85-.08l9.93,5.41,2.55-6.34A.76.76,0,0,1,15,3.29l7,7.86L28.78,4.9A.76.76,0,0,1,29.87,5l5.26,6,8.35-4a.75.75,0,0,1,.85.13A.77.77,0,0,1,44.5,8L37.34,24.29ZM.88,4.84a.24.24,0,0,0-.16.06.28.28,0,0,0-.08.29L7.15,24.35,37,23.79l7-16a.26.26,0,0,0-.35-.33L35,11.62,29.49,5.29a.28.28,0,0,0-.18-.09.23.23,0,0,0-.19.07L22,11.86,14.63,3.62a.24.24,0,0,0-.24-.08.25.25,0,0,0-.2.16l-2.76,6.86L1,4.87Z"/><path class="cls-1" d="M6.7,25l-.08-.26L.05,5.39A.88.88,0,0,1,1.31,4.33l9.8,5.35,2.5-6.22a.92.92,0,0,1,.67-.54.88.88,0,0,1,.81.28L22,11,28.7,4.81a.84.84,0,0,1,.64-.23.88.88,0,0,1,.63.3l5.19,6,8.26-4a.88.88,0,0,1,1.19,1.16L37.42,24.41ZM.88,4.47a.6.6,0,0,0-.4.15.64.64,0,0,0-.2.69l6.6,19.42,30.38-.57L44.38,8a.63.63,0,0,0-.85-.83l-8.44,4-5.31-6.1a.65.65,0,0,0-.45-.22.6.6,0,0,0-.46.17L22,11.33l-.09-.1-7-7.86a.65.65,0,0,0-.59-.2.62.62,0,0,0-.47.39L11.24,10l-10-5.48A.58.58,0,0,0,.88,4.47Zm6.18,20L.52,5.22a.37.37,0,0,1,.12-.41.36.36,0,0,1,.24-.09.41.41,0,0,1,.19,0l10.3,5.63,2.71-6.74a.35.35,0,0,1,.29-.23.36.36,0,0,1,.35.12L22,11.68l7-6.5a.33.33,0,0,1,.29-.1.36.36,0,0,1,.26.13L35,11.46l8.61-4.12a.38.38,0,0,1,.43.07.4.4,0,0,1,.09.43L37.09,23.92ZM.88,5A.12.12,0,0,0,.8,5a.11.11,0,0,0,0,.14L7.24,24.23l29.69-.56,7-15.93a.15.15,0,0,0,0-.15.14.14,0,0,0-.16,0L35,11.77,29.4,5.37a.15.15,0,0,0-.09,0,.12.12,0,0,0-.1,0L22,12l-.08-.1L14.53,3.7a.13.13,0,0,0-.12,0,.14.14,0,0,0-.1.08l-2.82,7L1,5Z"/><path class="cls-1" d="M8.13,28H23.9a.25.25,0,0,0,0-.5H8.13a.25.25,0,0,0,0,.5Z"/><path class="cls-1" d="M23.9,28.15H8.13a.38.38,0,0,1,0-.75H23.9a.38.38,0,0,1,0,.75Zm-15.77-.5a.12.12,0,0,0-.12.12.12.12,0,0,0,.12.13H23.9a.12.12,0,0,0,.12-.13.12.12,0,0,0-.12-.12Z"/><path class="cls-1" d="M38.62,6.42l3.76-2.83c.26-.19,0-.62-.25-.43L38.36,6c-.25.19,0,.63.26.43Z"/><path class="cls-1" d="M38.48,6.6l-.12,0a.41.41,0,0,1-.23-.32.4.4,0,0,1,.16-.36l3.77-2.83a.32.32,0,0,1,.47.07.39.39,0,0,1-.07.56L38.69,6.52A.34.34,0,0,1,38.48,6.6Zm3.78-3.36,0,0L38.44,6.09a.13.13,0,0,0-.06.13.14.14,0,0,0,.08.12s0,0,.08,0l3.77-2.83a.15.15,0,0,0,0-.21A.09.09,0,0,0,42.26,3.24Z"/><path class="cls-1" d="M39,3.44l1.12-3c.11-.3-.38-.43-.49-.14l-1.11,3c-.11.3.37.43.48.13Z"/><path class="cls-1" d="M38.74,3.74a.39.39,0,0,1-.3-.14.32.32,0,0,1,0-.33l1.12-3A.36.36,0,0,1,39.8,0a.37.37,0,0,1,.37.13.3.3,0,0,1,0,.33l-1.11,3a.37.37,0,0,1-.3.24ZM39.87.25h0a.13.13,0,0,0-.1.09l-1.11,3c0,.05,0,.07,0,.08a.17.17,0,0,0,.14.05.13.13,0,0,0,.1-.09L40,.38s0-.07,0-.08A.14.14,0,0,0,39.87.25Z"/><path class="cls-1" d="M6,2.8,8.86,6.57c.19.25.62,0,.43-.25L6.46,2.55c-.19-.26-.63,0-.43.25Z"/><path class="cls-1" d="M9.07,6.8a.37.37,0,0,1-.31-.16L5.93,2.87a.3.3,0,0,1,0-.32.4.4,0,0,1,.32-.23.39.39,0,0,1,.36.15L9.39,6.24a.33.33,0,0,1-.07.48A.44.44,0,0,1,9.07,6.8ZM6.25,2.57h0a.13.13,0,0,0-.12.07s0,0,0,.08L9,6.49a.15.15,0,0,0,.21,0,.09.09,0,0,0,0-.13L6.36,2.62A.15.15,0,0,0,6.25,2.57Z"/><path class="cls-1" d="M10.21,2,10,5.16c0,.32.48.32.5,0L10.71,2c0-.32-.48-.32-.5,0Z"/><path class="cls-1" d="M10.25,5.53h0a.34.34,0,0,1-.33-.37l.2-3.22a.37.37,0,0,1,.2-.31.41.41,0,0,1,.4,0,.36.36,0,0,1,.15.31l-.2,3.21A.38.38,0,0,1,10.25,5.53Zm.23-3.69H10.4a.11.11,0,0,0-.06.11l-.2,3.21a.09.09,0,0,0,.1.11.14.14,0,0,0,.15-.12l.2-3.22a.08.08,0,0,0,0-.08A.1.1,0,0,0,10.48,1.84Z"/></g></g></svg>