<svg xmlns="http://www.w3.org/2000/svg" viewBox="0 0 38.4 43.53"><defs><style>.cls-1{fill:#434345;}</style></defs><g id="Layer_2" data-name="Layer 2"><g id="Layer_1-2" data-name="Layer 1"><path class="cls-1" d="M37.17,8.51H27.42c.2-1.14.39-2.21.56-3.3a.81.81,0,0,1,.43-.6C30.48,3.39,32.54,2.15,34.6.92c.11-.07.27-.13.32-.23a.71.71,0,0,0,0-.51A.67.67,0,0,0,34.49,0c-.13,0-.26.12-.38.2-1.88,1.12-3.72,2.29-5.64,3.34A2.25,2.25,0,0,0,27,5.65,2.14,2.14,0,0,1,27,6c-.14.83-.29,1.66-.44,2.51H16.89a3,3,0,0,0-.52,0,1.08,1.08,0,0,0,.05,2.16h.52c.27,1.93.61,6,.87,7.88,0,0,.74-1,.81-1-.1-.78-.21-2.52-.32-3.29-.16-1.16-.31-2.32-.47-3.51H36c-1.12,9.22-2.22,18.4-3.33,27.6H22.46a11.08,11.08,0,0,0-1.11.89s7.48,0,7.79,0c1.24,0,2.49,0,3.74,0,.36,0,.57-.12.62-.51.25-2.18.52-4.36.79-6.55q.62-5.25,1.25-10.52.42-3.48.86-7c.16-1.3.31-2.61.48-4h.5a1.09,1.09,0,1,0-.21-2.17Z"/><g id="_48DHm6" data-name="48DHm6"><path class="cls-1" d="M5.59,32.66l.33,1.08-2.72.75a2.75,2.75,0,0,0,1.1,5.39c.51-.08,1-.23,1.53-.35a12.23,12.23,0,0,1,0-1.35A4.59,4.59,0,0,1,9,34a27.83,27.83,0,0,0,5.09-2.32,36.8,36.8,0,0,0,3.36-2.35,26.32,26.32,0,0,0,5.87-6.49,4.61,4.61,0,0,1,4.48-2.12l.37.05.41.06a6.27,6.27,0,0,0,0-.74,2.74,2.74,0,0,0-5.11-1.19c-.43.71-.83,1.42-1.27,2.13-.24.4-.56.49-.86.29s-.32-.51-.09-.89l1.66-2.77a3.68,3.68,0,0,0-3.43,1.59c-1,1.39-2,2.78-3.18,4.08a22.3,22.3,0,0,1-4.75,4.07c-1.18.75-2.38,1.48-3.63,2.12a25.58,25.58,0,0,1-3.07,1.24,3.86,3.86,0,0,0-2.15,1.71c-.22.38-.53.48-.84.3a.57.57,0,0,1-.14-.85A4.74,4.74,0,0,1,4.49,29.7a16.6,16.6,0,0,0,2.43-1,37.19,37.19,0,0,0,3.35-1.81,26.27,26.27,0,0,0,8.11-8A4.79,4.79,0,0,1,24,16.7a.82.82,0,0,0,.44,0A3.89,3.89,0,0,1,29.66,21a.51.51,0,0,0,.19.42,4.75,4.75,0,0,1,1.36,6.79,48.72,48.72,0,0,1-3.47,4.58,35.9,35.9,0,0,1-15.69,10.3,7.63,7.63,0,0,1-6.13-.41l-.18-.1a.58.58,0,0,1-.29-.84c.16-.29.48-.35.84-.14a6,6,0,0,0,4.73.58,30.07,30.07,0,0,0,4.1-1.51,33.68,33.68,0,0,0,10.27-7.08c1-1,1.92-2.07,2.81-3.16a35.59,35.59,0,0,0,2.12-2.92,3.61,3.61,0,0,0-1-5.1,3.67,3.67,0,0,0-5.1,1.12,29.86,29.86,0,0,1-4.81,5.66A28.16,28.16,0,0,1,9.52,35,3.66,3.66,0,0,0,7.1,39.65c.1.34.05.65-.31.76A9.51,9.51,0,0,1,3.67,41,3.92,3.92,0,0,1,0,37.73a3.87,3.87,0,0,1,2.63-4.25C3.61,33.18,4.58,32.94,5.59,32.66Z"/><path class="cls-1" d="M7.44,34.11A.73.73,0,0,1,7,34a.82.82,0,0,1-.26-1.21l.14-.27a6,6,0,0,1,1.27-1.81,2.2,2.2,0,0,1,1.6-.66l.84,0h.25c1.07.18,1.23,0,1.52-.77.14-.38.31-.74.47-1.1l0-.08a2.12,2.12,0,0,1,1.87-1.25c.26,0,.51,0,.77,0H16c.53,0,.61-.1.65-.62V26c0-.29.05-.58.09-.86a1.85,1.85,0,0,1,1.64-1.64l.6-.07.41,0c.28,0,.32-.08.32-.09s0,0,0-.33-.07-.29-.11-.43-.1-.34-.14-.51a1.06,1.06,0,0,1,0-.7c.1-.19.36-.57.67-.58a1,1,0,0,1,.82.51A10,10,0,0,1,21.29,23a1.66,1.66,0,0,1-1.4,2q-.36.06-.72.09l-.39,0c-.4,0-.45.09-.5.49,0,.16,0,.33,0,.49s0,.4-.06.6a1.88,1.88,0,0,1-1.83,1.76,8.35,8.35,0,0,1-1,0c-.74,0-1,.16-1.23.84l-.12.34-.18.54a2.26,2.26,0,0,1-2.37,1.59c-.35,0-.79-.05-1.24-.11a1.24,1.24,0,0,0-1.27.62c-.18.27-.35.58-.51.87l-.21.38a1.05,1.05,0,0,1-.6.55Zm2.29-3.56a1.74,1.74,0,0,0-1.21.54,5.25,5.25,0,0,0-1.15,1.66L7.22,33c-.21.39,0,.49.06.54a.33.33,0,0,0,.21,0,.68.68,0,0,0,.3-.31l.2-.37A10.54,10.54,0,0,1,8.53,32a1.69,1.69,0,0,1,1.74-.83c.43.05.87.08,1.2.1A1.77,1.77,0,0,0,13.35,30l.18-.52.11-.35A1.48,1.48,0,0,1,15.32,28a7.85,7.85,0,0,0,1,0,1.37,1.37,0,0,0,1.39-1.33,5.25,5.25,0,0,0,0-.57c0-.17,0-.34.05-.51.08-.63.3-.85.93-.93l.41,0c.22,0,.44,0,.66-.08a1.17,1.17,0,0,0,1-1.41,8.72,8.72,0,0,0-.4-1.62.53.53,0,0,0-.32-.18h0a.73.73,0,0,0-.24.3.94.94,0,0,0,0,.31c.05.22.1.38.15.55l.12.44a.92.92,0,0,1,0,.74.87.87,0,0,1-.66.29L19,24c-.19,0-.38,0-.57.06a1.36,1.36,0,0,0-1.22,1.23,7.34,7.34,0,0,0-.09.82v.21c-.06.78-.36,1.06-1.14,1.08h-.43c-.25,0-.49,0-.73,0a1.61,1.61,0,0,0-1.45,1l0,.08c-.15.35-.32.7-.45,1.06-.39,1.08-.82,1.31-2,1.09h-.2l-.85,0Z"/><path class="cls-1" d="M12.31,38.83a.56.56,0,0,1,.5.65.53.53,0,0,1-.64.45.56.56,0,0,1-.5-.65A.54.54,0,0,1,12.31,38.83Z"/><path class="cls-1" d="M10,40.84a.54.54,0,0,1-.61.49.58.58,0,0,1-.53-.63.56.56,0,0,1,.62-.49A.57.57,0,0,1,10,40.84Z"/><path class="cls-1" d="M9.83,38.29a.51.51,0,0,1-.62.47.54.54,0,0,1-.49-.65.5.5,0,0,1,.6-.45A.54.54,0,0,1,9.83,38.29Z"/></g></g></g></svg>