<svg xmlns="http://www.w3.org/2000/svg" viewBox="0 0 33.25 26.91"><defs><style>.cls-1{fill:#434345;}</style></defs><g id="Layer_2" data-name="Layer 2"><g id="Layer_1-2" data-name="Layer 1"><path class="cls-1" d="M14.23,10.28,8.33,23.73H6.43L.51,10.28H2.59l4.84,11,4.88-11Z"/><path class="cls-1" d="M15.93,10.28h1.92V23.73H15.93Z"/><path class="cls-1" d="M32.74,15c0,2.92-2.11,4.68-5.61,4.68H23.81v4.08H21.89V10.28h5.24C30.63,10.28,32.74,12.05,32.74,15Zm-1.92,0c0-1.92-1.29-3-3.75-3H23.81v6h3.26C29.53,18,30.82,16.89,30.82,15Z"/><path class="cls-1" d="M.62,26.78h32c.65,0,.65-.35,0-.35H.62c-.66,0-.66.35,0,.35Z"/><path class="cls-1" d="M32.63,26.91H.62c-.46,0-.62-.16-.62-.31s.16-.3.62-.3h32c.46,0,.62.16.62.3S33.09,26.91,32.63,26.91ZM.28,26.6a.72.72,0,0,0,.34.06h32A.72.72,0,0,0,33,26.6a1,1,0,0,0-.34-.05H.62A1,1,0,0,0,.28,26.6Z"/><path class="cls-1" d="M13.05,7.5c-.51,0-.57,0-.64-.08A.68.68,0,0,1,12.24,7L10.93.81a.86.86,0,0,1,0-.43.49.49,0,0,1,.23-.33l.09,0h.11a.63.63,0,0,1,.32.14.9.9,0,0,1,.18.23L13.5,3l.89-2.1a.83.83,0,0,0,0-.12c.11-.3.28-.8.71-.74s.48.46.59.76l0,.12.85,2L17.54.75c.11-.28.3-.8.73-.73s.45.45.57.77l.05.14L19.75,3,21.24.67c.19-.32.39-.63.67-.66a.42.42,0,0,1,.34.12.5.5,0,0,1,.12.41L21,6.88c0,.12-.05.23-.06.35v.24h-.19a.3.3,0,0,1-.16,0H16.72l0,0H13.05Zm-.3-.5H16.6a1,1,0,0,1,.23,0H20.5c0-.07,0-.14.05-.2l.29-1.39,1-4.72-.17.26-.46.73L19.85,3.76h-.3l-.08-.16-1-2.47s0-.09-.06-.16-.12-.31-.18-.42A2.46,2.46,0,0,0,18,.92.48.48,0,0,1,18,1L16.8,3.74h-.33l-.08-.15L15.32,1.12A1.16,1.16,0,0,0,15.26,1a1.45,1.45,0,0,0-.19-.4A2.57,2.57,0,0,0,14.9,1l-.05.13L13.74,3.76h-.31l-.11-.12L11.4.66v0l0,.12,1.28,6.05Z"/></g></g></svg>