<svg xmlns="http://www.w3.org/2000/svg" viewBox="0 0 52.5 27"><defs><style>.cls-1{fill:#434345;}.cls-2{fill:#fff;}</style></defs><g id="Layer_2" data-name="Layer 2"><g id="Layer_1-2" data-name="Layer 1"><polygon class="cls-1" points="52.5 27 20.22 27 20.22 26 51.5 26 51.5 1 33.8 1 33.8 0 52.5 0 52.5 27"/><rect class="cls-1" x="11.12" y="5.04" width="17.26" height="1"/><rect class="cls-1" y="13" width="17.26" height="1"/><rect class="cls-1" x="7.51" y="20.96" width="11.63" height="1"/><path class="cls-1" d="M23.33,22.24,32.14,4.91H42.68A7,7,0,0,0,47.74,10v7.22s-3.32.73-5.2,5.06C42.54,22.09,23.33,22.24,23.33,22.24Z"/><path class="cls-2" d="M29.41,15.6l.34-.62a2.66,2.66,0,0,0,1.75.62c.87,0,1.45-.33,1.45-.92,0-1.12-2.76-.55-2.76-2.27,0-1,.92-1.67,2.24-1.67a3.22,3.22,0,0,1,1.73.45l-.3.63a2.57,2.57,0,0,0-1.47-.43c-.88,0-1.45.38-1.45.95,0,1.13,2.77.59,2.77,2.23,0,1-.94,1.68-2.28,1.68A3.14,3.14,0,0,1,29.41,15.6Z"/><path class="cls-2" d="M38.3,14.84H35.42l-.86,1.35h-.83l3.53-5.39H38l1.37,5.39h-.77Zm-.15-.61-.64-2.66-1.7,2.66Z"/><path class="cls-2" d="M43.65,14.43l1,1.76h-.82l-.94-1.65H41.29L41,16.19h-.78l1.08-5.39h2c1.26,0,2,.58,2,1.58A2,2,0,0,1,43.65,14.43Zm.85-2c0-.65-.46-1-1.29-1h-1.3l-.49,2.42h1.34C43.86,13.89,44.5,13.39,44.5,12.45Z"/></g></g></svg>