<svg xmlns="http://www.w3.org/2000/svg" viewBox="0 0 14.06 16.67"><defs><style>.cls-1{fill:#434345;}</style></defs><g id="Layer_2" data-name="Layer 2"><g id="Layer_1-2" data-name="Layer 1"><path class="cls-1" d="M10.75,6.45c.07.08.15.13.18.2.09.25.14.51.25.74A10.53,10.53,0,0,0,12,8.89,7.8,7.8,0,0,0,13.11,10c.22.21.48.37.7.57a.7.7,0,0,1-.19,1.19l-.15.06L2.84,16.24a1.43,1.43,0,0,1-.39.11.7.7,0,0,1-.74-.75c0-.31.05-.62.09-.92a5,5,0,0,0-.36-2.75c-.28-.62-.55-1.23-.79-1.86A7.36,7.36,0,0,1,.16,8.71,8.48,8.48,0,0,1,0,7.22a5.38,5.38,0,0,1,10-2.6c.29.52.5,1.09.75,1.64A.6.6,0,0,1,10.75,6.45ZM8,13.61,11.89,12l1.41-.59c.37-.16.4-.34.1-.59a6.9,6.9,0,0,0-.6-.47,6.5,6.5,0,0,1-2.15-3.06A19.75,19.75,0,0,0,9.7,5,4.93,4.93,0,0,0,.45,7.71,12,12,0,0,0,1.59,11.1c.22.62.46,1.24.63,1.88a6.51,6.51,0,0,1,0,2.41c-.06.51.08.61.55.41Z"/><path class="cls-1" d="M9.21,16.39a2.88,2.88,0,0,1-1.88.19,3.63,3.63,0,0,1-.84-.46c-.06,0,0-.21,0-.31s.24-.06.31,0A2.46,2.46,0,0,0,10.15,15a2.24,2.24,0,0,0,.23-.69c0-.16.07-.3.25-.28s.22.16.21.32a2.31,2.31,0,0,1-1.17,1.74A3.88,3.88,0,0,1,9.21,16.39Z"/><path class="cls-1" d="M2.5.54a1,1,0,0,0-.56,1.2c.05.17.1.34-.13.39S1.54,2,1.5,1.84A1.46,1.46,0,0,1,2.33.11,1.47,1.47,0,0,1,4.16.75c.09.15.15.3,0,.41s-.28,0-.36-.16A1,1,0,0,0,2.5.54Z"/><path class="cls-1" d="M1.63,8.63a3.92,3.92,0,0,1,2-4.84c.05,0,.11-.07.15-.06s.2.07.3.1-.06.24-.13.29c-.22.16-.48.26-.7.42A3.51,3.51,0,0,0,2,8.46s.09.11.09.16,0,.3-.08.34a.22.22,0,0,1-.34-.15Z"/></g></g></svg>