<svg xmlns="http://www.w3.org/2000/svg" viewBox="0 0 13.26 14"><defs><style>.cls-1{fill:#434345;}.cls-2{fill:none;stroke:#434345;stroke-miterlimit:10;stroke-width:0.5px;}</style></defs><g id="Layer_2" data-name="Layer 2"><g id="Layer_1-2" data-name="Layer 1"><circle class="cls-1" cx="6.63" cy="4.42" r="0.74"/><circle class="cls-1" cx="9.58" cy="4.42" r="0.74"/><circle class="cls-1" cx="12.53" cy="4.42" r="0.74"/><circle class="cls-1" cx="0.74" cy="7.37" r="0.74"/><circle class="cls-1" cx="3.68" cy="7.37" r="0.74"/><circle class="cls-1" cx="6.63" cy="7.37" r="0.74"/><circle class="cls-1" cx="9.58" cy="7.37" r="0.74"/><circle class="cls-1" cx="12.53" cy="7.37" r="0.74"/><circle class="cls-1" cx="0.74" cy="10.32" r="0.74"/><circle class="cls-1" cx="3.68" cy="10.32" r="0.74"/><circle class="cls-1" cx="6.63" cy="10.32" r="0.74"/><circle class="cls-1" cx="9.58" cy="10.32" r="0.74"/><circle class="cls-1" cx="12.53" cy="10.32" r="0.74"/><circle class="cls-1" cx="0.74" cy="13.26" r="0.74"/><circle class="cls-1" cx="3.68" cy="13.26" r="0.74"/><circle class="cls-1" cx="6.63" cy="13.26" r="0.74"/><circle class="cls-1" cx="9.58" cy="13.26" r="0.74"/><line class="cls-2" y1="1.77" x2="13.26" y2="1.77"/><line class="cls-2" x1="2.65" y1="1.77" x2="2.65"/><line class="cls-2" x1="10.17" y1="1.77" x2="10.17"/></g></g></svg>