<svg xmlns="http://www.w3.org/2000/svg" viewBox="0 0 15.6 15.6"><defs><style>.cls-1{fill:#434345;}</style></defs><g id="Layer_2" data-name="Layer 2"><g id="Layer_1-2" data-name="Layer 1"><g id="uAh3UP"><path class="cls-1" d="M15.6,7.8A7.8,7.8,0,1,1,7.84,0,7.79,7.79,0,0,1,15.6,7.8ZM7.8,15.12A7.32,7.32,0,1,0,.48,7.73,7.31,7.31,0,0,0,7.8,15.12Z"/><path class="cls-1" d="M7.8,1.44A6.36,6.36,0,1,1,1.44,7.8,6.36,6.36,0,0,1,7.8,1.44Zm0,.48a5.88,5.88,0,1,0,5.87,5.87A5.88,5.88,0,0,0,7.81,1.92Z"/><path class="cls-1" d="M8,5.46V7.75A.3.3,0,0,1,7.87,8L5.14,9.62a.26.26,0,0,1-.37-.07.24.24,0,0,1,.12-.34l1.52-.88L7.5,7.7a.2.2,0,0,0,.06-.11,1.08,1.08,0,0,0,0-.18V3.13a.24.24,0,0,1,.15-.25A.2.2,0,0,1,8,2.93.44.44,0,0,1,8,3.15V5.46Z"/></g></g></g></svg>