<svg xmlns="http://www.w3.org/2000/svg" viewBox="0 0 52.06 52.15"><defs><style>.cls-1{fill:#434345;stroke:#000;stroke-miterlimit:10;stroke-width:0.25px;}</style></defs><g id="Layer_2" data-name="Layer 2"><g id="Layer_1-2" data-name="Layer 1"><path class="cls-1" d="M18.93,52a6,6,0,0,1-.74-.34,4.68,4.68,0,0,0-5.08,0,1.08,1.08,0,0,1-1.61-.2L.63,40.58C0,40,0,39.64.43,38.87A4.61,4.61,0,0,0,.43,34C0,33.19,0,32.88.64,32.26c2.55-2.56,5.12-5.1,7.67-7.66L32,.87C33-.06,33-.06,34.18.55A4.55,4.55,0,0,0,38.8.47C39.69,0,40,0,40.66.71L51.31,11.36c.76.75.78,1,.27,1.9a4.58,4.58,0,0,0,0,4.8c.47.82.44,1.1-.21,1.75q-3.46,3.5-6.92,7Q32.15,39.1,19.82,51.38A6,6,0,0,1,18.93,52Zm-2.88-5.83,30.09-30.1-.69-.71-30,30ZM6.58,36.75q15.1-15.12,30.05-30L36,5.91,6,36Zm26-13,3.53-3.39-.87-1L32.8,21.89l-1.09-1,2.19-2.06-.91-1-2,2.25L29.86,19l2.42-2.33-.75-.79L28.1,19.29Zm-5.17,1.47c.91.16,1.81.32,2.72.46a1.19,1.19,0,0,0,.78,0,8.46,8.46,0,0,0,1.05-1.09l-4.69-.7V20.11A2.18,2.18,0,0,0,26,22.46a20.38,20.38,0,0,1,0,2.73l-1.84-2-1,.83,4.51,4.62,1-.93C28.21,27,27,26.58,27.39,25.22Zm-4.46,1.72-.1-1.2c-1.39-.43-3.56,1.66-3.58,3.25a3.57,3.57,0,0,0,3.63,3.63,3.48,3.48,0,0,0,3.24-3.68c-1.06-.2-1.07-.19-1.39.83a2,2,0,0,1-2,1.41,2.24,2.24,0,0,1-2-1.89A1.83,1.83,0,0,1,22,27.23C22.28,27.13,22.57,27.05,22.93,26.94ZM44.51,12.2l-.09-.2A15.54,15.54,0,0,1,43,11a1.33,1.33,0,0,1-.39-.78,18.38,18.38,0,0,1,0-1.84c-.5.37-.93.64-1.31,1a1,1,0,0,1-1.22.2c-.47-.21-1-.33-1.59-.53.21.65.36,1.16.56,1.66a.9.9,0,0,1-.15,1.05c-.36.41-.67.87-1.07,1.4a10.53,10.53,0,0,0,1.39,0,1.34,1.34,0,0,1,1.52.76A8.67,8.67,0,0,0,41.5,15l.18.06A2.59,2.59,0,0,1,44.51,12.2ZM13.13,37.84a18.22,18.22,0,0,1-1.52,1.1,1.15,1.15,0,0,1-.79.13c-.57-.14-1.12-.36-1.81-.59a18.22,18.22,0,0,1,.58,1.79,1.33,1.33,0,0,1-.15.85,17.28,17.28,0,0,1-1.07,1.49c.69,0,1.26,0,1.83,0A.82.82,0,0,1,11,43c.3.48.65.93,1.05,1.5.19-.6.38-1.06.48-1.53a1.07,1.07,0,0,1,.94-1,12.6,12.6,0,0,0,1.54-.48c-.58-.42-1.08-.72-1.51-1.1a1.38,1.38,0,0,1-.39-.78A18.38,18.38,0,0,1,13.13,37.84Zm20-21.69,1.43-1.58,3.59,3.68,1-.9-3.73-3.67,1.46-1.31-.83-1L32.18,15.2Zm-17.06,17-.84-.94L11.41,36l.86,1,1.39-1.6L17.24,39l1.28-.9-3.87-3.74ZM21.57,35,17,30.36l-.91.81,4.61,4.64Z"/></g></g></svg>