<svg xmlns="http://www.w3.org/2000/svg" viewBox="0 0 12 9.41"><defs><style>.cls-1{fill:#434345;}</style></defs><g id="Layer_2" data-name="Layer 2"><g id="Layer_1-2" data-name="Layer 1"><g id="_9FYYuG.tif" data-name="9FYYuG.tif"><path class="cls-1" d="M0,4.46a1.33,1.33,0,0,1,1-1,1.28,1.28,0,0,1,.64,2.47A1.3,1.3,0,0,1,.06,5.1.84.84,0,0,0,0,5Z"/><path class="cls-1" d="M0,7.89a1.39,1.39,0,0,1,.87-1,1.28,1.28,0,0,1,1.62.77,1.3,1.3,0,0,1-.74,1.65A1.31,1.31,0,0,1,.08,8.59L0,8.39Z"/><path class="cls-1" d="M0,1A1.31,1.31,0,0,1,1.06,0a1.28,1.28,0,0,1,.6,2.48,1.3,1.3,0,0,1-1.6-.83L0,1.53Z"/><path class="cls-1" d="M7.71,2.13H3.84c-.38,0-.41,0-.41-.4V.82c0-.36,0-.41.42-.41h7.73c.38,0,.41,0,.41.41s0,.63,0,.94-.11.38-.39.38Z"/><path class="cls-1" d="M7.71,7.27c1.3,0,2.6,0,3.9,0,.3,0,.41.11.39.41a7.69,7.69,0,0,0,0,1c0,.26-.1.35-.35.35H3.85c-.4,0-.42,0-.42-.43s0-.6,0-.9.1-.39.38-.38C5.11,7.28,6.41,7.27,7.71,7.27Z"/><path class="cls-1" d="M7.67,5.55H3.84c-.39,0-.41,0-.41-.41s0-.62,0-.93.1-.38.36-.37h7.77c.42,0,.43,0,.43.44s0,.61,0,.91-.09.36-.36.36Z"/></g></g></g></svg>