<svg xmlns="http://www.w3.org/2000/svg" viewBox="0 0 11.9 16.5"><defs><style>.cls-1{fill:none;stroke:#434345;stroke-miterlimit:10;stroke-width:0.5px;}</style></defs><g id="Layer_2" data-name="Layer 2"><g id="Layer_1-2" data-name="Layer 1"><path class="cls-1" d="M.25,6.14v4.78h0a5.7,5.7,0,0,0,11.38,0h0V6.14Z"/><path class="cls-1" d="M1.72,6.14V4.83a4.84,4.84,0,0,1,1.06-3A4.19,4.19,0,0,1,6.14.25,3.73,3.73,0,0,1,10,4.3"/><path class="cls-1" d="M3.84,6.23V4.85a2.74,2.74,0,0,1,.63-1.79,1.8,1.8,0,0,1,1.39-.69,1.84,1.84,0,0,1,2,1.83"/><circle class="cls-1" cx="6.04" cy="9.72" r="1.84"/><line class="cls-1" x1="6.04" y1="11.56" x2="6.04" y2="13.95"/></g></g></svg>