<svg xmlns="http://www.w3.org/2000/svg" viewBox="0 0 21.5 15.99"><defs><style>.cls-1{fill:none;stroke:#434345;stroke-miterlimit:10;stroke-width:0.5px;}.cls-2{fill:#434345;}</style></defs><g id="Layer_2" data-name="Layer 2"><g id="Layer_1-2" data-name="Layer 1"><path class="cls-1" d="M.25.34v13a32.09,32.09,0,0,1,21,0V.34A42.2,42.2,0,0,1,.25.34Z"/><path class="cls-1" d="M4.25,14.34s7-2,13,0"/><path class="cls-1" d="M7.09,15.74a25.31,25.31,0,0,1,7.32-.05"/><path class="cls-2" d="M8.75,8.4V5.27A.77.77,0,0,1,10,4.63l2.46,1.65a.77.77,0,0,1,0,1.3L9.92,9.06A.77.77,0,0,1,8.75,8.4Z"/></g></g></svg>