<svg xmlns="http://www.w3.org/2000/svg" viewBox="0 0 13.75 17.51"><defs><style>.cls-1{fill:#434345;stroke:#434345;stroke-miterlimit:10;stroke-width:0.25px;}</style></defs><g id="Layer_2" data-name="Layer 2"><g id="Layer_1-2" data-name="Layer 1"><path class="cls-1" d="M2.64,8.12,3.52,16c0,.14.24.14.22,0L2.86,8.12c0-.14-.24-.14-.22,0Z"/><path class="cls-1" d="M.82,8.19,2.26,16c0,.14.24.08.21-.06L1,8.13C1,8,.79,8.05.82,8.19Z"/><path class="cls-1" d="M4.76,8.12,5.07,16c0,.14.23.14.22,0L5,8.12a.11.11,0,0,0-.22,0Z"/><path class="cls-1" d="M6.59,8.12V16a.11.11,0,0,0,.22,0V8.12a.11.11,0,0,0-.22,0Z"/><path class="cls-1" d="M8.49,8.12,8,16c0,.14.21.14.22,0L8.7,8.12c0-.14-.21-.14-.21,0Z"/><path class="cls-1" d="M11,8.09,9.6,15.93c0,.14.18.2.21.06l1.37-7.84C11.2,8,11,8,11,8.09Z"/><path class="cls-1" d="M13,8.09l-2,7.84a.11.11,0,0,0,.21.06l2-7.84A.11.11,0,0,0,13,8.09Z"/><path class="cls-1" d="M2.24,4.49A2,2,0,0,0,.4,6.79c0,.14.23.14.22,0A1.77,1.77,0,0,1,2.24,4.71a.11.11,0,0,0,0-.22Z"/><path class="cls-1" d="M1.25,4.3a2,2,0,0,1,.82-2,1.8,1.8,0,0,1,2.33.95.11.11,0,0,0,.19-.11A2.06,2.06,0,0,0,2.17,2.05,2.15,2.15,0,0,0,1,4.3c0,.14.23.14.22,0Z"/><path class="cls-1" d="M6.28.62A2.46,2.46,0,0,0,4.88.27c-1,.08-1.4,1-1.55,1.9,0,.14.19.19.21.06.15-.87.55-1.8,1.57-1.75A2.39,2.39,0,0,1,6.17.81.11.11,0,0,0,6.28.62Z"/><path class="cls-1" d="M3.37,6.76C3,5.58,3.14,3.91,4.74,4c.61,0,1.65.7.9,1.26A1.13,1.13,0,0,1,4.3,5.17c-.11-.09-.26.06-.15.16a1.37,1.37,0,0,0,1.61.11A.84.84,0,0,0,5.65,4a1.9,1.9,0,0,0-2.12.11,2.44,2.44,0,0,0-.37,2.68c0,.13.26.08.21-.06Z"/><path class="cls-1" d="M7.31,4.63a1.37,1.37,0,0,1,.21-.55c.46-.52,1.09-.21,1.09.48a.11.11,0,0,0,.14.1A1.31,1.31,0,0,1,10.12,5a1.85,1.85,0,0,1,.16,1.81.11.11,0,0,0,.21.06,2.05,2.05,0,0,0-.21-2,1.53,1.53,0,0,0-1.59-.35l.14.11c0-.49-.22-1-.79-1s-.84.56-.94,1c0,.14.18.2.21.06Z"/><path class="cls-1" d="M5.88,2.5a1.33,1.33,0,0,1,1.29-.84c.7.06.95.62,1,1.25a.11.11,0,0,0,.22,0A1.33,1.33,0,0,0,7.28,1.45a1.52,1.52,0,0,0-1.58.94c-.07.13.12.24.18.11Z"/><path class="cls-1" d="M8,1.91C8.39,1.36,8.9.76,9.68,1a1.55,1.55,0,0,1,1,1.75c0,.14.21.14.21,0A1.8,1.8,0,0,0,9.9.8c-.91-.34-1.58.3-2.1,1-.08.1.07.26.16.15Z"/><path class="cls-1" d="M9.39,3.35a2.28,2.28,0,0,1,1-.37A1.11,1.11,0,0,1,11.6,4.42a.11.11,0,0,0,.08.13,1.54,1.54,0,0,1,1,2.21.11.11,0,0,0,.21.06,2,2,0,0,0-.15-1.9,2.26,2.26,0,0,0-.59-.42c-.35-.24-.23-.19-.31-.57A1.42,1.42,0,0,0,11,2.83a2,2,0,0,0-1.73.33c-.13.06,0,.25.11.19Z"/><path class="cls-1" d="M12.16,1.25a1.4,1.4,0,0,1,.17.73,1.4,1.4,0,0,1-.17.73A1.52,1.52,0,0,1,12,2,1.52,1.52,0,0,1,12.16,1.25Z"/><path class="cls-1" d="M12.89,2a1.42,1.42,0,0,1-.73.17A1.38,1.38,0,0,1,11.43,2a1.49,1.49,0,0,1,.73-.18A1.54,1.54,0,0,1,12.89,2Z"/><path class="cls-1" d="M12.75.25a1.21,1.21,0,0,1,0,1.13,1.07,1.07,0,0,1-.13-.56A1.19,1.19,0,0,1,12.75.25Z"/><path class="cls-1" d="M13.32.82a1.19,1.19,0,0,1-.57.13,1.15,1.15,0,0,1-.56-.13,1.16,1.16,0,0,1,.56-.14A1.2,1.2,0,0,1,13.32.82Z"/><path class="cls-1" d="M2.37,17.38H9.22a.11.11,0,0,0,0-.21H2.37a.11.11,0,1,0,0,.21Z"/><path class="cls-1" d="M2.37,16.07h8.7a.11.11,0,0,0,0-.22H2.37a.11.11,0,0,0,0,.22Z"/><rect class="cls-1" x="0.13" y="7.21" width="13.5" height="0.97" rx="0.4"/></g></g></svg>