<svg xmlns="http://www.w3.org/2000/svg" viewBox="0 0 20.18 24.92"><defs><style>.cls-1{fill:#fff;}</style></defs><g id="Layer_2" data-name="Layer 2"><g id="Layer_1-2" data-name="Layer 1"><g id="_9FXcrf.tif" data-name="9FXcrf.tif"><path class="cls-1" d="M19.45,8.39c-3.93,2.94-3.15,8,.73,9.93a12.7,12.7,0,0,1-4,6.06,2.74,2.74,0,0,1-3,.17,5.77,5.77,0,0,0-5.36,0A2.73,2.73,0,0,1,4.48,24C1,20.43-.66,16.18.24,11.18A6,6,0,0,1,6.55,6.1a5.78,5.78,0,0,1,2.11.58,3.46,3.46,0,0,0,3.22,0A6.18,6.18,0,0,1,17,6.43,4.91,4.91,0,0,1,19.45,8.39Z"/><path class="cls-1" d="M10.08,5.58A5.36,5.36,0,0,1,14.9,0C15.48,2.68,12.81,5.81,10.08,5.58Z"/></g></g></g></svg>