<svg xmlns="http://www.w3.org/2000/svg" viewBox="0 0 21.97 30.58"><defs><style>.cls-1{fill:#fff;}</style></defs><g id="Layer_2" data-name="Layer 2"><g id="Layer_1-2" data-name="Layer 1"><path class="cls-1" d="M19.54,3.29c-.17.8-.34,1.6-.5,2.39l-1.11,5.21c-.13.65-.27,1.3-.41,1.95a5.54,5.54,0,0,0-.16.83h0s-.11,0-.15,0H11.41a1.26,1.26,0,0,0-.39,0H6.36a12.29,12.29,0,0,1-1.64,0c-.08-.07-.12-.4-.14-.51-.11-.54-.23-1.07-.34-1.61L2.92,5.37,2.59,3.79a1.82,1.82,0,0,1-.1-.66c0-.14.12-.19.23-.26A.54.54,0,0,1,3,3a1.72,1.72,0,0,1,.28.37l.45.7L5.47,6.74l.52.8.23.37h0c0-.1.08-.19.11-.29s.19-.44.28-.66c.42-1,.84-2,1.25-3,.11-.26.35-1.16.74-1.09s.58.85.71,1.14L11,7.89h0l1.71-3.95c.11-.26.36-1.12.76-1s.56.92.68,1.19c.54,1.28,1.08,2.55,1.61,3.83h0l2.63-4.09c.13-.21.65-1.24,1-.87a.44.44,0,0,1,.08.34M17.59,24.51l-.81,2.79v0a4.17,4.17,0,0,1-.87,0H5.1a2.68,2.68,0,0,1-.7,0c-.49-.21.77-1.26.83-1.52s0-.35,0-.52V18.68a2.56,2.56,0,0,0,0-.68.94.94,0,0,0-.16-.23c-.23-.29-.69-.61-.76-1s.19-.23.31-.29H15.54a3.35,3.35,0,0,1,1.41.15.36.36,0,0,1,.13.19,4.52,4.52,0,0,1,.12.75c.06.43.11.86.16,1.28a2.6,2.6,0,0,1,.08.73c0,.24-.27.4-.48.21a1.4,1.4,0,0,1-.26-.46c-.31-.59-.53-1.32-1.21-1.61a4.69,4.69,0,0,0-1.65-.12h-5c-.15,0-.38,0-.49,0l0,0a3.61,3.61,0,0,0,0,.88v2.7h4.08a1.4,1.4,0,0,0,.41,0c.33-.12.51-.68.58-1,0-.09,0-.26.09-.32s.38,0,.5,0v3.89c0,.06,0,.22-.05.25s-.36.06-.42,0a.73.73,0,0,1-.1-.28c-.09-.27-.23-.9-.55-1H9.44a6.25,6.25,0,0,0-1.1,0,2.35,2.35,0,0,0,0,.76v2.65h6.32a1.52,1.52,0,0,0,.57,0,1.2,1.2,0,0,0,.39-.29,3.35,3.35,0,0,0,.43-.58c.25-.41.49-.82.73-1.23.07-.12.22-.42.35-.48a2.69,2.69,0,0,1,.76,0c-.09.31-.18.62-.26.93M0,30.58H22V0H0Z"/></g></g></svg>