<svg xmlns="http://www.w3.org/2000/svg" viewBox="0 0 240.12 35.61">
	<defs>
		<style>
			.cls-1{fill:#cb1f2e;}.cls-2{fill:#e2e3e4;}.cls-3{fill:#434345;}
		</style>
	</defs>
	<g id="Layer_2" data-name="Layer 2">
		<g id="Layer_1-2" data-name="Layer 1">
			<circle class="cls-1" cx="16.43" cy="16.43" r="16.43" />
			<g id="Cro4xA">
				<path class="cls-2" d="M12.24,19.87a.33.33,0,0,0,.53,0l1.07-1.54a29.23,29.23,0,0,1,4.5-5A38.51,38.51,0,0,1,25,8.5c.22-.13.69-.21.8.13.17.51-1.13,1.22-1.44,1.46a35.75,35.75,0,0,0-5.49,5.37,33.71,33.71,0,0,0-4.78,7.77,2.79,2.79,0,0,1-.44.74.89.89,0,0,1-1.5,0L12,23.68q-2.21-3-4.4-5.92a1.85,1.85,0,0,1-.38-1.5.88.88,0,0,1,1.22-.65c.76.35,1.37,1.34,1.89,2S11.6,19.1,12.24,19.87Z" />
			</g>
			<circle class="cls-3" cx="50.85" cy="18.14" r="1.28" />
			<circle class="cls-3" cx="55.6" cy="18.14" r="1.28" />
			<circle class="cls-3" cx="60.36" cy="18.14" r="1.28" />
			<circle class="cls-3" cx="65.11" cy="18.14" r="1.28" />
			<circle class="cls-3" cx="69.87" cy="18.14" r="1.28" />
			<circle class="cls-3" cx="74.62" cy="18.14" r="1.28" />
			<circle class="cls-3" cx="79.38" cy="18.14" r="1.28" />
			<circle class="cls-3" cx="84.13" cy="18.14" r="1.28" />
			<circle class="cls-3" cx="88.89" cy="18.14" r="1.28" />
			<circle class="cls-3" cx="93.64" cy="18.14" r="1.28" />
			<circle class="cls-3" cx="98.4" cy="18.14" r="1.28" />
			<circle class="cls-3" cx="154.21" cy="18.14" r="1.28" />
			<circle class="cls-3" cx="158.96" cy="18.14" r="1.28" />
			<circle class="cls-3" cx="163.72" cy="18.14" r="1.28" />
			<circle class="cls-3" cx="168.47" cy="18.14" r="1.28" />
			<circle class="cls-3" cx="173.23" cy="18.14" r="1.28" />
			<circle class="cls-3" cx="177.99" cy="18.14" r="1.28" />
			<circle class="cls-3" cx="182.74" cy="18.14" r="1.28" />
			<circle class="cls-3" cx="187.5" cy="18.14" r="1.28" />
			<circle class="cls-3" cx="192.25" cy="18.14" r="1.28" />
			<circle class="cls-3" cx="197.01" cy="18.14" r="1.28" />
			<circle class="cls-3" cx="201.76" cy="18.14" r="1.28" />
			<path class="cls-3" d="M225.29,4.09V26.8a2.06,2.06,0,0,1,0,.61,1.07,1.07,0,0,1-.07.19.4.4,0,0,1-.76-.14h0c0-4.56,0-9.12,0-13.68V4.11h-2.91V29.53h6.4a25.87,25.87,0,0,1,.65-3.2,3.37,3.37,0,0,1,1.18-1.6,1.8,1.8,0,0,0,.78-1.79c0-.91,0-1.83,0-2.74a2.17,2.17,0,1,1,4.33,0c0,1.56,0,3.12,0,4.68a.72.72,0,0,1-.07.25.4.4,0,0,1-.72,0,1,1,0,0,1-.06-.23c0-1.5,0-3,0-4.5,0-1-.52-1.67-1.3-1.66s-1.29.65-1.3,1.68,0,2.35,0,3.53a1.07,1.07,0,0,1-.57,1.06,4.13,4.13,0,0,0-.27,6.75l.12.14a.4.4,0,0,1-.32.61.53.53,0,0,1-.26,0A2.87,2.87,0,0,1,229,31.36c-.38-1-1.08-1-1.9-.94l-.88.06a14.51,14.51,0,0,0,1.27,1.75c1,1,1,1,1.15,2.29h7.87c0-1,0-2,0-2.93a7.28,7.28,0,0,1,.29-1.8q1.07-3.45,2.23-6.87a3,3,0,0,0-.36-2.83c-1-1.44-1.89-2.9-2.8-4.38l0-.07a.42.42,0,0,1,.64-.47.52.52,0,0,1,.11.1c1,1.54,2,3.1,3,4.67a3.4,3.4,0,0,1,.31,3c-.45,1.33-.81,2.7-1.32,4a16,16,0,0,0-1.21,7.48c.07.78-.23,1-1,1q-3.84-.06-7.68,0c-.69,0-1.08-.17-1-.83A2.16,2.16,0,0,0,227,33a7.86,7.86,0,0,1-1.44-2,.9.9,0,0,0-.92-.6c-1.85,0-3.7,0-5.56,0-1.67,0-2.37-.7-2.37-2.36q0-11.25,0-22.5c0-2,0-2.34,3.38-2.34H231.4c3.31,0,3.46.36,3.46,2.32q0,5.39,0,10.77a2,2,0,0,1-.07.69.53.53,0,0,1-.39.26A.52.52,0,0,1,234,17a2.34,2.34,0,0,1,0-.7c0-3.56,0-7.12,0-10.68,0-1.23-.32-1.55-1.57-1.56-2.08,0-6.35,0-6.26,0A5.66,5.66,0,0,0,225.29,4.09Zm-4.76,25.42V4h-1c-1.71,0-1.91.2-1.91,1.93,0,7,0,14.06,0,21.09,0,2.56.32,2.59,2.69,2.52A1.45,1.45,0,0,0,220.53,29.51Z" />
			<path class="cls-3" d="M227.27,21.21c0-.91,0-1.82,0-2.72a.42.42,0,0,1,0-.15.4.4,0,0,1,.67-.08.53.53,0,0,1,.11.23q0,2.69,0,5.37a.41.41,0,0,1-.09.22.39.39,0,0,1-.66,0,.44.44,0,0,1-.07-.21C227.24,23,227.27,22.09,227.27,21.21Z" />
			<!-- <path class="cls-1" d="M140.07,29.24c0,1.9-1.55.77-2.45,1.31v.68c0,1.84,0,.59,0,2.43a1.79,1.79,0,1,1-3.56,0c0-1.81,0-.54,0-2.35v-.88h-9.58v4.07c0,.82,0-1.46,0-.64a1.77,1.77,0,0,1-3.54,0c0-1.94,0-.79,0-2.73v-.75c-.39,0-.73,0-1.08,0-1.16,0-1.16,0-1.39-1.15l-.35-.05c-1.39-.12-2-.72-2-2.13,0-1.84,0-3.68,0-5.52,0-.4,0-.69-.48-.89a1.54,1.54,0,0,1-.67-.92,2.93,2.93,0,0,1,0-1.07c0-1,.43-1.44,1.45-1.44h3.75c.09-1.39.17-2.74.25-4.08.1-1.79.19-3.58.3-5.37a5.1,5.1,0,0,1,5-4.88c2.35,0,4.71,0,7.06,0a5.1,5.1,0,0,1,5.1,4.92c.17,3.11.34,6.22.52,9.48.94,0,1.84,0,2.75,0a7,7,0,0,1,1.3,0,1.63,1.63,0,0,1,.91.47,2.38,2.38,0,0,1-.63,3,.91.91,0,0,0-.3.66c0,1.69,0,3.38,0,5.07C142.42,28.57,142.15,28.9,140.07,29.24Zm-2.64-6.1a3.36,3.36,0,0,0,0-.4c-.26-5-.5-10-.8-14.93A4,4,0,0,0,132.52,4h-6.37a4.11,4.11,0,0,0-4.36,4.16q-.36,6.76-.73,13.55c0,.47,0,1,0,1.42Zm-17.75,5.95H138.8c0-1.06,0-2.05,0-3.05A1.7,1.7,0,0,0,137,24.39q-7.74,0-15.49,0a1.66,1.66,0,0,0-1.82,1.67C119.63,27.05,119.68,28.05,119.68,29.09Zm19-8.28c0,.64,0,1.22,0,1.8a2.46,2.46,0,0,0,.59,1.65,4.82,4.82,0,0,1,.72,2,7.8,7.8,0,0,1,0,1.68c.62.09,1.17.11,1.17-.63,0-2.12,0-4.23,0-6.35,0,0-.07-.08-.09-.11Zm-20.19,7.11c0-.41,0-.79,0-1.17a3.25,3.25,0,0,1,1.06-2.9.63.63,0,0,0,.19-.39c.07-.86.11-1.72.17-2.64H117.3c0,2.2,0,4.37,0,6.53C117.32,28,117.86,28,118.49,27.92Zm3.58,2.49c0,2.2,0,1.22,0,3.33a.31.31,0,0,0,.08.19.62.62,0,0,0,1,0,.29.29,0,0,0,.08-.19c0-2.13,0-1.17,0-3.35Zm13.18,0c0,2.2,0,1.27,0,3.42a.25.25,0,0,0,.08.17.62.62,0,0,0,.94,0,.35.35,0,0,0,.09-.17c0-2.16,0-1.23,0-3.43ZM120,18.47h-3.9v1.08H120Zm18.42,0c.17.43-.31,1.08.45,1.13,1.13.08,2.27,0,3.45,0V18.44Z" /> -->
			<path class="cls-1" d="M135.44,7.94c-.08.08-.27.45-.45.45a.93.93,0,0,1-.68-.49c-.48-1.23-.76-1.47-2.08-1.48-2,0-4.09,0-6.14,0-1.13,0-1.54.32-1.86,1.42-.11.39-.29.74-.71.56a1,1,0,0,1-.44-.79,2.57,2.57,0,0,1,2.51-2.36c2.45-.06,4.9-.07,7.35,0A2.65,2.65,0,0,1,135.44,7.94Z" />
		</g>
	</g>
</svg>
