<svg height="1300.49pt" viewBox="0 0 1366 1300.49" width="1366pt" xmlns="http://www.w3.org/2000/svg" xmlns:xlink="http://www.w3.org/1999/xlink"><symbol id="a" overflow="visible"><path d="m19.125-11.453125c1.875-.953125 2.953125-2.65625 2.953125-4.765625.015625-3.390625-2.8125-5.765625-8.59375-5.765625l-11.25-.015625-.03125 22 11.875.015625c5.90625.015625 9.046875-2.21875 9.046875-6.015625.015625-2.671875-1.515625-4.5625-4-5.453125zm-6.484375-6.03125c2.078125 0 3.15625.71875 3.15625 2.109375 0 1.40625-1.078125 2.125-3.15625 2.125h-4.265625v-4.234375zm.9375 13h-5.21875l.015625-4.453125h5.21875c2.140625 0 3.265625.71875 3.265625 2.234375-.015625 1.5-1.140625 2.21875-3.28125 2.21875zm0 0"/></symbol><symbol id="b" overflow="visible"><path d="m13.296875.453125c7.03125.015625 12.21875-4.828125 12.234375-11.421875 0-6.59375-5.171875-11.4375-12.203125-11.453125-7.046875-.015625-12.25 4.828125-12.25 11.421875-.015625 6.59375 5.171875 11.4375 12.21875 11.453125zm0-5.15625c-3.34375 0-5.921875-2.484375-5.921875-6.28125s2.59375-6.28125 5.9375-6.28125c3.328125 0 5.9375 2.484375 5.9375 6.28125s-2.625 6.28125-5.953125 6.28125zm0 0"/></symbol><symbol id="c" overflow="visible"><path d="m16.96875.015625 7.21875.015625-9.4375-12.265625 9-9.734375-6.84375-.015625-8.53125 9.15625.015625-9.15625-6.15625-.015625-.03125 22 6.15625.015625v-5.5l2.34375-2.484375zm0 0"/></symbol><symbol id="d" overflow="visible"><path d="m2.203125 0 6.21875.015625.03125-22-6.21875-.015625zm0 0"/></symbol><symbol id="e" overflow="visible"><path d="m17.0625-21.984375-.015625 11.71875-9.6875-11.71875-5.125-.015625-.03125 22 6.09375.015625.015625-11.71875 9.6875 11.71875 5.125.015625.03125-22zm0 0"/></symbol><symbol id="f" overflow="visible"><path d="m16.9375-5.421875c-1.09375.5-2.203125.71875-3.359375.71875-3.71875 0-6.203125-2.578125-6.203125-6.28125 0-3.796875 2.5-6.28125 6.28125-6.28125 2.109375 0 3.828125.78125 5.34375 2.453125l3.953125-3.5625c-2.15625-2.609375-5.484375-4.046875-9.59375-4.046875-7.140625-.015625-12.28125 4.734375-12.28125 11.421875-.015625 6.6875 5.109375 11.4375 12.125 11.453125 3.203125 0 6.6875-.953125 9.234375-2.78125l.015625-9.109375-5.5-.015625zm0 0"/></symbol><symbol id="g" overflow="visible"/><symbol id="h" overflow="visible"><path d="m19.46875-17.15625.015625-4.8125-17.25-.03125-.03125 22 6.21875.015625.015625-7.546875h9.703125v-4.796875h-9.703125v-4.84375zm0 0"/></symbol><symbol id="i" overflow="visible"><path d="m18.671875.015625 6.46875.015625-9.71875-22.015625h-6.125l-9.734375 21.984375h6.34375l1.734375-4.25h9.296875zm-9.203125-8.859375 2.828125-7.046875 2.828125 7.046875zm0 0"/></symbol><symbol id="j" overflow="visible"><path d="m2.203125 0 16.71875.015625v-4.9375h-10.5l.03125-17.0625-6.21875-.015625zm0 0"/></symbol><symbol id="k" overflow="visible"><path d="m8.359375-4.796875.015625-4.015625h9.765625v-4.65625h-9.765625v-3.703125l11.09375.015625.015625-4.8125-17.25-.03125-.03125 22 17.65625.03125v-4.8125zm0 0"/></symbol><symbol id="l" overflow="visible"><path d="m2.203125 0 10.390625.015625c7.296875.015625 12.296875-4.21875 12.3125-10.984375 0-6.75-4.984375-11-12.28125-11.015625l-10.390625-.015625zm6.21875-4.953125.015625-12.0625h3.921875c3.75 0 6.265625 2.234375 6.265625 6.03125s-2.53125 6.03125-6.28125 6.03125zm0 0"/></symbol><path d="m1367.4481 929.81081h-1365.7071735v-716.44659h1365.7071735zm0 0" fill="#cf1e2b"/><path d="m1002.7027 258.18356c-31.50498-145.29139-161.95893-254.2138641-318.1082-254.2138641-156.14923 0-286.60318 108.9224741-318.10818 254.2138641zm0 0" fill="#cf1e2b"/><g fill="#fff"><g transform="matrix(3.1443568 0 0 3.1443568 -1482.1498 -1325.2212)"><use height="100%" width="100%" x="536.44946" xlink:href="#a" y="612.80847"/><use height="100%" width="100%" x="560.61505" xlink:href="#b" y="612.83771"/><use height="100%" width="100%" x="587.20032" xlink:href="#b" y="612.86981"/><use height="100%" width="100%" x="613.78558" xlink:href="#c" y="612.90198"/><use height="100%" width="100%" x="637.41693" xlink:href="#d" y="612.93054"/><use height="100%" width="100%" x="648.06995" xlink:href="#e" y="612.94342"/><use height="100%" width="100%" x="673.39819" xlink:href="#f" y="612.974"/><use height="100%" width="100%" x="697.59521" xlink:href="#g" y="613.0033"/><use height="100%" width="100%" x="706.73981" xlink:href="#h" y="613.01434"/></g><g transform="matrix(3.1443568 0 0 3.1443568 -1482.1498 -1325.2212)"><use height="100%" width="100%" x="726.09741" xlink:href="#i" y="613.03772"/><use height="100%" width="100%" x="750.79718" xlink:href="#d" y="613.06757"/><use height="100%" width="100%" x="761.45013" xlink:href="#j" y="613.08044"/><use height="100%" width="100%" x="780.6192" xlink:href="#k" y="613.10364"/><use height="100%" width="100%" x="801.73657" xlink:href="#l" y="613.12915"/></g><path d="m743.63719 257.87652-61.63432 1.04402.45447-46.57579-52.44689 4.39716-19.05041-62.70288c-24.98288 14.38299-49.97807 28.74138-74.94866 43.13665-11.20177 6.44839-16.52017 17.88354-11.77908 28.65541 5.02363 11.38599 11.77908 22.02279 17.66246 32.78237 23.04225-7.60296 40.07825-2.35827 49.69558 13.98994 7.68893 13.09329 6.4975 35.55823-13.47408 49.42535 5.2447 8.83121 10.24372 17.24482 15.24278 25.65845.90891 1.51074 1.7564 3.05837 2.80043 4.47088 7.66436 10.34197 20.13127 13.21614 31.54183 6.65719 36.86021-21.17529 73.70816-42.39971 110.54378-63.62411zm0 0"/><path d="m779.03576 166.53046c-10.42797-16.05337-7.06251-31.43128 12.2335-52.3732-5.03588-8.16793-10.41569-16.655237-15.56208-25.289927-8.24167-13.805707-21.37182-17.232548-35.48457-9.126026-13.96538 8.032867-27.95531 16.004311-41.92066 24.037133-12.09842 6.95198-24.18454 13.91623-36.27066 20.86822l-1.48618 73.64674 45.43347-9.01546-6.95196 50.35883 56.34049 8.53644-16.95006 46.91969c31.99629-18.44851 63.98031-36.90934 95.9643-55.39469 10.89472-6.28873 15.77093-18.16606 10.71046-29.04849-5.14643-11.06666-12.07383-21.29807-18.17831-31.79976-21.28582 7.431-37.89195 3.0461-47.87774-12.3195"/></g></svg>