<svg xmlns="http://www.w3.org/2000/svg" xmlns:xlink="http://www.w3.org/1999/xlink" viewBox="0 0 1047 271.79"><defs><style>.cls-1,.cls-12{fill:none;}.cls-2,.cls-3{font-size:36.31px;}.cls-11,.cls-2,.cls-3,.cls-4,.cls-6,.cls-7,.cls-8,.cls-9{fill:#1d1d1b;}.cls-2,.cls-9{font-family:Montserrat-Thin, Montserrat Thin;font-weight:200;}.cls-3,.cls-4,.cls-6,.cls-7,.cls-8{font-family:Montserrat-Medium, Montserrat Medium;font-weight:500;}.cls-4{font-size:36.31px;}.cls-5{font-size:3.73px;font-family:Montserrat-Bold, Montserrat Bold;font-weight:700;}.cls-6{font-size:8.79px;}.cls-7{font-size:8.73px;}.cls-8,.cls-9{font-size:36.05px;}.cls-10{clip-path:url(#clip-path);}.cls-12{stroke:#000;stroke-miterlimit:10;}</style><clipPath id="clip-path"><rect class="cls-1" x="801.87" y="143.36" width="43.21" height="107.14" transform="translate(1646.95 393.86) rotate(-180)"/></clipPath></defs><g id="Layer_2" data-name="Layer 2"><g id="Layer_1-2" data-name="Layer 1"><text class="cls-2" transform="translate(6.25 31.65)">9</text><text class="cls-3" transform="translate(44.64 44.99)">0</text><text class="cls-2" transform="translate(20.75 183.08)">9</text><text class="cls-2" transform="translate(179.25 183.08)">9</text><text class="cls-4" transform="translate(57.92 196.14) rotate(1.23)">4</text><text class="cls-5" transform="translate(35.95 68.07)">Empire opens multiple locations in <tspan x="0" y="4.48">Lebanon and Syria.</tspan></text><text class="cls-6" transform="translate(35.34 61.06)">LOCATIONS</text><text class="cls-3" transform="translate(218.21 194.73)">8</text><text class="cls-5" transform="translate(187.15 68.07)">Empire becomes an exclusive <tspan x="0" y="4.48">license for Columba Ari-Star </tspan><tspan x="0" y="8.96">home entertainment in </tspan><tspan x="0" y="13.44">Lebanon.</tspan></text><text class="cls-5" transform="translate(286.54 67.67)">Empire opens ofce in Dubai.</text><text class="cls-6" transform="translate(186.54 61.06)">LICENSEE</text><text class="cls-6" transform="translate(286.54 60.7)">OFFICES</text><rect x="-9" y="75.02" width="74.09" height="2.02" transform="translate(104.07 47.98) rotate(90)"/><path class="cls-1" d="M11.57,66.63c-.05,9.1,7.72,16.47,17.41,16.5h.07V50.4C19.36,50.43,11.63,57.59,11.57,66.63Z"/><path d="M29,83.13c-9.69,0-17.46-7.4-17.41-16.5s7.79-16.2,17.48-16.23V38.6c-12.13,0-23.42,7.27-27.56,18.61-2.7,7.4-1.41,14.55,1.34,21.6,5.71,14.7,14.33,27.91,23.91,40.6.66.87,1.39,1.7,2.31,2.82V83.13Z"/><text class="cls-5" transform="translate(30.12 218.01)">Columbia pictures grant Empire exclusive <tspan x="0" y="4.48">distribution.</tspan></text><text class="cls-6" transform="translate(30.12 211.44)">EXCLUSIVE</text><rect x="50.94" y="201.33" width="105.44" height="6.14" transform="translate(308.06 100.74) rotate(90)"/><path d="M123.87,166.67v-15h-7.33v1.09a.87.87,0,0,1-.87.88h-8.26a.87.87,0,0,1-.87-.88v-1.09h-1.61V257.13h1.61v-4.31a.88.88,0,0,1,.87-.88h8.26a.88.88,0,0,1,.87.88v4.31h7.33v-15a5.13,5.13,0,0,1-3.61-4.56V171.23A5.13,5.13,0,0,1,123.87,166.67Zm-7.33,77.42a.87.87,0,0,1-.87.88h-8.26a.87.87,0,0,1-.87-.88v-4.31a.87.87,0,0,1,.87-.88h8.26a.87.87,0,0,1,.87.88Zm0-13a.88.88,0,0,1-.87.88h-8.26a.88.88,0,0,1-.87-.88v-4.32a.87.87,0,0,1,.87-.88h8.26a.87.87,0,0,1,.87.88Zm0-13.05a.87.87,0,0,1-.87.88h-8.26a.87.87,0,0,1-.87-.88v-4.32a.88.88,0,0,1,.87-.88h8.26a.88.88,0,0,1,.87.88Zm0-13a.87.87,0,0,1-.87.87h-8.26a.87.87,0,0,1-.87-.87v-4.32a.87.87,0,0,1,.87-.88h8.26a.87.87,0,0,1,.87.88Zm0-13.05a.88.88,0,0,1-.87.88h-8.26a.88.88,0,0,1-.87-.88v-4.32a.88.88,0,0,1,.87-.88h8.26a.88.88,0,0,1,.87.88Zm0-13a.87.87,0,0,1-.87.88h-8.26a.87.87,0,0,1-.87-.88v-4.32a.87.87,0,0,1,.87-.87h8.26a.87.87,0,0,1,.87.87Zm0-13a.88.88,0,0,1-.87.88h-8.26a.88.88,0,0,1-.87-.88V161.5a.87.87,0,0,1,.87-.88h8.26a.87.87,0,0,1,.87.88Z"/><polygon points="166.72 61.6 133.88 66.37 157.64 89.53 152.03 122.23 178.07 108.55 178.07 38.6 166.72 61.6"/><text class="cls-3" transform="translate(194.48 43.12)">6</text><text class="cls-2" transform="translate(156.56 31.8)">9</text><text class="cls-3" transform="translate(314.97 42.13)">98</text><text class="cls-2" transform="translate(276.6 30.39)">9</text><text class="cls-5" transform="translate(187.61 217.85)">Empire is appointed exclusive <tspan x="0" y="4.48">distributor for 20th-century fox in ME.</tspan></text><text class="cls-6" transform="translate(187.61 210.85)">DISTRIBUTOR</text><path d="M260.93,255.8l65.5-95.2s14.3,5.34,15.15,25.14c.08,0-47.69,44.87-47.69,44.87L266,257A22.51,22.51,0,0,1,260.93,255.8Z"/><path d="M258.66,171.86s5.3-19.94,19.52-20.19L302.1,254.5l-3.31,1.25Z"/><path d="M409.44,64.1h-.51c-1.12,0-2,1.25-2,2.79v1.52a141.46,141.46,0,0,1-44.38,0v-1.5c0-1.54-.9-2.79-2-2.79H360c-1.11,0-2,1.25-2,2.79V110l11.43,17.66L378.06,141,365,161.08a2.74,2.74,0,0,0,.15,3.08,1.48,1.48,0,0,0,.57.42l-3.48,12.7-2.8,4.31a3.78,3.78,0,0,0,.15,4.16h0a1.74,1.74,0,0,0,3-.21l22.14-34.24,22.15,34.24a1.74,1.74,0,0,0,3,.21,3.78,3.78,0,0,0,.15-4.16l-2.9-4.45-3.35-12.57a1.44,1.44,0,0,0,.53-.41,2.74,2.74,0,0,0,.15-3.08L391.39,141l20.06-31V66.89C411.45,65.35,410.55,64.1,409.44,64.1Zm-49.6,46.11c-1,0-1.1-.69-1.1-.69V66.89c0-1.6,1.1-1.77,1.1-1.77Zm4.6-40c1.22.11,2.95.22,5,.42,1,.12,2.16.18,3.36.25s2.44.12,3.74.19,2.65.08,4,.13,2.75,0,4.14,0,2.78,0,4.14,0,2.71-.09,4-.13l3.75-.19c1.19,0,2.32-.13,3.36-.2l2.84-.21,2.19-.17,1.56-.15v0l-1.56.28c-1.21.19-2.94.47-5,.71s-4.5.5-7.11.66c-1.3.07-2.65.16-4,.2s-2.76.08-4.15.1-2.78,0-4.15-.06-2.72-.08-4-.18-2.56-.17-3.75-.31-2.33-.24-3.36-.4c-2.07-.29-3.8-.58-5-.76l-1.9-.31ZM362.53,88a141.46,141.46,0,0,0,44.38,0v5.24l-1.37-.42v-.79c0-1-.56-1.72-1.24-1.72h-1c-.69,0-1.24.77-1.24,1.72v11.26a58.81,58.81,0,0,1-34.65,0V92.05c0-1-.56-1.72-1.24-1.72h-1c-.69,0-1.24.77-1.24,1.72v.79l-1.38.42Zm43,14.93V95.26l1.37.42v8.89Zm1.37,2.39v1.42l-2.58-2.83c.88-.19,1-.5,1-.5Zm-3.51-11v8.88a.87.87,0,0,1-.89-.69V92.38c0-1.3.89-1.18.89-1.18v1.64a1.42,1.42,0,0,0-.17.49A1.55,1.55,0,0,0,403.4,94.34Zm-38.63-1.77-.44.14v-.33c0-1.3.74-1.18.74-1.18v1.36A.61.61,0,0,0,364.77,92.57Zm.3,2.33v8.32a.78.78,0,0,1-.74-.69v-7.4Zm-2.54.78,1.38-.42v7.83l-1.38,1.6Zm0,9.64,1.59-1.91s.12.31,1,.5l-2.59,2.83Zm3,56.09,12.9-19.78.37.58-10.63,17.22a.91.91,0,0,0-.16-.11c-.44-.23-.93.07-1.09.68l-.73,2.65L366,163C365.5,163.86,364.71,162.71,365.57,161.41Zm14.58-17.18,1.79,2.77-16.57,25.45,2.63-9.59Zm-16.07,28.56c.08-.38.19-.93.34-1.58.28-1.3.7-3,1.15-4.71s.94-3.37,1.33-4.62c.19-.63.37-1.14.49-1.5l.19-.56s0,.22-.12.6-.18.93-.33,1.58c-.29,1.29-.71,3-1.16,4.71s-.94,3.37-1.33,4.62c-.19.62-.36,1.13-.48,1.5l-.19.56S364,173.17,364.08,172.79ZM361,184.31c-.63,1.06-1.7-.61-.59-2.29l22.13-34.09,1,1.55Zm47.67-.45c1.1,1.67-.74,2.15-1.38,1.09L362,114.68l2.34.57,19.54,30.23a2.15,2.15,0,0,0-.46,1.37c0,1,.59,1.82,1.31,1.82a1.13,1.13,0,0,0,.89-.49ZM383,134.63l.25.39-1.74,2.82-.3-.46Zm-2.2,2.12-2.92-4.48h3.58l.72,1.1.41.63Zm3.89.48,1.8,2.75-1.8,2.75L382.93,140Zm-2.23-5h.38l1.13,1.64s0,.06,0,.09c0,.56.33,1,.73,1h0l2.56,3.73-.3.46Zm4.34,1.73,1.12-1.73h3.59l-2.92,4.48Zm-8.57-3.49-.65-1.08h15.57l-.74,1.08Zm12.26-8.94H380.16l-.47-.81h11.36Zm1.69-1L387,129h-.29Zm-2.58,2.68L385.9,129h-2.36l-3.72-5.72Zm.48,5.72,8.64-13.26c1.38-.26,2.77-.54,4.15-.88L393.69,129Zm1.33-8.5H378l-2.63-4a76.89,76.89,0,0,0,18.69,0ZM380.59,129h-.27l-5.1-7.8Zm-1.25,0h-3.59l-3.15-4.85h0l-6.05-9.29c1.38.34,2.76.62,4.15.88Zm8.16,18,1.8-2.77L401.55,163l2.51,9.41Zm14,13.38c.12.36.3.87.49,1.5.39,1.25.87,2.93,1.33,4.62s.87,3.41,1.16,4.71c.14.65.25,1.2.33,1.58s.12.6.12.6-.08-.2-.2-.56-.29-.88-.48-1.5c-.39-1.25-.88-2.93-1.33-4.62s-.87-3.42-1.16-4.71c-.15-.65-.25-1.2-.33-1.58s-.12-.6-.12-.6Zm-.39-1.56a1.45,1.45,0,0,0-.34,1.41l0,.08-11-16.86.37-.58ZM387,144.21l-.5-2.3,17.34-26.72,2.3-.55Zm18.35-32c-.61.18-1.34.39-2.19.6s-1.81.46-2.86.69-2.19.45-3.4.64-2.49.38-3.81.56-2.69.31-4.09.37c-.69,0-1.4.09-2.1.11l-2.13,0c-.71,0-1.42,0-2.12,0l-2.11,0-2.07-.15c-.69,0-1.36-.11-2-.2-1.33-.17-2.61-.31-3.82-.57l-1.76-.34c-.56-.1-1.11-.27-1.63-.4-2.09-.53-3.82-1-5-1.35s-1.91-.55-1.91-.55.71.1,1.93.31,3,.49,5.09.89c1.05.22,2.18.34,3.39.51s2.48.26,3.79.4,2.68.14,4.07.24l2.09,0c.7,0,1.4,0,2.11,0l2.1,0c.71,0,1.4-.07,2.1-.1,1.38-.05,2.74-.17,4.06-.26s2.6-.23,3.8-.38,2.35-.29,3.41-.43,2-.29,2.87-.43,1.6-.27,2.21-.39l1.42-.27.5-.1S406.51,111.86,405.3,112.22Zm3.37-2c-1,0-1.1-.69-1.1-.69V87.9a11.37,11.37,0,0,0,1.1-.31Zm0-42.12-1.1.21V66.89c0-1.6,1.1-1.77,1.1-1.77Z"/><text class="cls-5" transform="translate(539.21 67.49)">Empire is the frst to equip its <tspan x="0" y="4.48">cinemas with digital projectors.</tspan></text><text class="cls-7" transform="translate(539.13 50.38)">DIGITAL <tspan x="0" y="10.47">PROJECTION</tspan></text><text class="cls-8" transform="translate(545.97 40.72)">9</text><text class="cls-5" transform="translate(432.67 219.26)">Empire opens ofce in Egypt, <tspan x="0" y="4.48">Jordan, and Iraq.</tspan></text><text class="cls-9" transform="translate(421.95 186.91)">9</text><text class="cls-8" transform="translate(458.82 199.87)">9</text><text class="cls-7" transform="translate(431.85 211.7)">MORE OFFICES</text><text class="cls-5" transform="translate(541.78 229.72)">Empire and Columbia pictures <tspan x="0" y="4.48">celebrate 50 years of success.</tspan></text><text class="cls-9" transform="translate(545.57 186.56)">0</text><text class="cls-8" transform="translate(573.56 199.51)">3</text><text class="cls-7" transform="translate(540.96 211.47)">FIFTY<tspan x="0" y="10.47">YEARS</tspan></text><path d="M507.63,84.13a24.74,24.74,0,0,1,24.74-24.74V55.74a28.39,28.39,0,1,0,0,56.78v-3.65A24.74,24.74,0,0,1,507.63,84.13Z"/><path d="M498.44,84.13a34.08,34.08,0,0,1,34.09-34.08V45a39.12,39.12,0,1,0,0,78.24v-5A34.08,34.08,0,0,1,498.44,84.13Z"/><path d="M513,84.13a19.4,19.4,0,0,0,19.4,19.4V64.73A19.39,19.39,0,0,0,513,84.13Z"/><text class="cls-5" transform="translate(705.18 67.09)">Empire co-produces its frst <tspan x="0" y="4.48">Emirati movie Hajwala 2.</tspan></text><text class="cls-7" transform="translate(705.18 50.38)">EMPIRE<tspan x="0" y="10.47">AWARD</tspan></text><text class="cls-5" transform="translate(858.2 67.09)">Empire opens its fagship <tspan x="0" y="4.48">multiplex in Abha with the </tspan><tspan x="0" y="8.96">biggest IMAX screen and the frst </tspan><tspan x="0" y="13.44">4DX in the Kingdom.</tspan></text><text class="cls-7" transform="translate(858.2 50.38)">EMPIRE<tspan x="0" y="10.47">EXPERIENCE</tspan></text><text class="cls-5" transform="translate(894.41 228.7)">Empire pursued its expansion vision <tspan x="0" y="4.48">inaugurating an 18 screen multiplex in </tspan><tspan x="0" y="8.96">Jeddah followed with another mega </tspan><tspan x="0" y="13.44">project in Khobar, Kingdom of Saudi </tspan><tspan x="0" y="17.92">Arabia. </tspan></text><text class="cls-7" transform="translate(894.41 211.98)">EMPIRE<tspan x="0" y="10.47">EXPANDING</tspan></text><text class="cls-8" transform="translate(725.87 40.32)">8</text><text class="cls-5" transform="translate(726.83 232.17)">Empire launches gaming &amp; licensing <tspan x="0" y="4.48">department.</tspan><tspan x="0" y="8.96">Empire fnds a new home launching its </tspan><tspan x="0" y="13.44">frst cinema in the Kingdom of Saudi </tspan><tspan x="0" y="17.92">Arabia, Jizan.</tspan></text><text class="cls-9" transform="translate(731.42 186.56)">0</text><text class="cls-9" transform="translate(507.39 33.23)">0</text><text class="cls-9" transform="translate(695.05 33.23)">0</text><text class="cls-8" transform="translate(761.25 199.51)">9</text><text class="cls-7" transform="translate(726.16 211.83)">HUNDRED<tspan x="0" y="10.47">YEARS</tspan></text><path d="M671.93,64.8c-.91,1.29-1.2,2.51-.81,3.45a2.31,2.31,0,0,0,2,1.36,16.34,16.34,0,0,0,1.66.08c.6,0,1.19,0,1.76,0s.95,0,1.37,0,.52,0,.72,0a1.87,1.87,0,0,1,.94.28,3.73,3.73,0,0,0,.45.23,10.59,10.59,0,0,1-.27,3.5,24.55,24.55,0,0,0-.22,10.59c.12.43.22.84.33,1.24A32.67,32.67,0,0,1,681.07,91a13.91,13.91,0,0,1,0,1.56,14.85,14.85,0,0,0,.35,4.86c.09.36.19.72.28,1.06.6,2.21,1.12,4.12.5,6.14a13.85,13.85,0,0,1-1.47,3c-.3.51-.6,1-.88,1.58H677.4a1.86,1.86,0,0,0-1.75,1.38l-1.44,5.1v0s0,0,0,.07v.05h0v6.42a2,2,0,0,0,2,2.1H695a2.05,2.05,0,0,0,2-2.1v-6.42h0a.09.09,0,0,1,0-.05s0,0,0-.07v0l-1.44-5.1a1.86,1.86,0,0,0-1.75-1.38h-2.43c-.27-.55-.57-1.07-.88-1.58a14.31,14.31,0,0,1-1.47-3c-.61-2-.09-3.93.51-6.14.09-.34.19-.7.28-1.06a15.13,15.13,0,0,0,.35-4.86c0-.56-.06-1.09,0-1.56a31.93,31.93,0,0,1,1.17-5.56c.1-.4.21-.81.32-1.24a24.57,24.57,0,0,0-.21-10.59,10.89,10.89,0,0,1-.28-3.5,2.66,2.66,0,0,0,.45-.23,1.92,1.92,0,0,1,.95-.28,7.1,7.1,0,0,1,.72,0c.41,0,.88,0,1.37,0s1.15,0,1.75,0a16.19,16.19,0,0,0,1.66-.08,2.33,2.33,0,0,0,2.06-1.36,3.73,3.73,0,0,0-.82-3.45,16.54,16.54,0,0,1-2.14-4,7.36,7.36,0,0,0-4.42-4.18A22.76,22.76,0,0,1,689.23,55a1.51,1.51,0,0,1-.47-1.54,6.07,6.07,0,0,1,.17-.59,8.48,8.48,0,0,0,.28-3.64,3.42,3.42,0,0,0-3.47-3.53h-.26A3.42,3.42,0,0,0,682,49.24a8.26,8.26,0,0,0,.29,3.64c.06.19.11.36.16.59A1.47,1.47,0,0,1,682,55a22.58,22.58,0,0,1-3.48,1.58,7.41,7.41,0,0,0-4.43,4.18A15.88,15.88,0,0,1,671.93,64.8Zm8,14c0-.74.09-1.42.17-2s.16-1.11.24-1.53.16-.75.22-1l.1-.33-.08.34c0,.22-.11.55-.18,1s-.13.94-.17,1.54-.09,1.27-.1,2a21.6,21.6,0,0,0,.06,2.38c0,.21,0,.42.05.63s0,.43.08.65.07.44.11.65.08.44.13.67c.22.88.48,1.8.72,2.74s.48,1.89.67,2.86a14.8,14.8,0,0,1,.19,1.49,12.13,12.13,0,0,1,0,1.48,20.55,20.55,0,0,0,0,2.82,11.23,11.23,0,0,0,.17,1.33c0,.21.08.43.13.64l.15.62c.21.81.42,1.58.57,2.31a12.21,12.21,0,0,1,.29,2,8.44,8.44,0,0,1-.05,1.56l0,.31-.06.26c0,.16-.07.3-.1.41l-.1.34.08-.34c0-.11,0-.25.08-.42s.05-.35.07-.57a7.86,7.86,0,0,0,0-1.54,15.13,15.13,0,0,0-.35-2c-.17-.72-.4-1.48-.63-2.29l-.17-.62c-.05-.21-.11-.42-.15-.65a12,12,0,0,1-.19-1.36,21.18,21.18,0,0,1,0-2.87,11.53,11.53,0,0,0,0-1.44,14.24,14.24,0,0,0-.2-1.44c-.17-1-.41-1.91-.64-2.84s-.48-1.85-.7-2.76c-.05-.22-.1-.44-.13-.67l-.06-.34c0-.12,0-.23,0-.34s0-.44-.06-.66,0-.43,0-.65C679.84,80.32,679.85,79.52,679.88,78.78Zm2.57-23-.13.09a4.19,4.19,0,0,1-.38.25c-.33.19-.82.46-1.42.75l-1,.44-1.1.45a6.35,6.35,0,0,0-2.9,2.46c-.12.18-.22.37-.33.56s-.2.39-.28.58c-.17.39-.35.77-.51,1.13s-.34.69-.5,1a10.5,10.5,0,0,1-.92,1.38c-.11.16-.21.28-.28.37l-.1.13.33-.54a12.75,12.75,0,0,0,.79-1.44c.29-.61.59-1.36.92-2.15a6.46,6.46,0,0,1,.27-.6,5.76,5.76,0,0,1,.33-.6,7.51,7.51,0,0,1,.85-1.1,6.55,6.55,0,0,1,1.06-.86,6.74,6.74,0,0,1,1.16-.6c.39-.16.77-.28,1.12-.42l1-.38c.61-.24,1.12-.45,1.47-.62l.4-.19Zm-3.21,11.54-.29.06a4.2,4.2,0,0,1-.8.06,2.92,2.92,0,0,1-.55-.08,1.71,1.71,0,0,1-.3-.09l-.15-.07-.13-.07-.56-.33a2.9,2.9,0,0,1-.56-.46,1.37,1.37,0,0,1-.23-.38.68.68,0,0,1,0-.54,1,1,0,0,1,.28-.33l.15-.1.14-.08c.2-.1.38-.18.56-.25l.48-.2.4-.17.29-.17.17-.14.06-.06,0,.08a.94.94,0,0,1-.12.2,1.5,1.5,0,0,1-.25.27,3,3,0,0,1-.37.29L677,65l-.49.3a1.06,1.06,0,0,0-.36.32.13.13,0,0,0,0,.12.53.53,0,0,0,.12.19,2.44,2.44,0,0,0,.45.38l.51.35.13.09.11.06.23.12c.16.06.33.11.48.15l.42.09.34.06Zm-1.21-.7c-.58-.36-1.65-.6-1.07-1a7.18,7.18,0,0,0,1.79-1.4,6,6,0,0,0,.65,1.55,2.05,2.05,0,0,1,.37,1.06A3.4,3.4,0,0,1,678,66.61Zm13.34-1.1-.07.11-.06.09a1.28,1.28,0,0,0-.11.2l-.2.41c-.06.13-.11.24-.15.31l-.07.13a1,1,0,0,1,0-.14,1.73,1.73,0,0,1,0-.37,1.66,1.66,0,0,1,.06-.52,2.12,2.12,0,0,1,.11-.29l.09-.15s.05-.07.08-.12a4.21,4.21,0,0,0,.28-.41c.09-.14.18-.28.26-.39a2.88,2.88,0,0,1,.21-.28.49.49,0,0,1,.09-.1v.14a1.86,1.86,0,0,1,0,.36,2.59,2.59,0,0,1-.12.48c0,.09-.07.18-.12.27A1.28,1.28,0,0,1,691.37,65.51Zm.44.23a5.67,5.67,0,0,0,.65-1.55,7.24,7.24,0,0,0,1.8,1.4c.57.42-.5.66-1.08,1a3.36,3.36,0,0,1-1.73.19A2.1,2.1,0,0,1,691.81,65.74Zm4.59,49.51a.75.75,0,0,1-.27.61.6.6,0,0,1-.15.09.53.53,0,0,1-.18,0H695l-2.23,0-2.39,0h-4.93l-2.38,0c-.78,0-1.53,0-2.24,0l-2-.05c-1.24,0-2.27-.08-3-.1l-.84,0h-.3l.3,0,.84,0c.72,0,1.75-.07,3-.1l2,0,2.24,0,2.38,0h4.93l2.39,0,2.23,0h.84l.07,0a.4.4,0,0,0,.14-.29.28.28,0,0,0,0-.09,1,1,0,0,0,0-.11l-.06-.24c-.16-.63-.31-1.21-.43-1.73l-.33-1.33-.21-.86-.07-.31.11.3c.06.19.16.47.28.83s.26.8.42,1.31.35,1.07.54,1.69l.08.24,0,.13A.88.88,0,0,1,696.4,115.25Zm-3.73,6.92,1.8,0-1.8,0-4.75.06-6.7,0h-3.54a1.56,1.56,0,0,1-.3,0,1.09,1.09,0,0,1-.84-.43.16.16,0,0,1,0-.09.19.19,0,0,1,0-.08v-.38c0-.35,0-.69,0-1v-1.42a.32.32,0,0,1,0-.16,1.07,1.07,0,0,1,.84-.44h7.38l3.16,0c2,0,3.6,0,4.75,0l1.8,0-1.8,0c-1.15,0-2.78,0-4.75,0l-3.16,0h-6.84a2.64,2.64,0,0,0-.42,0,.6.6,0,0,0-.48.25.29.29,0,0,0,0,.09v.39c0,.34,0,.69,0,1v1.42s0,.05,0,.06a.08.08,0,0,0,0,0,.63.63,0,0,0,.48.25h3.72l6.7,0C689.89,122.13,691.52,122.16,692.67,122.17Z"/><path d="M689.46,42.75c-.07.36-.15.72-.22,1.08-.17.79-.34,1.57-.5,2.36-.06.29-.13.58-.19.88,0,.12-.06.24-.07.37h0s-.05,0-.07,0h-2.61a.53.53,0,0,0-.18,0H683.5a5.91,5.91,0,0,1-.74,0,.77.77,0,0,1-.06-.23l-.15-.73-.6-2.8L681.8,43a.75.75,0,0,1,0-.3c0-.07,0-.09.1-.12a.25.25,0,0,1,.14.06.74.74,0,0,1,.12.17l.2.31.78,1.21.24.36.1.17h0s0-.09,0-.13.08-.2.13-.3l.56-1.34c0-.11.16-.52.34-.49s.26.38.32.51c.24.58.49,1.16.74,1.74h0l.78-1.79c.05-.11.16-.5.34-.47s.25.42.31.54l.72,1.73h0c.39-.62.79-1.23,1.19-1.85.06-.09.29-.56.46-.39A.19.19,0,0,1,689.46,42.75Z"/><path d="M623.56,246.94V159.3h-9.41v2.32h-2.71v83h2.71v2.32Zm-6.27-5a1.18,1.18,0,0,1,1.18-1.18c.65,0-.19.53-.19,1.18s.84,1.18.19,1.18A1.18,1.18,0,0,1,617.29,242Zm4.92-67.74-6.7,3.67V166.47l6.7-3.66Zm0,15.73-6.7,3.67V182.2l6.7-3.67Zm0,15.73-6.7,3.67V197.93l6.7-3.67Zm0,15.72-6.7,3.67V213.66l6.7-3.67ZM618.73,244a1.59,1.59,0,0,1-.57-.18,1.69,1.69,0,0,1-.37-.25,1.47,1.47,0,0,1-.19-.21l-.06-.08.08.05a1.63,1.63,0,0,0,.24.13,2.6,2.6,0,0,0,.39.12,1.61,1.61,0,0,0,.5,0,1.83,1.83,0,0,0,.56-.13,1.56,1.56,0,0,0,.52-.34l.11-.11a1.34,1.34,0,0,0,.11-.14,1.84,1.84,0,0,0,.15-.28,1.64,1.64,0,0,0,0-1.28,1.52,1.52,0,0,0-.38-.53,1.63,1.63,0,0,0-.51-.34,1.81,1.81,0,0,0-.56-.12,2,2,0,0,0-.5,0,1.78,1.78,0,0,0-.39.13,1.63,1.63,0,0,0-.24.13l-.08,0,.06-.08a.85.85,0,0,1,.19-.21,1.69,1.69,0,0,1,.37-.26,1.82,1.82,0,0,1,.57-.18,1.94,1.94,0,0,1,1.49.41,2,2,0,0,1,.56.69,2,2,0,0,1,0,1.84,1.61,1.61,0,0,1-.26.4,1,1,0,0,1-.14.15l-.17.15a1.93,1.93,0,0,1-.75.36A1.82,1.82,0,0,1,618.73,244Z"/><path d="M627.73,159.4l-4.17,87.54,9.4.45,4.17-87.55Zm.32,81.59c.65,0-.22.52-.25,1.17s.79,1.22.14,1.19a1.18,1.18,0,1,1,.11-2.36Zm1.77-.35a2,2,0,0,1,.53.72,2.11,2.11,0,0,1,.17.93,2,2,0,0,1-.26.9,2,2,0,0,1-.27.39,1.79,1.79,0,0,1-.15.14,2,2,0,0,1-.18.15,1.95,1.95,0,0,1-1.5.33,1.68,1.68,0,0,1-.56-.21,1.6,1.6,0,0,1-.36-.27,1.24,1.24,0,0,1-.18-.22l-.06-.08.08.05a1.53,1.53,0,0,0,.24.14,2,2,0,0,0,.38.15,2,2,0,0,0,.5.06,2.36,2.36,0,0,0,.57-.1,1.71,1.71,0,0,0,.53-.32,1.09,1.09,0,0,0,.11-.1,1.3,1.3,0,0,0,.12-.14c.05-.08.11-.17.16-.27a1.56,1.56,0,0,0,.17-.63,1.59,1.59,0,0,0-.11-.65,1.52,1.52,0,0,0-.35-.55,1.72,1.72,0,0,0-.49-.36,1.88,1.88,0,0,0-.55-.15,1.71,1.71,0,0,0-.51,0,1.82,1.82,0,0,0-.39.11l-.25.11-.08.05.06-.08a1.85,1.85,0,0,1,.2-.2,1.9,1.9,0,0,1,1-.39A2,2,0,0,1,629.82,240.64Zm-3.14-30.55,6.51,4-.54,11.4-6.52-4Zm.74-15.71,6.52,4-.55,11.4-6.51-4Zm.75-15.71,6.51,4-.54,11.4-6.51-4Zm.75-15.71,6.51,4-.54,11.4-6.52-4Z"/><g class="cls-10"><path class="cls-11" d="M838.08,224.51c-3.78,3.62-6.21,6.19-10.84,7.76a42.23,42.23,0,1,0-68.69-32.91c0,18.66,12.79,34.86,30.46,40.15l1.34.38a106,106,0,0,0,29.79,3.27c8.62-.21,15.57-1.91,23.34-7.26m-66.21-60.77-.26.3c-.17.19-.43.46-.74.82l-.52.6-.59.73c-.41.52-.86,1.12-1.34,1.79s-1,1.41-1.44,2.2-1,1.66-1.41,2.58-.88,1.87-1.27,2.86-.73,2-1,3.07l-.22.78c0,.12-.08.28-.1.38a2.85,2.85,0,0,0-.06.39,2.88,2.88,0,0,0,.21,1.41,3.07,3.07,0,0,0,.85,1.16,2.92,2.92,0,0,0,1.26.62,3.94,3.94,0,0,0,.69.08H772l1.45,0,2.65.06c1.65,0,3,.1,4,.13l1.5.06-1.5.07c-1,0-2.33.09-4,.13l-2.65.05-1.45,0h-.75a3.86,3.86,0,0,1-.82-.08,3.58,3.58,0,0,1-2.58-2.1,3.63,3.63,0,0,1-.27-1.77,2.63,2.63,0,0,1,.07-.42c0-.17.07-.28.1-.42l.22-.8c.32-1.06.67-2.11,1.08-3.12s.87-2,1.35-2.89A29.74,29.74,0,0,1,772,181.3c.53-.79,1-1.52,1.56-2.17s1-1.22,1.46-1.72l.64-.68.56-.57c.33-.34.63-.58.81-.76ZM782,223.48a3.93,3.93,0,0,1-.41.4,3.43,3.43,0,0,1-1.38.68,3.33,3.33,0,0,1-1,.1,3.67,3.67,0,0,1-1.06-.23,3.78,3.78,0,0,1-.53-.27c-.08-.06-.18-.11-.25-.17l-.23-.18c-.31-.28-.58-.55-.88-.84s-.58-.61-.89-.92-.59-.65-.88-1-.59-.7-.87-1.07l-.43-.56-.41-.58c-.56-.77-1.07-1.59-1.57-2.42s-.93-1.7-1.32-2.57-.75-1.73-1.06-2.58c-.16-.43-.29-.85-.43-1.26s-.24-.84-.35-1.24-.2-.77-.29-1.17a3.68,3.68,0,0,1,0-1.19,3.45,3.45,0,0,1,.33-1,3.6,3.6,0,0,1,.56-.79,3.43,3.43,0,0,1,1.28-.85,3,3,0,0,1,.55-.16c.16,0,.3,0,.41,0h.35l-.34,0a4,4,0,0,0-.4.08l-.25.09a1,1,0,0,0-.27.11,3.16,3.16,0,0,0-1.14.9,3.19,3.19,0,0,0-.7,1.7,3.36,3.36,0,0,0,.09,1c.1.36.22.75.33,1.14s.26.79.4,1.19.29.82.45,1.23c.33.83.69,1.67,1.1,2.52s.85,1.67,1.32,2.5,1,1.62,1.51,2.39,1.08,1.5,1.64,2.2c.27.35.57.67.84,1l.83.93.82.85.21.2.21.15a2.43,2.43,0,0,0,.44.26,3.21,3.21,0,0,0,1.82.25,3.29,3.29,0,0,0,1.35-.54c.17-.11.3-.25.43-.35s.21-.21.27-.3l.21-.28-.18.3Zm7.08,4.09a6.86,6.86,0,0,1,.73-1.38c.25-.43.5-.84.74-1.24l1.38-2.27c.85-1.4,1.59-2.55,2.09-3.37s.81-1.27.81-1.27-.25.49-.7,1.34-1.08,2.06-1.87,3.5L791,225.2l-.7,1.26a7.88,7.88,0,0,0-.65,1.3,3,3,0,0,0,.48,2.71,3.11,3.11,0,0,0,1.12.91,11.24,11.24,0,0,0,1.51.45,35,35,0,0,0,6.27,1c1,.06,2,.09,2.93.07s1.82-.06,2.63-.13a38.09,38.09,0,0,0,3.91-.55c.94-.18,1.47-.31,1.47-.31l-.37.12c-.25.08-.61.2-1.07.32a30.22,30.22,0,0,1-3.9.8,31.91,31.91,0,0,1-5.63.28c-1-.05-2.1-.13-3.17-.29s-2.16-.37-3.24-.63l-.8-.21-.41-.12A3,3,0,0,1,791,232a3.74,3.74,0,0,1-1.37-1.12A3.55,3.55,0,0,1,789.07,227.57Zm20.81-55a29.06,29.06,0,0,0-8-2.35,26.88,26.88,0,0,0-11.14.79,1.93,1.93,0,0,1-.11-1.69,2,2,0,0,1,1.31-1.16,32.63,32.63,0,0,1,17.59,0,2,2,0,0,1,1.31,1.16,1.92,1.92,0,0,1-.12,1.7Zm-39.19,21.2a2,2,0,0,1-1-.68,1.87,1.87,0,0,1-.35-1.64,32.49,32.49,0,0,1,8.88-15.34,1.88,1.88,0,0,1,1.31-.53l.27,0a1.92,1.92,0,0,1,1.1.54c-.74.58-1.49,1.2-2.24,1.88A24.77,24.77,0,0,0,770.69,193.76Zm11.3-15.9.68,1.19a27.2,27.2,0,0,0-8.55,14.79h-1.4A22.79,22.79,0,0,1,780,179.51C780.67,178.93,781.32,178.38,782,177.86Zm-10.62,27c1.56,6.89,5,12.84,8.26,16.2.47.48.93.94,1.39,1.38a2,2,0,0,1-1.22.67,1.88,1.88,0,0,1-1.58-.52,32.41,32.41,0,0,1-8.88-15.33h0a1.87,1.87,0,0,1,.35-1.64,2,2,0,0,1,1.55-.76Zm2.07,0h.68a27.24,27.24,0,0,0,8.55,14.79l-.58,1c-.33-.32-.67-.66-1-1A33,33,0,0,1,773.44,204.89ZM796,231.44a32.37,32.37,0,0,1-4-.86,2,2,0,0,1-1.31-1.17.58.58,0,0,1,0-.14A43.52,43.52,0,0,0,796,231.44Zm-5-4.18,1.18-2a27.15,27.15,0,0,0,17.09,0l1.44,2.51a1.9,1.9,0,0,1,.12,1.69,2,2,0,0,1-1.31,1.17,31.39,31.39,0,0,1-5.18,1C796,231.44,794.44,229,791.06,227.26Zm18.86-17.81a12.67,12.67,0,0,1-3.46,2.14l-.4.18-.41.14-.78.25c-.51.13-1,.21-1.4.3l-1.14.12c-.33,0-.62,0-.85,0h-.7l.7-.07a6.49,6.49,0,0,0,.84-.11l1.1-.22c.4-.13.85-.25,1.33-.41l.73-.3.39-.16.38-.21a12.64,12.64,0,0,0,3.15-2.25,13.18,13.18,0,0,0,2.68-3.65,12.76,12.76,0,0,0,1.29-4.85l0-.66v-.33l0-.31,0-.7c0-.11,0-.23,0-.35l-.06-.32a10.31,10.31,0,0,0-.26-1.3l-.17-.65c-.06-.23-.16-.43-.23-.65a12.77,12.77,0,0,0-12.85-8.32,12.94,12.94,0,0,0-4.83,1.28,13.41,13.41,0,0,0-3.66,2.69A12.8,12.8,0,0,0,789,193.9l-.2.38c-.06.13-.1.26-.16.39l-.3.73c-.16.47-.29.92-.41,1.33s-.16.78-.23,1.11a8,8,0,0,0-.1.83c0,.45-.07.69-.07.69v-.7a8.11,8.11,0,0,1,0-.84l.12-1.15c.1-.42.18-.89.31-1.39l.25-.78a4,4,0,0,1,.14-.41l.17-.41a12.78,12.78,0,0,1,2.15-3.46,13.41,13.41,0,0,1,9-4.63,13.51,13.51,0,0,1,5.79.72,13.58,13.58,0,0,1,8.35,8.35c.08.24.18.47.24.71l.18.73a10.3,10.3,0,0,1,.26,1.49l.05.37,0,.35,0,.7v.38l0,.36c0,.24,0,.48,0,.72a13.28,13.28,0,0,1-1.58,5.21A13.47,13.47,0,0,1,809.92,209.45Zm-8-15.75a.75.75,0,0,1,0-.15v-.33l0-.43c0-.27,0-.53.08-.77.1-1,.23-1.61.23-1.61s.1.65.16,1.62c0,.24,0,.5,0,.78l0,.84a.75.75,0,0,0,.35.52l.06,0,.12.06.22.11.21.1.11.06.06,0,0,0h0l.05,0,.75.55a.78.78,0,0,0,.61.08l.77-.36.72-.33c.88-.39,1.51-.6,1.51-.6s-.52.41-1.33.94l-.66.43-.36.22-.19.12-.09.06-.12.06a1.29,1.29,0,0,1-1.19-.06l-.79-.55h0l-.06,0-.1-.06-.22-.11-.21-.11-.05,0,0,0-.14-.08A1.31,1.31,0,0,1,801.91,193.7Zm1.28,5.66a2.41,2.41,0,1,1-2.41-2.4A2.41,2.41,0,0,1,803.19,199.36Zm5.07,2.86a11,11,0,0,1,.86.75,10.87,10.87,0,0,1-1.06-.42c-.31-.13-.66-.31-1-.51l-.57-.31-.14-.08-.09-.05-.07,0a1.39,1.39,0,0,1-.32-.32,1.29,1.29,0,0,1-.22-.85,1.93,1.93,0,0,1,.06-.34c0-.1,0-.2.05-.3s0-.39,0-.57,0-.37,0-.54a1,1,0,0,1,.42-.8.86.86,0,0,1,.21-.11l.08,0a1.18,1.18,0,0,0-.19.24,1.11,1.11,0,0,0-.13.29,1,1,0,0,0,0,.39,3.19,3.19,0,0,1,.11.54,4.36,4.36,0,0,1,0,.64c0,.11,0,.22,0,.33s0,.24,0,.3a.7.7,0,0,0,.13.42.56.56,0,0,0,.14.16l.12.08.14.09c.19.12.36.25.54.37C807.68,201.78,808,202,808.26,202.22Zm-.28,4.49-.08.09c0,.06-.11.16-.21.27a8.12,8.12,0,0,1-.88.86,8.6,8.6,0,0,1-1.46,1,9.18,9.18,0,0,1-1.88.73l-.25.06-.14,0-.14,0a1.32,1.32,0,0,1-.66-.12,1.29,1.29,0,0,1-.73-1,1.43,1.43,0,0,1,0-.29v-.23c0-.15,0-.3,0-.44s0-.56.08-.81c.11-1,.24-1.66.24-1.66s.09.67.15,1.67c0,.25,0,.52,0,.81v.67a.5.5,0,0,0,0,.17.71.71,0,0,0,.41.48.74.74,0,0,0,.31.06l.11,0,.1,0,.23-.06c.31-.08.62-.17.92-.27s.6-.21.87-.34a12.88,12.88,0,0,0,1.49-.75c.43-.25.78-.47,1-.64Zm-6.93-3.85a3.4,3.4,0,0,1-1.47-.16,3.67,3.67,0,0,1-1.31-.82,3.57,3.57,0,0,1-.82-1.32,3,3,0,0,1-.17-.75,2.1,2.1,0,0,1,0-.35,2.36,2.36,0,0,1,0-.38,3.16,3.16,0,0,1,.42-1.31,3.27,3.27,0,0,1,.79-.92,2.94,2.94,0,0,1,.88-.5,3.22,3.22,0,0,1,.75-.18,2.69,2.69,0,0,1,.48,0h.17l-.16,0a3.25,3.25,0,0,0-.46.11,3,3,0,0,0-.66.29,3,3,0,0,0-.72.56,3.19,3.19,0,0,0-.59.86,3.41,3.41,0,0,0-.27,1.12,2.81,2.81,0,0,0,0,.29,3.16,3.16,0,0,0,0,.32,2.66,2.66,0,0,0,.16.58,2.89,2.89,0,0,0,1.7,1.7,3.08,3.08,0,0,0,1.2.19,2.87,2.87,0,0,0,1.1-.27,3,3,0,0,0,.87-.59,3.23,3.23,0,0,0,.56-.71,3.92,3.92,0,0,0,.29-.66c0-.19.09-.35.11-.46l0-.17,0,.17a2.79,2.79,0,0,1,0,.49,3.22,3.22,0,0,1-.18.75,3.06,3.06,0,0,1-.5.88A3.28,3.28,0,0,1,801.05,202.86Zm-7.49-9.8a.8.8,0,0,0,.15.17.69.69,0,0,0,.2.14l.57.3c.4.21.82.45,1.23.71l.62.39.29.19a.57.57,0,0,0,.22.11.75.75,0,0,0,.47,0l.11,0,.12-.07.26-.14a3.47,3.47,0,0,1,.86-.32,2.48,2.48,0,0,1,.33-.06l-.28.18a8.71,8.71,0,0,0-.7.52l-.2.18,0,.05-.07,0-.17.11a1.16,1.16,0,0,1-.81.13,1.19,1.19,0,0,1-.41-.15,3.14,3.14,0,0,1-.31-.18l-.63-.36c-.41-.26-.82-.52-1.19-.78-.2-.13-.36-.25-.55-.39a1.6,1.6,0,0,1-.26-.26,1.1,1.1,0,0,1-.15-.31,1.08,1.08,0,0,1,.13-1,1.13,1.13,0,0,1,.18-.19l.07,0,0,.08a1,1,0,0,0-.09.22A.92.92,0,0,0,793.56,193.06Zm4.44,16.2a2.6,2.6,0,0,1-.33,0,5,5,0,0,1-.85-.17,7.38,7.38,0,0,1-1.15-.44c-.2-.1-.41-.21-.61-.33s-.4-.26-.6-.4a6.87,6.87,0,0,1-1.05-.95,5.27,5.27,0,0,1-.43-.51,1.15,1.15,0,0,1-.2-.66,1,1,0,0,1,.41-.84.82.82,0,0,1,.22-.12l.08,0-.06.06a.75.75,0,0,0-.14.18,1,1,0,0,0-.12.71.82.82,0,0,0,.2.38l.45.41c.33.27.68.56,1,.83l.55.39.55.36c.36.23.71.43,1,.6Zm-5.37-6.59a1.92,1.92,0,0,1-.46.24,1.3,1.3,0,0,1-1.6-.73,4.53,4.53,0,0,1-.15-.53,8.73,8.73,0,0,1-.2-2,5.47,5.47,0,0,1,.06-.92,6.35,6.35,0,0,1,.14-.82,7.6,7.6,0,0,1,.36-1.17c.05-.14.11-.24.14-.31l.05-.11-.06.46c0,.28-.08.7-.11,1.19a15.65,15.65,0,0,0,0,1.67c0,.3.06.61.1.92s.1.64.17.95a3.74,3.74,0,0,0,.11.43.61.61,0,0,0,.19.26.74.74,0,0,0,.62.15,2.41,2.41,0,0,0,.37-.16l.4-.19.73-.33c.92-.41,1.56-.63,1.56-.63s-.53.42-1.37,1l-.68.44Zm-.39-29.15-.4-.7a24.48,24.48,0,0,1,9.19-.67h-.25A27.14,27.14,0,0,0,792.24,173.52Zm40,33.77a32.41,32.41,0,0,1-8.88,15.33,1.88,1.88,0,0,1-1.58.52,2,2,0,0,1-1.44-1l-1.43-2.49a27.22,27.22,0,0,0,8.54-14.79h2.89a2,2,0,0,1,1.55.76A1.9,1.9,0,0,1,832.23,207.29Zm-13.07,15.56s-.71-1-1.69-2.55c-.5-.77-1.06-1.68-1.66-2.66l-.91-1.51-.92-1.58c-.15-.26-.3-.51-.45-.83a3.57,3.57,0,0,1-.28-.95,3.69,3.69,0,0,1,.26-1.9c.06-.14.13-.28.2-.41a4.17,4.17,0,0,1,.26-.38l.51-.62c.32-.41.61-.8.86-1.18a20.56,20.56,0,0,0,1.14-1.88c.25-.47.39-.75.39-.75l-.07.21a5.89,5.89,0,0,1-.2.59,13.58,13.58,0,0,1-.93,2,12.39,12.39,0,0,1-.79,1.28l-.47.66a2.69,2.69,0,0,0-.19.32,2.32,2.32,0,0,0-.16.36,3.07,3.07,0,0,0-.16,1.57,2.71,2.71,0,0,0,.24.78c.11.23.28.5.43.77l.9,1.58c.3.52.58,1,.86,1.54.55,1,1,1.95,1.47,2.77C818.65,221.73,819.16,222.85,819.16,222.85ZM788.9,169.53a3.6,3.6,0,0,1,1.72-2.56,4.34,4.34,0,0,1,1.37-.51l1.31-.3c.86-.18,1.68-.3,2.43-.39a29.08,29.08,0,0,1,3.67-.22c.44,0,.79,0,1,0h.36l-1.38.1a36,36,0,0,0-3.61.47c-.74.13-1.54.3-2.38.5l-1.27.34-.33.1-.08,0h0l0,0-.16.05-.17.06-.13.07a1.91,1.91,0,0,0-.27.16,3,3,0,0,0-1.39,2.15,3,3,0,0,0,.12,1.32,3.24,3.24,0,0,0,.29.63l.38.65,1.49,2.61c.5.86,1,1.72,1.44,2.54l1.32,2.39.31.56.15.26a1.64,1.64,0,0,0,.16.26,3,3,0,0,0,.77.77,3.22,3.22,0,0,0,1.84.58c.3,0,.58,0,.85-.07l.73,0c.45,0,.8,0,1,0l.36,0s-.5,0-1.38.12l-.72.1c-.26,0-.54.11-.86.13a3.49,3.49,0,0,1-2.07-.5,3.52,3.52,0,0,1-.93-.85c-.07-.09-.12-.17-.18-.26l-.17-.27-.33-.55-1.4-2.34c-.48-.81-1-1.65-1.48-2.51l-1.52-2.6-.37-.66a3.91,3.91,0,0,1-.34-.75A3.47,3.47,0,0,1,788.9,169.53Zm29.48,7.58c.49-.79.78-1.23.78-1.23l-.67,1.29c-.44.82-1,2-1.81,3.39-.38.7-.79,1.46-1.23,2.25l-.68,1.23-.35.63-.18.32c0,.09-.12.22-.15.31a3,3,0,0,0,.16,2.67,5.08,5.08,0,0,0,.42.6c.17.2.33.42.49.64.31.44.6.89.88,1.36s.51,1,.73,1.44c.12.24.22.49.32.74a4.06,4.06,0,0,0,.31.66,3,3,0,0,0,2.24,1.46c.11,0,.22,0,.34,0h1.09l1.4,0L825,195c1.59,0,2.92.1,3.84.13l1.46.06-1.46.07c-.92,0-2.25.09-3.84.13l-2.56.05-1.4,0h-1.49a3.63,3.63,0,0,1-2.74-1.72,4.24,4.24,0,0,1-.36-.75c-.1-.24-.2-.48-.31-.71q-.33-.71-.72-1.38c-.26-.45-.54-.89-.84-1.31-.15-.22-.29-.42-.45-.63a5.12,5.12,0,0,1-.48-.68,3.63,3.63,0,0,1-.13-3.24,3.84,3.84,0,0,1,.18-.35l.19-.32.37-.62.72-1.2,1.34-2.19C817.17,179,817.89,177.9,818.38,177.11Zm.62,1.76,1.33-2.31a2,2,0,0,1,1.44-1l.27,0a1.88,1.88,0,0,1,1.31.53,32.49,32.49,0,0,1,8.88,15.34,1.9,1.9,0,0,1-.35,1.64,2,2,0,0,1-1.55.76h-2.89A27,27,0,0,0,822.55,183,34.41,34.41,0,0,0,819,178.87Zm-58.21,20.49s0-.73,0-2.11a42.07,42.07,0,0,1,.66-6,39.88,39.88,0,0,1,2.82-8.88,39.39,39.39,0,0,1,6.58-10.15,41.12,41.12,0,0,1,11.3-8.84,39.74,39.74,0,0,1,15.39-4.5,40.57,40.57,0,0,1,17,2.21,40.36,40.36,0,0,1,26.66,41.47,39.63,39.63,0,0,1-4.5,15.38,40.7,40.7,0,0,1-8.83,11.29,39.61,39.61,0,0,1-10.15,6.59,40.39,40.39,0,0,1-8.89,2.81,42.13,42.13,0,0,1-6,.67l-2.12,0,2.12-.1a45.42,45.42,0,0,0,5.9-.84,39.69,39.69,0,0,0,8.73-3,40.78,40.78,0,0,0,9.86-6.69,39.59,39.59,0,0,0,12.67-26.22c0-.33,0-.67.07-1s0-.68,0-1l0-1,0-1,0-1.06c0-.34-.06-.68-.08-1l-.09-1-.14-1a40.24,40.24,0,0,0-2-8.22,39.69,39.69,0,0,0-23.68-23.68,41.09,41.09,0,0,0-8.22-2,40.27,40.27,0,0,0-8.27-.24,39.6,39.6,0,0,0-26.21,12.67,40.79,40.79,0,0,0-3.87,4.94,38.47,38.47,0,0,0-2.82,4.92,39.69,39.69,0,0,0-3,8.73,45.79,45.79,0,0,0-.85,5.9C760.82,198.63,760.79,199.36,760.79,199.36Z"/></g><line class="cls-12" x1="0.08" y1="138.37" x2="1047" y2="138.37"/><line class="cls-12" x1="27.72" y1="116.74" x2="27.72" y2="136.77"/><circle cx="27.38" cy="138" r="4.48"/><line class="cls-12" x1="100.87" y1="160.02" x2="100.87" y2="140"/><circle cx="101.22" cy="138.77" r="4.48"/><line class="cls-12" x1="177.72" y1="104.78" x2="177.72" y2="136.77"/><circle cx="177.36" cy="138" r="4.48"/><line class="cls-12" x1="249.79" y1="160.02" x2="249.79" y2="140"/><circle cx="250.15" cy="138.77" r="4.48"/><line class="cls-12" x1="448.35" y1="160.02" x2="448.35" y2="140"/><circle cx="448.71" cy="138.77" r="4.48"/><line class="cls-12" x1="323.67" y1="115.23" x2="323.65" y2="136.77"/><circle cx="323.3" cy="138" r="4.48"/><line class="cls-12" x1="632.31" y1="160.02" x2="632.31" y2="140"/><circle cx="631.96" cy="138.77" r="4.48"/><line class="cls-12" x1="545.37" y1="118.22" x2="545.4" y2="136.77"/><circle cx="545.75" cy="138" r="4.48"/><line class="cls-12" x1="802.51" y1="160.02" x2="802.51" y2="140"/><circle cx="802.16" cy="138.77" r="4.48"/><line class="cls-12" x1="715.57" y1="118.22" x2="715.59" y2="136.77"/><circle cx="715.94" cy="138" r="4.48"/><text class="cls-8" transform="translate(902.41 40.32)">0</text><text class="cls-9" transform="translate(900.12 186.56)">0</text><text class="cls-9" transform="translate(863.75 33.23)">0</text><text class="cls-8" transform="translate(928.46 199.51)">1</text><line class="cls-12" x1="884.27" y1="118.22" x2="884.29" y2="136.77"/><circle cx="884.64" cy="138" r="4.48"/><path d="M1022.92,129.59h0a31,31,0,0,0-9.11-7,43.09,43.09,0,0,1-7.52-4.78,39.77,39.77,0,0,1-6.62-6.73A6.81,6.81,0,0,1,999,110a14.94,14.94,0,0,1-.9-4.15,7.12,7.12,0,0,0-4.06-5.71,4.58,4.58,0,0,1-1.49-1,14.19,14.19,0,0,1-2.71-4.66,1.13,1.13,0,0,0-.87-.83,5.31,5.31,0,0,0-1.26-.07c-.67,0-1.33.16-2,.21-1.06.09-1.58-.31-1.9-1.39-.16-.55-.33-1.09-.5-1.63a.61.61,0,0,0-.64-.48c-1.17-.06-2.34-.17-3.51-.19a70.31,70.31,0,0,1-10.46-.55,17.84,17.84,0,0,1-3.19-.91,2.55,2.55,0,0,1-1.71-2.39c0-.54,0-1.08,0-1.62a7.89,7.89,0,0,1,.1-.85c.14-1-.36-1.57-1.28-1.52-1.21.06-1.65-.27-2-1.52a1.89,1.89,0,0,0-.11-.44,1.36,1.36,0,0,0-.37-.52c-1.32-.79-2.67-1.53-4-2.34A134.92,134.92,0,0,0,942.92,70c-.62-.29-.93-.22-1.3.37A4.48,4.48,0,0,1,939.9,72a16.48,16.48,0,0,1-1.64.79,41.31,41.31,0,0,1-6.82,1.9,1,1,0,0,0-.64,1.8,22.4,22.4,0,0,0,1.79,1.86,22.59,22.59,0,0,1,1.72,1.81,2.07,2.07,0,0,1,0,2.76,9.26,9.26,0,0,1-3,2.48c-.56.28-1.15.48-1.71.75a8.58,8.58,0,0,0-3.29,2.67,1,1,0,0,1-1.39.45,12,12,0,0,0-1.83-.54,23.21,23.21,0,0,0-2.61-.41,1,1,0,0,0-1.11.83c-.17.58-.4,1.14-.53,1.73-.34,1.54-.63,3.09-1,4.64-.19.9,0,1.22.92,1.19.54,0,1.07-.09,1.61-.08a2.8,2.8,0,0,1,2.24,1.13,12.36,12.36,0,0,1,1.59,3.6,28.42,28.42,0,0,0,4.78,8.79,12.34,12.34,0,0,1,1.42,2.13,12.86,12.86,0,0,1,1,4,4.6,4.6,0,0,0,3.1,4,10.35,10.35,0,0,1,1.5.63,9.33,9.33,0,0,1,4.11,5,10.12,10.12,0,0,1,.63,6.47,6.57,6.57,0,0,0-.08,3A10.67,10.67,0,0,0,943,140a21.26,21.26,0,0,0,5.31,5.06,5.8,5.8,0,0,1,1.36,1.39,9.8,9.8,0,0,1,1.72,4.76,6.77,6.77,0,0,0,3.84,5.56,4.56,4.56,0,0,1,1.43,1.12,5.3,5.3,0,0,1,.59,1.37c.65,1.57,1.29,3.15,2,4.71a.78.78,0,0,0,.56.36,2.39,2.39,0,0,0,2-.82,1,1,0,0,0,.25-.56c.07-1.18.11-2.36.15-3.54,0-.5,0-1,0-1.5l.16-.06c.17.21.36.41.53.62a2.87,2.87,0,0,0,3.62,1,7.58,7.58,0,0,1,3.64-.53c2.64.21,5.29.51,7.94.69a3,3,0,0,1,2.63,1.35c.31.5.86.5,1.42.24a3.48,3.48,0,0,0,1.43-1.51,20.8,20.8,0,0,1,4.37-5.43,7.12,7.12,0,0,1,4.22-1.86,67.5,67.5,0,0,0,10.84-1.6,72.26,72.26,0,0,0,10.22-3.16A56.58,56.58,0,0,0,1021,144a1.14,1.14,0,0,0,.44-.43,35.58,35.58,0,0,0,3-8.76A5.42,5.42,0,0,0,1022.92,129.59Z"/></g></g></svg>