<svg xmlns="http://www.w3.org/2000/svg" viewBox="0 0 25.51 25.51">
	<defs>
		<style>
			.cls-1{fill:#fff;}
		</style>
	</defs>
	<g id="Layer_2" data-name="Layer 2">
		<g id="Layer_1-2" data-name="Layer 1">
			<path class="cls-1" d="M12.76,25.51A12.76,12.76,0,1,1,25.51,12.87,12.75,12.75,0,0,1,12.76,25.51ZM10.9,12.77v7.08l.38,0c.73,0,1.46,0,2.18,0,.32,0,.41-.08.41-.4q0-3.16,0-6.31c0-.13,0-.26,0-.41h1.94l.25-2.48H13.88c0-.52,0-1,0-1.51a.58.58,0,0,1,.59-.63,7.61,7.61,0,0,1,.83,0H16V5.6c-1,0-2,0-2.92.14a2.29,2.29,0,0,0-2.11,2,9.07,9.07,0,0,0-.11,1.38c0,.38,0,.76,0,1.18H9.46v2.46Z" />
		</g>
	</g>
</svg>
