<svg xmlns="http://www.w3.org/2000/svg" xmlns:xlink="http://www.w3.org/1999/xlink" viewBox="0 0 638.65 321.71"><defs><style>.cls-1,.cls-6{fill:none;}.cls-2{fill:#cb1f2e;}.cls-3{clip-path:url(#clip-path);}.cls-4{opacity:0.1;}.cls-5{fill:#fff;}.cls-6{stroke:#fff;stroke-miterlimit:10;stroke-width:2px;}</style><clipPath id="clip-path" transform="translate(-0.01)"><rect class="cls-1" width="638.65" height="264.52"/></clipPath></defs><g id="Layer_2" data-name="Layer 2"><g id="Layer_1-2" data-name="Layer 1"><rect class="cls-2" width="638.65" height="264.52"/><g class="cls-3"><g class="cls-4"><path class="cls-5" d="M269.61,90.28a5.14,5.14,0,0,0-8.7,2.63c-.12.56.76.72.88.16A4.25,4.25,0,0,1,269,91c.4.4,1-.27.58-.67Z" transform="translate(-0.01)"/><path class="cls-5" d="M368,112c1.4-1.92,2.07-5,4.27-6.15,2-1,4.32-.41,6.42-.12,3.5.5,7-.09,8.64-3.61,1.85-3.86,0-8-3.26-10.42a20.21,20.21,0,0,0-6.57-3.09,22.11,22.11,0,0,0-3.5-.69c-.53-.05-4.18.14-4-.9,1.88-4.33,2.85-9,1.51-13.65a17.69,17.69,0,0,0-7.31-9.82c-7-4.3-17.71-1-21.3,6.32-2.66,5.38.22,9.62,3.52,13.69-.83.18-1.84.15-2.6.34a12,12,0,0,0-2.18.76A10.73,10.73,0,0,0,337.49,88c-2.39,3.15-2.66,7.37-1.63,11.08,1,3.44,3.37,6.56,7.09,7.08a9.68,9.68,0,0,0,5-.76c1-.43,2-1.48,2.76-.08.44.83.43,2.14.81,3.07,1.31,3.17,3.89,6.18,7.22,7.27C362.46,116.83,365.85,115,368,112Zm-14.22-2.07a15.18,15.18,0,0,1-1.85-5.18,1.87,1.87,0,0,0-2-1.68,4.25,4.25,0,0,0-1.36.6,12.21,12.21,0,0,1-3,1.12,6.76,6.76,0,0,1-5.91-1.57c-3.37-3.08-4-9.25-2-13.2a9.44,9.44,0,0,1,4.6-4.26c1.79-.79,3.88-.52,5.56-1.36a.64.64,0,0,0,.11-1c-2-2.44-4.4-4.86-4.8-8.15a9.76,9.76,0,0,1,2.79-7.56A15.44,15.44,0,0,1,358.8,63c4.74.56,8.44,4,10.53,8.15,2.51,5,1.7,10.46-.46,15.4a0,0,0,0,0,0,0,.43.43,0,0,0-.05.12A1.87,1.87,0,0,0,370,89.09a5.17,5.17,0,0,0,1.71,0,17.24,17.24,0,0,1,3.79.33c3.69.73,8.37,2.48,10.38,5.92,2.58,4.42-.36,9.71-5.52,9.35-3-.2-6.11-1.38-8.92.25-1.49.85-2.06,2.2-2.81,3.67-1.09,2.15-2.47,4.33-4.68,5.48C360,116.12,355.9,113.2,353.8,109.94Z" transform="translate(-0.01)"/><path class="cls-5" d="M342,108.58a17.38,17.38,0,0,1-11.64-5.11c-.76-.75-1.89.45-1.14,1.19a19.16,19.16,0,0,0,12.84,5.57C343.12,110.28,343.06,108.63,342,108.58Z" transform="translate(-0.01)"/><path class="cls-5" d="M333.28,86.68a5.86,5.86,0,0,1,3.2-5.16c.93-.5.07-1.91-.87-1.41a7.56,7.56,0,0,0-4,6.63C331.61,87.8,333.26,87.74,333.28,86.68Z" transform="translate(-0.01)"/><path class="cls-5" d="M587.91,268.59c1.4-1.91,2.07-5,4.28-6.14,2-1,4.32-.42,6.41-.12,3.5.49,6.95-.1,8.64-3.61,1.85-3.86,0-8.05-3.26-10.43a20.21,20.21,0,0,0-6.57-3.09,22.08,22.08,0,0,0-3.5-.68c-.53-.06-4.17.13-4-.9,1.88-4.34,2.86-9,1.51-13.65a17.71,17.71,0,0,0-7.31-9.83c-7-4.3-17.71-1-21.3,6.32-2.66,5.38.23,9.63,3.52,13.7-.83.17-1.84.14-2.59.33a12.89,12.89,0,0,0-2.19.76,10.73,10.73,0,0,0-4.17,3.29c-2.39,3.15-2.66,7.37-1.63,11.09,1,3.44,3.38,6.55,7.09,7.08a9.58,9.58,0,0,0,5-.77c1-.43,2-1.48,2.76-.08.44.84.43,2.15.81,3.07,1.31,3.17,3.89,6.18,7.22,7.28C582.35,273.41,585.74,271.56,587.91,268.59Zm-14.22-2.06a15.23,15.23,0,0,1-1.85-5.19,1.86,1.86,0,0,0-2-1.67,3.82,3.82,0,0,0-1.37.6,11.8,11.8,0,0,1-3,1.11,6.7,6.7,0,0,1-5.91-1.57c-3.37-3.08-4-9.24-2-13.2a9.41,9.41,0,0,1,4.6-4.25c1.79-.8,3.88-.53,5.57-1.37a.63.63,0,0,0,.1-1c-2-2.44-4.4-4.86-4.79-8.15a9.79,9.79,0,0,1,2.78-7.57,15.46,15.46,0,0,1,12.89-4.67c4.74.55,8.44,4,10.53,8.15,2.51,5,1.7,10.45-.46,15.39,0,0,0,0,0,0a.5.5,0,0,0,0,.13,1.86,1.86,0,0,0,1.16,2.35,4.91,4.91,0,0,0,1.71,0,16.61,16.61,0,0,1,3.79.34c3.7.72,8.37,2.48,10.38,5.91,2.58,4.42-.36,9.71-5.52,9.36-3-.21-6.11-1.38-8.92.24-1.49.86-2.06,2.21-2.81,3.67-1.09,2.15-2.47,4.34-4.67,5.49C579.89,272.71,575.79,269.79,573.69,266.53Z" transform="translate(-0.01)"/><path class="cls-5" d="M561.89,265.17a17.39,17.39,0,0,1-11.64-5.12c-.76-.74-1.89.45-1.14,1.2A19.15,19.15,0,0,0,562,266.81C563,266.86,563,265.21,561.89,265.17Z" transform="translate(-0.01)"/><path class="cls-5" d="M553.17,243.26a5.89,5.89,0,0,1,3.2-5.16c.94-.5.07-1.9-.86-1.4a7.54,7.54,0,0,0-4,6.62C551.51,244.38,553.15,244.32,553.17,243.26Z" transform="translate(-0.01)"/><path class="cls-5" d="M569.81,149.47l-.81-.87c-.39-.42-.81-.8-1.18-1.24-1.78-2.15-1.53-4.13,0-6.21.33-.44.75-.83,1.16-1.28-.19-.33-.39-.6-.52-.89a20.51,20.51,0,0,1-1.13-2.76,5.28,5.28,0,0,1,4.08-6.57,7.39,7.39,0,0,1,3.93.23c1.67.56,3.3,1.21,4.94,1.82l.55.19a1.63,1.63,0,0,0,.19-.42c.29-2.82,3.66-4.86,6.56-4.07a9.45,9.45,0,0,1,2.23.92,2.39,2.39,0,0,0,1.37.58l.12-1.23a5,5,0,0,1,2.8-4.17,6,6,0,0,1,4.3-.35,9.69,9.69,0,0,1,3.9,2c.19.14.37.3.59.48,2.16-.51,3.45.75,4.61,2.31,4.72,6.37,9.71,12.51,14.8,18.59q6.81,8.12,13.61,16.25a19.61,19.61,0,0,1,1.82,2.54,5.88,5.88,0,0,1,.76,4.24,6.48,6.48,0,0,1-1.41,2.92c-.79.94-1.63,1.85-2.47,2.75q-6.3,6.76-12.61,13.5a18.19,18.19,0,0,1-1.82,1.8,6,6,0,0,1-6.9.88,18.78,18.78,0,0,1-3-1.89c-6-4.35-11.92-8.75-17.94-13.06-4.7-3.37-9.47-6.64-14.23-9.93-1.37-.94-2.79-1.8-4.18-2.71-.36-.23-.7-.49-1-.75a3.71,3.71,0,0,1-1.54-2.47,1.75,1.75,0,0,0-.58-1.1,7.31,7.31,0,0,1-.91-1.09,7.42,7.42,0,0,1-.52-7.94c.12-.26.27-.5.4-.75A1.25,1.25,0,0,0,569.81,149.47Zm1.77,9.11c.57-.79,1-1.55,1.62-2.24s1.21-1.32,1.82-2,1.29-1.38,1.9-2.11c4.87-5.87,10-11.46,15.41-16.88,2-2.05,4.1-4.06,6.12-6.12a29.6,29.6,0,0,1,3-2.85c.1-.07.14-.23.22-.39-.34-.27-.66-.56-1-.79a7.92,7.92,0,0,0-3.89-1.22,4.11,4.11,0,0,0-4.35,4.23c0,.47.1.94.1,1.41a4,4,0,0,1-.15.78,3.47,3.47,0,0,1-2-.54c-.58-.31-1.14-.69-1.75-1a7.39,7.39,0,0,0-1.89-.58,4.2,4.2,0,0,0-4.44,2.6,5.47,5.47,0,0,0-.22,1.67,3.44,3.44,0,0,1-1,2.43l-1,1c-.37.36-.76.71-1.12,1.08a3,3,0,0,0-.64,3.54c.28.65.69,1.25,1,1.87a5.33,5.33,0,0,1,.37.76.39.39,0,0,1-.12.36.84.84,0,0,1-.51.14c-.12,0-.24-.14-.33-.25a9.67,9.67,0,0,1-1.53-2.71,4,4,0,0,1,.79-4.24c.35-.39.72-.75,1.09-1.11s.85-.76,1.23-1.18a3.91,3.91,0,0,0,.45-.78,3.1,3.1,0,0,0-1.68-1.18c-.79-.31-1.58-.64-2.39-.91a20.57,20.57,0,0,0-2.32-.68,6,6,0,0,0-3,0,4.21,4.21,0,0,0-3.15,4.63,7.36,7.36,0,0,0,1.66,3.72l.53.6c-.13.69-.7.95-1.08,1.35a6.26,6.26,0,0,0-1.56,2.33,2.63,2.63,0,0,0,.08,2.08,7.39,7.39,0,0,0,.93,1.42c.42.5.92.94,1.4,1.41,1.08,1,1.09,1,.29,2.3A6.25,6.25,0,0,0,571.58,158.58Zm58.59,19.78A3.66,3.66,0,0,0,629,177q-12.86-11.94-25.75-23.84c-4.41-4.08-8.87-8.13-13.31-12.18a1.34,1.34,0,0,0-1.06-.56l-3.94,4.24c.45.46.83.88,1.24,1.26,6.92,6.4,13.81,12.83,20.77,19.18,6.15,5.62,12.39,11.15,18.59,16.72a9.66,9.66,0,0,0,.85.56Zm-7.72,8.3c-.52-.42-.87-.73-1.25-1l-15.45-11.85-26.68-20.35a11.55,11.55,0,0,0-1-.64,2.4,2.4,0,0,0-.43.29c-1.05,1.15-2.11,2.31-3.15,3.47a6.27,6.27,0,0,0-.49.68,8.72,8.72,0,0,0,.69.62q6.92,5.34,13.85,10.67,14.06,10.75,28.32,21.24a3.65,3.65,0,0,0,1.36.76C620,189.68,621.08,188.13,622.45,186.66ZM637,170.55c-.35-.44-.67-.85-1-1.25-6.09-7.08-12.14-14.19-18.27-21.23-5.32-6.12-10.73-12.16-16.1-18.22a2.93,2.93,0,0,0-1.2-1.07c-.68.73-1.38,1.43-2,2.17a21.33,21.33,0,0,0-2,2.08,1.33,1.33,0,0,0,.16.38L626,167c2.31,2.63,4.66,5.23,7,7.85a.29.29,0,0,0,.12.07.29.29,0,0,0,.13,0A13.49,13.49,0,0,0,637,170.55ZM625.45,183.4a3.91,3.91,0,0,0-.35-.46c-13.76-12.13-27.21-24.59-40.63-37.08a1,1,0,0,0-.26-.09,41,41,0,0,0-5.39,6.06c.34.29.68.61,1,.89q6.86,5.19,13.71,10.39,9.95,7.57,19.86,15.21c2.94,2.24,5.85,4.51,8.79,6.76.32.25.62.61,1.21.51ZM590,139.48a4.18,4.18,0,0,0,.34.42l40.46,37.31c.06,0,.18,0,.36.08.38-.46,1-.77,1.17-1.46a5.76,5.76,0,0,0-.35-.49l-36.29-41.21a.29.29,0,0,0-.12-.07.32.32,0,0,0-.14,0A47.12,47.12,0,0,0,590,139.48ZM637.44,169a3.86,3.86,0,0,0-.46-2.82,15.92,15.92,0,0,0-1.66-2.47c-2.86-3.47-5.76-6.91-8.66-10.35-6.9-8.19-13.77-16.4-20.16-25a8.61,8.61,0,0,0-.74-.86,2.41,2.41,0,0,0-3.33-.43,9.7,9.7,0,0,0-1,.76,3.63,3.63,0,0,0,.35.54c11.91,13.37,23.72,26.82,35.29,40.49A1.73,1.73,0,0,0,637.44,169Zm-21.32,21.92c0-.21,0-.28,0-.29q-21.33-15.85-42.34-32.12c-.14-.11-.31-.19-.52-.32-.18.28-.34.5-.47.75a2.28,2.28,0,0,0,.54,3,7.63,7.63,0,0,0,1.24.94c.83.55,1.69,1,2.51,1.62,3.76,2.56,7.54,5.1,11.24,7.73,5.41,3.85,10.76,7.77,16.13,11.66,2.58,1.86,5.12,3.76,7.72,5.58A6.64,6.64,0,0,0,616.12,190.94Z" transform="translate(-0.01)"/><path class="cls-5" d="M273,93c.24-1.38.45-2.61.67-3.84a7.47,7.47,0,0,1,3.06-4.66,10.09,10.09,0,0,1,15.95,5.54,13.82,13.82,0,0,1,0,7.08,119.93,119.93,0,0,0-2.75,14.55c0,.12,0,.24-.06.35a.69.69,0,0,1-.93.57c-1.53-.71-3.15-.48-4.75-.52-2,0-4.05,0-6.07-.12a19.45,19.45,0,0,1-5.6-1,14.23,14.23,0,0,1-6.12-3.87,10.57,10.57,0,0,1-2.77-6.44,6.48,6.48,0,0,1,5-7,34.42,34.42,0,0,1,3.53-.47Zm15.68,17.76c.05-.22.11-.39.13-.56a108,108,0,0,1,2.52-13,13,13,0,0,0,.12-6.55,8.41,8.41,0,0,0-4.94-6.17,9,9,0,0,0-10,2c-1.61,1.85-1.8,4.09-2,6.35,0,.44.47,1-.09,1.3a3.36,3.36,0,0,1-1.36.24c-.83.06-1.68,0-2.5.14a10.52,10.52,0,0,0-2.41.61A4.83,4.83,0,0,0,265,99.27a7.31,7.31,0,0,0,.2,2.83,9.66,9.66,0,0,0,3.32,5.17,14.7,14.7,0,0,0,6.44,3,33.3,33.3,0,0,0,6.76.55Z" transform="translate(-0.01)"/><path class="cls-5" d="M477.41,295.65l-11.88-2.72c-.25.28-.51.54-.73.83q-6.46,8.46-12.94,16.91a11,11,0,0,1-1.07,1.21,3.41,3.41,0,0,1-3.72.9,8.47,8.47,0,0,1-1.63-.71,2.62,2.62,0,0,1-1-3.89,10.21,10.21,0,0,1,.73-1.08c.92-1.21,1.82-2.43,2.78-3.6q4.57-5.49,9.18-11c.24-.29.48-.58.7-.83-.11-.48-.47-.45-.76-.53-.79-.2-1.58-.38-2.36-.61a6.53,6.53,0,0,1-1.2-.48,1.53,1.53,0,0,1-.83-1.63A8.78,8.78,0,0,1,453,287c.13-.46.3-.92.46-1.43a6.48,6.48,0,0,0-.78-.3c-2-.43-3.91-.83-5.86-1.28a16.46,16.46,0,0,1-2.18-.63,1.36,1.36,0,0,1-1-1.63A15,15,0,0,1,444,280c.41-1.68.83-3.36,1.24-5a2.16,2.16,0,0,0,0-.51,4,4,0,0,0-1.7-.43,2.8,2.8,0,0,1-2.33-1.37,6.54,6.54,0,0,0-.91.39,45.45,45.45,0,0,0-5.46,3.79,3.79,3.79,0,0,1-2.14,1.08,1.56,1.56,0,0,1-1.95-1.6,5,5,0,0,1,.14-1.28c1.32-5.86,2.67-11.71,4-17.58.76-3.48,1.43-7,2.16-10.48.15-.74.35-1.48.57-2.2a3.56,3.56,0,0,1,.51-1,1.38,1.38,0,0,1,2.23-.25,8.83,8.83,0,0,1,1.2,1.32,35.3,35.3,0,0,1,3.18,5.27l1.12,2.19,4.35.93a7.79,7.79,0,0,0,.38-.91c.31-1.21.59-2.42.89-3.63a9.23,9.23,0,0,1,.24-.94A2.07,2.07,0,0,1,454,246.1c1.13,0,2.25.23,3.38.37.62.08,1.24.21,2.11.36-.36-.55-.57-.89-.8-1.23a16.42,16.42,0,0,1-2.65-5.7,13.7,13.7,0,0,1,1-9.65c3-5.91,8-9.11,14.55-9.3,7.82-.22,13.07,4.83,15.35,10.06.28.64.46,1.32.71,2a8.67,8.67,0,0,0,.46.91c.49-.5.9-.93,1.33-1.34a16,16,0,0,1,9.74-4.75,15.75,15.75,0,0,1,14.32,5.71,17.4,17.4,0,0,1,1.76,20,13.46,13.46,0,0,1-3.88,4.31l-1.15.85a7,7,0,0,0,1.72.45,2.13,2.13,0,0,1,1.75,2.66,6.42,6.42,0,0,1-.15.63q-3.69,15.81-7.39,31.61c-.08.37-.15.74-.25,1.11-.4,1.54-1,2-2.52,1.93a14,14,0,0,1-2.41-.28c-1.26-.27-2.51-.63-3.77-1l-4.24-1.1a5.5,5.5,0,0,0-.69-.08l-.46,1.58c-.46,1.62-1.13,2.1-2.85,1.9-.86-.1-1.7-.3-2.55-.46l-1.67-.34a7.63,7.63,0,0,0,.16,1.08c1.67,5.89,3,11.85,4.34,17.82a17.24,17.24,0,0,1,.35,2.25,2.63,2.63,0,0,1-2.64,3.17,7.34,7.34,0,0,1-2.09-.13,3.33,3.33,0,0,1-2.57-2.25,14.18,14.18,0,0,1-.56-2c-.86-4.14-1.72-8.27-2.54-12.41-.55-2.76-1-5.54-1.56-8.3C477.59,296.29,477.51,296,477.41,295.65Zm-15.54-9.46,1.45-1c4.57-3.18,9.18-6.32,14-9.15,2.79-1.65,5.65-3.19,8.48-4.77a7.18,7.18,0,0,1,4.87-.77c.64.12,1.28.19,1.92.33L507.64,274c.56.11,1.12.44,1.82.15.15-.57.33-1.19.48-1.81.79-3.32,1.57-6.63,2.37-9.95.39-1.59.23-1.88-1.39-2.19-1.28-.24-2.57-.41-3.83-.7q-6.72-1.51-13.43-3.1c-10.31-2.45-20.7-4.58-30.91-7.42-1.3-.36-2.62-.68-3.94-1s-2.45-.43-3.68-.61c-2.27-.34-2.18.25-2.54,1.77-1.68,7-3.33,14.1-5,21.15-.86,3.58-1.47,7.21-2.59,10.72a7.65,7.65,0,0,0-.15.92,3.37,3.37,0,0,0,1.95.84c1.8.41,3.6.76,5.39,1.17Zm1.85.34c.48.15.83.27,1.19.36,2.53.6,5,1.18,7.58,1.79,9.14,2.21,18.34,4.14,27.41,6.63a24.28,24.28,0,0,0,3.51.6c.8.1,1-.13,1.28-.91.06-.21.1-.43.15-.64q2-8.69,4-17.38c.1-.42.16-.84.25-1.31a7.08,7.08,0,0,0-1-.32c-5.66-1.18-11.33-2.33-17-3.54a7.36,7.36,0,0,0-5.47.84c-.23.14-.47.26-.71.39A206,206,0,0,0,464.39,286,6.74,6.74,0,0,0,463.72,286.53Zm52.61-43.33a17.89,17.89,0,0,0-1.9-6.19,15.16,15.16,0,0,0-26.76-.09,12.76,12.76,0,0,0-1.4,8.79,15.4,15.4,0,0,0,4.59,8.23,3.37,3.37,0,0,0,1.66.94c4.8,1.1,9.59,2.2,14.38,3.33a2.67,2.67,0,0,0,1.86-.22,12.06,12.06,0,0,0,5.14-4.58A16,16,0,0,0,516.33,243.2Zm-46.51-20.88a15.39,15.39,0,0,0-9.61,5.25A13.37,13.37,0,0,0,456.89,238a14.67,14.67,0,0,0,4.75,9.18,2.83,2.83,0,0,0,1.14.56c1.25.37,2.5.7,3.76,1,3.67.91,7.35,1.8,11,2.72a2.85,2.85,0,0,0,2-.23,12.48,12.48,0,0,0,5-4.46,2,2,0,0,0,.34-1.38,21.86,21.86,0,0,1-.12-2.91,13,13,0,0,1,1.65-5.9,2.73,2.73,0,0,0,.24-2.32,25.24,25.24,0,0,0-1.08-3.06A15,15,0,0,0,469.82,222.32Zm-30.58,22.07a5.65,5.65,0,0,0-1.06,3c-.5,3.43-1.34,6.79-2.09,10.17-1.31,5.91-2.66,11.82-4,17.73a1.63,1.63,0,0,0,.06,1.38c.91.19,1.44-.39,2.05-.83,1.17-.86,2.35-1.72,3.55-2.54.85-.59,1.71-1.14,2.59-1.68a2.07,2.07,0,0,0,1.08-1.5c.21-1.22.58-2.42.86-3.63.77-3.32,1.7-6.6,2.17-10,.14-1,.33-2,.5-3-.47-1-.95-1.94-1.43-2.9a31.46,31.46,0,0,0-2.92-4.86A3.29,3.29,0,0,0,439.24,244.39Zm14.57,44.47a7.76,7.76,0,0,0,1.16.53c.94.26,1.88.53,2.84.7,5.06.9,10,2.14,15.06,3.27,4.8,1.07,9.59,2.19,14.39,3.28a20.74,20.74,0,0,0,2.23.37.9.9,0,0,0,1-.65,4.11,4.11,0,0,0,.36-2c-.28-.1-.47-.2-.68-.25l-35.07-8.18a.39.39,0,0,0-.15,0l-.26.12a12.89,12.89,0,0,0-.51,1.25C454,287.76,454,288.23,453.81,288.86Zm25.2,7.26a4,4,0,0,0,.13,1.84q.66,3.68,1.39,7.34c.81,4,1.65,8.07,2.48,12.09.08.37.22.73.32,1.1a2.49,2.49,0,0,0,2.45,2c1.77.1,3-.16,2.51-2.56-.45-2.18-.87-4.36-1.37-6.52-.68-3-1.41-5.89-2.16-8.83-.46-1.84-1-3.65-1.49-5.51A20,20,0,0,0,479,296.12Zm-15-3.47a28.51,28.51,0,0,0-4-.89.94.94,0,0,0-.86.36c-.28.33-.59.64-.87,1-2.65,3.13-5.33,6.26-7.95,9.42-1.45,1.75-2.81,3.58-4.2,5.37a6.53,6.53,0,0,0-.7,1.09,1.26,1.26,0,0,0,.4,1.85c2.08,1.38,3.31,1.3,4.67-.38a2.43,2.43,0,0,0,.2-.25q6.31-8.25,12.63-16.49C463.54,293.4,463.72,293.08,464,292.65Zm-17.56-38.86a3.1,3.1,0,0,0-.3.61c-.17.69-.31,1.37-.45,2.06-.37,1.86-.69,3.72-1.11,5.56-.51,2.27-1.1,4.52-1.63,6.78-.22.95-.39,1.91-.53,2.87a.82.82,0,0,0,.75,1.05c.78.17,1.57.27,2.46.41,1.46-6.21,2.9-12.35,4.36-18.55A14.62,14.62,0,0,0,446.44,253.79ZM481,252.23l7.54,1.65c.07,0,.17-.09.26-.15a1.48,1.48,0,0,0-.12-.29,18.27,18.27,0,0,1-2.94-5c-.06-.16-.25-.28-.46-.5A26.2,26.2,0,0,1,481,252.23Z" transform="translate(-0.01)"/><path class="cls-5" d="M459.78,254.22c.69.11,1.39.18,2.06.34,2.26.54,4.51,1.13,6.77,1.66,3.15.74,6.32,1.43,9.48,2.15a4.4,4.4,0,0,1,.62.18,1,1,0,0,1,.7,1.13,7.55,7.55,0,0,1-.16.8q-1.06,4.57-2.14,9.15c-.44,1.88-.79,2.09-2.71,1.63l-10.55-2.54-6.32-1.47c-1.45-.34-1.58-.57-1.24-2,.71-3,1.41-6,2.12-9,.09-.37.17-.74.28-1.11A1.3,1.3,0,0,1,459.78,254.22Zm-2.37,11.62c.3.15.39.22.49.25l17,4a4.37,4.37,0,0,0,.81,0c.18-.75.35-1.43.51-2.11s.31-1.37.47-2,.35-1.47.52-2.21.32-1.36.46-2.05a5.79,5.79,0,0,0,.35-2c-.29-.09-.5-.17-.7-.22l-15.28-3.62a9.26,9.26,0,0,0-1.27-.27,4.44,4.44,0,0,0-1,.08Z" transform="translate(-0.01)"/><path class="cls-5" d="M507.43,243.38c0,.17,0,.55,0,.92-.23,4.73-4.24,7.06-8.51,5a6.48,6.48,0,0,1-3.63-4.14,5.82,5.82,0,0,1,3.28-6.85C502.26,236.58,506.68,238.85,507.43,243.38Zm-6.84-4.4a5.15,5.15,0,0,0-2.22.9,4.46,4.46,0,0,0-1,6.66,5.9,5.9,0,0,0,4.3,2.28,3.86,3.86,0,0,0,3.81-1.95,5.07,5.07,0,0,0,.73-2.46A5.13,5.13,0,0,0,500.59,239Z" transform="translate(-0.01)"/><path class="cls-5" d="M471.08,231.05a6.33,6.33,0,0,1,7,7.8,6.77,6.77,0,0,1-.22.77,5.25,5.25,0,0,1-6,3.59,6.86,6.86,0,0,1-4-2,5.61,5.61,0,0,1-1.7-6.05A6,6,0,0,1,471.08,231.05ZM473.43,242a3.69,3.69,0,0,0,2.58-1.49,5.35,5.35,0,0,0,0-6.21,4.88,4.88,0,0,0-5.59-1.82,4.63,4.63,0,0,0-3,6.08A5.77,5.77,0,0,0,473.43,242Z" transform="translate(-0.01)"/><path class="cls-5" d="M298.28,18.79l.55-1.18a5.41,5.41,0,0,1,3-2.88,55,55,0,0,1,6.76-2.09q5.63-1.43,11.35-2.36c1.14-.19,2.31-.26,3.46-.36.9-.08,1.8-.13,2.7-.19a26.94,26.94,0,0,1,7.45.27,1,1,0,0,0,.38.05c1-.18,1.27.42,1.53,1.18q2.47,7.26,5,14.51c.11.33.21.66.34,1a4,4,0,0,1-.08,3c-.7,1.8-1.35,3.62-2.06,5.42a16,16,0,0,1-1,2.08A6.23,6.23,0,0,1,334.31,40c-1.77.65-3.54,1.3-5.33,1.92q-5,1.74-10,3.44a15.12,15.12,0,0,1-1.87.49,3.34,3.34,0,0,1-3-.78l-5-4.28c-.56-.47-1.09-1-1.69-1.39a2,2,0,0,0-3.27,1.11c-.29.94-.42,1.93-.62,2.9-.37,1.85-.77,3.7-1.13,5.55a3.76,3.76,0,0,1-2.34,2.87c-.43.19-.87.37-1.31.52l-13,4.49c-.77.26-1.56.47-2.34.7a6.4,6.4,0,0,1-4.42-.2A22.45,22.45,0,0,1,276.35,56c-1.38-.79-2.71-1.67-4.09-2.46a4.73,4.73,0,0,1-2.24-2.7q-2.62-7.76-5.34-15.47a1.33,1.33,0,0,1,.25-1.53c.39-.4.7-.88,1.1-1.26a24.65,24.65,0,0,1,2.05-1.78,69.69,69.69,0,0,1,9.81-6.4,122.1,122.1,0,0,1,12.52-5.76c.85-.32,1.71-.58,2.57-.86a5.29,5.29,0,0,1,4.12.4Zm36-7.73a4.66,4.66,0,0,0-.52.11L319.7,16,284.36,28.15,266.1,34.47a2.58,2.58,0,0,0-.54.3c.05.18.08.31.12.43,1.73,5,3.49,10.07,5.18,15.12a4.3,4.3,0,0,0,2.2,2.56c1.06.56,2.06,1.23,3.09,1.85.78.46,1.53,1,2.33,1.37a6,6,0,0,0,5,.43c.24-.09.5-.14.74-.22l14.63-5a11,11,0,0,0,1.07-.45,2.66,2.66,0,0,0,1.53-2c.43-2.2.86-4.39,1.32-6.58.17-.84.37-1.67.62-2.5a2.34,2.34,0,0,1,1.25-1.4,2.88,2.88,0,0,1,3.28.12c.62.46,1.21,1,1.79,1.47,1.64,1.4,3.28,2.79,4.9,4.2a2.75,2.75,0,0,0,2.75.64c.5-.14,1-.27,1.48-.43l9-3.1c2-.69,4-1.41,5.95-2.13a5.43,5.43,0,0,0,3-2.52,20.1,20.1,0,0,0,1.13-2.45c.61-1.52,1.13-3.07,1.75-4.58a3.85,3.85,0,0,0,.08-2.87c-1.78-5.08-3.51-10.16-5.27-15.24A3.13,3.13,0,0,0,334.23,11.06ZM300.91,21.34c0-.16.06-.32.08-.49a3.12,3.12,0,0,1,1.66-2.47,8.65,8.65,0,0,1,1.75-.8,18.82,18.82,0,0,1,4.16-.83,60.61,60.61,0,0,1,6.18-.32,3.83,3.83,0,0,0,1.25-.22q7.5-2.54,15-5.11c.2-.07.41-.14.27-.52-.48,0-1,0-1.51,0-2.1.1-4.21.18-6.31.31a36.09,36.09,0,0,0-3.59.37q-5.71.95-11.34,2.38a51.64,51.64,0,0,0-6.27,1.95,4.62,4.62,0,0,0-2.58,2.55,6.66,6.66,0,0,0-.58,3.14,2.87,2.87,0,0,0,.2.73l1.29-.46A1.79,1.79,0,0,0,300.91,21.34ZM298.07,20a5.21,5.21,0,0,0-2.13-1.29,3.34,3.34,0,0,0-2.27-.11c-1,.34-2.06.59-3.06,1-3.82,1.45-7.49,3.25-11.14,5.07a71.33,71.33,0,0,0-10.35,6.54c-.52.38-1,.8-1.5,1.22a8.53,8.53,0,0,0-.61.64c.5-.13.78-.18,1-.27l14.49-5A5.4,5.4,0,0,0,284,27c1.39-1,2.77-2.06,4.21-3,1.15-.74,2.37-1.37,3.59-2a7.91,7.91,0,0,1,2.7-.82,3.43,3.43,0,0,1,2.77.76c.21.18.34.52.71.45,0,0,.1-.06.1-.08C298.08,21.55,298.07,20.82,298.07,20Zm3.95.89a1.91,1.91,0,0,0,.51,0q4.38-1.5,8.74-3a4.59,4.59,0,0,0,.65-.42,31.48,31.48,0,0,0-6.77.9,9.29,9.29,0,0,0-2,.86A2,2,0,0,0,302,20.91Zm-5.42,1.87c-.07-.1-.11-.23-.2-.29a2.41,2.41,0,0,0-1.84-.4,10.52,10.52,0,0,0-2.56.84,30.84,30.84,0,0,0-4.82,2.93,1.81,1.81,0,0,0-.19.29A80.66,80.66,0,0,0,296.6,22.78Z" transform="translate(-0.01)"/><path class="cls-5" d="M309,24.67c.45-.17.77-.3,1.09-.41l19.13-6.58c1.37-.47,1.44-.44,1.92.95.95,2.72,1.87,5.44,2.84,8.15a3.09,3.09,0,0,1-.07,2.61,14.08,14.08,0,0,0-.66,1.82,4.28,4.28,0,0,1-2.8,2.8c-3.18,1.06-6.34,2.17-9.51,3.26-.85.29-1.71.57-2.56.88a2.38,2.38,0,0,1-2.62-.46c-.92-.84-1.89-1.63-2.85-2.43a2.46,2.46,0,0,1-.69-1.21L310,27.59Zm1.23.61c1,3,2,5.77,2.95,8.57a1.85,1.85,0,0,0,.57.83c.83.69,1.65,1.38,2.44,2.11a1.81,1.81,0,0,0,2.12.37c.83-.34,1.7-.59,2.55-.88,3.09-1.07,6.16-2.15,9.25-3.19a3.28,3.28,0,0,0,2.2-2.17c.24-.69.47-1.38.77-2.05a2.09,2.09,0,0,0,0-1.61c-.93-2.63-1.82-5.27-2.73-7.91a8.39,8.39,0,0,0-.42-.87C323.41,20.72,316.88,22.93,310.26,25.28Z" transform="translate(-0.01)"/><path class="cls-5" d="M293.72,30c.21.55.37.95.51,1.35.9,2.59,1.79,5.2,2.7,7.79a3.35,3.35,0,0,1,.14,2.12,28.16,28.16,0,0,0-.6,3,2.47,2.47,0,0,1-1.83,2.09c-1.8.58-3.58,1.22-5.36,1.83-2,.7-4.06,1.41-6.09,2.1-.36.13-.74.23-1.1.36a3.22,3.22,0,0,1-2.63-.22c-1-.57-2.07-1.21-3.1-1.84a2.38,2.38,0,0,1-.9-1.37l-1.89-5.48q-.57-1.65-1.11-3.3c-.3-.89-.19-1.1.71-1.43.48-.18,1-.34,1.46-.5l17.76-6.13C292.79,30.23,293.2,30.12,293.72,30Zm-20.25,8a1.57,1.57,0,0,0,0,.43q1.49,4.39,3,8.77a1.49,1.49,0,0,0,.53.7c.9.59,1.82,1.14,2.75,1.67a2.62,2.62,0,0,0,2.12.2c.37-.11.74-.24,1.1-.37l6.09-2.09c1.7-.59,3.4-1.18,5.11-1.74A1.73,1.73,0,0,0,295.53,44a26,26,0,0,1,.56-2.9,2.67,2.67,0,0,0-.08-1.63c-.85-2.43-1.68-4.87-2.53-7.3a8.16,8.16,0,0,0-.34-.81,1.58,1.58,0,0,0-.42,0Z" transform="translate(-0.01)"/><path class="cls-5" d="M467,126.48c3-3.67,9.24-3.9,12.5,1.38.09,0,.2,0,.27,0,1.53-1,3.15-.76,4.75-.27a5.12,5.12,0,0,1,3.25,3.12,7.26,7.26,0,0,1,.56,4.14c0,.22-.06.45-.09.76a5.74,5.74,0,0,1,4.12,1.14,8.25,8.25,0,0,1,2.53,3.68,5,5,0,0,1-.19,4.23c.28.17.47.3.67.41a5.69,5.69,0,0,1,1.89,7.78,7.88,7.88,0,0,1-5.31,3.65c-.92.19-1.86.25-2.8.36l-1.62.22.33.68c.31.58.66,1.14.92,1.74a4.1,4.1,0,0,1-.39,3.91,5.76,5.76,0,0,1-1.88,1.89,14.08,14.08,0,0,1-4.79,2,17.56,17.56,0,0,1-10.52-.94l-3.59-1.5c-.79.44-1.6.9-2.42,1.34a14.4,14.4,0,0,1-3.49,1.49,11.15,11.15,0,0,1-9.17-1.58,25.31,25.31,0,0,1-4.54-3.79c-.65-.67-1.32-1.32-2-2-1.05.28-2,.57-3,.81a16.15,16.15,0,0,1-5.45.56,9.35,9.35,0,0,1-4.79-1.9,6.66,6.66,0,0,1-1.84-2.11,5.46,5.46,0,0,1-.35-4.76c.13-.35.29-.69.48-1.12a2.6,2.6,0,0,0-.65-.19c-2.9-.07-4.55-1.78-5.54-4.28a11.07,11.07,0,0,1-.23-7.21c1-3.49,3.45-5.36,6.9-6.08.64-.13,1.3-.18,2-.27.08-.35.13-.68.22-1,.39-1.3.75-2.62,1.2-3.9a6.71,6.71,0,0,1,1.48-2.38,5.44,5.44,0,0,1,4.42-1.8,11.2,11.2,0,0,1,5.33,1.66l.61.34s.09,0,.13,0,.15-.12.18-.2a8.47,8.47,0,0,1,5.57-5.75,11.24,11.24,0,0,1,13.9,4.94Zm22.76,29.24c.73-.1,1.34-.16,1.95-.26a6.87,6.87,0,0,0,4.06-2.36,4.84,4.84,0,0,0,1.25-3.36,4.09,4.09,0,0,0-3.8-4.14,5.43,5.43,0,0,1-.69-.09.42.42,0,0,1-.15-.6,2.41,2.41,0,0,1,.44-.33,2,2,0,0,0,1.35-2.47,6.68,6.68,0,0,0-2.1-4.2,3.56,3.56,0,0,0-4.86-.5c-.16.1-.3.23-.46.32a.57.57,0,0,1-.77-.08A.5.5,0,0,1,486,137c.12-.15.25-.29.37-.43a3.86,3.86,0,0,0,.94-2.46,6.41,6.41,0,0,0-.88-3.65,5,5,0,0,0-5.13-2.18,1.42,1.42,0,0,0-1.23,1.49c0,.18,0,.37,0,.56s-.18.46-.45.43a.59.59,0,0,1-.44-.26,7.87,7.87,0,0,1-.35-1.07,6.47,6.47,0,0,0-8.35-4.24,4.12,4.12,0,0,0-2.92,2.83,1.85,1.85,0,0,1-.15.39.48.48,0,0,1-.82,0c-.12-.2-.19-.43-.29-.64a25,25,0,0,0-1.15-2.25,10.18,10.18,0,0,0-14.4-2.71c-1.77,1.33-3,3-2.75,5.38a4.22,4.22,0,0,1-.06,1.12c0,.15-.23.39-.34.38a1.31,1.31,0,0,1-.57-.3c-.06,0-.08-.16-.1-.26a3,3,0,0,0-1.69-2.13,9.87,9.87,0,0,0-4.7-1.35,4.21,4.21,0,0,0-3.49,1.54,7.9,7.9,0,0,0-1.24,2,29.16,29.16,0,0,0-1.06,3.36,1.74,1.74,0,0,0,.12,1.62c.2.28-.09.66-.45.69-.19,0-.38,0-.57,0a16.25,16.25,0,0,0-2.52.18,7.11,7.11,0,0,0-5.67,4.92,10.44,10.44,0,0,0-.32,5.43,8,8,0,0,0,1.22,3,4.59,4.59,0,0,0,5.07,1.92,2.75,2.75,0,0,1,.67-.17.94.94,0,0,1,.59.28.55.55,0,0,1,0,.51c-.34.56-.78,1.07-1.09,1.64a4.49,4.49,0,0,0,.35,5.05,6.22,6.22,0,0,0,2.11,1.84,8.74,8.74,0,0,0,5,1.09,24.71,24.71,0,0,0,5.78-1.23,1.68,1.68,0,0,1,1.92.4c.57.56,1.16,1.11,1.71,1.69a27.15,27.15,0,0,0,3.61,3.16,10.34,10.34,0,0,0,1.17.78,10.13,10.13,0,0,0,10.1.4c1.06-.52,2.08-1.1,3.08-1.72a1.78,1.78,0,0,1,1.85-.08c1.29.57,2.6,1.11,3.92,1.61a15.45,15.45,0,0,0,7.35.88,13.26,13.26,0,0,0,5.48-1.71,7.91,7.91,0,0,0,1.77-1.37,3.36,3.36,0,0,0,.63-3.92,6.9,6.9,0,0,0-1.7-2.23c-.27-.25-.59-.47-.84-.74A.7.7,0,0,1,485,156a.43.43,0,0,1,.54-.33A11.52,11.52,0,0,0,489.72,155.72Z" transform="translate(-0.01)"/><path class="cls-5" d="M478.71,149.58c.07-.32.15-.64.2-1q.54-3.84,1.09-7.67a12.91,12.91,0,0,1,.29-1.53c.14-.55.28-.58,1.14-.34a10.47,10.47,0,0,1-.15,1.36c-.86,4.2-1.39,8.44-2,12.68,0,.32,0,.69-.38.84s-.6-.2-.75-.7c-.37-1.31-.72-2.63-1.07-3.94-.63-2.42-1.25-4.83-1.88-7.24a3.78,3.78,0,0,0-.34-.65,4.44,4.44,0,0,0-.2.65q-.6,5.1-1.19,10.22c0,.28-.06.56-.12.83a.52.52,0,0,1-.62.44.44.44,0,0,1-.38-.5c0-.33,0-.66.06-1q.74-6.17,1.48-12.32a10.06,10.06,0,0,1,.17-1.12.77.77,0,0,1,.68-.63c.39,0,.59.24.76.53a1.93,1.93,0,0,1,.17.53c.82,3.19,1.62,6.38,2.44,9.57C478.24,149,478.18,149.43,478.71,149.58Z" transform="translate(-0.01)"/><path class="cls-5" d="M443.5,146.4l-2.9-.3a9.7,9.7,0,0,0-.71,2.2,7.6,7.6,0,0,1-.38,1,.41.41,0,0,1-.36.16.54.54,0,0,1-.32-.24.63.63,0,0,1-.09-.4,7.42,7.42,0,0,1,.2-1q1.62-6.5,3.26-13a8.67,8.67,0,0,1,.45-1.33.66.66,0,0,1,.71-.35.68.68,0,0,1,.59.53,7.58,7.58,0,0,1,.15.83,66.58,66.58,0,0,1,.63,7.72c.08,2.21.08,4.42.1,6.63a4.24,4.24,0,0,1-.16,1.23c-.05.15-.36.29-.56.31s-.4-.21-.41-.47c0-.94-.06-1.88-.1-2.82C443.59,147,443.55,146.75,443.5,146.4Zm-.14-1.39a.9.9,0,0,0,.12-.28l-.21-7.17c0-.28,0-.56,0-.85a.27.27,0,0,0-.06-.12s-.07,0-.1,0a53.35,53.35,0,0,0-1.86,8.26A7.83,7.83,0,0,0,443.36,145Z" transform="translate(-0.01)"/><path class="cls-5" d="M471.18,140.5a32.94,32.94,0,0,1,0,3.3c-.15,1.73-.41,3.44-.66,5.16a5.76,5.76,0,0,1-1.12,2.7,2.52,2.52,0,0,1-4.34-.15,5.57,5.57,0,0,1-.78-2.09,19.39,19.39,0,0,1,0-5.89,26,26,0,0,1,.59-3.17,8,8,0,0,1,.74-1.82,4.28,4.28,0,0,1,1-1.17,2.44,2.44,0,0,1,4,.9A17.65,17.65,0,0,1,471.18,140.5Zm-1.26.85c-.16-.78-.27-1.57-.5-2.33-.18-.59-.5-1.17-1.21-1.23a1.52,1.52,0,0,0-1.35.87,7.88,7.88,0,0,0-1.26,3.41c-.14,1.11-.27,2.24-.34,3.36a14.38,14.38,0,0,0,.13,3.93,4.91,4.91,0,0,0,.48,1.46c.7,1.24,1.93,1.28,2.63,0a8.83,8.83,0,0,0,.84-2.23A22.54,22.54,0,0,0,469.92,141.35Z" transform="translate(-0.01)"/><path class="cls-5" d="M446.73,145.65a13.46,13.46,0,0,1,1.46-7.51,9.41,9.41,0,0,1,1.35-1.8,3.22,3.22,0,0,1,2.52-1.05,1.94,1.94,0,0,1,.92.27.66.66,0,0,1,.26.58.69.69,0,0,1-.47.42,2.69,2.69,0,0,1-1,0,1.67,1.67,0,0,0-1.61.67,8,8,0,0,0-1.05,1.66,14,14,0,0,0-1.1,6.89,4.77,4.77,0,0,0,1,2.6,2.16,2.16,0,0,0,1.76,1,3.41,3.41,0,0,1,1,.19.45.45,0,0,1,.07.8,1.49,1.49,0,0,1-.78.22,4.12,4.12,0,0,1-3.35-2.06A7.2,7.2,0,0,1,446.73,145.65Z" transform="translate(-0.01)"/><path class="cls-5" d="M456.69,136.91a8.8,8.8,0,0,1-1.28-.25.81.81,0,0,1-.44-.45c-.09-.24.18-.51.5-.56a2.76,2.76,0,0,1,.7-.06l2.93.35a1.62,1.62,0,0,1,.54.17c.2.12.39.28.34.56a.47.47,0,0,1-.53.37c-.46,0-.92-.06-1.37-.09a2.29,2.29,0,0,0-.32,1.4c-.26,3.43-.49,6.85-.74,10.27,0,.33,0,.66-.1,1-.09.61-.24.67-1.06.38.05-2.17.3-4.36.42-6.56S456.66,139.14,456.69,136.91Z" transform="translate(-0.01)"/><path class="cls-5" d="M463.28,137.07c0,.36,0,.64-.06.92q-1,6.69-2,13.38a4.7,4.7,0,0,1-.17.83.68.68,0,0,1-.65.46c-.23,0-.51-.19-.5-.4s.06-.65.11-1q.93-6.63,1.87-13.25a7.56,7.56,0,0,1,.19-1,.53.53,0,0,1,.69-.33C463,136.77,463.12,137,463.28,137.07Z" transform="translate(-0.01)"/><path class="cls-5" d="M484.85,138.43c0,1,0,1.77-.07,2.56-.14,2.48-.27,5-.42,7.45-.07,1.12-.16,2.24-.26,3.36,0,.27-.08.58-.44.63s-.53-.2-.57-.65a8.53,8.53,0,0,1,0-1.13c.14-2.57.3-5.15.44-7.72.06-1,.06-2.07.08-3.1a4.68,4.68,0,0,1,.05-.84c0-.21.13-.52.28-.59A2.5,2.5,0,0,1,484.85,138.43Z" transform="translate(-0.01)"/><path class="cls-5" d="M483.93,155a3.48,3.48,0,0,1-.85,0c-.36-.08-.48-.39-.48-.75a.6.6,0,0,1,.47-.6.7.7,0,0,1,.86.24A.87.87,0,0,1,483.93,155Z" transform="translate(-0.01)"/><path class="cls-5" d="M454.29,80.93a32.57,32.57,0,0,0,6.26-2.17,28.46,28.46,0,0,0,11.3-10.16,4.71,4.71,0,0,1,.64-.83.59.59,0,0,1,.55,0,.65.65,0,0,1,.24.5,1.86,1.86,0,0,1-.31.69,31.76,31.76,0,0,1-6.41,7.28,27.48,27.48,0,0,1-10.32,5.36c-.44.12-.87.27-1.3.42l-.65.22c-.06.31-.15.65-.19,1a24.16,24.16,0,0,1-7.31,15.36c-5.77,5.6-12.66,8.35-20.78,7.37a21.38,21.38,0,0,1-13.09-6.57c-5.3-5.47-7.77-12.15-8.05-19.68a27.28,27.28,0,0,1,3.33-14.37A20.15,20.15,0,0,1,416.81,57a20.56,20.56,0,0,1,8.62-2.29c8.6-.37,16,2.42,21.86,8.79a25.57,25.57,0,0,1,6.88,16.06C454.2,80,454.24,80.4,454.29,80.93Zm-5.07-13.1a25.47,25.47,0,0,0-4.36-5.23,25.74,25.74,0,0,0-22.31-6.4,18.64,18.64,0,0,0-10.19,5.42,21,21,0,0,0-4.79,7.87c-3.39,9.35-1.09,20.71,4.82,27.59,5.25,6.11,11.85,8.73,19.82,7.68a23.82,23.82,0,0,0,13-6.23,23.11,23.11,0,0,0,7.18-12A23.65,23.65,0,0,0,449.22,67.83Z" transform="translate(-0.01)"/><path class="cls-5" d="M413.63,75.67a6.34,6.34,0,0,1,4-9.42,4,4,0,0,1,4,1.39,5,5,0,0,1,.68,1,7.82,7.82,0,0,1-.27,7.44,4.09,4.09,0,0,1-4.37,2.11A5.3,5.3,0,0,1,413.63,75.67Zm1.83.4c.69-1.49,1.29-2.88,2-4.22a16.26,16.26,0,0,1,3.05-3.62c-.21-.18-.33-.36-.49-.41a1.06,1.06,0,0,0-.57.09,1.18,1.18,0,0,0-.37.26A14.62,14.62,0,0,0,415,75c0,.1-.08.23,0,.3C415.1,75.55,415.27,75.77,415.46,76.07Zm3.14,1A2.79,2.79,0,0,0,421,75.55a5.74,5.74,0,0,0,.76-4,4.12,4.12,0,0,0-1.76,1.9A8.51,8.51,0,0,0,418.6,77Zm-4.49-3.44c.12-.16.21-.23.24-.32a17.25,17.25,0,0,1,3.32-5.37c.06-.06,0-.25,0-.38C415.16,67.88,412.87,71.53,414.11,73.58Zm3.11,3.35c.15-.37.29-.69.4-1A11.94,11.94,0,0,1,421,70.48a1.2,1.2,0,0,0,.36-.48,1.83,1.83,0,0,0-.06-.62,2.32,2.32,0,0,0-.61.29,12.76,12.76,0,0,0-3.89,6.67.43.43,0,0,0,0,.3A2.17,2.17,0,0,0,417.22,76.93Z" transform="translate(-0.01)"/><path class="cls-5" d="M439.29,79.6a4.75,4.75,0,0,1-.74-2.18,8.54,8.54,0,0,1,.88-5,5.68,5.68,0,0,1,1.28-1.68,4.14,4.14,0,0,1,5.45-.23,6.2,6.2,0,0,1,1.52,8.85,5.52,5.52,0,0,1-5,2.28A4.18,4.18,0,0,1,439.29,79.6Zm7.62-1.21a4.68,4.68,0,0,0,.11-5.28,4.87,4.87,0,0,0-2-2,1.81,1.81,0,0,0-1.48-.26c.66,1.22,1.35,2.33,1.88,3.5S446.35,76.88,446.91,78.39ZM445,79.89c.39.09.6,0,.66-.32a2,2,0,0,0,0-.74,15.91,15.91,0,0,0-1.76-5A8.37,8.37,0,0,0,442,71.27l-.5.36c.76,1.36,1.52,2.66,2.21,4A21.94,21.94,0,0,1,445,79.89Zm-3.28.26a7,7,0,0,0-1.9-5.16,5.34,5.34,0,0,0,.24,3.56A2.49,2.49,0,0,0,441.71,80.15ZM440.62,73c-.05.14-.18.3-.14.39.18.36.39.71.6,1A13.53,13.53,0,0,1,443,79.48c0,.2.07.4.11.6s.23.42.53.27A11.21,11.21,0,0,0,440.62,73Z" transform="translate(-0.01)"/><path class="cls-5" d="M437.55,85.14a5.08,5.08,0,0,1,4.38-.71,4,4,0,0,1,2.87,2.7,7.7,7.7,0,0,1-1.13,7.23,4.22,4.22,0,0,1-6.52.76,7,7,0,0,1-2.29-3.85A5.87,5.87,0,0,1,437.55,85.14Zm-1.21,6.57a1.69,1.69,0,0,0,.37-.11,11.5,11.5,0,0,0,4.52-5.74c0-.11,0-.26-.06-.38C438.07,84.67,434.65,88.82,436.34,91.71Zm7.37-3.65a40.79,40.79,0,0,1-2.45,3.4c-.91,1.05-2,2-3,2.93.29.39.64.52,1,.21.59-.48,1.17-1,1.73-1.48a14.92,14.92,0,0,0,2.83-3.9A.89.89,0,0,0,443.71,88.06Zm-6.62,5.28a2,2,0,0,0,.47-.12,13.55,13.55,0,0,0,5.28-6.46,1.12,1.12,0,0,0,0-.45.16.16,0,0,0-.09-.11c-.09,0-.23,0-.27,0a1.58,1.58,0,0,0-.33.48,13.79,13.79,0,0,1-4.69,5.83,1.64,1.64,0,0,0-.42.41C437,93,437.07,93.18,437.09,93.34ZM441,94.79a1.44,1.44,0,0,0,1.26-.52,2.67,2.67,0,0,0,1.08-1.84Z" transform="translate(-0.01)"/><path class="cls-5" d="M422.78,83.73a5.77,5.77,0,0,1-.18,6.67A6.25,6.25,0,0,1,419,93a4,4,0,0,1-4.42-1.62,6.79,6.79,0,0,1-.93-1.89,8.38,8.38,0,0,1,.15-5.1c1.5-4.41,6.11-3.91,8.19-1.68C422.29,83.07,422.55,83.45,422.78,83.73Zm-1.27,6.1a4.46,4.46,0,0,0,.32-5.43,4.29,4.29,0,0,0-2-1.79,2,2,0,0,0-1.56-.22A12.08,12.08,0,0,0,421.51,89.83Zm-6.07-6A1.53,1.53,0,0,0,415,85.5a17.22,17.22,0,0,0,1.7,4.2c.41.69.87,1.36,1.33,2,.23.32.36.29.85-.19A20.05,20.05,0,0,1,415.44,83.88Zm4.78,7.2.29-.21C420,90,419.4,89.24,419,88.36a20.24,20.24,0,0,1-1.25-2.91c-.32-.94-.49-1.92-.73-2.88-.17,0-.34.06-.34.09a9.17,9.17,0,0,0,1.05,4.49C418.31,88.58,418.87,90.12,420.22,91.08Zm-5.49-2.58A2.48,2.48,0,0,0,416,90.9Z" transform="translate(-0.01)"/><path class="cls-5" d="M436.2,62.33a5.67,5.67,0,0,1-.1,6.07,6.31,6.31,0,0,1-3.43,2.86,4.26,4.26,0,0,1-5.49-2.51,8.32,8.32,0,0,1-.08-6.11c1.22-3.37,4.36-3.78,6.69-2.6A6.05,6.05,0,0,1,436.2,62.33Zm-8.08,1.14c1.25.14,2.5.23,3.73.46s2.52.62,3.88,1a4.24,4.24,0,0,0-2.05-3.59C431.15,59.66,428.46,61,428.12,63.47Zm7.51,2.93a14,14,0,0,0-7.8-1.53l0,.79a29.6,29.6,0,0,1,3.27.3c1.33.27,2.63.7,3.95,1.05a1.25,1.25,0,0,0,.43,0,1.51,1.51,0,0,0,.13-.3A1.4,1.4,0,0,0,435.63,66.4Zm-7,2.46c1.42,1.75,3.06,2,4.64.68A11.13,11.13,0,0,0,428.6,68.86Zm6.09-.58c-.09-.09-.15-.19-.23-.23a14.62,14.62,0,0,0-5.91-1.15c-.14,0-.34,0-.42.08a1.54,1.54,0,0,0-.22.54,3.75,3.75,0,0,0,.7.1,15.3,15.3,0,0,1,5.06.83,1.85,1.85,0,0,0,.73.13C434.5,68.58,434.59,68.39,434.69,68.28Z" transform="translate(-0.01)"/><path class="cls-5" d="M430.75,100a6.11,6.11,0,0,1-3.88,1.09,5.19,5.19,0,0,1-4.72-3.69,3.79,3.79,0,0,1,1.5-4.41,7.27,7.27,0,0,1,7.23-.26,4.11,4.11,0,0,1,.36,6.91Zm-7.49-4.62c-.13.83-.14.88.3,1.06a24.16,24.16,0,0,0,2.7,1,12.83,12.83,0,0,0,4.66.39c.54,0,.55-.07.71-.88C426.1,96.81,426.58,96.51,423.26,95.38Zm8.23.07c-.05-.13-.06-.33-.14-.37a1.31,1.31,0,0,0-.59-.09A12.23,12.23,0,0,1,425,94a1.08,1.08,0,0,0-.29-.09c-.28,0-.49,0-.51.36A10,10,0,0,0,431.49,95.45Zm-7.82,2.47a4,4,0,0,0,3.46,2,2.39,2.39,0,0,0,2.31-.87c-.91-.13-1.81-.21-2.69-.38S424.91,98.24,423.67,97.92Zm6.42-4.11a2.28,2.28,0,0,0-1.52-.69,3.88,3.88,0,0,0-2,.08A5.91,5.91,0,0,0,430.09,93.81Z" transform="translate(-0.01)"/><path class="cls-5" d="M499.24,94.15a20.49,20.49,0,0,1,13.83-19.87c9.11-3.27,17.75-1.94,25.64,3.65a18.67,18.67,0,0,1,7.65,11.19,19.42,19.42,0,0,1-.46,10.66c-2.9,8.85-8.72,14.77-17.82,17a22.84,22.84,0,0,1-28.12-17,30.79,30.79,0,0,1-.61-3.32C499.25,95.73,499.27,94.94,499.24,94.15Zm23.62,22.14a20.19,20.19,0,0,0,5-.65c8.43-2.31,13.95-7.69,16.75-15.9a18.45,18.45,0,0,0,.55-10.33,17.73,17.73,0,0,0-6.26-9.77,26.22,26.22,0,0,0-25.79-4,19.17,19.17,0,0,0-11.36,11.55,20.86,20.86,0,0,0-.43,12.79A21.75,21.75,0,0,0,522.86,116.29Z" transform="translate(-0.01)"/><path class="cls-5" d="M512.12,90.68a2.55,2.55,0,0,1,.56-.21c2.92-.22,5.83-.48,8.75-.62,2.59-.12,5.16-.34,7.73-.65a24.59,24.59,0,0,1,3.54-.06c.75,0,1,.4.77,1.13a19.53,19.53,0,0,1-.79,2.22c-.41.93-.85,1.84-1.34,2.73-1.38,2.51-2.61,5.1-3.77,7.72-.59,1.34-1.3,2.62-2,3.91a9.24,9.24,0,0,1-1,1.39c-.48.6-.93.53-1.29-.12a22.94,22.94,0,0,0-1.21-2c-.82-1.14-1.66-2.27-2.57-3.34A50.87,50.87,0,0,1,513.84,94c-.45-.84-1-1.62-1.48-2.45A4.09,4.09,0,0,1,512.12,90.68Zm2,1.18a59,59,0,0,0,5.14,8.46c1.42,1.82,2.82,3.65,4.23,5.47.19.25.39.49.66.82a9.78,9.78,0,0,0,.71-1.06c.59-1.15,1.15-2.31,1.71-3.48L530.05,95c.51-1.07,1.06-2.11,1.55-3.18a10,10,0,0,0,.4-1.3,12.08,12.08,0,0,0-3.46.06c-1.79.18-3.57.39-5.36.51-2.42.17-4.83.27-7.24.41A3.6,3.6,0,0,0,514.13,91.86Z" transform="translate(-0.01)"/><path class="cls-5" d="M563.67,167.07a1.82,1.82,0,0,1-.24,1.53,8.15,8.15,0,0,1-.88,1.15,4.82,4.82,0,0,0-1.12,5,9.65,9.65,0,0,1,.3,1.05,3.51,3.51,0,0,1-1.24,3.58c-.37.3-.78.57-1.18.84-6.08,4.17-12.14,8.38-18.26,12.5-3,2.06-6.23,3.94-9.3,6-2.46,1.64-4.86,3.39-7.22,5.17-1.4,1.05-2.67,2.27-4,3.41a7.36,7.36,0,0,1-1.11.91,2.45,2.45,0,0,1-3.18-.14l-.82-.72a4.58,4.58,0,0,0-4.23-1c-.59.14-1.17.31-1.77.42a3.29,3.29,0,0,1-3.4-1.21,14,14,0,0,1-1-1.49c-2.63-4.13-5.18-8.32-8.07-12.28a62.52,62.52,0,0,0-5.51-6.74c-.21-.22-.41-.45-.6-.68a2.61,2.61,0,0,1,0-3.75c.21-.22.41-.45.6-.68a4.66,4.66,0,0,0,1-4.25c-.14-.59-.34-1.17-.44-1.76a3.31,3.31,0,0,1,1.13-3.27,10.87,10.87,0,0,1,1.16-.86c6.23-4.28,12.45-8.57,18.71-12.8,3-2,6.12-3.9,9.15-5.88a75.58,75.58,0,0,0,11.34-8.74l.13-.11c1.47-1.28,2.69-1.58,4.3,0a6.17,6.17,0,0,0,.54.48,4.77,4.77,0,0,0,4.09,1c.65-.14,1.3-.31,2-.46a3.09,3.09,0,0,1,3.1,1,13.29,13.29,0,0,1,1.15,1.63c2.21,3.4,4.36,6.83,6.61,10.2a64.39,64.39,0,0,0,7.09,8.95A3.94,3.94,0,0,1,563.67,167.07Zm-28-24.58a12.83,12.83,0,0,0-1.28.95,82,82,0,0,1-11.8,9c-3,1.94-6,3.79-9,5.78-6.11,4.13-12.18,8.32-18.26,12.49-.4.28-.81.54-1.18.85a2.13,2.13,0,0,0-.76,2.27c.13.53.27,1.06.4,1.59a5.9,5.9,0,0,1-1.33,5.42c-.19.23-.41.44-.6.68a1.32,1.32,0,0,0-.09,1.81,5.53,5.53,0,0,0,.58.7,62.38,62.38,0,0,1,7,8.8c2.22,3.31,4.35,6.69,6.52,10,.33.5.65,1,1,1.52a2.16,2.16,0,0,0,2.51,1L511,205a5.9,5.9,0,0,1,5.26,1.27c.28.23.53.5.82.72a1.29,1.29,0,0,0,1.67.1,4.72,4.72,0,0,0,.7-.57,78.64,78.64,0,0,1,11.49-8.83c3.29-2.14,6.64-4.2,9.9-6.39,5.86-3.95,11.68-8,17.51-12,.4-.27.79-.55,1.18-.84a2.19,2.19,0,0,0,.88-2.4l-.36-1.4a6,6,0,0,1,1.31-5.6c.19-.23.42-.43.61-.67a1.3,1.3,0,0,0,.06-1.81,5.52,5.52,0,0,0-.59-.69,63.8,63.8,0,0,1-6.88-8.66c-2.28-3.41-4.47-6.89-6.71-10.34a18.5,18.5,0,0,0-1.13-1.65,1.83,1.83,0,0,0-1.93-.7l-1.59.38a6.18,6.18,0,0,1-5.76-1.37,12.65,12.65,0,0,0-1-.8A3.3,3.3,0,0,0,535.66,142.49Z" transform="translate(-0.01)"/><path class="cls-5" d="M559.4,167.46a11.66,11.66,0,0,0-1.93,4.46,16.15,16.15,0,0,0,.4,4.73c-.56.41-1.08.81-1.62,1.18-5.68,3.9-11.34,7.82-17.06,11.67-3,2-6,3.84-9,5.78A93.6,93.6,0,0,0,519,203.61a6.19,6.19,0,0,1-.55.47,1,1,0,0,1-1,.06c-.16-.08-.3-.19-.46-.29a8.75,8.75,0,0,0-7.13-1.12,8.69,8.69,0,0,1-1.11.13l-.92-1.36c-2.34-3.6-4.61-7.24-7.06-10.77-1.69-2.43-3.62-4.68-5.44-7l-.89-1.16a14,14,0,0,0,1.84-4.36,12.41,12.41,0,0,0-.34-4.54c.18-.73.74-.94,1.17-1.23,8.28-5.56,16.35-11.42,24.83-16.67A91.86,91.86,0,0,0,535,146.09c.18-.16.39-.29.67-.49a5.81,5.81,0,0,1,.92.42,8.39,8.39,0,0,0,7.11,1.18,8.7,8.7,0,0,1,.89-.15.57.57,0,0,1,.18,0c.59.27.81.87,1.14,1.37,2.38,3.64,4.68,7.34,7.16,10.91,1.65,2.38,3.55,4.59,5.33,6.88C558.74,166.61,559,167,559.4,167.46Zm-50,33.9a12.21,12.21,0,0,1,4.56-.14c1.39.36,2.73.9,4.16,1.38A109.52,109.52,0,0,1,531.18,193c2.39-1.54,4.84-3,7.19-4.58,5.56-3.76,11.09-7.57,16.62-11.37.45-.3.87-.64,1.16-.86a29.05,29.05,0,0,1,0-4.49,32.55,32.55,0,0,1,1.36-4.41c-5.07-5.68-9-12.26-13.21-18.78a10.36,10.36,0,0,1-8.42-1.27c-.32.25-.56.42-.79.61a95.74,95.74,0,0,1-10.49,7.77c-2.94,1.91-6,3.71-8.87,5.67-5.76,3.89-11.48,7.85-17.21,11.79-.39.27-.75.58-1.17.91a10.58,10.58,0,0,1-1.35,8.46C501.19,188.28,505.21,194.83,509.35,201.36Z" transform="translate(-0.01)"/><path class="cls-5" d="M528.74,172.47a10.25,10.25,0,0,0-1.22-5.29c-.43-.93-.89-1.85-1.34-2.77a5.44,5.44,0,0,1-.4-1c0-.19,0-.56.15-.62a1,1,0,0,1,.82-.06,1.73,1.73,0,0,1,.71.78,32.05,32.05,0,0,1,1.66,3.81c.52,1.61.84,3.28,1.26,4.92.1.4.26.78.4,1.19l1.85.22a12.5,12.5,0,0,1,7,3.22,3,3,0,0,1,.62.66.82.82,0,0,1,0,.65.55.55,0,0,1-.77.27,6.38,6.38,0,0,1-1.08-.66c-.74-.52-1.45-1.09-2.2-1.59a8.09,8.09,0,0,0-3.55-1.28,3.41,3.41,0,0,0-1.88.24,6.13,6.13,0,0,0,.48,1c1,1.37,2,2.71,3,4.09a3.41,3.41,0,0,1,.89,1.71.8.8,0,0,1-1.29,0,5.57,5.57,0,0,1-.53-.72,164.66,164.66,0,0,0-11.51-15.16,3.11,3.11,0,0,1-.23-.28c-.2-.26-.3-.53-.05-.81a.79.79,0,0,1,1.13-.12,11,11,0,0,1,.94,1.09l4.43,5.74C528.26,172,528.51,172.21,528.74,172.47Z" transform="translate(-0.01)"/><path class="cls-5" d="M516.31,174.72a7.42,7.42,0,0,1,0-3.48,3.4,3.4,0,0,1,2.82-2.49,1.61,1.61,0,0,1,1.58.67.52.52,0,0,1-.32.83c-.42,0-.84-.06-1.25-.05a1.27,1.27,0,0,0-1.33,1,5.15,5.15,0,0,0-.08,1.79,18.22,18.22,0,0,0,5.36,10.06,5.6,5.6,0,0,0,2.31,1.4,3,3,0,0,0,2-.06,1.6,1.6,0,0,0,1.16-1.81c0-.37-.13-.72-.13-1.08a1.19,1.19,0,0,1,.19-.67.86.86,0,0,1,.57-.38.78.78,0,0,1,.57.36,3.32,3.32,0,0,1-1,4.06,4.27,4.27,0,0,1-4.11.68,6.6,6.6,0,0,1-2-1.14A20.52,20.52,0,0,1,516.31,174.72Z" transform="translate(-0.01)"/><path class="cls-5" d="M530.09,160.73a11.78,11.78,0,0,1,3.13-2.26.55.55,0,0,1,.77.24.57.57,0,0,1-.15.8c-.62.48-1.26.92-2,1.42a2.39,2.39,0,0,0,.19.68c1.37,1.92,2.86,3.73,4.37,5.54.83-.13,1.29-.75,1.92-1.08a7.26,7.26,0,0,1,1.12-.55c.35-.11.84.15.85.47a1.09,1.09,0,0,1-.31.76c-.56.46-1.18.84-1.77,1.27a9.23,9.23,0,0,0-.69.63c1,1.71,2.19,3.21,3.24,4.7.86,0,1.19-.59,1.71-.86a11.46,11.46,0,0,1,1.43-.75.7.7,0,0,1,.6.27.69.69,0,0,1,0,.64,10.1,10.1,0,0,1-4,2.65c-.24-.27-.42-.43-.56-.62q-4.92-6.72-9.82-13.47C530.11,161.12,530.13,161,530.09,160.73Z" transform="translate(-0.01)"/><path class="cls-5" d="M538.22,156.22c-.54.31-.94.57-1.37.78a2.53,2.53,0,0,1-.85.25.55.55,0,0,1-.43-.23.65.65,0,0,1,0-.51,1.35,1.35,0,0,1,.43-.57c1.6-1.08,3.22-2.14,4.84-3.2a.82.82,0,0,1,.49-.19,1.47,1.47,0,0,1,.77.34.55.55,0,0,1-.15.8c-.66.51-1.36,1-2,1.43a3.38,3.38,0,0,0,.91,1.85q3.61,5.44,7.27,10.86a6.62,6.62,0,0,1,.64,1.09.74.74,0,0,1-.17.63.73.73,0,0,1-.63.17,2.2,2.2,0,0,1-.82-.66c-.61-.83-1.15-1.71-1.73-2.56q-3.14-4.56-6.29-9.11C538.87,157,538.6,156.72,538.22,156.22Z" transform="translate(-0.01)"/><path class="cls-5" d="M503.07,180.59c-.64.38-1.09.66-1.57.91a1.55,1.55,0,0,1-.67.17.51.51,0,0,1-.46-.76,2.65,2.65,0,0,1,.58-.66c1.45-1,2.9-2,4.37-2.91a2.72,2.72,0,0,1,1.19-.33c.17,0,.41.22.52.4a.52.52,0,0,1-.1.48,3.79,3.79,0,0,1-.69.58c-.49.35-1,.69-1.43,1-.17.73.35,1.09.63,1.52,2.44,3.67,4.9,7.32,7.35,11a13,13,0,0,1,.75,1.23.58.58,0,0,1-.17.8.74.74,0,0,1-1-.08,10.91,10.91,0,0,1-.85-1.17c-2.36-3.43-4.7-6.87-7.06-10.31C504.05,181.85,503.6,181.29,503.07,180.59Z" transform="translate(-0.01)"/><path class="cls-5" d="M521.55,188.86c-.14.19-.23.47-.41.55s-.66.2-.83.07a6.22,6.22,0,0,1-1.12-1.17c-1.84-2.32-3.65-4.67-5.49-7-1.09-1.38-2.22-2.72-3.31-4.09a15.14,15.14,0,0,1-1-1.48.5.5,0,0,1,.18-.77,1,1,0,0,1,.83,0,6.13,6.13,0,0,1,1,1.05l8.56,10.59c.42.52.86,1,1.27,1.54A5.72,5.72,0,0,1,521.55,188.86Z" transform="translate(-0.01)"/><path class="cls-5" d="M627,41.06a1.84,1.84,0,0,1-.24,1.54,8.13,8.13,0,0,1-.89,1.14,4.84,4.84,0,0,0-1.11,5c.1.34.23.69.3,1a3.52,3.52,0,0,1-1.24,3.58c-.38.31-.78.57-1.18.85-6.08,4.17-12.14,8.37-18.26,12.5-3.05,2.06-6.23,3.93-9.3,6-2.46,1.65-4.86,3.39-7.22,5.17-1.4,1.06-2.67,2.27-4,3.41a7.61,7.61,0,0,1-1.12.92,2.44,2.44,0,0,1-3.18-.15l-.81-.72a4.58,4.58,0,0,0-4.23-1c-.59.14-1.18.31-1.77.43a3.31,3.31,0,0,1-3.4-1.21,17.13,17.13,0,0,1-1-1.49c-2.62-4.14-5.17-8.32-8.07-12.28a62.43,62.43,0,0,0-5.5-6.74q-.32-.33-.6-.69a2.6,2.6,0,0,1,0-3.75,7.87,7.87,0,0,0,.6-.68,4.66,4.66,0,0,0,1-4.25c-.14-.58-.34-1.16-.45-1.76a3.32,3.32,0,0,1,1.14-3.26,11,11,0,0,1,1.16-.87c6.23-4.27,12.45-8.57,18.71-12.8,3-2,6.12-3.89,9.15-5.88a75.44,75.44,0,0,0,11.33-8.73l.14-.12c1.47-1.27,2.69-1.58,4.3-.05a6.17,6.17,0,0,0,.54.48,4.69,4.69,0,0,0,4.09,1l1.95-.45a3,3,0,0,1,3.1,1.05,13.18,13.18,0,0,1,1.15,1.62c2.2,3.4,4.36,6.84,6.61,10.2a64.32,64.32,0,0,0,7.09,9A4,4,0,0,1,627,41.06ZM599,16.48a13.25,13.25,0,0,0-1.28.95,81.33,81.33,0,0,1-11.8,9c-3,1.95-6,3.79-9,5.79-6.12,4.13-12.18,8.32-18.26,12.49a14.11,14.11,0,0,0-1.18.85,2.1,2.1,0,0,0-.76,2.27c.13.53.27,1,.39,1.58a5.85,5.85,0,0,1-1.32,5.42c-.2.23-.42.44-.6.68a1.33,1.33,0,0,0-.09,1.82,5.43,5.43,0,0,0,.58.69,63.48,63.48,0,0,1,7,8.8c2.22,3.32,4.36,6.69,6.53,10,.33.51.64,1,1,1.52a2.14,2.14,0,0,0,2.51,1l1.59-.38a5.85,5.85,0,0,1,5.26,1.27c.28.23.53.49.82.72a1.28,1.28,0,0,0,1.66.09,4.33,4.33,0,0,0,.71-.57,79.27,79.27,0,0,1,11.49-8.82c3.29-2.15,6.64-4.2,9.89-6.39,5.87-4,11.68-8,17.52-12,.4-.27.79-.56,1.18-.85a2.16,2.16,0,0,0,.87-2.39c-.11-.47-.24-.94-.35-1.41a5.94,5.94,0,0,1,1.31-5.59c.19-.23.42-.44.61-.67a1.31,1.31,0,0,0,.06-1.82,7.78,7.78,0,0,0-.59-.68,64.43,64.43,0,0,1-6.88-8.66c-2.28-3.42-4.47-6.9-6.71-10.35A17,17,0,0,0,610,19.26a1.83,1.83,0,0,0-1.93-.71c-.54.12-1.06.26-1.59.39a6.23,6.23,0,0,1-5.76-1.37,10.8,10.8,0,0,0-1-.81A3.5,3.5,0,0,0,599,16.48Z" transform="translate(-0.01)"/><path class="cls-5" d="M622.7,41.46a11.59,11.59,0,0,0-1.93,4.46,15.87,15.87,0,0,0,.4,4.73c-.56.4-1.08.8-1.62,1.18-5.68,3.89-11.34,7.82-17.06,11.67-3,2-6,3.84-9,5.77a93.68,93.68,0,0,0-11.19,8.34,4.79,4.79,0,0,1-.55.46.94.94,0,0,1-1,.07c-.16-.09-.31-.2-.46-.3a8.79,8.79,0,0,0-7.13-1.12,8.61,8.61,0,0,1-1.11.14c-.32-.48-.63-.92-.92-1.37-2.35-3.59-4.61-7.24-7.06-10.76-1.69-2.43-3.62-4.69-5.44-7-.3-.38-.58-.76-.89-1.17a13.84,13.84,0,0,0,1.84-4.35,12.38,12.38,0,0,0-.34-4.54c.18-.74.74-.95,1.17-1.24,8.28-5.55,16.35-11.41,24.83-16.67a91.11,91.11,0,0,0,13.13-9.66c.18-.16.39-.28.67-.48a6.25,6.25,0,0,1,.92.42A8.46,8.46,0,0,0,607,21.2a6.61,6.61,0,0,1,.89-.15.5.5,0,0,1,.17,0c.6.28.82.87,1.14,1.37,2.39,3.64,4.69,7.34,7.17,10.92,1.64,2.38,3.54,4.59,5.33,6.87Zm-50.05,33.9a12,12,0,0,1,4.56-.14c1.39.36,2.73.89,4.16,1.37A108.36,108.36,0,0,1,594.48,67c2.39-1.54,4.83-3,7.19-4.58,5.56-3.76,11.08-7.58,16.62-11.37.44-.31.87-.64,1.16-.86a29.18,29.18,0,0,1,0-4.5,32.87,32.87,0,0,1,1.36-4.4c-5.07-5.68-9-12.26-13.21-18.79a10.39,10.39,0,0,1-8.43-1.26c-.31.24-.56.41-.78.61a97,97,0,0,1-10.49,7.77c-2.95,1.91-6,3.7-8.87,5.66-5.77,3.89-11.48,7.86-17.21,11.8-.39.26-.75.58-1.17.9a10.58,10.58,0,0,1-1.36,8.47C564.49,62.27,568.51,68.82,572.65,75.36Z" transform="translate(-0.01)"/><path class="cls-5" d="M592,46.46a10.31,10.31,0,0,0-1.22-5.28c-.43-.94-.9-1.85-1.34-2.78a5.09,5.09,0,0,1-.4-1c0-.2,0-.56.15-.63a1,1,0,0,1,.82-.06,1.85,1.85,0,0,1,.71.78,32.78,32.78,0,0,1,1.66,3.81c.52,1.61.84,3.28,1.25,4.92.11.4.27.79.4,1.19l1.85.22a12.52,12.52,0,0,1,7,3.23,2.88,2.88,0,0,1,.61.65.81.81,0,0,1,.06.66.56.56,0,0,1-.77.26,6.59,6.59,0,0,1-1.08-.65c-.74-.52-1.45-1.1-2.2-1.59A8.09,8.09,0,0,0,596,48.91a3.54,3.54,0,0,0-1.89.23,6.56,6.56,0,0,0,.49,1c1,1.37,2,2.72,3,4.09a3.49,3.49,0,0,1,.89,1.71.8.8,0,0,1-1.29,0,5.69,5.69,0,0,1-.53-.73,165.89,165.89,0,0,0-11.51-15.15l-.23-.28a.58.58,0,0,1,0-.82.79.79,0,0,1,1.13-.12,12.39,12.39,0,0,1,.94,1.1l4.43,5.74C591.56,46,591.81,46.2,592,46.46Z" transform="translate(-0.01)"/><path class="cls-5" d="M579.61,48.72a7.56,7.56,0,0,1,0-3.48,3.41,3.41,0,0,1,2.83-2.49,1.61,1.61,0,0,1,1.58.66.53.53,0,0,1-.32.84c-.42,0-.84-.06-1.26,0a1.25,1.25,0,0,0-1.32,1A5.14,5.14,0,0,0,581,47a18.29,18.29,0,0,0,5.36,10.06,5.69,5.69,0,0,0,2.31,1.39,2.9,2.9,0,0,0,1.95-.05,1.59,1.59,0,0,0,1.15-1.82c0-.36-.12-.72-.12-1.08a1.21,1.21,0,0,1,.19-.67.85.85,0,0,1,.57-.37.71.71,0,0,1,.56.36,3.31,3.31,0,0,1-1,4.06,4.27,4.27,0,0,1-4.11.67,6.77,6.77,0,0,1-2-1.14A20.55,20.55,0,0,1,579.61,48.72Z" transform="translate(-0.01)"/><path class="cls-5" d="M593.39,34.72a12.08,12.08,0,0,1,3.12-2.25.56.56,0,0,1,.78.23.58.58,0,0,1-.15.81c-.62.47-1.26.92-1.95,1.41a2.1,2.1,0,0,0,.19.68c1.36,1.92,2.85,3.74,4.37,5.55.83-.13,1.29-.75,1.92-1.09a7.58,7.58,0,0,1,1.11-.54c.36-.12.85.15.86.47a1.11,1.11,0,0,1-.31.76c-.56.46-1.18.84-1.77,1.26-.23.18-.44.4-.7.64,1,1.7,2.2,3.21,3.24,4.7.86,0,1.2-.59,1.72-.87a14.94,14.94,0,0,1,1.43-.75.61.61,0,0,1,.6.92,10.08,10.08,0,0,1-4,2.64,5.49,5.49,0,0,1-.56-.61q-4.92-6.74-9.82-13.48C593.41,35.12,593.43,35,593.39,34.72Z" transform="translate(-0.01)"/><path class="cls-5" d="M601.51,30.22c-.53.31-.93.57-1.36.78a2.53,2.53,0,0,1-.85.25.56.56,0,0,1-.43-.24.62.62,0,0,1,0-.5,1.29,1.29,0,0,1,.42-.57c1.61-1.09,3.23-2.15,4.84-3.21a.85.85,0,0,1,.5-.18,1.42,1.42,0,0,1,.77.33.55.55,0,0,1-.15.8c-.66.51-1.36,1-2,1.44a3.5,3.5,0,0,0,.92,1.85q3.61,5.43,7.27,10.86a7,7,0,0,1,.64,1.08.78.78,0,0,1-.17.63.71.71,0,0,1-.64.17,2.18,2.18,0,0,1-.82-.66c-.6-.83-1.14-1.7-1.72-2.55l-6.29-9.12C602.16,31,601.89,30.71,601.51,30.22Z" transform="translate(-0.01)"/><path class="cls-5" d="M566.37,54.58c-.64.38-1.09.67-1.57.92a1.89,1.89,0,0,1-.67.17.51.51,0,0,1-.46-.76,2.7,2.7,0,0,1,.58-.67c1.45-1,2.89-2,4.37-2.91a2.82,2.82,0,0,1,1.19-.33c.17,0,.41.22.52.4a.56.56,0,0,1-.1.49,4.4,4.4,0,0,1-.7.58c-.48.35-1,.68-1.42,1-.17.73.35,1.09.63,1.51,2.43,3.68,4.9,7.33,7.35,11a12,12,0,0,1,.75,1.24.58.58,0,0,1-.17.8.75.75,0,0,1-1-.09,9.88,9.88,0,0,1-.85-1.16c-2.36-3.44-4.7-6.88-7.06-10.31C567.35,55.85,566.9,55.29,566.37,54.58Z" transform="translate(-0.01)"/><path class="cls-5" d="M584.85,62.85c-.14.2-.23.47-.41.55s-.66.21-.83.08a6.54,6.54,0,0,1-1.12-1.17c-1.84-2.33-3.65-4.67-5.49-7-1.09-1.37-2.22-2.72-3.31-4.09a13.6,13.6,0,0,1-1-1.48.5.5,0,0,1,.18-.77,1,1,0,0,1,.83,0,6.53,6.53,0,0,1,1,1.06l8.56,10.58c.42.52.86,1,1.28,1.54C584.61,62.36,584.7,62.59,584.85,62.85Z" transform="translate(-0.01)"/><path class="cls-6" d="M340.65,141.39a.87.87,0,0,1,1.21-.57l5.6,2.59s2.23.73,3,4.18S355.4,159,363.53,154a4.6,4.6,0,0,1,5.14-1.18c2,.86,4.55,2.19,5.94,3a1.17,1.17,0,0,1,.44,1.61l-16.82,28.4s-4,6.32-9.85,3.89-9.23-4.11-9.23-4.11-8.14-1.81-7-8.19C333.13,171.65,339.32,146.74,340.65,141.39Z" transform="translate(-0.01)"/><path class="cls-5" d="M347.42,133.82l-.21-6.52a.65.65,0,0,0-.46-.6,11.24,11.24,0,0,0-4-.24c-1.31.23-1.55,1.12-1.7,2.28a63.14,63.14,0,0,0-.24,9c0,.41,0,.82,0,1.23,0,0,0,.11,0,0s-.09.18-.12.25l-.36,1a.63.63,0,0,0,.28.71l3.4,1.57c.32.15.85.06.92-.37l1.19-7.8-.44.44,1.29-.32a.63.63,0,0,0-.34-1.21l-1.28.33a.6.6,0,0,0-.44.43l-1.19,7.79.92-.37-3.4-1.57.29.7a5.1,5.1,0,0,0,.51-2c0-1.2,0-2.41,0-3.61,0-1.52,0-3,.12-4.56a17,17,0,0,1,.16-1.74,4.16,4.16,0,0,1,.13-.59.66.66,0,0,1,.06-.2c0,.06,0,0,0,0,1.11-.55,2.79-.18,4,.06l-.46-.61.21,6.52A.63.63,0,0,0,347.42,133.82Z" transform="translate(-0.01)"/><path class="cls-5" d="M349.68,133.89l-2.47,8.17-.35,1.19.91-.38-3.14-1.48.29.71,1.19-7.8-.61.46,4.79-.08a.63.63,0,0,0,0-1.25l-4.79.08a.64.64,0,0,0-.6.46l-1.19,7.79a.65.65,0,0,0,.29.71l3.14,1.48a.63.63,0,0,0,.92-.37l2.47-8.17.36-1.19A.63.63,0,0,0,349.68,133.89Z" transform="translate(-0.01)"/><path class="cls-5" d="M357.56,130.13l-5-1.59a.62.62,0,0,0-.7.29l-3.29,4.93a.63.63,0,0,0,.54.94l1.2,0-.61-.79-2.82,9.36c-.2.63.59,1,1,.6a22.87,22.87,0,0,0,2.42-2.08c.42-.49.76-1.08,1.14-1.6l5.07-7.15,1.41-2c.46-.65-.62-1.28-1.08-.63l-3.54,5c-1.33,1.86-2.57,3.84-4,5.62-.08.1.18-.13-.08,0a8.11,8.11,0,0,0-.77.66L347,143l1,.61,2.83-9.36a.63.63,0,0,0-.6-.79l-1.2,0,.54.94,3.29-4.93-.71.29,5,1.58C358,131.58,358.33,130.37,357.56,130.13Z" transform="translate(-0.01)"/><path class="cls-5" d="M359,130.61l5.37,1.36-.37-.92-2.73,6.4-.39.92.71-.29-4.19-.83.37.92,1.56-2.25a.63.63,0,0,0-.22-.85l-1.4-.66.29.7,1.77-4.94c.28-.75-.93-1.08-1.2-.33l-1.78,4.94a.65.65,0,0,0,.29.71l1.39.66-.22-.86-1.56,2.25a.64.64,0,0,0,.38.92l4.19.82a.63.63,0,0,0,.7-.28l2.73-6.4.39-.91a.64.64,0,0,0-.38-.92l-5.36-1.36A.62.62,0,0,0,359,130.61Z" transform="translate(-0.01)"/><path class="cls-5" d="M354.76,134.8l3.81,1.41-.37-.92-7.27,10.5-1,1.48,1.16.32a5.5,5.5,0,0,0-2.44-4.23c-.71-.39-1.34.69-.64,1.08a3.54,3.54,0,0,1,1.52,2,6.92,6.92,0,0,1,.25.89c0,.1.1.56.06.3a.63.63,0,0,0,1.17.31l7.27-10.5,1-1.48a.63.63,0,0,0-.37-.92l-3.81-1.4c-.76-.28-1.09.93-.34,1.2Z" transform="translate(-0.01)"/><path class="cls-5" d="M351.76,150.17l3.42-7.4-.85.23,4.55,2-.22-.85-5.26,7.42-.75,1.06,1.14.15a11.84,11.84,0,0,0-2.12-3.37c-.5-.63-1.38.26-.89.88a17,17,0,0,1,1.5,2.19c.09.18.19.36.27.54s0-.07,0,.09a.64.64,0,0,0,1.15.15l5.25-7.42.75-1.06a.63.63,0,0,0-.22-.86l-4.55-2a.64.64,0,0,0-.86.22l-3.42,7.4C350.35,150.26,351.43,150.9,351.76,150.17Z" transform="translate(-0.01)"/><path class="cls-5" d="M357.78,155.62l3.67-14.68.53-2.09a.64.64,0,0,0-.44-.77l-4.9-.94a.66.66,0,0,0-.71.29l-3.42,7.89-1.68,3.89c-.37.84,0,1.46.43,2.25a9.46,9.46,0,0,0,5.75,4.59.62.62,0,0,0,.34-1.2,8.12,8.12,0,0,1-5.52-5.17l-.07.49L357,138.06l-.71.29,4.91.93-.44-.76-3.67,14.67-.52,2.09C356.38,156.06,357.59,156.4,357.78,155.62Z" transform="translate(-0.01)"/><path class="cls-5" d="M365,142.59l2.26-4.76A.65.65,0,0,0,367,137l-3.85-2.09a.63.63,0,0,0-.92.37c-.9,2.72-1.88,5.42-2.7,8.16s-1.35,5.34-2,8l-1,3.87a.63.63,0,0,0,.43.77,7.8,7.8,0,0,0,4.86-.54.6.6,0,0,0,.31-.54c.25-4,.17-8.08.25-12.1l-.46.6,2.65-.59c.78-.18.45-1.39-.34-1.21l-2.64.6a.63.63,0,0,0-.46.6c-.08,4,0,8.09-.25,12.1l.31-.54a6.41,6.41,0,0,1-3.89.42l.43.77c1.3-5.21,2.5-10.42,4.19-15.51l1.5-4.53-.92.37,3.85,2.1-.23-.85L363.91,142C363.57,142.68,364.64,143.32,365,142.59Z" transform="translate(-0.01)"/><path class="cls-5" d="M365.64,153l2.07-10.56c.07-.36-.16-.84-.6-.79l-5.31.57a.62.62,0,0,0-.62.62L361,153.44l0,1.53a.63.63,0,0,0,.79.6,12.13,12.13,0,0,0,3.64-2.17c.63-.48,0-1.56-.64-1.07a12.4,12.4,0,0,1-3.33,2l.79.6.22-10.57,0-1.53-.63.63,5.31-.57-.6-.79-2.07,10.56C364.28,153.48,365.49,153.82,365.64,153Z" transform="translate(-0.01)"/><path class="cls-5" d="M366.43,136.64c.15-.45.25-1.23.88-1.17a10.8,10.8,0,0,1,1.13.24l3.15.65-.43-.77-.57,1.74.61-.46c-.47,0-.94,0-1.4.07s-.63.46-.84.83l-1.85,3.28-.54.94.54-.31-2.66,0,.54.94,2.26-4.76a.65.65,0,0,0-.1-.76l-.88-1c-.53-.61-1.41.28-.89.89l.89,1-.1-.75L363.91,142a.63.63,0,0,0,.54.94l2.66,0a.63.63,0,0,0,.54-.31l2.68-4.74-.54.31,1.41-.07a.64.64,0,0,0,.6-.45l.56-1.75a.64.64,0,0,0-.44-.77l-2.57-.53c-.92-.19-2.18-.68-3.06-.13a3,3,0,0,0-1.07,1.82C365,137.07,366.17,137.4,366.43,136.64Z" transform="translate(-0.01)"/><path class="cls-5" d="M366.65,152.26,374.11,140l.57-.94c.07-.11.12-.13,0,0,.23-.22.49-.41.73-.62.46-.39,0-1-.45-1.06a30.12,30.12,0,0,0-3.9-.49c-.63,0-1.48-.09-1.85.48s-.77,1.35-1.15,2l-1.3,2.3a2.22,2.22,0,0,0-.29.9c-.18,1.64-.34,3.28-.51,4.91l-.47,4.47c-.08.8,1.17.79,1.25,0l.66-6.31c.11-1,.25-2.08.32-3.12,0-.5-.22.32.05-.1s.52-.92.78-1.37l1.79-3.17-.54.31a12.37,12.37,0,0,1,2.28.05l2.88.38-.44-1.07a5.26,5.26,0,0,0-1.24,1.43l-1.83,3-4.71,7.74-1.16,1.9A.63.63,0,0,0,366.65,152.26Z" transform="translate(-0.01)"/><path class="cls-5" d="M372.42,154.44,376.74,142l.6-1.75c.15-.42-.23-.74-.6-.79l-3.16-.41a.62.62,0,0,0-.54.31l-6.52,10.72-.95,1.56,1-.12c.21.24-.28,1.07-.38.92s.2.06.37.12a29.55,29.55,0,0,1,3,1.36l1.91.9c.73.34,1.36-.74.64-1.08-1.45-.68-2.88-1.4-4.35-2-.51-.22-1.44-.76-2-.43a.7.7,0,0,0-.11,1.11.63.63,0,0,0,1-.13l6.52-10.72.95-1.56-.54.31,3.16.41-.6-.79-4.32,12.45-.6,1.74C371,154.87,372.16,155.19,372.42,154.44Z" transform="translate(-0.01)"/><path class="cls-5" d="M380.33,144l2-4.44a.63.63,0,0,0-.54-.94l-4.66-.2a.63.63,0,0,0-.6.46l-4.64,13.37-.65,1.89c-.25.73.75,1,1.14.49l7-9.3,1-1.33c.49-.65-.6-1.27-1.08-.63l-7,9.29-1,1.34,1.14.48,4.64-13.37.65-1.9-.6.46,4.66.2-.54-.94-2,4.44C378.93,144.05,380,144.69,380.33,144Z" transform="translate(-0.01)"/><path class="cls-5" d="M375.58,156.16l6.85-8.79,1-1.24a.65.65,0,0,0-.13-1l-3.16-2a.65.65,0,0,0-.86.23l-7,9.31-1,1.32a.62.62,0,0,0,.22.85l3.32,1.45c.73.32,1.37-.76.63-1.08l-3.31-1.45.22.86,7-9.32,1-1.31-.85.22,3.16,2-.13-1L375.66,154l-1,1.25C374.2,155.9,375.08,156.8,375.58,156.16Z" transform="translate(-0.01)"/><path class="cls-5" d="M351.71,175.77l-1,1.26h0a2.35,2.35,0,0,1-.44-.17l-1-.43L345.8,175l-1.05-.43a1.42,1.42,0,0,1-.35-.15c-.21-.21.66-.49.74-.61l.12-.26.24-.59.78-1.88.36-.9a1.17,1.17,0,0,0,.14-.35.83.83,0,0,0,0-.15c-.06-.19-.22-.45-.18-.65s.14-.07.22-.08l4.57,1.89,1,.41a2,2,0,0,1,.69.36.31.31,0,0,1,0,.13,3.06,3.06,0,0,1-.1.41c-.06.23-.12.46-.19.69a1.27,1.27,0,0,1-.11.38c-.07.12-.22.15-.29,0a1,1,0,0,1,0-.29c0-.36,0-.79-.27-1.07a2.34,2.34,0,0,0-.82-.41l-1.92-.79-.63-.26c-.07,0-.18-.1-.25-.09h0a2.34,2.34,0,0,0-.2.45l-.56,1.37,1.68.7.4.16a.52.52,0,0,0,.21.07c.19,0,.4-.23.5-.37s.06-.13.11-.14.2.06.26.08l-.81,2s0,.12-.08.12-.2-.05-.21-.1a.29.29,0,0,1,0-.16c0-.16.07-.51-.08-.62l-.19-.08-.34-.14-1.2-.5a4.13,4.13,0,0,0-.57-.21,1.48,1.48,0,0,0-.18.38l-.55,1.36,2.56,1,.65.27a.94.94,0,0,0,.31.1.68.68,0,0,0,.26-.07,2.33,2.33,0,0,0,.34-.2l.63-.47a.91.91,0,0,1,.27-.18,1.41,1.41,0,0,1,.4.15l-.33.41" transform="translate(-0.01)"/><path class="cls-5" d="M357.23,165.2c-.26.37-.51.74-.76,1.12l-1.66,2.42-.61.9a3.3,3.3,0,0,0-.26.39h0s-.06,0-.08,0l-.68-.28-1.88-.78-.39-.16a1.59,1.59,0,0,0-.2-.07l-2.37-1a6,6,0,0,1-.83-.37s0-.22,0-.28c.06-.3.11-.6.17-.9l.63-3.42c.05-.3.1-.59.16-.88a.91.91,0,0,1,.09-.36.21.21,0,0,1,.17-.08.25.25,0,0,1,.12.13,1,1,0,0,1,.07.24c0,.15.05.3.08.45.1.58.21,1.15.32,1.73l.09.51c0,.08,0,.16,0,.24h0l.12-.12c.09-.1.19-.19.28-.28l1.26-1.25c.11-.11.42-.52.6-.4s.12.56.13.73l0,2.3h0l1.7-1.66c.11-.1.42-.49.61-.37s.09.59.1.74c0,.77,0,1.53,0,2.3h0l2.2-1.53c.11-.08.59-.5.7-.23a.26.26,0,0,1,0,.19" transform="translate(-0.01)"/><path class="cls-5" d="M400.57,245.78a19.09,19.09,0,0,0,.15,4.06c.08.41.28,1.11.84,1.28l.12,0c.6.09,1-.49,1.32-.93,8.05-12.83,16.16-25.86,24.09-38.71l.16-.25-.29.05c-1,.2-1.63,1.21-2.15,2.09l-.1.17c-.25.42-1.12,1.74-2.21,1.57a9.89,9.89,0,0,1,3.69-5.17l0,0v0c.05-.2-.07-.28-.11-.29-.42-.19-2.28,1.25-2.8,2a17.36,17.36,0,0,0-1,1.6c-.23.43-.47.87-.73,1.28a1.88,1.88,0,0,1-.74.74,1.34,1.34,0,0,1-1.47-.41,2.8,2.8,0,0,1-.6-1.58,13,13,0,0,1-.08-1.39,12.75,12.75,0,0,0-.09-1.51,3.38,3.38,0,0,0-1.45-2.53,4.36,4.36,0,0,0-2.77-.26,5.57,5.57,0,0,1-2.23,0h0a7.92,7.92,0,0,1-2.6-2.29c-.67-.79-.95-1.1-1.18-1-.06,0-.13.07-.15.23v.05a6.15,6.15,0,0,0,5.85,4.35l.64,0a3.07,3.07,0,0,1,2.28.42,3.18,3.18,0,0,1,.75,2.12v.11a17.65,17.65,0,0,0,.55,2.79,2.75,2.75,0,0,0,1.34,2,3,3,0,0,0,2-.15,4.6,4.6,0,0,1,1.34-.29l-21,33.77a.63.63,0,0,1-.23.25.19.19,0,0,1-.18,0,1,1,0,0,1-.25-.74l1.39-43.35a6.22,6.22,0,0,0,3.2.87c1,0,1.85,0,2.82-.11h.07l0-.06a.19.19,0,0,0,0-.18.35.35,0,0,0-.26-.18L406,205.4l-.42-.09a4.07,4.07,0,0,1-2-.78c-1.63-1.45-.91-4.75.37-6.27l0,0c.93-1.09,1.17-1.56,1.2-1.8a28.38,28.38,0,0,0,9.24,1.24,14.2,14.2,0,0,0,8.85-3.44l0,0v-.05a.17.17,0,0,0-.08-.18c-.15-.08-.39,0-1.28.65a11,11,0,0,1-1.22.75,16.83,16.83,0,0,1-2.63,1,17.81,17.81,0,0,1-5.54.63,17.33,17.33,0,0,1-3.21-.43,9.61,9.61,0,0,1-3.21-1.18,2.17,2.17,0,0,1-.86-2.05,7.89,7.89,0,0,1,4.44-6.63,2,2,0,0,1,1-.25,2.35,2.35,0,0,1,.88.32l.28.14a5.41,5.41,0,0,0,4.12,0,15.43,15.43,0,0,0,3.62-2l0,0c.09-.13.06-.21,0-.26s-.39,0-1.68.57a17.23,17.23,0,0,1-2.44,1,4,4,0,0,1-4.2-1.37,2.88,2.88,0,0,1-.26-2.36,5.23,5.23,0,0,1,3.05-3.32c1.68-.79,3.47-1.63,5.21-2.54a7.34,7.34,0,0,0,3.49-4,14.25,14.25,0,0,0,.45-1.58,9.21,9.21,0,0,1,.8-2.34,4.53,4.53,0,0,0,.08,2.82,7.54,7.54,0,0,0,.51,1.12,4.94,4.94,0,0,1,.67,1.89,4.45,4.45,0,0,1-1.35,2.85c-2.21,2.71-5.79,3.14-7.14,3.31-.56.07-.69.08-.72.22a.18.18,0,0,0,.11.18l0,0h0a9.69,9.69,0,0,0,8.18-3.16c.58-.66,1.89-2.4,1.34-4.24a5.53,5.53,0,0,0-.56-1.21l.49.78c.21.32.43.66.62,1,.55.93,1.35,2.73.59,4.19a7.69,7.69,0,0,1-2.25,2.07c-.82.6-1.29.94-1.34,1.25a.32.32,0,0,0,.06.23l0,0c.13.08.32,0,.73-.29.58-.37,1.56-1,2.15-.7.86.41,1,1.58.87,2.55a13.56,13.56,0,0,1-3.85,7.06c-.57.61-.76.84-.72,1a.19.19,0,0,0,.13.14l.06,0,.06,0a11,11,0,0,0,4.85-9.92,8.24,8.24,0,0,1,2.75,5.43,5.52,5.52,0,0,1-3,5.34l0,0s-.13.14-.07.25.24.12.55.09c.48,0,1.2-.1,1.43.37a3.61,3.61,0,0,1,.38,2.05,7.68,7.68,0,0,1-2.46,4.48,18.12,18.12,0,0,1-3.16,2c-1.24.67-1.44.79-1.4,1s.05.13.2.14h0a12.11,12.11,0,0,0,5.61-3.26,7,7,0,0,0,1.86-5.72,8.09,8.09,0,0,1,2.15,7.48,12.84,12.84,0,0,1-4.54,7.08,8.34,8.34,0,0,0-1,1c-.41.51-.44.67-.35.78s.17.08.32,0c3.1-2.6,5-5.18,5.92-7.88.94-2.9.66-6.89-2.08-9.27l-.06-.05c-.31-.27-.64-.55-.65-.92a1.39,1.39,0,0,1,.25-.7l0-.06a8.05,8.05,0,0,0-3.49-11.22,5.64,5.64,0,0,0,.59-6.39,11.32,11.32,0,0,0-1.05-1.42,7.11,7.11,0,0,1-1.36-2.14,3.49,3.49,0,0,1,1-3.71l.36-.31-.46.08a4.22,4.22,0,0,0-2.86,2.25,8.9,8.9,0,0,0-.76,2.13,10,10,0,0,1-.72,2C420.48,175,418.2,176,416,177a23,23,0,0,0-3.08,1.49,9.47,9.47,0,0,0-1.52,1.16C410,181,409,183.4,410,185.28a8.6,8.6,0,0,0-5.95,7.72c0,.24,0,.49,0,.73a4.9,4.9,0,0,1-.36,2.33,8.57,8.57,0,0,1-.62,1,8.35,8.35,0,0,0-.73,1.19,6.75,6.75,0,0,0-.72,2.23,33.25,33.25,0,0,0,0,3.48c0,.21,0,.41.06.62a5.42,5.42,0,0,1,.07.81c0,.4,0,.8,0,1.2Z" transform="translate(-0.01)"/><path class="cls-5" d="M491.46,64.92a6.14,6.14,0,0,0,10.61-2.32.53.53,0,0,0-1-.27,5.08,5.08,0,0,1-8.83,1.85c-.44-.52-1.19.23-.75.74Z" transform="translate(-0.01)"/><path class="cls-5" d="M455.79,37.8a1.81,1.81,0,0,1,.27-.87c2.71-5.17,7.61-11.41,10.92-16.2q4.2-6.06,8.47-12.09a26,26,0,0,1,2.28-2.75c3.39-3.63,6.43-4.24,10.78-1.77,3.57,2,7,4.28,10.42,6.63,5.63,3.92,11.17,8,16.72,12,5.16,3.76,5.83,6.71,2.34,12.06-5.65,8.66-11.44,17.23-17.28,25.77-2.85,4.16-5.16,4.72-9.22,1.93q-9.36-6.42-18.63-13c-5.37-3.8-16.63-10.81-16.63-10.81A1.77,1.77,0,0,1,455.79,37.8ZM490.42,6.56l-25.32,36,23.34,16.57,25.45-36Zm-12.17,3.63,4,2.62,2.94-4.55-3.81-2.37Zm-7.82,11.88-3.16,4.35,4,2.61,2.93-4.52Zm46.46,9.22-3.83-2.41L510,33.19l4,2.64Zm-48.41,1.15L464.62,30l-3.11,4.33,4,2.58Zm35.73,8.86,4,2.61,2.91-4.56-3.8-2.41ZM475.63,13.92l-3.06,4.35,3.93,2.64,3-4.59ZM502.1,45.07,499,49.43l3.92,2.63c1-1.57,1.94-3,2.94-4.55Zm-2,10.36L496.33,53l-3.12,4.35,4,2.61Z" transform="translate(-0.01)"/><path class="cls-5" d="M489.26,43.06l8.42-12.58a1,1,0,0,0-.61-1.81l-14.2-1.5a1.06,1.06,0,0,0-1,1.62l5.68,14.06A1.12,1.12,0,0,0,489.26,43.06Z" transform="translate(-0.01)"/><path class="cls-5" d="M253.06,174.24l4.28.93.61.13c.15,0,.52.09.63-.08s-.23-.26-.33-.28L254,174l-.61-.13c-.15,0-.52-.09-.62.07s.22.26.32.28Z" transform="translate(-0.01)"/><path class="cls-5" d="M251.6,175.72l1.45,2.9.2.41c0,.07.18.1.24.11a1,1,0,0,0,.38,0c.12,0,.42-.09.34-.26L252.76,176l-.21-.41c0-.06-.18-.09-.23-.1a1.27,1.27,0,0,0-.39,0c-.12,0-.42.09-.33.27Z" transform="translate(-0.01)"/><path class="cls-5" d="M252.18,174.88l2.78,2.23.39.31a1,1,0,0,0,.69.18c.19,0,.22-.15.07-.28l-2.79-2.22-.39-.31a1,1,0,0,0-.68-.18c-.19,0-.22.15-.07.27Z" transform="translate(-0.01)"/><path class="cls-5" d="M311,203.45h.29l.16,0h.09l.09,0,.13.05.07,0h0l.17.09.06,0c.06,0-.08-.06,0,0l.11.08.12.09.05.05,0,0s0,0,0,0a3.31,3.31,0,0,1,.39.44,5.07,5.07,0,0,1,.8,1.73,3.24,3.24,0,0,1,.09.4l1,.17a1.22,1.22,0,0,0-.48-.67,2.74,2.74,0,0,0-2.33-.32c-.22.06,0,.26.1.32a.92.92,0,0,0,.67.11,2.67,2.67,0,0,1,.48-.08h.15s.14,0,0,0h.07c.12,0-.11,0,0,0l.06,0c-.1-.07-.05,0,0,0l0,0,.06,0s-.06-.05,0,0l.06,0,0,0,.05.05.06.08,0,0,0,.07a.78.78,0,0,1,.05.14c.06.27,1,.47,1,.17a4.66,4.66,0,0,0-2.06-3.24,3.85,3.85,0,0,0-1.93-.52c-.12,0-.39,0-.25.21a.9.9,0,0,0,.64.26Z" transform="translate(-0.01)"/><path class="cls-6" d="M271.39,185.5s-11.8-9.55-18-4.57-5.22,14.51,2.9,24.82,27.92,24,51,11.65c-.11-.21,13.55-7.57-1.5-13.87S281.13,195.27,271.39,185.5Z" transform="translate(-0.01)"/><path class="cls-6" d="M314,201.62s-.14-8.58-11-12.12-18.73-6.91-24-12.66-11.94-7-17-3.64c2.09,1.19,5.16,4,9.14,6.94,2.33,1.74,17.74,12.1,32.58,14.72C306.47,195.65,312.67,197.4,314,201.62Z" transform="translate(-0.01)"/><path class="cls-6" d="M250.56,182.2c0-.21-.05-.41-.06-.52-.21-3.23.51-6.47,3.58-8.25,6.82-4,12.47,3.79,17,6.71,7.56,4.88,8,4.62,12.4,6.93s14.84,7.17,18.56,7.47,16.7,4.5,11.13,14.56c-.44.06-1.18-2.15-3.31-3.42a38.08,38.08,0,0,0-7.38-3.52c-4.41-1.72-18.29-5.83-25.4-11.77s-8.5-7-12.17-8.94S256.57,179,255,180a10.3,10.3,0,0,0-3.51,3C250.93,183.79,250.67,182.89,250.56,182.2Z" transform="translate(-0.01)"/><path class="cls-5" d="M307.79,202.21c2.27-2.38.45-6.51-2.61-7.15-3.26-.7-6.11,1.8-9.12,2.51a4.56,4.56,0,0,1-4.18-1.11,10.81,10.81,0,0,1-2.41-3.48,11.92,11.92,0,0,0-2.46-3.5,5,5,0,0,0-2.35-1.26,7.8,7.8,0,0,0-2.26-.13c-1.5.11-2.91.66-4.38.86a5.32,5.32,0,0,1-.89.05s-.23-.06-.1,0a1.93,1.93,0,0,1-.19-.1,3.92,3.92,0,0,1-1.31-2.07c-.2-.56-2.1-.81-1.92-.31a5,5,0,0,0,2.08,2.79,5.58,5.58,0,0,0,3.29.61c2-.21,4.14-1.38,6.15-.74l-.65-.3c2.77,1.81,3.23,5.31,5.58,7.49a8.68,8.68,0,0,0,5.2,2.28,10,10,0,0,0,4.85-1.14c1.74-.77,3.53-1.69,5.49-1.56l-.75-.17a3.55,3.55,0,0,1,1.89,2.33,3.37,3.37,0,0,1-.75,3.39c-.4.42,1.4,1.14,1.8.72Z" transform="translate(-0.01)"/><path class="cls-5" d="M266.74,181.69a3.31,3.31,0,0,1,2.15-1.7,1.52,1.52,0,0,1,.88.06,3.62,3.62,0,0,1,1.25.71c2.17,1.84,1.84,5.2,3.3,7.49.32.49,2.23.26,1.93-.21-1.69-2.66-1.18-6.56-4.33-8.22-2.34-1.25-5.72-.76-7.11,1.65-.28.5,1.64.73,1.93.22Z" transform="translate(-0.01)"/><path class="cls-5" d="M261.13,194l-.33.16a.69.69,0,0,0,.61,1.24l.33-.17a.69.69,0,0,0-.61-1.23Z" transform="translate(-0.01)"/><path class="cls-5" d="M264.58,203.32a.69.69,0,0,0,1.23-.61.69.69,0,0,0-1.23.61Z" transform="translate(-0.01)"/><path class="cls-5" d="M284.42,208.6a.69.69,0,0,0,1.24-.62.69.69,0,0,0-1.24.62Z" transform="translate(-0.01)"/><path class="cls-5" d="M276.05,214a.69.69,0,0,0,1.23-.62.69.69,0,0,0-1.23.62Z" transform="translate(-0.01)"/><path class="cls-5" d="M298.69,212.55a.69.69,0,0,0,1.23-.61.69.69,0,0,0-1.23.61Z" transform="translate(-0.01)"/><path class="cls-5" d="M287.2,218.28a.69.69,0,0,0,1.23-.62.69.69,0,0,0-1.23.62Z" transform="translate(-0.01)"/><path class="cls-5" d="M272.58,205.49a.69.69,0,0,0,1.24-.62.69.69,0,0,0-1.24.62Z" transform="translate(-0.01)"/><path class="cls-6" d="M344.69,274.88l27-27.27a2.67,2.67,0,0,0-.66-4.81L336.4,232.27a2.67,2.67,0,0,0-3.26,3.55l7.39,37.73A2.83,2.83,0,0,0,344.69,274.88Z" transform="translate(-0.01)"/><path class="cls-5" d="M335.69,265.67l1.25,7.75c.11.69,1.19.57,1.08-.13l-1.25-7.75c-.11-.69-1.19-.56-1.08.13Z" transform="translate(-0.01)"/><path class="cls-5" d="M336.7,230.17l7.59,2c.68.18,1-.86.32-1l-7.59-2c-.67-.18-1,.86-.32,1Z" transform="translate(-0.01)"/><path class="cls-5" d="M343.78,266.4a.57.57,0,0,0,1.09-.34.57.57,0,0,0-1.09.34Z" transform="translate(-0.01)"/><path class="cls-5" d="M356.58,254.13a.57.57,0,0,0,1.09-.33.57.57,0,0,0-1.09.33Z" transform="translate(-0.01)"/><path class="cls-5" d="M367.1,245.7a.56.56,0,0,0,1.08-.33.56.56,0,0,0-1.08.33Z" transform="translate(-0.01)"/><path class="cls-5" d="M346.37,253.6a.57.57,0,0,0,1.09-.33.57.57,0,0,0-1.09.33Z" transform="translate(-0.01)"/><path class="cls-5" d="M355.08,245a.57.57,0,0,0,1.09-.33.57.57,0,0,0-1.09.33Z" transform="translate(-0.01)"/><path class="cls-5" d="M341.84,242.31a.57.57,0,0,0,1.09-.33.57.57,0,0,0-1.09.33Z" transform="translate(-0.01)"/><path class="cls-6" d="M385.75,57.44l27-27.27a2.67,2.67,0,0,0-.66-4.81L377.46,14.83a2.67,2.67,0,0,0-3.26,3.55l7.39,37.73A2.84,2.84,0,0,0,385.75,57.44Z" transform="translate(-0.01)"/><path class="cls-5" d="M376.75,48.23,378,56c.11.69,1.19.56,1.08-.13l-1.25-7.75c-.11-.69-1.19-.56-1.08.13Z" transform="translate(-0.01)"/><path class="cls-5" d="M377.76,12.73l7.59,2c.68.18,1-.86.32-1l-7.58-2c-.68-.17-1,.86-.33,1Z" transform="translate(-0.01)"/><path class="cls-5" d="M384.85,49a.56.56,0,0,0,1.08-.33.56.56,0,0,0-1.08.33Z" transform="translate(-0.01)"/><path class="cls-5" d="M397.65,36.68a.56.56,0,0,0,1.08-.33.56.56,0,0,0-1.08.33Z" transform="translate(-0.01)"/><path class="cls-5" d="M408.16,28.26a.57.57,0,0,0,1.09-.33.57.57,0,0,0-1.09.33Z" transform="translate(-0.01)"/><path class="cls-5" d="M387.44,36.16a.56.56,0,0,0,1.08-.33.56.56,0,0,0-1.08.33Z" transform="translate(-0.01)"/><path class="cls-5" d="M396.14,27.58a.57.57,0,0,0,1.09-.33.57.57,0,0,0-1.09.33Z" transform="translate(-0.01)"/><path class="cls-5" d="M382.91,24.87a.56.56,0,0,0,1.08-.33.56.56,0,0,0-1.08.33Z" transform="translate(-0.01)"/></g></g></g></g></svg>