<?xml version="1.0" encoding="UTF-8"?>
<svg xmlns="http://www.w3.org/2000/svg" xmlns:xlink="http://www.w3.org/1999/xlink" viewBox="0 0 50 50" width="50px" height="50px">
<g id="surface262580875">
<path style=" stroke:none;fill-rule:nonzero;fill:rgb(100%,100%,100%);fill-opacity:1;" d="M 25 50 C 11.191406 50 0 38.808594 0 25 C 0 11.191406 11.191406 0 25 0 C 38.808594 0 50 11.191406 50 25 C 50 38.808594 38.808594 50 25 50 Z M 25 50 "/>
<path style=" stroke:none;fill-rule:nonzero;fill:#CF1F2E;fill-opacity:1;" d="M 25.796875 36.960938 C 19.203125 36.960938 13.835938 31.59375 13.835938 25 C 13.835938 18.40625 19.203125 13.039062 25.796875 13.039062 C 28.785156 13.039062 31.644531 14.148438 33.855469 16.15625 L 34.253906 16.527344 L 30.3125 20.46875 L 29.945312 20.15625 C 28.789062 19.167969 27.316406 18.621094 25.796875 18.621094 C 22.28125 18.621094 19.414062 21.480469 19.414062 25 C 19.414062 28.519531 22.28125 31.378906 25.796875 31.378906 C 28.335938 31.378906 30.339844 30.085938 31.285156 27.875 L 25.277344 27.875 L 25.277344 22.492188 L 37.003906 22.507812 L 37.089844 22.921875 C 37.703125 25.824219 37.214844 30.09375 34.734375 33.148438 C 32.683594 35.675781 29.675781 36.960938 25.796875 36.960938 Z M 25.796875 36.960938 "/>
</g>
</svg>
