<svg xmlns="http://www.w3.org/2000/svg" viewBox="0 0 25.51 25.51"><defs><style>.cls-1{fill:#fff;}</style></defs><g id="Layer_2" data-name="Layer 2"><g id="Layer_1-2" data-name="Layer 1"><path class="cls-1" d="M25.51,12.74A12.76,12.76,0,0,1,0,12.78,12.63,12.63,0,0,1,12.72,0,12.65,12.65,0,0,1,25.51,12.74Zm-6,.07c0-1.29,0-2.59,0-3.88a2.84,2.84,0,0,0-2.91-3q-3.89,0-7.77,0A2.83,2.83,0,0,0,6,8.87q0,3.89,0,7.77a2.87,2.87,0,0,0,3,3c2.56,0,5.13,0,7.69,0a2.87,2.87,0,0,0,2.93-3C19.54,15.35,19.53,14.08,19.53,12.81Z"/><path class="cls-1" d="M20.66,12.82c0,1.48,0,3,0,4.44a3.35,3.35,0,0,1-3.42,3.48q-4.48,0-9,0a3.35,3.35,0,0,1-3.45-3.46q0-4.53,0-9.06A3.3,3.3,0,0,1,8.21,4.8q4.52-.06,9.05,0a3.32,3.32,0,0,1,3.4,3.49C20.67,9.8,20.66,11.31,20.66,12.82ZM6.24,12.69c0,1.54,0,3.08,0,4.62a1.83,1.83,0,0,0,1.94,2q4.53,0,9.06,0a1.86,1.86,0,0,0,2-2q0-4.53,0-9.06a1.9,1.9,0,0,0-2-2q-4.44,0-8.88,0A1.94,1.94,0,0,0,6.24,8.34C6.23,9.79,6.24,11.24,6.24,12.69Z"/><path class="cls-1" d="M9.21,12.74a3.54,3.54,0,1,1,3.47,3.57A3.55,3.55,0,0,1,9.21,12.74Zm5.9,0a2.37,2.37,0,0,0-4.73.05,2.37,2.37,0,0,0,4.73-.05Z"/><circle class="cls-1" cx="16.62" cy="8.92" r="0.87"/></g></g></svg>