<svg xmlns="http://www.w3.org/2000/svg" viewBox="0 0 11.49 17.49"><defs><style>.cls-1{fill:#434345;}</style></defs><g id="Layer_2" data-name="Layer 2"><g id="Layer_1-2" data-name="Layer 1"><g id="PXRQd2"><path class="cls-1" d="M5.85,15.51c-1.48-2-2.94-3.88-4.38-5.82A7.5,7.5,0,0,1,.12,6.77a5.68,5.68,0,1,1,10.54,1.7,52.13,52.13,0,0,1-3.94,5.82Zm0-.92.58-.79a47.49,47.49,0,0,0,3.79-5.64A5.09,5.09,0,0,0,10.8,5,5.15,5.15,0,1,0,.89,7.53a12.92,12.92,0,0,0,1.81,3C3.72,11.85,4.78,13.2,5.84,14.59Z"/><path class="cls-1" d="M8.19,13.16c.37-.54.19-.49.77-.34a5.08,5.08,0,0,1,1.82.82,1.45,1.45,0,0,1,.06,2.45,6.2,6.2,0,0,1-2.75,1.15A11.84,11.84,0,0,1,2.18,17,3.76,3.76,0,0,1,.64,16.1,1.36,1.36,0,0,1,.65,14,5,5,0,0,1,3,12.83c.13,0,.32.21.47.32-.68.28-1.31.52-1.92.81a2,2,0,0,0-.61.47A.82.82,0,0,0,1,15.7a3.47,3.47,0,0,0,1.58.84,11.05,11.05,0,0,0,6.73-.19,4.58,4.58,0,0,0,1.34-.8.83.83,0,0,0,0-1.4,5,5,0,0,0-2.06-.91Z"/><path class="cls-1" d="M5.73,9A3.35,3.35,0,1,1,9.05,5.58,3.33,3.33,0,0,1,5.73,9ZM5.64,2.84A2.84,2.84,0,1,0,8.53,5.65,2.85,2.85,0,0,0,5.64,2.84Z"/></g></g></g></svg>