<svg xmlns="http://www.w3.org/2000/svg" viewBox="0 0 101 29.17"><defs><style>.cls-1{fill:#fff;}</style></defs><g id="Layer_2" data-name="Layer 2"><g id="Layer_1-2" data-name="Layer 1"><path class="cls-1" d="M48.1,12V.49c2.56.11,5.13.12,7.67.36A2.48,2.48,0,0,1,58,3.3a45.69,45.69,0,0,1,0,6.08,2.7,2.7,0,0,1-2.54,2.51,5.65,5.65,0,0,1-.91.11Zm2.5-1.82a2.62,2.62,0,0,0,.46.08c.85,0,1.7,0,2.55,0,1.18,0,1.85-.47,2-1.65a34.51,34.51,0,0,0,0-4.77A1.53,1.53,0,0,0,54.23,2.3c-1.19-.1-2.41,0-3.63,0Z"/><path class="cls-1" d="M70.3,6.4c0,.81,0,1.63,0,2.44a3.06,3.06,0,0,1-2.82,3.21,20.66,20.66,0,0,1-4.65,0A2.87,2.87,0,0,1,60,9a35.92,35.92,0,0,1,0-5.39,2.86,2.86,0,0,1,2.7-3,19.08,19.08,0,0,1,5,0A3.11,3.11,0,0,1,70.3,4C70.33,4.76,70.3,5.58,70.3,6.4Zm-2.51,0h0V5c0-2.37-.73-3-3.09-2.85-.24,0-.48.07-.71.11a1.57,1.57,0,0,0-1.53,1.61c-.06,1.46-.11,2.92-.06,4.38.06,1.73.64,2.27,2.39,2.35a7.44,7.44,0,0,0,1.41-.1,1.7,1.7,0,0,0,1.56-1.73C67.83,8,67.79,7.17,67.79,6.39Z"/><path class="cls-1" d="M81.07,11.89V.64c2.12,0,4.19-.09,6.25,0A2.3,2.3,0,0,1,89.6,2.88a2.43,2.43,0,0,1-1.49,3c.56.44,1.35.8,1.71,1.42a4.06,4.06,0,0,1,.34,2.25,2.42,2.42,0,0,1-2.39,2.36C85.58,12,83.37,11.89,81.07,11.89Zm2.52-9.71v8.21c.89,0,1.74,0,2.58,0A2,2,0,0,0,88,8.31c0-1-.66-1.52-1.86-1.61L84.8,6.63l.07-1.21c.45,0,.82-.09,1.19-.11a1.3,1.3,0,0,0,1.4-1.49A1.47,1.47,0,0,0,86,2.19C85.24,2.15,84.46,2.18,83.59,2.18Z"/><path class="cls-1" d="M68.07,28.36V17.49c1.66-.38,1.74-.34,2.45,1.07.91,1.82,1.83,3.63,2.84,5.63.37-.69.67-1.23,1-1.78.64-1.24,1.26-2.48,1.88-3.73.73-1.45.73-1.45,2.45-1.26V28.36H77.38V19.49l-.14,0c-1,1.93-1.9,3.88-2.89,5.79-.19.36-.65.86-.92.82a1.68,1.68,0,0,1-1-.86c-1-1.86-1.89-3.76-2.92-5.84v9Z"/><path class="cls-1" d="M95.81,5.77c.75-1.36,1.39-2.52,2-3.68C98.76.38,98.76.37,101,.7l-1.61,3c-.52,1-1,1.95-1.56,2.86a4.71,4.71,0,0,0-.75,3c.06.81,0,1.62,0,2.47H94.35c0-.82-.06-1.59,0-2.36a5.68,5.68,0,0,0-.86-3.47c-1-1.76-1.91-3.57-3-5.54a16.74,16.74,0,0,1,2.16,0c.25,0,.53.35.67.61C94.18,2.68,94.94,4.14,95.81,5.77Z"/><path class="cls-1" d="M91,23.14c-.14.84-.24,1.82-.47,2.77a3.12,3.12,0,0,1-2.73,2.55,11.54,11.54,0,0,1-3.52-.1,3.18,3.18,0,0,1-2.38-2.55,11.66,11.66,0,0,1,0-5.75,3.39,3.39,0,0,1,3-2.76,9.32,9.32,0,0,1,2.53,0,3.55,3.55,0,0,1,3.23,3.18C90.85,21.29,90.9,22.14,91,23.14Zm-1.49-.39a20.44,20.44,0,0,0-.43-2.54c-.37-1.32-1.34-1.88-2.91-1.86s-2.57.56-2.76,1.89a19.92,19.92,0,0,0-.1,4.94c.18,1.61,1.31,2.34,3,2.33a2.71,2.71,0,0,0,3-2.47C89.38,24.34,89.42,23.63,89.52,22.75Z"/><path class="cls-1" d="M79.45,10.15V12H72.36V.65h2.42v9.5Z"/><path class="cls-1" d="M57.64,28.32c-1.08.33-1.54,0-1.82-.95-.47-1.66-.54-1.65-2.25-1.64h-.71c-2.3,0-2.3,0-3.14,2.15-.25.66-.25.66-1.61.45q1.92-5.47,3.82-10.9c1.82-.21,1.82-.21,2.4,1.47Zm-2.77-3.75-2-6-2,6Z"/><path class="cls-1" d="M100.3,18.41c-1.47,0-2.62-.07-3.76,0A1.75,1.75,0,0,0,94.8,20.1a1.46,1.46,0,0,0,1.41,1.75c.8.12,1.63.13,2.42.29a2.48,2.48,0,0,1,2.31,2.33c.24,1.77-.26,3-1.59,3.63a8.38,8.38,0,0,1-5.59.2c-.25-.06-.36-.7-.48-.95,1.5,0,2.84.06,4.18,0a1.94,1.94,0,0,0,2-1.76,1.7,1.7,0,0,0-1.6-2.07c-.71-.1-1.42-.11-2.13-.2A2.58,2.58,0,0,1,93.32,21c-.19-1.83.36-2.91,1.82-3.45a7.63,7.63,0,0,1,4.51-.12C99.93,17.48,100.08,18.05,100.3,18.41Z"/><path class="cls-1" d="M62.54,28.4H61.09V18.49H57.85l-.07-1.08H65.7l.08,1H62.54Z"/><g id="adi7ar.tif"><path class="cls-1" d="M0,0H41.49V29.15l-.49,0H.43c-.15,0-.29,0-.43,0ZM36.62,3.81c-1.51,0-3,0-4.43,0a8.07,8.07,0,0,0-5.85,2.33,12.1,12.1,0,0,0-1.29,15.44,8.4,8.4,0,0,0,7.41,3.8c1.17,0,2.35,0,3.52,0h.64ZM4.93,25.37h.55c1.29,0,2.57,0,3.86,0a8,8,0,0,0,6.08-2.57A12.13,12.13,0,0,0,16,7,8.34,8.34,0,0,0,9.12,3.8c-1.22,0-2.45,0-3.67,0H4.93Z"/></g></g></g></svg>