<svg xmlns="http://www.w3.org/2000/svg" viewBox="0 0 128.64 27.9"><defs><style>.cls-1{fill:#ea5c2e;}</style></defs><g id="Layer_2" data-name="Layer 2"><g id="Layer_1-2" data-name="Layer 1"><path class="cls-1" d="M128,.36l-.62,1.23L126.78.36h-.64V2.61h.41V.85h0l.68,1.22h.3l.67-1.22h0V2.61h.41V.36Zm-4.14.35h.69v1.9H125V.71h.69V.36h-1.81Zm-8,11.58h-4.16V2h4.16a5.17,5.17,0,0,1,0,10.33m0-11.93H110V13.88h5.87a6.76,6.76,0,0,0,0-13.52M86.59,7.9a4.47,4.47,0,1,1-8.93,0V.36H75.93V8.07a6.19,6.19,0,0,0,12.37,0V.36H86.59ZM55.68.36H53.47L49.09,5.59,44.71.36H42.5L48,6.92l-5.84,7h2.26l4.7-5.62,4.7,5.62H56l-5.84-7ZM28,13.88H39.31V12.29H29.66V7.72h7.63V6.13H29.66V2h9.65V.36H28Zm75.66-1.29L95.47.36H92.59V13.88H94.3V1.66l8.17,12.22h2.88V.36h-1.71ZM16.92.36h-1.7V13.88h9.59V12.29H16.92ZM.88,13.88H2.59V7.72H10V6.13H2.59V2H12V.36H.88ZM70.59,8.39c-.25-.33-.49-.69-.73-1.05-1.07-1.63-2.28-3.46-4.71-3.46s-3.64,1.83-4.71,3.46c-.23.35-.46.69-.69,1a5.57,5.57,0,1,1,11-1.23,5.38,5.38,0,0,1-.15,1.27m-8.32,3.46a11.39,11.39,0,0,0,.84-.9c.58-.68,1.08-1.27,2-1.27a2.64,2.64,0,0,1,2,1.27,8,8,0,0,0,.86.92,5.46,5.46,0,0,1-5.79,0M69.12,11a9.3,9.3,0,0,1-.71-.86,3.91,3.91,0,0,0-3.26-2c-1.72,0-2.53,1.07-3.25,2a7.55,7.55,0,0,1-.69.84,5.87,5.87,0,0,1-.92-1.24A14.4,14.4,0,0,0,61.68,8c.93-1.32,1.81-2.57,3.47-2.57S67.69,6.67,68.62,8A14.12,14.12,0,0,0,70,9.78,5.62,5.62,0,0,1,69.12,11m-4-11a7.2,7.2,0,0,0-7.26,7.12,7.27,7.27,0,0,0,14.53,0A7.2,7.2,0,0,0,65.17,0m43.14,27a2.2,2.2,0,0,0,1.67-.72,2.42,2.42,0,0,0,.69-1.74,2.49,2.49,0,0,0-.69-1.76,2.21,2.21,0,0,0-1.67-.73,2.24,2.24,0,0,0-1.67.73,2.46,2.46,0,0,0-.69,1.75,2.42,2.42,0,0,0,.69,1.74,2.23,2.23,0,0,0,1.67.72Zm0-5.86a3.2,3.2,0,0,1,2.36,1,3.31,3.31,0,0,1,1,2.4,3.27,3.27,0,0,1-1,2.38,3.28,3.28,0,0,1-4.71,0,3.27,3.27,0,0,1-1-2.38,3.31,3.31,0,0,1,1-2.4,3.18,3.18,0,0,1,2.36-1Zm-7.06.11h.91v6.51h-.91Zm-7.57.87v4.78h1.07a2.79,2.79,0,0,0,1.94-.65,2.44,2.44,0,0,0,0-3.48,2.84,2.84,0,0,0-1.94-.65Zm-.94-.86h2a3.9,3.9,0,0,1,2.65.9,3.23,3.23,0,0,1,0,4.7,3.69,3.69,0,0,1-2.58.9H92.75Zm-8.26,0h.93v4a1.84,1.84,0,0,0,.44,1.28A1.53,1.53,0,0,0,87,27a1.5,1.5,0,0,0,1.19-.49,1.8,1.8,0,0,0,.45-1.28v-4h.92v4a2.63,2.63,0,0,1-.7,1.93,2.67,2.67,0,0,1-3.69,0,2.7,2.7,0,0,1-.7-1.94Zm-5.33,1-1.22,3h2.45Zm1.56,3.87H77.6l-.67,1.66H76l2.68-6.51h1.08l2.68,6.51h-1Zm-15.61-4v4.78h1.06a2.8,2.8,0,0,0,2-.65,2.44,2.44,0,0,0,0-3.48,2.85,2.85,0,0,0-2-.65Zm-.95-.86h2a3.93,3.93,0,0,1,2.66.9,3.25,3.25,0,0,1,0,4.7,3.7,3.7,0,0,1-2.58.9H64.16Zm-6.87,0h4.13v.86H58.19v2H61v.86H58.19v2h3.22v.86H57.28Zm-4.49.86v5.65h-.92V22.1H49.81v-.86h5v.86Zm-10,.63v5h-.92V21.24h1l3.61,5.05V21.24h.92v6.51h-1ZM35,21.24h4.14v.86H35.91v2h2.81v.86H35.91v2h3.22v.86H35ZM26,22.7v5.05H25.1V21.24h1.06L28.5,25l2.34-3.73h.94v6.51h-.92V22.7l-2.42,3.77Zm-4,4.57a4.09,4.09,0,0,1-2.34.63,3.18,3.18,0,0,1-2.38-1,3.45,3.45,0,0,1,0-4.79,3.18,3.18,0,0,1,2.36-1,3.36,3.36,0,0,1,2.33.81l-.61.71A2.63,2.63,0,0,0,19.7,22a2.22,2.22,0,0,0-1.66.73,2.5,2.5,0,0,0-.68,1.75,2.43,2.43,0,0,0,.7,1.74,2.33,2.33,0,0,0,1.73.72,3.08,3.08,0,0,0,1.36-.3V24.55h.92v2.7Zm-13.53-6h.93v4a1.84,1.84,0,0,0,.44,1.28,1.51,1.51,0,0,0,1.18.49,1.5,1.5,0,0,0,1.19-.49,1.8,1.8,0,0,0,.45-1.28v-4h.92v4a2.63,2.63,0,0,1-.7,1.93,2.46,2.46,0,0,1-1.85.74,2.43,2.43,0,0,1-1.84-.74,2.7,2.7,0,0,1-.7-1.94Zm-5.33,1L2,25.26H4.42Zm1.56,3.87H1.64L1,27.75H0l2.68-6.51H3.76l2.68,6.51h-1Z"/></g></g></svg>