<svg xmlns="http://www.w3.org/2000/svg" viewBox="0 0 92.73 37.05"><defs><style>.cls-1{fill:#e1111c;}</style></defs><g id="Layer_2" data-name="Layer 2"><g id="Layer_1-2" data-name="Layer 1"><path class="cls-1" d="M92.68,36.77,74.47,21.22a.63.63,0,0,0-.41-.15h-7.2L87.09.27A.16.16,0,0,0,87,0H76.33a.66.66,0,0,0-.44.17L63.72,11.67,56.22,5a.63.63,0,0,0-.43-.17H45.32a.16.16,0,0,0-.11.28l8.69,8.43a.67.67,0,0,0,.44.18h6.78L42.72,31a.15.15,0,0,0,.11.27h14a.64.64,0,0,0,.45-.19l6.67-6.9L76.46,36.86a.62.62,0,0,0,.45.19H92.57a.16.16,0,0,0,.11-.28"/><path class="cls-1" d="M16.12,30.55l0-4.5H.26A.26.26,0,0,1,0,25.79V21.34a1.27,1.27,0,0,1,.52-1L18.67,7.05a1.39,1.39,0,0,1,2.21,1.13V30.55Zm-.32-16.1a.34.34,0,0,0-.22.07L6.45,21.1a.38.38,0,0,0-.15.44.37.37,0,0,0,.37.27h9.52v-7a.39.39,0,0,0-.39-.39"/><path class="cls-1" d="M43.68,10.88a10,10,0,0,0-8.12-3.5H26.2a1.39,1.39,0,0,0-1.39,1.39V25.23a1.39,1.39,0,0,0,1.39,1.39h9.36a10.12,10.12,0,0,0,7.69-3,9.63,9.63,0,0,0,.43-12.72m-3.56,9.59a5.51,5.51,0,0,1-4.3,1.9H30.05a.47.47,0,0,1-.47-.47V12.21a.47.47,0,0,1,.47-.47h5.77a5.5,5.5,0,0,1,4.35,1.9A5.28,5.28,0,0,1,41.41,17a5.45,5.45,0,0,1-1.29,3.44"/></g></g></svg>