<svg xmlns="http://www.w3.org/2000/svg" xmlns:xlink="http://www.w3.org/1999/xlink" viewBox="0 0 104 31.66"><defs><style>.cls-1{fill:none;}.cls-2{fill:#fff;}.cls-3{clip-path:url(#clip-path);}.cls-4{fill:url(#linear-gradient);}</style><clipPath id="clip-path"><rect class="cls-1" width="22.65" height="31.66"/></clipPath><linearGradient id="linear-gradient" x1="4817.69" y1="6321.28" x2="4817.97" y2="6321.28" gradientTransform="matrix(81.5, 0, 0, -81.5, -392623.03, 515175.06)" gradientUnits="userSpaceOnUse"><stop offset="0" stop-color="#e9bf7d"/><stop offset="0.01" stop-color="#e9bf7d"/><stop offset="0.19" stop-color="#dcb47b"/><stop offset="0.41" stop-color="#ca964c"/><stop offset="0.6" stop-color="#bc8029"/><stop offset="0.67" stop-color="#c58c3b"/><stop offset="0.81" stop-color="#ddac68"/><stop offset="0.87" stop-color="#e9bc80"/><stop offset="1" stop-color="#ecd9c2"/></linearGradient></defs><g id="Layer_2" data-name="Layer 2"><g id="Layer_1-2" data-name="Layer 1"><polygon class="cls-2" points="33.59 5.83 33.59 9.41 40.06 9.41 40.06 11.41 33.59 11.41 33.59 15.06 41.05 15.06 41.05 17.07 31.36 17.07 31.36 3.83 40.82 3.83 40.82 5.83 33.59 5.83"/><polygon class="cls-2" points="55.89 17.07 55.87 7.17 51.69 15.69 50.24 15.69 46.06 7.17 46.06 17.07 43.96 17.07 43.96 3.83 46.6 3.83 50.97 12.62 55.32 3.83 57.95 3.83 57.95 17.07 55.89 17.07"/><path class="cls-2" d="M63.87,11.07h2.95c2,0,3.2-.87,3.2-2.67s-1.16-2.57-3.2-2.57H63.87Zm3.05-7.24c3.32,0,5.24,1.64,5.24,4.52s-1.92,4.73-5.24,4.73H63.87v4H61.64V3.83Z"/><rect class="cls-2" x="74.56" y="3.83" width="2.23" height="13.24"/><path class="cls-2" d="M85.83,11.07c2,0,3.21-.87,3.21-2.67s-1.17-2.57-3.21-2.57H82.69v5.24Zm.6,2a5.91,5.91,0,0,1-.6,0H82.69v4H80.45V3.83h5.38c3.38,0,5.33,1.64,5.33,4.52a4.24,4.24,0,0,1-2.74,4.29l3,4.43H88.85Z"/><polygon class="cls-2" points="96.55 5.83 96.55 9.41 103.02 9.41 103.02 11.41 96.55 11.41 96.55 15.06 104 15.06 104 17.07 94.32 17.07 94.32 3.83 103.77 3.83 103.77 5.83 96.55 5.83"/><path class="cls-2" d="M32.32,25.16h1.84c1.3,0,2.05-.57,2.05-1.69s-.75-1.64-2.05-1.64H32.32ZM34.2,21C36,21,37,21.92,37,23.45S36,26,34.2,26H32.32v2.26H31.5V21Z"/><path class="cls-2" d="M32.32,21.83h1.84c1.3,0,2,.55,2,1.64s-.74,1.69-2,1.69H32.32ZM31.5,21v7.17h.82V26h1.87C36,26,37,25,37,23.45S36,21,34.19,21Z"/><path class="cls-2" d="M44,25.16c1.3,0,2-.57,2-1.69s-.74-1.64-2-1.64H42v3.33Zm.48.77L44,26H42v2.26h-.82V21H44c1.79,0,2.83.88,2.83,2.41a2.24,2.24,0,0,1-1.61,2.32l1.68,2.44h-.94Z"/><path class="cls-2" d="M42,21.83H44c1.3,0,2,.55,2,1.64s-.74,1.69-2,1.69H42ZM41.22,21v7.17H42V26H44l.48,0,1.49,2.28h.93l-1.68-2.43a2.26,2.26,0,0,0,1.61-2.33c0-1.53-1-2.41-2.83-2.41Z"/><polygon class="cls-2" points="52.31 21.83 52.31 24.19 55.93 24.19 55.93 24.98 52.31 24.98 52.31 27.44 56.5 27.44 56.5 28.21 51.49 28.21 51.49 21.04 56.36 21.04 56.36 21.83 52.31 21.83"/><polygon class="cls-2" points="67.53 28.21 67.52 22.3 64.9 27.46 64.41 27.46 61.81 22.3 61.81 28.21 61.03 28.21 61.03 21.04 62.04 21.04 64.67 26.2 67.28 21.04 68.29 21.04 68.29 28.21 67.53 28.21"/><rect class="cls-2" x="73.33" y="21.04" width="0.82" height="6.82"/><polygon class="cls-2" points="80.01 21.83 80.01 24.19 83.63 24.19 83.63 24.98 80.01 24.98 80.01 27.44 84.19 27.44 84.19 28.21 79.19 28.21 79.19 21.04 84.06 21.04 84.06 21.83 80.01 21.83"/><path class="cls-2" d="M91.45,25.16c1.3,0,2-.57,2-1.69s-.74-1.64-2-1.64H89.54v3.33Zm.48.77-.48,0H89.54v2.26h-.82V21h2.73c1.79,0,2.83.88,2.83,2.41a2.23,2.23,0,0,1-1.61,2.32l1.68,2.44h-.93Z"/><path class="cls-2" d="M89.54,21.83h1.91c1.3,0,2,.55,2,1.64s-.74,1.69-2,1.69H89.54ZM88.72,21v7.17h.82V26h1.91l.48,0,1.49,2.28h.93l-1.68-2.43a2.25,2.25,0,0,0,1.61-2.33c0-1.53-1-2.41-2.83-2.41Z"/><polygon class="cls-2" points="99.82 21.83 99.82 24.19 103.44 24.19 103.44 24.98 99.82 24.98 99.82 27.44 104 27.44 104 28.21 99 28.21 99 21.04 103.87 21.04 103.87 21.83 99.82 21.83"/><g class="cls-3"><rect class="cls-4" width="22.65" height="31.66"/></g><path class="cls-2" d="M17.85,25.36c-.27.92-.53,1.85-.8,2.77,0,0,0,0,0,0a4.07,4.07,0,0,1-.86,0H5.45a2.61,2.61,0,0,1-.69,0c-.49-.2.77-1.25.82-1.51s0-.35,0-.52V19.57a2.12,2.12,0,0,0,0-.67.7.7,0,0,0-.15-.23c-.23-.29-.69-.61-.76-1s.19-.22.31-.28H15.82a3.41,3.41,0,0,1,1.39.14.41.41,0,0,1,.14.19,4.69,4.69,0,0,1,.12.75c.05.43.11.85.16,1.27a3,3,0,0,1,.08.73c-.05.23-.27.39-.48.2a1.36,1.36,0,0,1-.26-.45c-.3-.58-.52-1.32-1.2-1.6a4.61,4.61,0,0,0-1.64-.12h-5a1.3,1.3,0,0,0-.49,0l0,0a3.62,3.62,0,0,0,0,.88v2.68h4a1.35,1.35,0,0,0,.4,0c.33-.12.51-.68.57-1,0-.09,0-.26.09-.32s.38,0,.5,0v3.85c0,.07,0,.22,0,.25a.5.5,0,0,1-.43,0c-.07-.07-.07-.19-.1-.28-.08-.26-.22-.89-.54-1l-.38,0h-3a6.25,6.25,0,0,0-1.1,0,2.36,2.36,0,0,0,0,.76v2.63H14.9a1.75,1.75,0,0,0,.57,0,1.2,1.2,0,0,0,.39-.29,4,4,0,0,0,.43-.58L17,25c.07-.12.22-.42.34-.48a2.69,2.69,0,0,1,.76,0c-.09.3-.18.61-.26.92"/><path class="cls-2" d="M19.79,4c-.17.79-.33,1.58-.5,2.37-.36,1.73-.73,3.45-1.09,5.18-.14.64-.27,1.28-.41,1.92a4.68,4.68,0,0,0-.16.83h0s-.1,0-.14,0H11.72a1.18,1.18,0,0,0-.38,0H6.71a12.13,12.13,0,0,1-1.63,0c-.08-.07-.12-.4-.14-.51-.11-.53-.23-1.06-.34-1.59C4.17,10.12,3.73,8.07,3.3,6,3.18,5.5,3.07,5,3,4.45a1.6,1.6,0,0,1-.09-.65c0-.14.11-.19.22-.26a.62.62,0,0,1,.3.12A2.4,2.4,0,0,1,3.67,4c.14.24.29.47.44.7L5.83,7.38l.51.79c.07.13.15.25.22.37h.05c0-.09.07-.19.11-.28L7,7.6,8.24,4.66c.11-.25.34-1.15.73-1.08s.58.85.7,1.13c.55,1.27,1.1,2.54,1.64,3.81h0C11.9,7.21,12.47,5.91,13,4.6c.11-.25.36-1.11.76-1s.55.92.67,1.18C15,6,15.53,7.28,16.06,8.54h0q1.32-2,2.62-4.06c.13-.2.65-1.23,1-.86a.43.43,0,0,1,.08.34"/></g></g></svg>