<svg xmlns="http://www.w3.org/2000/svg" viewBox="0 0 82.09 39.9"><defs><style>.cls-1{fill:#ce1f2e;}.cls-2{fill:#fff;}</style></defs><g id="Layer_2" data-name="Layer 2"><g id="Layer_1-2" data-name="Layer 1"><path class="cls-1" d="M80.73,7.39,64.81,15,54.75,3.45a1,1,0,0,0-1.36-.07l-13,12L27,.32A1,1,0,0,0,25.39.6L20.42,13l-19-10.4A1,1,0,0,0,.05,3.71L12.32,39.9l56.43-1L82,8.63A1,1,0,0,0,80.73,7.39Z"/><path class="cls-2" d="M27.46,24.74c-.05.05,0,.15.1.31v0q.29,0,.3-.06a.39.39,0,0,0-.12-.26C27.6,24.68,27.5,24.69,27.46,24.74Z"/><path class="cls-2" d="M65.06,22.62a.43.43,0,0,0,0,.16.51.51,0,0,0,.11.16.38.38,0,0,0,.4,0,1.35,1.35,0,0,0-.2-.27A.28.28,0,0,0,65.06,22.62Z"/><path class="cls-2" d="M33.29,14.62a.13.13,0,0,1,0-.14.09.09,0,0,1,0-.07.1.1,0,0,1,0,0,.11.11,0,0,1,.08,0h0s0,0,0,0,0-.11,0-.16v0a.14.14,0,0,0,0-.09s0,0,0-.05v0s0,0,0,0h0s0,0,0,0a1.09,1.09,0,0,0,0,.18.24.24,0,0,0,0,.08s0,0,0,0,0,.16,0,.25a.68.68,0,0,1,0,.14l0,.06v0s0,0,0,0,0,0,0,0a0,0,0,0,0,0,0s0,0,0,.07a.2.2,0,0,0,0,.08s0,0,0,.06a.38.38,0,0,0,0,.15s0,0,0,0a0,0,0,0,0,0,0,0,0,0,0,0,0,0l0-.17s0,0,0,0h0a.13.13,0,0,1,0-.06h0s0,0,0,0a.28.28,0,0,0,0,.09.93.93,0,0,0,0,.13h0v0h0a.21.21,0,0,1,0-.07s0,0,0,0l0,0h0l0,0h0a.13.13,0,0,1,0-.06v0h0s0,0,0,0v0s0,0,0,0a.59.59,0,0,0,0,.14.06.06,0,0,0,0,0s0,.06,0,.1v0s0,.05.06,0H34s0,0,0,0v0a.06.06,0,0,0,.07,0h0l.13-.06s0,0,0,0a.39.39,0,0,1,.08-.1l.07,0a.1.1,0,0,0,0,0l0,0a.24.24,0,0,1,.06-.09l0,0s0,0,0,0,0,0,0,0,0,0,0,0a.21.21,0,0,0,0,.06l0,0,0,.06,0,0,0,.06a.07.07,0,0,0,0,.08.22.22,0,0,1,0,.11,1,1,0,0,1,.34.05.76.76,0,0,0,.2.27,0,0,0,0,1,0,0s0,0,0,0l0,0,0,0h.05v0h0l.29.2.12.1H36s0,0,0,0,0,0-.06,0h-.15l.19.17H36s0,0,0,0h0a0,0,0,0,1,0,0H36a.74.74,0,0,1,.19.43,1.49,1.49,0,0,1-.33.55l-.14.16,0,0a.1.1,0,0,0,.05,0s.08.05.09.08,0,0,0,0l-.07,0h0l0,0a.1.1,0,0,0-.05,0l-.06,0,0,0h0a3,3,0,0,1-.38.31l-.61.1h0s0,0,0,0,0,0,0,0,0,0,0,0v0a1.45,1.45,0,0,1-.36,0h0L34,18h0s0,0,0,0h0a.19.19,0,0,1-.05-.11.94.94,0,0,0,0-.16s0,0,0,0h0a0,0,0,0,1,0,0h0a.42.42,0,0,1-.1.23.2.2,0,0,1-.18.05l-.18,0h0a.5.5,0,0,0,0-.24.25.25,0,0,1-.18-.05.46.46,0,0,1-.15-.2.61.61,0,0,1-.06-.24h0a0,0,0,0,1,0,0h0v0a.92.92,0,0,1,.07-.32h0a0,0,0,0,1,0-.05s0,0,0,0,0,0,.05,0h0s0,0,0,0h0a.11.11,0,0,0-.08,0h0a.31.31,0,0,0-.23,0h0l-.11,0h-.06a.2.2,0,0,1-.13,0h0l-.06,0h0s-.05,0-.07,0h0l0,0,.07,0h0a.08.08,0,0,0,.07,0l0-.05h.06a.19.19,0,0,0,.18,0,.31.31,0,0,0,.13-.06l.07-.06,0,0a.15.15,0,0,0,.06-.13.76.76,0,0,0,0-.15.17.17,0,0,0-.06-.12l0,0a.07.07,0,0,1-.06-.09v0a.09.09,0,0,0,0-.07h0s0-.05-.05-.07l-.09,0s0,0,0,0a0,0,0,0,0,0,0s0,.05,0,.06-.06,0-.07,0,0,0,0,0,0,0,0,0a.07.07,0,0,0,0-.09.19.19,0,0,1-.08,0h0s0,0,0,0,0,0,0,0h0a.05.05,0,0,0,0,0h.13a.07.07,0,0,1,.07,0l.1.05.06,0,0,0s0,0,0,0a.23.23,0,0,0,.07-.07.05.05,0,0,1,0,0H33a.14.14,0,0,0,.1-.07s0,0,0,0l0,0h0l0,0s0,0,.06,0l0,0a0,0,0,0,0,0,0l-.06-.07a.08.08,0,0,1,0,0l-.06-.1a.37.37,0,0,1-.07-.14.08.08,0,0,0,0,0s0,0,0,0a.06.06,0,0,0,0-.08l0,0a.08.08,0,0,0,0,0v0s0,0,0,0l0,0s0,0,0,0a.05.05,0,0,0,0,0s0,0,0,0a.09.09,0,0,1,0,.07.1.1,0,0,0,0,.07l0,0a.37.37,0,0,0,.09.16l0,0s0,0,0,0h0l0,0h0l0,0,.09,0a.07.07,0,0,0,0-.07s0,0,0-.06a.14.14,0,0,1,0-.07s0,0,.06,0,0,0,0,0h0s0,0,0,.05a.06.06,0,0,0,0,.07s.07,0,.08,0a.2.2,0,0,0,0-.13l0-.15s0,0,0,0a.1.1,0,0,1,0-.07.27.27,0,0,0,0-.09.2.2,0,0,0,0-.07v-.08l0-.12a0,0,0,0,0,0,0h0a.14.14,0,0,1-.08.05A.11.11,0,0,1,33.29,14.62Z"/><path class="cls-2" d="M52.43,18.71l-.14.07s0,0,0,0,0,0,0,0a.07.07,0,0,1,.06.07.09.09,0,0,1-.08.07h0s0,0,0,0a.09.09,0,0,0-.14,0L52,19l-.07,0h0s0,0,0,0h0a.1.1,0,0,0,.08,0l.07-.06a.12.12,0,0,0,.07-.07.13.13,0,0,1,.09-.07l.15-.06.1-.05.06,0a.05.05,0,0,0,.06-.06.26.26,0,0,0,0-.15.11.11,0,0,1,0-.11.43.43,0,0,0,0-.07.25.25,0,0,0,0-.19s0,0-.05,0,0,0,0,0h0c.06,0,.07,0,.06-.07s0,0,0-.07a0,0,0,0,0,0,0h-.23a.86.86,0,0,0-.17,0,1,1,0,0,1-.24-.05h-.08s0,0-.07,0a.09.09,0,0,0-.11-.05h-.06l0,0,0,0s0,0,.06,0,0,0,.06,0,0,0,0,0l.07,0h0a.11.11,0,0,1,.11,0,.16.16,0,0,0,.12,0h0a.66.66,0,0,0,.28.05l.08,0s0,0,.07,0h.1a.05.05,0,0,0,0,0,.64.64,0,0,0,0-.07.89.89,0,0,1,0-.14.1.1,0,0,0-.06-.11l-.08-.05a.16.16,0,0,1-.05-.09s0-.06.06-.06l.07,0s0,0,0,0,0,.05,0,.07a.11.11,0,0,0,.11,0,.17.17,0,0,0,.06-.11.3.3,0,0,0-.12-.17L52.5,17h0a.14.14,0,0,1-.11-.05l-.09-.09-.09-.06a.24.24,0,0,1-.08-.06h0l-.19-.07s0,0-.06,0a.06.06,0,0,0,0,0,.24.24,0,0,1,0,.14.18.18,0,0,1-.13.09.2.2,0,0,1-.22-.09.31.31,0,0,1,0-.1s0-.07,0-.1a.17.17,0,0,1,.07-.1l.05,0a.07.07,0,0,0,0-.1l-.17-.16,0,0a.26.26,0,0,0-.11-.07s0,0-.07,0l-.06,0s0,0,0-.07l0,0s.05,0,.08,0l.22.17a.54.54,0,0,0,.11.05l.08,0,.33.2a.7.7,0,0,1,.14.16.93.93,0,0,1,.05.1h0s0,0,0,0l0,0h0l.1.05a.28.28,0,0,0,.13,0,.12.12,0,0,1,.08,0,.41.41,0,0,0,.2.14s0,0,.06,0,0,0,0-.06l0,0-.22-.15a0,0,0,0,0-.05,0h0a.1.1,0,0,1,0-.07h0l.06,0a.41.41,0,0,0,.11.07l.18.09h0s0,0,0,0l0-.05h0a.35.35,0,0,1-.11,0s0,0,0,0h0l0,0h0v0a.34.34,0,0,1-.06-.06s0,0,0,0l0,0,0,0a0,0,0,0,1,0,0s0,0,0,.05l.15.16.06,0a.13.13,0,0,1,.16,0l0,0a.07.07,0,0,0,.11,0l.09-.1a.08.08,0,0,1,.09,0l.05,0a.12.12,0,0,0,.09-.05l0,0a.1.1,0,0,0,.09-.09.26.26,0,0,0,0-.21.71.71,0,0,1,0-.2.5.5,0,0,1,0-.12.14.14,0,0,0,0-.09l0-.05a.29.29,0,0,1,0-.16s0-.05,0-.08,0,0,0-.07a0,0,0,0,0,0-.06s0-.06,0-.08l0,.1a.14.14,0,0,0,0,.06l0,.11,0,0a.54.54,0,0,1,0,.1.13.13,0,0,0,.08.11.49.49,0,0,1,.26.23l.05.08,0,0a.22.22,0,0,0,0-.14h0l0,0h0V16a0,0,0,0,1,0,0l0,0,0,0a1.39,1.39,0,0,1,.06.19.49.49,0,0,1,0,.12s0,.05,0,.06h0a.65.65,0,0,0,0,.24s0,0,.06,0a.07.07,0,0,1,.06,0,.1.1,0,0,0,.09,0,.31.31,0,0,1,.17,0c.07,0,.1,0,.13-.09v0a.22.22,0,0,1,.12-.2h0v0h0s.06,0,.08,0a.24.24,0,0,0,0-.16.12.12,0,0,1,.06-.12l0-.05s0,0,0-.08v0l0,0,0,0s0,.07,0,.08a.13.13,0,0,0,0,.1.2.2,0,0,1,0,.11.48.48,0,0,0-.09.25.59.59,0,0,0,0,.13.27.27,0,0,1,0,.09,0,0,0,0,0,0,0l.06.11a0,0,0,0,0,.06,0h.13s0,0,.05.06l0,.11s0,0,.06,0l.17-.15.12-.14a1.31,1.31,0,0,0,.25-.32c.06-.12.16-.23.21-.36a.25.25,0,0,1,0-.07h0a0,0,0,0,0,0,0A.17.17,0,0,0,56,16a.2.2,0,0,1-.06.15c-.09.12-.19.23-.27.36h0a2.09,2.09,0,0,0-.24.28l0,0a.64.64,0,0,0-.1.13s0,0,0,0a.07.07,0,0,0,0,.07.19.19,0,0,0,0,.07.42.42,0,0,0,.21.16l.14.06h0s0,0,.07,0l.14,0H56a.41.41,0,0,0,.16,0s0,0,0,0h-.05a.2.2,0,0,0-.13,0,.09.09,0,0,1-.1,0,.09.09,0,0,0-.07,0l-.09,0a.05.05,0,0,0,0,0,.36.36,0,0,0,0,.21.76.76,0,0,0,0,.15h0s0,0,0,0h0s0,0,0,0l0,.06s0,.06,0,.09,0,0,0,0-.05,0-.05.08,0,.07,0,.1a.15.15,0,0,1,0,.09.31.31,0,0,0-.05.1.06.06,0,0,0,0,.08.2.2,0,0,0-.14.09,0,0,0,0,0,0,.05l0,0s0,0,0,.07v0h0v.13l0,0a.08.08,0,0,0-.09,0l-.06,0H55A.19.19,0,0,0,55,19a.56.56,0,0,0,.17.24.21.21,0,0,1,.08.19.51.51,0,0,1-.09.22.59.59,0,0,1-.2.18.59.59,0,0,1-.29.1.74.74,0,0,0-.36.14,1,1,0,0,0-.27.28l-.21-.17a.4.4,0,0,0-.21-.09.24.24,0,0,1-.07-.09.28.28,0,0,1,0-.09v-.09a.16.16,0,0,0,0-.1l-.09,0a.5.5,0,0,0,0,.13.09.09,0,0,1,0,0,.08.08,0,0,0,0,0,.34.34,0,0,1-.11.18l0,.05,0,.09a.08.08,0,0,1,0,0,.19.19,0,0,0,0,.1s0,0,0,0h0a.43.43,0,0,1,0-.05.52.52,0,0,0,0-.11s0-.05,0-.06a.11.11,0,0,0,0-.12s0-.07,0-.11a.08.08,0,0,1,0,0l0,0a.33.33,0,0,0,.17-.21h0l-.11-.06-.06,0a.11.11,0,0,1-.13-.05.11.11,0,0,1,0-.12.81.81,0,0,1-.23-.43.76.76,0,0,0,.09-.18h-.05a.11.11,0,0,1-.17,0v0a.13.13,0,0,0-.1-.06v0h0S52.48,18.69,52.43,18.71Z"/><path class="cls-2" d="M31,32.1a1.54,1.54,0,0,1-.28.89.51.51,0,0,1-.26.2.62.62,0,0,1-.33,0A1.86,1.86,0,0,1,28.74,32c-.28-.81-.42-1.69-.63-2.52a2.38,2.38,0,0,1-.1-1c0-.23.14-.44.2-.66.23-.91-.44-1.78-.69-2.61a2.27,2.27,0,0,0-.34-.76.74.74,0,0,0-.73-.31c-.33.08-.51.42-.65.72a15.56,15.56,0,0,0-.66,1.44,6.33,6.33,0,0,0-.07,1.38,2.21,2.21,0,0,1-.51,1,2.34,2.34,0,0,0-.25.39c-.09.23.06.46.06.7a4.39,4.39,0,0,1-.23,1,6.2,6.2,0,0,0-.26,2.26,1.06,1.06,0,0,1,0,.66.7.7,0,0,1-.73.32c-.89-.1-1.16-1-1-1.73s-.57-1.25-.68-1.91c-.07-.37.12-.48.26-.77s0-.62-.07-1-.12-.71-.2-1.06a21.14,21.14,0,0,0-.67-2.32.71.71,0,0,0-.31-.44c-.29-.14-.6.15-.77.43A11,11,0,0,0,19,27a6.7,6.7,0,0,0-.59,1.84c-.05.61-.1,1.21-.12,1.82a2.47,2.47,0,0,1-.27.79c-.22.54.17,1,.29,1.48s-.1,1,.11,1.55c.07.15.15.32.06.45a.38.38,0,0,1-.42.1,2,2,0,0,1-1.32-1.15c-.39-.89.43-1.75,0-2.6a7.78,7.78,0,0,1-.42-.74,2.6,2.6,0,0,1,0-.88,13,13,0,0,0-.19-1.76c0-.42.28-1,.05-1.35s-.37-.4-.34-.77a2.59,2.59,0,0,0,0-.62c0-.13-.07-.24-.1-.36a.41.41,0,0,1,.08-.36c.53-.55,1.49.37,1.66.85.08.21-.21,1.2.35.73a1.35,1.35,0,0,0,.27-.61,11.32,11.32,0,0,1,.3-1.18,2.14,2.14,0,0,1,1-1.06,1.81,1.81,0,0,1,1.62.05c1.26.65,1.48,2.32,1.63,3.58a6.25,6.25,0,0,0,.09.87c.16.62.59.18.54-.26a1.35,1.35,0,0,1,0-.72c.13-.26.48-.34.64-.58a1.47,1.47,0,0,0,.1-.81,3,3,0,0,1,3-2.65c1.14,0,2,1.2,2.18,2.24a20.63,20.63,0,0,0,.94,3.55A9.65,9.65,0,0,1,31,32.1Z"/><path class="cls-2" d="M38.9,28.25a.66.66,0,0,1,0,.14A3.92,3.92,0,0,1,37.7,30.7c-.43.4-1,.7-1.39,1.1a2.33,2.33,0,0,1-.65.52,1.32,1.32,0,0,1-1.23-.12,4,4,0,0,1-1.38-1.58,3.69,3.69,0,0,1-.53-2.07c.12-1.27.32-2.54.48-3.8.13-1,0-2.35.67-3.18.32-.43.92-1,1.3-.33a3,3,0,0,1,.18,2c-.12.65-.61,1.21-.64,1.88,0,.33.09.66.07,1s-.1.45-.14.68a13.75,13.75,0,0,0,.14,1.69,5.82,5.82,0,0,0,.25,2c.05.17.12.34.34.38a.44.44,0,0,0,.33-.11,1.57,1.57,0,0,0,.37-.71,2,2,0,0,1,.64-.84,2.28,2.28,0,0,0,.73-.65c.18-.35.14-.75.42-1.07l.07-.08a.69.69,0,0,1,1,0h0A1,1,0,0,1,38.9,28.25Z"/><path class="cls-2" d="M57.1,31a.89.89,0,0,0-.4-.09c-1.36,0-1.08,1.23-1.86,1.79-1,.7-1.15-3.4-1.06-3.94,0-.23.12-.45.14-.68s-.09-.66-.07-1c0-.67.52-1.23.65-1.88a3.11,3.11,0,0,0-.18-2c-.39-.7-1-.1-1.31.33-.62.82-.54,2.19-.67,3.17-.16,1.26-.36,2.54-.48,3.8a3.69,3.69,0,0,0,.53,2.07,4,4,0,0,0,1.38,1.58c.74.43,1.35.09,2-.41S58.7,31.69,57.1,31Z"/><path class="cls-2" d="M51,35.65l-.14.09a1.51,1.51,0,0,1-1.24.14,1.8,1.8,0,0,1-.78-.85,9.72,9.72,0,0,1-1.1-5.58,6.27,6.27,0,0,0,.07-1.37c-.06-.43-.25-.85-.28-1.29,0-.25,0-.55-.18-.72a.63.63,0,0,0-.75,0,6.08,6.08,0,0,1-.66.47c-.56.25-.77.73-1.22,1.16a4.16,4.16,0,0,0-1.15,1.39c-.16.45-.11.94-.4,1.34a4,4,0,0,0-.6.83,2.79,2.79,0,0,0,0,1.43,3.74,3.74,0,0,1-.23,1.93.62.62,0,0,1-1,.19,1.73,1.73,0,0,1-.41-1,4.36,4.36,0,0,1-.05-1.35,6.86,6.86,0,0,0,.2-1.1c0-.41-.23-.78-.27-1.19-.06-.62.36-1.09.55-1.63.24-.69-.09-1.26-.19-1.93a8.33,8.33,0,0,1,.06-2.39c0-.34.44-.33.67-.2a1.5,1.5,0,0,1,.37.34,1.84,1.84,0,0,1,.51,1.87,4.72,4.72,0,0,0-.27.61c0,.21.08.56.35.52s.31-.45.29-.66-.06-.82.28-1c.14-.08.34-.06.47-.15s.12-.19.2-.35a2.35,2.35,0,0,1,.9-.84,3.06,3.06,0,0,1,.85-.42,2.24,2.24,0,0,1,1.52.23,3.54,3.54,0,0,1,1.82,2,6.45,6.45,0,0,1,.22,1.91,27.21,27.21,0,0,1,0,3.13,3.29,3.29,0,0,0,.87,2.48A4.75,4.75,0,0,1,51.2,35a.64.64,0,0,1,.06.36A.53.53,0,0,1,51,35.65Z"/><path class="cls-2" d="M66.36,23.15a.51.51,0,0,1,0,.13c-.17.8-.92.28-1.3,0s-.61-.12-1-.15-.61-.25-.93-.21a2.4,2.4,0,0,0-.94.48.32.32,0,0,0-.13.15.36.36,0,0,0,0,.18,1.84,1.84,0,0,0,.4,1.19c.11.1.24.18.35.29s.22.48.38.71a18.41,18.41,0,0,0,1.62,1.8,3.06,3.06,0,0,1,.67,1.79,9.22,9.22,0,0,1-.17,2.88A2.36,2.36,0,0,1,63,33.86c-1.67,0-2.81-1.45-3.79-2.62a2.14,2.14,0,0,1-.57-1.2.62.62,0,0,1,.12-.46c.32-.38.86.21,1.07.43a5.1,5.1,0,0,0,2.67,1.77,1,1,0,0,0,.94-.39,1.81,1.81,0,0,0,.25-.73,1.71,1.71,0,0,0,0-.45,1.83,1.83,0,0,0-.12-.46l-.35-1c-.34-1-1.15-1.38-1.75-2.14a5,5,0,0,1-.33-.47L61,25.69a2.86,2.86,0,0,1-.53-2c.12-.72.2-1.45.93-1.81a7.16,7.16,0,0,1,1.38-.44,2.39,2.39,0,0,1,2.27.39,3.06,3.06,0,0,0,.6.54,2.69,2.69,0,0,1,.48.24A.68.68,0,0,1,66.36,23.15Z"/><path class="cls-2" d="M61.08,24.65a.43.43,0,0,0,.3.19.57.57,0,0,0,.29,0C61.44,24.4,61.24,24.35,61.08,24.65Z"/></g></g></svg>