<svg xmlns="http://www.w3.org/2000/svg" viewBox="0 0 115.82 22.08"><defs><style>.cls-1{fill:#0071ce;}</style></defs><g id="Layer_2" data-name="Layer 2"><g id="Layer_1-2" data-name="Layer 1"><path class="cls-1" d="M36.46.06,29.78,13.25,23.08.06H11.89v22h6.24V6.14H19.4l7.79,15.94h5.16L40.14,6.14h1.27V22.08h6.23V.06Z"/><path class="cls-1" d="M0,.06v22H7V.06Z"/><path class="cls-1" d="M48.89,22.08H56.3l1.91-3.73h14l1.91,3.73h7.4L70.32.06H60.08Zm16.67-17,4.24,8.36H60.6l4.24-8.36Z"/><path class="cls-1" d="M104,0,98,7.21,92.08,0H83.51l8.7,10.34L81.85,22.08H91l7-8,6.95,8h9.15L103.78,10.37,112.48,0Z"/><path class="cls-1" d="M114.58,2.5a1.25,1.25,0,1,1,1.24-1.25,1.25,1.25,0,0,1-1.24,1.25Zm0-2.3a1.05,1.05,0,1,0,1,1.05,1,1,0,0,0-1-1Z"/><path class="cls-1" d="M114.31,1.47v.45h-.26V.56h.69c.3,0,.42.1.42.4s0,.35-.24.39h0c.18,0,.23.12.23.31v.26h-.26V1.66a.17.17,0,0,0-.18-.19Zm.35-.23c.19,0,.24,0,.24-.23s0-.23-.23-.23h-.36v.46Z"/></g></g></svg>