<svg xmlns="http://www.w3.org/2000/svg" viewBox="0 0 123.93 25.94"><defs><style>.cls-1{fill:#fff;}</style></defs><g id="Layer_2" data-name="Layer 2"><g id="Layer_1-2" data-name="Layer 1"><path class="cls-1" d="M112.69,25.94l-4.4-4.44-4.36-4.43-.15-.12-2.32,2.38c-.76.79-1.52,1.58-2.29,2.36a.63.63,0,0,1-.43.19H89.09l-.21,0a2.14,2.14,0,0,1,.25-.34l9.75-9.17c1-.88,1.89-1.77,2.92-2.74h-.45c-1.37,0-2.73,0-4.1,0a.91.91,0,0,1-.59-.23q-2.89-2.77-5.77-5.57l-.32-.34A2.8,2.8,0,0,1,91,3.39c2.35,0,4.69,0,7,0a.94.94,0,0,1,.55.24l4.64,4.13.45.39,2-1.92,6.38-6a.84.84,0,0,1,.52-.22h7.18a.57.57,0,0,1,.27.08c-4.67,4.9-9.39,9.73-14.18,14.67h.48c1.45,0,2.9,0,4.34,0a1.11,1.11,0,0,1,.66.24q6.21,5.28,12.39,10.58a1.59,1.59,0,0,1,.23.36Z"/><path class="cls-1" d="M0,9.54c.06-.23.11-.46.17-.68a3.35,3.35,0,0,1,3.11-2.5c.51,0,1-.05,1.52-.05h8V9H4.09a1.15,1.15,0,0,0-1.21,1.43,1,1,0,0,0,.81.79,3.05,3.05,0,0,0,.6.06c1.73,0,3.46,0,5.19,0a3.68,3.68,0,1,1,.45,7.34c-.24,0-.49,0-.74,0H.38V16.06H9a3.2,3.2,0,0,0,.7-.06,1.07,1.07,0,0,0,.85-1.14,1.12,1.12,0,0,0-.94-1.09,3.9,3.9,0,0,0-.59,0c-1.83,0-3.66,0-5.48,0a3.4,3.4,0,0,1-2.8-1.26,3.81,3.81,0,0,1-.68-1.65A1.25,1.25,0,0,0,0,10.53Z"/><path class="cls-1" d="M56,16.06v2.59l-.38,0H45.36c-1.24,0-1.76-.53-1.76-1.77V8a1.45,1.45,0,0,1,1.53-1.7l.42,0H56V9H47c-.53,0-.56,0-.56.57s0,1.12,0,1.72h9.51v2.36H46.43c0,.73,0,1.41,0,2.09,0,.1.19.22.32.29a.8.8,0,0,0,.31,0H56Z"/><path class="cls-1" d="M70.09,6.31V9h-9c-.54,0-.57,0-.57.59v1.7H70v2.37H60.51c0,.72,0,1.4,0,2.08,0,.1.17.23.29.29a1,1,0,0,0,.35,0h8.92v2.6l-.38,0H59.45a1.51,1.51,0,0,1-1.63-.87,2.18,2.18,0,0,1-.13-.72c0-3.07,0-6.15,0-9.22A1.4,1.4,0,0,1,59.1,6.34l.74,0H70.09Z"/><path class="cls-1" d="M74.6,18.66H72.12l-.35,0v-.4q0-4.78,0-9.57a4.36,4.36,0,0,1,.07-.81,2,2,0,0,1,1.61-1.73,3.68,3.68,0,0,1,3.34.63,3.28,3.28,0,0,1,.68.8c1.77,2.63,3.52,5.26,5.28,7.9a1.39,1.39,0,0,0,.28.35.62.62,0,0,0,.44.11c.13,0,.21-.23.28-.36a.85.85,0,0,0,0-.32V6.32h2.82V16.39A2.26,2.26,0,0,1,84.18,19a3.41,3.41,0,0,1-3.44-1.68c-.36-.61-.78-1.18-1.17-1.77l-4-6-.08-.12c-.16-.21-.33-.42-.64-.33s-.28.38-.28.62v9Z"/><path class="cls-1" d="M40.75,12.54a2.8,2.8,0,0,1,1.17,2.65c0,1.14,0,2.28,0,3.46a1.42,1.42,0,0,1-.24,0H39.52c-.27,0-.35-.09-.35-.34,0-.91,0-1.81,0-2.72a3,3,0,0,0,0-.42,1.15,1.15,0,0,0-1.24-1.14c-.43,0-.87,0-1.3,0H31.45v4.61H28.71V8.06c0-1.15.44-1.62,1.59-1.73l.38,0c2.41,0,4.81,0,7.21,0a6.13,6.13,0,0,1,2,.34,3.48,3.48,0,0,1,1.49,5.16C41.2,12.07,41,12.29,40.75,12.54Zm-9.22-1,.26,0H37.4a3.28,3.28,0,0,0,.63-.06A1.3,1.3,0,0,0,37.94,9a13.76,13.76,0,0,0-1.44-.05H32.05c-.27,0-.51,0-.51.39C31.53,10,31.53,10.79,31.53,11.57Z"/><path class="cls-1" d="M26.94,16.06v2.57a.84.84,0,0,1-.2.05c-2.15,0-4.29,0-6.44,0A6.08,6.08,0,0,1,14.65,14a6.15,6.15,0,0,1,3-6.84,6.33,6.33,0,0,1,2.94-.78c2.06,0,4.12,0,6.19,0l.16,0V9H21a3.51,3.51,0,0,0-3.57,3.59A3.57,3.57,0,0,0,20.78,16c1.9.05,3.8,0,5.69,0Z"/></g></g></svg>