<svg xmlns="http://www.w3.org/2000/svg" viewBox="0 0 107.32 78.17"><defs><style>.cls-1{fill:#5d040f;}.cls-2{fill:#610611;}.cls-3{fill:#650912;}.cls-4{fill:#6c0c13;}.cls-5{fill:#710e16;}.cls-6{fill:#751018;}.cls-7{fill:#7a121a;}.cls-8{fill:#7b121b;}.cls-9{fill:#7b121c;}.cls-10{fill:#7d131d;}.cls-11{fill:#82161e;}.cls-12{fill:#86181f;}.cls-13{fill:#8c1b21;}.cls-14{fill:#911c24;}.cls-15{fill:#961e26;}.cls-16{fill:#9b2027;}.cls-17{fill:#a02328;}.cls-18{fill:#a5262a;}.cls-19{fill:#aa282b;}.cls-20{fill:#af292e;}.cls-21{fill:#b52a2f;}.cls-22{fill:#b92c30;}.cls-23{fill:#bd2f32;}.cls-24{fill:#c33133;}.cls-25{fill:#c83234;}.cls-26{fill:#ce3335;}.cls-27{fill:#d33736;}.cls-28{fill:#d83838;}.cls-29{fill:#de393a;}.cls-30{fill:#e43b3b;}.cls-31{fill:#ea3e3d;}.cls-32{fill:#ee3f3e;}.cls-33{fill:#fff;}</style></defs><g id="Layer_2" data-name="Layer 2"><g id="Layer_1-2" data-name="Layer 1"><path class="cls-1" d="M100.85,45.73a6.47,6.47,0,1,1,6.47-6.47,6.48,6.48,0,0,1-6.47,6.47m0-12.55a6.09,6.09,0,1,0,6.09,6.08A6.09,6.09,0,0,0,100.85,33.18Z"/><path class="cls-2" d="M99.37,46.75H99c-1.83-.1-3-1.1-4.39-2.26l-.09-.08a6.74,6.74,0,0,1-2.76-5.12,7.49,7.49,0,0,1,12.68-5.43,7.39,7.39,0,0,1,2.35,5.29,7.69,7.69,0,0,1-7.44,7.61M99,32.16a7.11,7.11,0,0,0-6.83,7.11,6.39,6.39,0,0,0,2.62,4.83l.09.08c1.32,1.11,2.47,2.08,4.16,2.17a7,7,0,0,0,5.14-2,7.1,7.1,0,0,0,2.24-5.17,7.19,7.19,0,0,0-7.42-7Z"/><path class="cls-3" d="M97.81,47.78c-.21,0-.41,0-.62,0a5.68,5.68,0,0,1-3.42-1.94c-.37-.34-.75-.7-1.19-1.05-2-1.6-3.27-3.07-3.4-5.46C88.94,35,92.65,31,97.12,30.74A8.64,8.64,0,0,1,103.48,33a8.61,8.61,0,0,1-5.67,14.78m-.67-16.65c-4.25.29-7.79,4.1-7.57,8.15.13,2.25,1.29,3.6,3.26,5.17.45.36.84.72,1.21,1.07a5.36,5.36,0,0,0,3.19,1.84,7.91,7.91,0,0,0,6-2.26,7.78,7.78,0,0,0,0-11.8A8.21,8.21,0,0,0,97.14,31.13Z"/><path class="cls-4" d="M96.21,48.82a5.83,5.83,0,0,1-.84-.06,5,5,0,0,1-3.09-2,11.5,11.5,0,0,0-1.65-1.61c-2.32-1.77-3.85-3.13-4.06-5.8-.35-4.67,3.7-9.16,8.68-9.61a9.66,9.66,0,0,1,7.26,2.45,9.54,9.54,0,0,1,3.27,6.73,9.56,9.56,0,0,1-3.35,7.3,9.67,9.67,0,0,1-6.22,2.63m-.92-18.71c-4.77.43-8.66,4.72-8.32,9.18.19,2.51,1.6,3.76,3.9,5.51a12.4,12.4,0,0,1,1.71,1.67,4.61,4.61,0,0,0,2.84,1.9,8.87,8.87,0,0,0,6.74-2.47,9.13,9.13,0,0,0,3.22-7,9.08,9.08,0,0,0-3.14-6.45A9.27,9.27,0,0,0,95.29,30.11Z"/><path class="cls-5" d="M94.62,49.86a6.38,6.38,0,0,1-1.08-.09,4.56,4.56,0,0,1-2.93-2.22,9.33,9.33,0,0,0-1.94-2.07l-.23-.17c-2.53-1.87-4.2-3.1-4.47-6-.46-5,4-10.06,9.41-10.65a10.77,10.77,0,0,1,8.15,2.63,10.52,10.52,0,0,1,3.73,7.46A10.57,10.57,0,0,1,101.4,47a10.8,10.8,0,0,1-6.78,2.85M93.43,29.08c-5.18.57-9.5,5.44-9.06,10.21.25,2.7,1.78,3.83,4.31,5.69l.23.17a9.57,9.57,0,0,1,2,2.16,4.18,4.18,0,0,0,2.68,2.06c2.3.4,5.18-.62,7.52-2.67a10.15,10.15,0,0,0,3.73-7.91,10.15,10.15,0,0,0-3.6-7.18A10.36,10.36,0,0,0,93.43,29.08Z"/><path class="cls-6" d="M93,50.9a6.41,6.41,0,0,1-1.26-.12c-1.49-.3-2.16-1.34-2.86-2.44a8.14,8.14,0,0,0-2.15-2.5l-.82-.59c-2.54-1.8-4.21-3-4.52-5.9-.58-5.39,4.26-11,10.15-11.7l0,.2,0-.2a11.86,11.86,0,0,1,9,2.8,11.52,11.52,0,0,1,4.19,8.2,11.57,11.57,0,0,1-4.39,9.18A12,12,0,0,1,93,50.9M92.87,28a9.36,9.36,0,0,0-1.3.08c-5.68.71-10.35,6.07-9.8,11.24.3,2.74,1.82,3.82,4.35,5.61l.83.6a8.68,8.68,0,0,1,2.26,2.61c.68,1.07,1.27,2,2.59,2.26,2.43.49,5.68-.63,8.29-2.86a11.22,11.22,0,0,0,4.25-8.86,11.11,11.11,0,0,0-4-7.89A11.57,11.57,0,0,0,92.87,28Z"/><path class="cls-7" d="M91.36,52a6.37,6.37,0,0,1-1.47-.16c-1.54-.35-2.16-1.48-2.82-2.69a7.7,7.7,0,0,0-2.31-2.91l-1.35-.92c-2.58-1.75-4.29-2.91-4.65-5.91a10.9,10.9,0,0,1,2.72-8.08,13.19,13.19,0,0,1,8.18-4.66,12.88,12.88,0,0,1,9.91,3,12.54,12.54,0,0,1,4.66,8.92A12.65,12.65,0,0,1,99.3,48.66,13.06,13.06,0,0,1,91.36,52M89.71,27c-6.07.84-11.2,6.81-10.54,12.28.34,2.81,1.9,3.87,4.47,5.62.43.29.88.59,1.36.93a8.09,8.09,0,0,1,2.44,3c.63,1.16,1.18,2.17,2.54,2.48,2.59.59,6.15-.61,9.06-3a12.27,12.27,0,0,0,4.78-9.8,12.15,12.15,0,0,0-4.51-8.62A12.49,12.49,0,0,0,89.71,27Z"/><path class="cls-8" d="M89.74,53a6.89,6.89,0,0,1-1.67-.19c-1.6-.4-2.19-1.63-2.81-2.94a7.42,7.42,0,0,0-2.46-3.31c-.65-.45-1.24-.83-1.82-1.21-2.66-1.73-4.42-2.87-4.82-6C75.36,33.3,81,26.6,87.79,25.59l0,.21,0-.21a14,14,0,0,1,10.8,3.16,13.51,13.51,0,0,1,5.12,9.65c.21,4-1.79,8.07-5.47,11.1A14.19,14.19,0,0,1,89.74,53m-.08-27.12a12.16,12.16,0,0,0-1.81.14c-7.2,1.07-12,8-11.28,13.31.38,2.91,2,4,4.64,5.67.58.38,1.18.77,1.83,1.22a7.89,7.89,0,0,1,2.6,3.47c.6,1.27,1.12,2.37,2.53,2.72,2.74.68,6.6-.58,9.81-3.23,3.57-2.94,5.51-6.86,5.32-10.75a13.13,13.13,0,0,0-5-9.35A13.81,13.81,0,0,0,89.66,25.87Z"/><path class="cls-9" d="M88.12,54a7.12,7.12,0,0,1-1.88-.23c-1.66-.45-2.21-1.78-2.8-3.2a7.3,7.3,0,0,0-2.6-3.7c-.81-.56-1.58-1-2.26-1.46-2.75-1.72-4.57-2.85-5-6.06C72.73,33.57,78,25.82,85.93,24.57a15,15,0,0,1,11.71,3.34,14.51,14.51,0,0,1,5.56,10.37c.24,4.36-2,8.75-6,12A15.29,15.29,0,0,1,88.12,54M86,25C78.25,26.2,73.18,33.7,74,39.33c.43,3,2.08,4.05,4.83,5.76.69.43,1.46.91,2.28,1.47a7.84,7.84,0,0,1,2.75,3.89c.57,1.37,1.06,2.56,2.52,2.95,2.87.77,7.12-.6,10.58-3.41,3.95-3.2,6.08-7.46,5.85-11.69a14.09,14.09,0,0,0-5.41-10.06A14.57,14.57,0,0,0,86,25Z"/><path class="cls-10" d="M86.43,55.08a7.19,7.19,0,0,1-2-.26c-1.73-.5-2.26-1.94-2.81-3.46a7.42,7.42,0,0,0-2.72-4.09c-1-.66-1.89-1.21-2.69-1.69-2.86-1.72-4.75-2.85-5.25-6.18-.47-3.14.68-6.73,3.15-9.84a16.4,16.4,0,0,1,10-6l0,.21,0-.21a16.06,16.06,0,0,1,12.6,3.51,15.56,15.56,0,0,1,6,11.11c.27,4.71-2.12,9.45-6.55,13-3.11,2.49-6.75,3.92-9.7,3.92M84.13,24a16,16,0,0,0-9.7,5.87c-2.36,3-3.51,6.52-3.06,9.51s2.19,4.16,5,5.88c.81.48,1.73,1,2.71,1.69A7.84,7.84,0,0,1,82,51.21c.54,1.48,1,2.76,2.53,3.2,3,.86,7.56-.57,11.32-3.58,4.33-3.46,6.66-8.07,6.4-12.65a15.1,15.1,0,0,0-5.87-10.79A15.62,15.62,0,0,0,84.13,24Z"/><path class="cls-11" d="M84.79,56.13a7.58,7.58,0,0,1-2.19-.3c-1.81-.55-2.3-2.09-2.83-3.73s-1.06-3.29-2.84-4.48c-1.13-.75-2.18-1.36-3.1-1.89-3-1.72-4.94-2.86-5.48-6.31-.52-3.26.71-7.16,3.29-10.43A17.49,17.49,0,0,1,82.2,22.51,17.13,17.13,0,0,1,95.68,26.2,16.55,16.55,0,0,1,102.16,38c.31,5.07-2.28,10.16-7.11,14-3.31,2.61-7.16,4.12-10.26,4.12M82.24,22.72l0,.21c-7.09,1.23-14.69,8.82-13.5,16.42.51,3.25,2.3,4.29,5.27,6,.93.54,2,1.15,3.13,1.9a8,8,0,0,1,3,4.71c.51,1.59.95,3,2.54,3.45,3.17,1,8-.55,12.06-3.75C99.5,48,102,43,101.74,38.06a16.13,16.13,0,0,0-6.33-11.52,16.71,16.71,0,0,0-13.14-3.61Z"/><path class="cls-12" d="M83.16,57.18a7.89,7.89,0,0,1-2.39-.34c-1.87-.6-2.34-2.25-2.84-4s-1-3.6-3-4.87c-1.29-.85-2.46-1.51-3.51-2.09-3.09-1.73-5.13-2.87-5.72-6.46-1.11-6.75,5.16-16.26,14.6-17.95a18.15,18.15,0,0,1,14.35,3.86,17.58,17.58,0,0,1,7,12.57c.33,5.43-2.47,10.88-7.68,15-3.52,2.74-7.57,4.32-10.81,4.32m.07-35.52a15.65,15.65,0,0,0-2.82.25C71.2,23.56,65.09,32.8,66.17,39.36c.56,3.38,2.42,4.42,5.51,6.15,1,.59,2.23,1.25,3.53,2.11C77.27,49,77.84,51,78.34,52.73s.91,3.17,2.56,3.69c3.32,1.06,8.46-.52,12.8-3.9,5.1-4,7.84-9.3,7.52-14.58a17.14,17.14,0,0,0-6.79-12.25A18.17,18.17,0,0,0,83.23,21.66Z"/><path class="cls-13" d="M81.52,58.23A8.35,8.35,0,0,1,79,57.85c-2-.65-2.4-2.4-2.87-4.26s-1-3.9-3.07-5.25c-1.44-.94-2.74-1.65-3.9-2.28-3.21-1.74-5.33-2.9-6-6.62-1.21-7.09,5.36-17.15,15.33-19a19.22,19.22,0,0,1,15.24,4,18.56,18.56,0,0,1,7.42,13.3c.37,5.79-2.64,11.59-8.24,15.92-3.73,2.87-8,4.52-11.37,4.52m-3-37.35c-9.74,1.8-16.16,11.59-15,18.49.6,3.51,2.54,4.56,5.75,6.31,1.16.63,2.48,1.34,3.93,2.29,2.22,1.44,2.77,3.6,3.25,5.51s.87,3.38,2.59,4c3.46,1.14,8.89-.49,13.53-4.07,5.49-4.24,8.43-9.9,8.08-15.54a18.18,18.18,0,0,0-7.26-13A18.82,18.82,0,0,0,78.55,20.88Z"/><path class="cls-14" d="M79.88,59.27a8.54,8.54,0,0,1-2.75-.41c-2-.7-2.45-2.56-2.9-4.53s-1-4.2-3.18-5.64c-1.58-1-3-1.77-4.27-2.43-3.35-1.77-5.56-2.93-6.24-6.8-1.32-7.45,5.56-18,16.07-20l0,.22,0-.22a20.32,20.32,0,0,1,16.12,4.21,19.64,19.64,0,0,1,7.89,14C101,43.82,97.8,50,91.8,54.56c-3.93,3-8.38,4.71-11.92,4.71M76.69,19.86A20.37,20.37,0,0,0,64.6,27.54c-2.91,3.8-4.27,8.23-3.63,11.84s2.67,4.72,6,6.49c1.27.66,2.71,1.42,4.3,2.45,2.37,1.54,2.9,3.86,3.37,5.91s.82,3.6,2.61,4.21c3.61,1.23,9.34-.47,14.26-4.23,5.88-4.5,9-10.52,8.65-16.51A19.23,19.23,0,0,0,92.46,24,19.83,19.83,0,0,0,76.69,19.86Z"/><path class="cls-15" d="M78.23,60.32a8.79,8.79,0,0,1-2.93-.45c-2.09-.74-2.5-2.71-2.93-4.8s-.92-4.5-3.28-6a50.68,50.68,0,0,0-4.65-2.61c-3.48-1.78-5.78-3-6.51-7s.74-8.67,3.86-12.77a21.9,21.9,0,0,1,13-8.31l0,.22,0-.22a21.34,21.34,0,0,1,17,4.39,20.65,20.65,0,0,1,8.35,14.77C100.52,44,97,50.64,90.71,55.41c-4.13,3.13-8.78,4.91-12.48,4.91m-3.4-41.49A21.44,21.44,0,0,0,62.15,27c-3,4-4.46,8.65-3.78,12.42s2.79,4.87,6.27,6.65c1.38.71,3,1.51,4.7,2.63,2.51,1.63,3,4.11,3.47,6.31.42,2,.78,3.81,2.64,4.47,3.75,1.32,9.78-.44,15-4.39,6.18-4.69,9.63-11.22,9.22-17.49a20.24,20.24,0,0,0-8.18-14.44A20.93,20.93,0,0,0,74.83,18.83Z"/><path class="cls-16" d="M76.59,61.37a9.23,9.23,0,0,1-3.11-.49c-2.17-.79-2.55-2.87-3-5.07s-.88-4.8-3.38-6.4a52.44,52.44,0,0,0-5-2.78c-3.61-1.81-6-3-6.77-7.15s.74-9,4-13.35a23,23,0,0,1,13.55-8.77,22.45,22.45,0,0,1,17.89,4.56c5.22,4,8.44,9.67,8.81,15.5.46,6.77-3.27,13.82-10,18.85-4.34,3.26-9.19,5.1-13,5.1M72.93,17.59l0,.22A22.49,22.49,0,0,0,59.69,26.4c-3.19,4.21-4.65,9.07-3.92,13s2.92,5,6.53,6.83A52.22,52.22,0,0,1,67.38,49c2.66,1.7,3.15,4.36,3.58,6.7.4,2.16.75,4,2.68,4.72,3.89,1.42,10.21-.41,15.71-4.54C95.92,51,99.58,44.07,99.14,37.45a21.22,21.22,0,0,0-8.65-15.17A21.88,21.88,0,0,0,73,17.81Z"/><path class="cls-17" d="M74.94,62.42a9.45,9.45,0,0,1-3.28-.53c-2.25-.84-2.61-3-3-5.34s-.85-5.1-3.49-6.79a54.9,54.9,0,0,0-5.42-2.94c-3.74-1.83-6.22-3-7-7.32s.74-9.43,4.14-13.95A24.11,24.11,0,0,1,71,16.34l0,.22,0-.22a23.4,23.4,0,0,1,18.76,4.73c5.5,4.2,8.89,10.12,9.29,16.23.48,7.13-3.46,14.54-10.55,19.82-4.53,3.39-9.58,5.3-13.58,5.3m.24-46a20.57,20.57,0,0,0-4.07.4c-9.65,1.95-19.82,12.77-17.94,22.63.78,4.07,3,5.17,6.79,7a52,52,0,0,1,5.46,3c2.82,1.79,3.28,4.61,3.69,7.09.38,2.28.71,4.24,2.71,5,4,1.51,10.64-.38,16.43-4.7,7-5.19,10.84-12.46,10.37-19.43-.4-6-3.72-11.78-9.11-15.9A23.71,23.71,0,0,0,75.18,16.38Z"/><path class="cls-18" d="M73.3,63.47a9.89,9.89,0,0,1-3.46-.57c-2.33-.89-2.67-3.18-3-5.61s-.8-5.41-3.59-7.17a52.67,52.67,0,0,0-5.8-3.1c-3.87-1.85-6.43-3.08-7.3-7.51-1.72-8.8,6.73-21.7,19-24.2h0a24.42,24.42,0,0,1,19.61,4.87c5.79,4.4,9.35,10.59,9.78,17,.52,7.48-3.64,15.26-11.12,20.8-4.74,3.51-10,5.49-14.13,5.49m.29-48.15a21.1,21.1,0,0,0-4.34.44h0C57.18,18.21,48.89,30.82,50.57,39.42c.82,4.21,3.17,5.33,7,7.18a55.58,55.58,0,0,1,5.85,3.13c3,1.88,3.4,4.86,3.79,7.49.36,2.39.67,4.46,2.74,5.25,4.19,1.59,11.08-.36,17.16-4.86,7.35-5.44,11.44-13.07,10.94-20.4-.42-6.18-4-12.41-9.61-16.67A24.79,24.79,0,0,0,73.59,15.32Z"/><path class="cls-19" d="M71.65,64.52A10.09,10.09,0,0,1,68,63.91C65.62,63,65.29,60.57,65,58s-.76-5.71-3.69-7.56a56.14,56.14,0,0,0-6.17-3.26c-4-1.87-6.66-3.11-7.57-7.69C45.7,30.38,54.47,16.93,67.3,14.28a25.44,25.44,0,0,1,20.49,5c6,4.51,9.8,11.14,10.25,17.73.54,7.84-3.83,16-11.71,21.78-4.94,3.63-10.39,5.68-14.68,5.68M72,14.26a22.07,22.07,0,0,0-4.59.47h0C54.8,17.33,46.19,30.49,48,39.43c.87,4.35,3.29,5.49,7.31,7.37a54.47,54.47,0,0,1,6.23,3.28c3.11,2,3.53,5.11,3.9,7.88.34,2.51.63,4.68,2.77,5.51,4.33,1.69,11.51-.32,17.88-5,7.74-5.71,12-13.7,11.52-21.38-.44-6.45-4.21-13-10.07-17.4A25.89,25.89,0,0,0,72,14.26Z"/><path class="cls-20" d="M70,65.57a10.45,10.45,0,0,1-3.82-.65c-2.47-1-2.77-3.5-3.09-6.16s-.73-6-3.8-7.93a52.43,52.43,0,0,0-6.55-3.41c-4.14-1.9-6.88-3.16-7.84-7.88C43,30,52.08,16.05,65.43,13.25a26.58,26.58,0,0,1,21.38,5.22C93,23.17,97.05,30.08,97.52,36.94c.58,8.2-4,16.71-12.29,22.76C80.09,63.46,74.45,65.57,70,65.57m.35-52.37a23.1,23.1,0,0,0-4.83.51h0c-13.11,2.74-22,16.45-20.16,25.73.91,4.5,3.42,5.65,7.58,7.55a55.76,55.76,0,0,1,6.6,3.45c3.26,2,3.66,5.35,4,8.27.32,2.62.59,4.89,2.81,5.77,4.47,1.78,11.94-.3,18.59-5.16C93.1,53.37,97.62,45,97.06,37c-.47-6.73-4.4-13.5-10.53-18.13A27.06,27.06,0,0,0,70.36,13.2Z"/><path class="cls-21" d="M68.36,66.62a10.84,10.84,0,0,1-4-.69c-2.55-1-2.83-3.66-3.13-6.43-.32-3-.68-6.3-3.89-8.31a55.14,55.14,0,0,0-6.93-3.57c-4.28-1.93-7.11-3.2-8.11-8.07-2-9.84,7.39-24.38,21.26-27.33h0c7.45-1.6,15.56.36,22.26,5.4C92.33,22.5,96.51,29.68,97,36.81c.6,8.57-4.21,17.44-12.88,23.75C78.79,64.44,73,66.62,68.36,66.62m.39-54.47a24.08,24.08,0,0,0-5.08.53h0A27.93,27.93,0,0,0,47.41,23.53c-3.88,5.25-5.61,11.21-4.64,15.93s3.55,5.8,7.84,7.73a56.09,56.09,0,0,1,7,3.6c3.4,2.13,3.78,5.6,4.11,8.66.29,2.74.55,5.11,2.84,6,4.61,1.86,12.37-.27,19.31-5.32C92.39,54,97.13,45.25,96.54,36.85c-.49-7-4.6-14-11-18.86A28.1,28.1,0,0,0,68.75,12.15Z"/><path class="cls-22" d="M66.7,67.66a10.85,10.85,0,0,1-4.15-.73c-2.63-1.08-2.89-3.81-3.17-6.69-.3-3.1-.64-6.6-4-8.7a56.89,56.89,0,0,0-7.3-3.72c-4.42-2-7.34-3.24-8.38-8.26-2.13-10.18,7.6-25.27,22-28.37,7.73-1.68,16.17.35,23.14,5.57C91.61,21.83,96,29.28,96.49,36.69c.64,8.91-4.38,18.14-13.42,24.69-5.55,4-11.61,6.28-16.37,6.28m.44-56.57a25.07,25.07,0,0,0-5.33.57h0A29,29,0,0,0,45,23c-4,5.46-5.8,11.63-4.78,16.51s3.83,6,8.11,7.92a56.54,56.54,0,0,1,7.36,3.75c3.55,2.22,3.91,5.85,4.21,9,.28,2.86.52,5.33,2.88,6.31,4.77,1.94,12.83-.26,20.06-5.5C91.7,54.54,96.64,45.47,96,36.72c-.52-7.27-4.8-14.59-11.46-19.58A29.21,29.21,0,0,0,67.14,11.09Z"/><path class="cls-23" d="M65.06,68.71a11.3,11.3,0,0,1-4.33-.77c-2.7-1.13-2.95-4-3.21-7-.28-3.24-.59-6.91-4.09-9.08A56.85,56.85,0,0,0,45.76,48c-4.56-2-7.56-3.29-8.66-8.45s.78-11.7,5-17.47A30.57,30.57,0,0,1,59.84,10.16h0c8-1.76,16.78.33,24,5.75,7,5.25,11.57,13,12.11,20.66.67,9.27-4.56,18.87-14,25.68-5.75,4.14-12,6.46-16.9,6.46M65.53,10a26.12,26.12,0,0,0-5.58.6h0A30.1,30.1,0,0,0,42.5,22.39c-4.15,5.67-6,12-4.93,17.09s4,6.19,8.38,8.11a57.15,57.15,0,0,1,7.73,3.9c3.7,2.3,4,6.1,4.32,9.45.26,3,.48,5.54,2.91,6.56,4.92,2,13.26-.23,20.77-5.64C91,55.15,96.15,45.71,95.5,36.6c-.54-7.54-5-15.13-11.92-20.31A30.38,30.38,0,0,0,65.53,10Z"/><path class="cls-24" d="M63.41,69.76a11.54,11.54,0,0,1-4.5-.81c-2.78-1.18-3-4.12-3.25-7.23-.26-3.38-.55-7.21-4.19-9.46a57,57,0,0,0-8-4c-4.69-2-7.79-3.34-8.93-8.65s.78-12.07,5.15-18.06A31.73,31.73,0,0,1,58,9.13c8.31-1.84,17.39.32,24.9,5.92,7.31,5.44,12,13.44,12.58,21.4.7,9.63-4.76,19.59-14.6,26.66-6,4.27-12.4,6.65-17.45,6.65M63.91,9a26.48,26.48,0,0,0-5.82.64h0A31.19,31.19,0,0,0,40,21.82C35.75,27.69,33.86,34.3,35,39.49s4.1,6.35,8.65,8.3a57,57,0,0,1,8.1,4.06c3.85,2.38,4.16,6.34,4.43,9.83.23,3.09.44,5.76,3,6.83,5.05,2.13,13.68-.2,21.48-5.79,9.7-7,15.08-16.78,14.4-26.24-.57-7.82-5.19-15.68-12.39-21A31.44,31.44,0,0,0,63.91,9Z"/><path class="cls-25" d="M61.76,70.81A11.58,11.58,0,0,1,57.09,70c-2.86-1.22-3.07-4.28-3.29-7.51-.23-3.52-.5-7.5-4.29-9.84a57.72,57.72,0,0,0-8.41-4.16c-4.83-2-8-3.39-9.21-8.85s.8-12.45,5.3-18.64A32.84,32.84,0,0,1,56.12,8.1c8.59-1.91,18,.31,25.78,6.1,7.57,5.62,12.45,13.9,13,22.13C95.67,46.32,90,56.65,79.75,64c-6.14,4.39-12.79,6.84-18,6.84M62.3,7.92a28.08,28.08,0,0,0-6.07.66h0A32.3,32.3,0,0,0,37.58,21.25c-4.42,6.08-6.37,12.9-5.21,18.25S36.6,46,41.29,48a58.25,58.25,0,0,1,8.48,4.2c4,2.46,4.27,6.58,4.52,10.22.22,3.21.41,6,3,7.1,5.2,2.21,14.11-.18,22.19-5.94,10.1-7.22,15.71-17.4,15-27.22-.59-8.09-5.39-16.23-12.85-21.77A32.53,32.53,0,0,0,62.3,7.92Z"/><path class="cls-26" d="M60.11,71.86A12.22,12.22,0,0,1,55.27,71c-2.94-1.27-3.13-4.43-3.33-7.78-.21-3.66-.46-7.81-4.39-10.22a58.12,58.12,0,0,0-8.77-4.31c-5-2.07-8.25-3.44-9.49-9s.81-12.84,5.45-19.23A33.78,33.78,0,0,1,54.26,7.08h0c8.88-2,18.6.28,26.66,6.26C88.76,19.15,93.8,27.7,94.43,36.2c.76,10.36-5.14,21.06-15.79,28.64-6.34,4.51-13.18,7-18.53,7m.58-65a28.63,28.63,0,0,0-6.33.7h0A33.41,33.41,0,0,0,35.13,20.67C30.58,27,28.57,34,29.77,39.51s4.37,6.68,9.2,8.69a59.11,59.11,0,0,1,8.84,4.35c4.14,2.55,4.4,6.83,4.62,10.61.2,3.33.37,6.21,3,7.36,5.34,2.31,14.54-.14,22.9-6.08,10.5-7.48,16.33-18,15.58-28.2-.62-8.36-5.59-16.78-13.31-22.5A33.7,33.7,0,0,0,60.69,6.86Z"/><path class="cls-27" d="M58.47,72.92a12.54,12.54,0,0,1-5-.94c-3-1.32-3.18-4.59-3.36-8.05-.19-3.8-.42-8.11-4.48-10.6a59.65,59.65,0,0,0-9.15-4.46c-5.1-2.1-8.48-3.49-9.76-9.24s.81-13.21,5.59-19.82A35,35,0,0,1,52.39,6.05C61.56,4,71.6,6.32,79.94,12.49c8.1,6,13.32,14.81,14,23.59.8,10.72-5.33,21.79-16.37,29.62C71,70.33,64,72.92,58.47,72.92m.6-67.12a29.67,29.67,0,0,0-6.57.73A34.52,34.52,0,0,0,32.68,20.1c-4.7,6.5-6.75,13.76-5.51,19.42,1.23,5.5,4.51,6.85,9.47,8.89a60.41,60.41,0,0,1,9.21,4.49c4.29,2.63,4.52,7.08,4.73,11,.18,3.45.33,6.43,3.06,7.63,5.4,2.36,15.1-.21,23.61-6.23,10.9-7.73,17-18.64,16.17-29.18-.64-8.64-5.79-17.32-13.78-23.23A34.76,34.76,0,0,0,59.07,5.8Z"/><path class="cls-28" d="M56.82,74a12.83,12.83,0,0,1-5.2-1c-3.09-1.37-3.24-4.75-3.4-8.32-.17-4-.37-8.41-4.58-11a60.94,60.94,0,0,0-9.51-4.6c-5.25-2.13-8.72-3.53-10.05-9.44s.82-13.58,5.73-20.4A36.11,36.11,0,0,1,50.53,5h0C60,2.86,70.34,5.27,79,11.63,87.33,17.81,92.72,26.91,93.39,36c.83,11.08-5.51,22.52-17,30.61-6.74,4.75-14,7.39-19.61,7.4m.64-69.22a30.66,30.66,0,0,0-6.82.76h0a35.53,35.53,0,0,0-20.42,14c-4.83,6.7-6.94,14.18-5.65,20,1.27,5.65,4.64,7,9.75,9.09a60.53,60.53,0,0,1,9.58,4.64c4.43,2.71,4.64,7.32,4.82,11.38.16,3.57.3,6.65,3.11,7.9,5.53,2.44,15.52-.18,24.31-6.38C87.44,58.18,93.71,46.9,92.9,36c-.67-8.91-6-17.87-14.24-24A36,36,0,0,0,57.46,4.75Z"/><path class="cls-29" d="M55.17,75a13.06,13.06,0,0,1-5.37-1c-3.17-1.41-3.3-4.9-3.44-8.6C46.21,61.32,46,56.69,41.68,54a61.59,61.59,0,0,0-9.88-4.75c-5.39-2.16-8.95-3.58-10.32-9.64s.82-14,5.87-21A37.21,37.21,0,0,1,48.67,4c9.74-2.24,20.42.24,29.31,6.79,8.63,6.36,14.2,15.73,14.9,25.06.86,11.44-5.71,23.25-17.56,31.59C68.39,72.3,61,75,55.17,75m.68-71.33a31.66,31.66,0,0,0-7.07.79A36.69,36.69,0,0,0,27.76,19c-5,6.91-7.13,14.61-5.79,20.58,1.31,5.8,4.78,7.19,10,9.29a61.51,61.51,0,0,1,10,4.78c4.58,2.79,4.76,7.56,4.92,11.78.14,3.68.27,6.86,3.15,8.15,5.67,2.53,16-.15,25-6.52,11.7-8.24,18.19-19.88,17.35-31.15-.69-9.18-6.19-18.41-14.7-24.69A37.08,37.08,0,0,0,55.85,3.69Z"/><path class="cls-30" d="M53.52,76.07A13.49,13.49,0,0,1,48,75c-3.25-1.46-3.36-5.06-3.48-8.87-.13-4.22-.29-9-4.78-11.74a62.17,62.17,0,0,0-10.25-4.89c-5.53-2.19-9.18-3.64-10.59-9.84s.82-14.34,6-21.58C30.4,10.42,38.39,4.9,46.81,3h0c10-2.32,21,.22,30.18,7,8.91,6.55,14.65,16.2,15.37,25.8.89,11.8-5.89,24-18.15,32.58-7.13,5-14.75,7.77-20.69,7.77m.71-73.44a32.08,32.08,0,0,0-7.31.83c-8.3,1.91-16.18,7.35-21.62,14.93-5.1,7.12-7.32,15-5.93,21.16,1.36,6,4.91,7.35,10.29,9.49A62.54,62.54,0,0,1,40,54c4.73,2.88,4.89,7.81,5,12.17.12,3.8.22,7.08,3.18,8.42,5.81,2.62,16.39-.13,25.72-6.67,12.11-8.49,18.82-20.5,18-32.13-.71-9.45-6.38-18.95-15.17-25.42A38.14,38.14,0,0,0,54.23,2.63Z"/><path class="cls-31" d="M51.87,77.12A13.75,13.75,0,0,1,46.16,76c-3.33-1.51-3.42-5.22-3.52-9.14-.12-4.37-.24-9.31-4.88-12.13a64.36,64.36,0,0,0-10.61-5c-5.67-2.22-9.42-3.69-10.88-10S17.1,25,22.43,17.52C28.09,9.62,36.29,3.94,44.94,1.93,55.25-.46,66.58,2.14,76,9.07,85.18,15.8,91.1,25.72,91.85,35.59c.92,12.18-6.09,24.72-18.75,33.57-7.32,5.11-15.14,8-21.23,8m.75-75.55a33.65,33.65,0,0,0-7.56.86h0C29.66,6,13.26,24.21,16.77,39.56c1.4,6.1,5.05,7.52,10.57,9.68A66.11,66.11,0,0,1,38,54.31c4.87,3,5,8.06,5.12,12.56.1,3.92.19,7.31,3.22,8.69,6,2.7,16.82-.1,26.43-6.82C85.31,60,92.24,47.62,91.34,35.63c-.74-9.73-6.58-19.5-15.63-26.15A39.31,39.31,0,0,0,52.62,1.57Z"/><path class="cls-32" d="M50.22,78.17A14,14,0,0,1,44.34,77c-3.4-1.56-3.48-5.37-3.56-9.41-.1-4.51-.2-9.62-5-12.51a64.64,64.64,0,0,0-11-5.17C19,47.68,15.17,46.2,13.67,39.69S14.5,24.6,20,17C25.77,8.83,34.2,3,43.08.9c10.6-2.47,22.24.19,32,7.31,9.44,6.92,15.53,17.11,16.3,27.26C92.28,48,85.05,60.93,72,70c-7.51,5.23-15.53,8.14-21.76,8.14M51,.52a34.08,34.08,0,0,0-7.81.89c-15.83,3.69-32.67,22.41-29,38.17,1.44,6.23,5.18,7.68,10.84,9.88a65.06,65.06,0,0,1,11.06,5.21c5,3,5.13,8.3,5.22,12.94.09,4,.16,7.53,3.26,9,6.09,2.79,17.25-.07,27.14-7,12.91-9,20.06-21.74,19.13-34.09-.76-10-6.78-20-16.1-26.88A40.35,40.35,0,0,0,51,.52Z"/><path class="cls-33" d="M0,44.28,1.47,42A4.73,4.73,0,0,0,5.16,43.5C6.29,43.5,7,43,7,42.18s-.84-1-2.52-1.6C2.33,39.82.52,38.83.52,36.19.52,34,2.41,32.4,5,32.42a6.72,6.72,0,0,1,4.51,1.7L8.07,36.51a4.61,4.61,0,0,0-3.19-1.43,1.26,1.26,0,0,0-1.39,1.14c0,.66.78,1.13,2,1.62C8.23,39,9.94,39.48,9.94,42.11c0,2.23-1.52,4-4.78,4.07A7.33,7.33,0,0,1,0,44.28"/><path class="cls-33" d="M25.53,39.33c0,4-2.64,6.69-6.21,6.72a4.84,4.84,0,0,1-4-1.8h0v7l-2.94.05V32.67l2.94,0v1.62a5,5,0,0,1,4.09-1.78c3.54,0,6.18,2.88,6.18,6.8m-3,0a3.79,3.79,0,0,0-3.7-4.12c-2.2,0-3.72,1.77-3.72,4.12a3.72,3.72,0,1,0,7.42,0Z"/><path class="cls-33" d="M40.16,38v7.65l-2.93,0V38.76c0-2.54-1-3.44-2.78-3.45-2.13,0-3.44,1.31-3.44,3.85v6.57l-2.93,0V26.19l2.93,0v8.22h0a5.58,5.58,0,0,1,4.35-1.8c2.81,0,4.77,1.53,4.77,5.35"/><path class="cls-33" d="M54.84,40.25l-9.33,0a3.5,3.5,0,0,0,3.64,2.87,4,4,0,0,0,3.2-1.49l2,1.71A6.71,6.71,0,0,1,49,45.78a6.21,6.21,0,0,1-6.53-6.52c0-3.92,2.67-6.54,6.24-6.51a6,6,0,0,1,6.21,6.34,9.49,9.49,0,0,1-.08,1.16m-9.28-2.32H52a3.07,3.07,0,0,0-3.09-2.57A3.22,3.22,0,0,0,45.56,37.93Z"/><path class="cls-33" d="M64.75,32.87V36c-.34,0-.68,0-.89,0a3.31,3.31,0,0,0-3.48,3.59v5.89l-2.94,0V33l2.94,0v1.89h0a4.91,4.91,0,0,1,4-2h.36"/><path class="cls-33" d="M78.62,33.15V45.31l-2.8,0V43.71h-.06a5,5,0,0,1-4.06,1.86,5.93,5.93,0,0,1-6.19-6.28,6,6,0,0,1,6.16-6.36,5.15,5.15,0,0,1,4,1.68h.06V33.13l2.93,0m-2.8,6.16a3.67,3.67,0,0,0-3.65-3.84,3.6,3.6,0,0,0-3.67,3.84A3.5,3.5,0,0,0,72.17,43,3.59,3.59,0,0,0,75.82,39.31Z"/></g></g></svg>