<svg xmlns="http://www.w3.org/2000/svg" xmlns:xlink="http://www.w3.org/1999/xlink" viewBox="0 0 481.23 83.46"><defs><style>.cls-1,.cls-5,.cls-6,.cls-7{fill:none;}.cls-2,.cls-3{fill:#fff;}.cls-2{stroke:#fff;}.cls-2,.cls-5,.cls-6,.cls-7{stroke-miterlimit:10;}.cls-2,.cls-5,.cls-6{stroke-width:0.76px;}.cls-4{clip-path:url(#clip-path);}.cls-5{stroke:#333;}.cls-6{stroke:#811122;}.cls-7{stroke:#cb1f2e;}.cls-8{opacity:0.57;fill:url(#linear-gradient);}</style><clipPath id="clip-path" transform="translate(68.15 0.06)"><path class="cls-1" d="M295.66,51.52A1656.31,1656.31,0,0,0,56.46,51c-3.65.27-7.36-.21-8.3-1.09L3.87,8.5c-.94-.88,2.39-1.91,7.46-2.29A2273.35,2273.35,0,0,1,343.5,7c5.05.39,8.32,1.44,7.33,2.32L304,50.46C303,51.34,299.29,51.8,295.66,51.52Z"/></clipPath><linearGradient id="linear-gradient" x1="-111.53" y1="7744.68" x2="-111.53" y2="7745.32" gradientTransform="matrix(878, 0, 0, -83.17, 98103.82, 644187.72)" gradientUnits="userSpaceOnUse"><stop offset="0" stop-color="#ff1d25" stop-opacity="0"/><stop offset="0.55" stop-color="#ff1d25" stop-opacity="0.2"/><stop offset="1" stop-color="#ff1d25"/></linearGradient></defs><g id="Layer_2" data-name="Layer 2"><g id="Layer_1-2" data-name="Layer 1"><g id="Group_583" data-name="Group 583"><g id="Group_582" data-name="Group 582"><g id="Group_581" data-name="Group 581"><g id="Group_580" data-name="Group 580"><g id="Group_579" data-name="Group 579"><g id="Group_574" data-name="Group 574"><path id="Path_1926" data-name="Path 1926" class="cls-2" d="M295.66,51.52A1656.31,1656.31,0,0,0,56.46,51c-3.65.27-7.36-.21-8.3-1.09L3.87,8.5c-.94-.88,2.39-1.91,7.46-2.29A2273.35,2273.35,0,0,1,343.5,7c5.05.39,8.32,1.44,7.33,2.32L304,50.46C303,51.34,299.29,51.8,295.66,51.52Z" transform="translate(68.15 0.06)"/></g><g id="Group_577" data-name="Group 577"><path id="Path_1927" data-name="Path 1927" class="cls-3" d="M295.66,51.52A1656.31,1656.31,0,0,0,56.46,51c-3.65.27-7.36-.21-8.3-1.09L3.87,8.5c-.94-.88,2.39-1.91,7.46-2.29A2273.35,2273.35,0,0,1,343.5,7c5.05.39,8.32,1.44,7.33,2.32L304,50.46C303,51.34,299.29,51.8,295.66,51.52Z" transform="translate(68.15 0.06)"/><g class="cls-4"><g id="Group_576" data-name="Group 576"><g id="_8oZLeu" data-name=" 8oZLeu"><g id="Group_575" data-name="Group 575"><path id="Path_1928" data-name="Path 1928" class="cls-5" d="M-67,13.41a2199.3,2199.3,0,0,1,479,0h0L377.1,35.64,342.24,57.89h0a1586.87,1586.87,0,0,0-169.75-9.26A1586.55,1586.55,0,0,0,2.75,57.91h0l-34.9-22.25Z" transform="translate(68.15 0.06)"/></g></g></g></g><path id="Path_1930" data-name="Path 1930" class="cls-6" d="M295.66,51.52A1656.31,1656.31,0,0,0,56.46,51c-3.65.27-7.36-.21-8.3-1.09L3.87,8.5c-.94-.88,2.39-1.91,7.46-2.29A2273.35,2273.35,0,0,1,343.5,7c5.05.39,8.32,1.44,7.33,2.32L304,50.46C303,51.34,299.29,51.8,295.66,51.52Z" transform="translate(68.15 0.06)"/></g><g id="Group_578" data-name="Group 578"><path id="Path_1931" data-name="Path 1931" class="cls-7" d="M5.12,8.5c-.93-.88,2.38-1.91,7.41-2.29A2240.66,2240.66,0,0,1,342.3,7c5,.39,8.26,1.44,7.28,2.32" transform="translate(68.15 0.06)"/></g></g><path id="Path_1932" data-name="Path 1932" class="cls-8" d="M0,83.39H353.49L309.84,55s-38.54-5.12-134.55-5.12S43.64,55,43.64,55Z" transform="translate(68.15 0.06)"/></g></g></g></g></g></g></svg>