<?xml version="1.0" encoding="UTF-8" standalone="no"?>
<!DOCTYPE svg PUBLIC "-//W3C//DTD SVG 1.1//EN" "http://www.w3.org/Graphics/SVG/1.1/DTD/svg11.dtd">
<svg xmlns="http://www.w3.org/2000/svg" xmlns:xlink="http://www.w3.org/1999/xlink" version="1.1" width="411pt" height="1323.88pt" viewBox="0 0 411 1323.88">
<g enable-background="new">
<g id="Layer-1" data-name="Layer 1">
<text fill="#131717" xml:space="preserve" transform="matrix(1 0 -0 1 0 1323.88)" font-size="43.9155" font-family="Montserrat"><tspan y="-1256.5391" x="92.4453 104.08291">19</tspan></text>
<text fill="#131717" xml:space="preserve" transform="matrix(1 0 -0 1 0 1323.88)" font-size="43.9155" font-family="Montserrat"><tspan y="-1240.4221" x="125.46976 147.20793">30</tspan></text>
<text fill="#131717" xml:space="preserve" transform="matrix(1 0 -0 1 0 1323.88)" font-size="43.9155" font-family="Montserrat"><tspan y="-1150.6588" x="231.04264 242.68024">19</tspan><tspan y="-990.14767" x="235.30243 246.94004">19</tspan></text>
<text fill="#131717" xml:space="preserve" transform="matrix(.9997712 .021388878 -.021388878 .9997712 0 1323.88)" font-size="43.915349" font-family="Montserrat"><tspan y="-1140.4063" x="236.23386 259.94816">64</tspan></text>
<text xml:space="preserve" transform="matrix(1 0 -0 1 0 1323.88)" font-size="4.5146" font-family="Montserrat" font-weight="bold"><tspan y="-1212.3416" x="124.4131 127.4424 132.1782 135.29328 136.65218 138.55733 141.40604 142.68367 145.64073 148.7558 151.6045 154.72409 157.12134 158.39897 163.13478 166.23632 167.77173 169.73558 171.09449 174.20957 175.56847 178.41718">Empire opens multiple </tspan><tspan y="-1206.9241" x="124.4131 125.771999 128.72907 131.39719 134.1827 136.14655 137.50545 140.46251 143.58209 145.97934 147.25698 148.61588 151.73546 153.01309 155.72187 158.57057 161.64456 164.43007 167.5763 170.53336 173.65294 174.93058 177.71608 180.8623 183.9864">locations in Lebanon and </tspan><tspan y="-1201.5066" x="124.4131 127.24782 129.94756 131.87483 133.23374 136.01924">Syria.</tspan></text>
<text fill="#131717" xml:space="preserve" transform="matrix(1 0 -0 1 0 1323.88)" font-size="10.6293" font-family="Montserrat"><tspan y="-1220.9619" x="123.6787 129.99251 138.92113 146.60611 154.38677 160.62616 163.92125 172.84987 181.48087">LOCATIONS</tspan></text>
<text fill="#131717" xml:space="preserve" transform="matrix(1 0 -0 1 0 1323.88)" font-size="43.9155" font-family="Montserrat"><tspan y="-976.0303" x="266.9072 291.80729">88</tspan></text>
<text xml:space="preserve" transform="matrix(1 0 -0 1 0 1323.88)" font-size="4.5146" font-family="Montserrat" font-weight="bold"><tspan y="-1005.0369" x="125.1758 128.2051 132.9409 136.05597 137.41487 139.32003 142.16873 143.44637 146.56143 149.41014 152.04666 155.00373 159.76618 162.61489 165.01213 166.28977 169.07527 172.19486">Empire becomes an </tspan><tspan y="-999.6194" x="125.1758 127.95679 130.56623 133.21584 134.57474 137.67627 140.07352 141.43242 144.06444 146.91315 148.19078 149.54969 150.90859 153.5442 156.39292 159.5125 161.90975 164.75846 166.03609 167.75164 170.7087 172.65448">exclusive license for </tspan><tspan y="-994.20187" x="125.1758 128.39922 131.35628 132.71518 135.81671 140.55252 143.62697 146.41248 147.69011 151.1483 153.07604 154.43494 156.11437 158.99468 160.95853 163.74404 165.68982 166.96746 170.11502 173.07209 177.83454 180.68325">Columba Ari-Star home </tspan><tspan y="-988.7843" x="125.1758 128.0245 131.14409 133.03075 135.87946 137.89296 139.85681 142.64232 144.00122 147.1208 151.8837 154.7324 157.85199 159.81584 161.09348 162.45238 165.57196">entertainment in </tspan><tspan y="-983.36679" x="125.1758 127.88456 130.73328 133.80773 136.59323 139.7408 142.69786 145.81745">Lebanon.</tspan><tspan y="-832.0238" x="242.00461 245.0339 249.76972 252.8848 254.2437 256.14888 258.9976 260.2752 263.23228 266.34736 269.19609 272.31568 274.71293 275.99055 278.9476 280.69477 284.162 286.79896 289.64768 290.9253 292.28419 295.40379 296.6814 300.41047 303.512 306.586 309.37153 310.7304">Empire opens of&#xfb01;ce in Dubai.</tspan></text>
<text fill="#131717" xml:space="preserve" transform="matrix(1 0 -0 1 0 1323.88)" font-size="10.6293" font-family="Montserrat"><tspan y="-1013.6572" x="124.4414 130.7552 134.0503 141.73528 148.8569 157.4879 164.0887 171.21033">LICENSEE</tspan><tspan y="-840.6122" x="242.00147 250.93009 257.6797 264.4293 267.72438 275.40937 282.531">OFFICES</tspan></text>
<path transform="matrix(1,0,0,-1,0,1323.88)" d="M 225.068 1286.395 L 222.98099 1286.395 L 222.98099 1209.7001 L 225.068 1209.7001 Z " fill="#231f20"/>
<clipPath id="cp0">
<path transform="matrix(1,0,0,-1,0,1323.88)" d="M 0 1323.881 L 411 1323.881 L 411 0 L 0 0 Z "/>
</clipPath>
<g clip-path="url(#cp0)">
<path transform="matrix(1,0,0,-1,223.0549,83.18982)" d="M 0 0 C 10.027 .03 18.077 7.662 18.017 17.082 C 17.957 26.442 9.956 33.851 -.074 33.882 L -.074 46.097 C 12.48 46.105 24.171 38.567 28.458 26.829 C 31.254 19.17 29.909 11.773 27.071 4.468 C 21.16 -10.746 12.236 -24.413 2.313 -37.555 C 1.631 -38.458 .879 -39.314 -.074 -40.476 L -.074 0 C -.05 0 -.025 0 0 0 " fill="#231f20"/>
</g>
<text xml:space="preserve" transform="matrix(1 0 -0 1 0 1323.88)" font-size="4.5146" font-family="Montserrat" font-weight="bold"><tspan y="-1108.2449" x="238.46 241.68343 244.64049 245.99939 249.10092 253.83673 256.9518 258.3107 261.09623 262.37385 265.48893 266.8478 269.55204 271.51588 274.6174 276.52259 279.3713 281.76856 283.04618 286.2064 288.12016 290.90568 294.02528 295.9891 297.26673 300.29603 305.03184 308.1469 309.5058 311.41099 314.2597">Columbia pictures grant Empire </tspan><tspan y="-1102.8274" x="238.46 241.241 243.85044 246.50005 247.85895 250.96048 253.35773 254.71663 257.34864 260.19737 261.47499 264.5991 265.95799 268.35523 270.31907 272.2468 273.60569 276.72077 279.8223 281.78614 283.14503 286.10209 289.22169">exclusive distribution.</tspan></text>
<text fill="#131717" xml:space="preserve" transform="matrix(1 0 -0 1 0 1323.88)" font-size="10.6293" font-family="Montserrat"><tspan y="-1116.334" x="238.46 245.58164 252.73516 260.42015 266.73396 275.14173 281.74253 285.0376 292.60566">EXCLUSIVE</tspan></text>
<clipPath id="cp1">
<path transform="matrix(1,0,0,-1,0,1323.88)" d="M 0 1323.881 L 411 1323.881 L 411 0 L 0 0 Z "/>
</clipPath>
<g clip-path="url(#cp1)">
<path transform="matrix(1,0,0,-1,0,1323.88)" d="M 175.897 1181.867 L 182.511 1181.867 L 182.511 1093.251 L 175.897 1093.251 Z " fill="#231f20"/>
<path transform="matrix(1,0,0,-1,193.0832,153.8905)" d="M 0 0 C 0 -.408 -.424 -.738 -.946 -.738 L -9.834 -.738 C -10.357 -.738 -10.781 -.408 -10.781 0 L -10.781 3.63 C -10.781 4.038 -10.357 4.368 -9.834 4.368 L -.946 4.368 C -.424 4.368 0 4.038 0 3.63 Z M 0 -10.964 C 0 -11.372 -.424 -11.703 -.946 -11.703 L -9.834 -11.703 C -10.357 -11.703 -10.781 -11.372 -10.781 -10.964 L -10.781 -7.334 C -10.781 -6.927 -10.357 -6.596 -9.834 -6.596 L -.946 -6.596 C -.424 -6.596 0 -6.927 0 -7.334 Z M 0 -21.929 C 0 -22.336 -.424 -22.667 -.946 -22.667 L -9.834 -22.667 C -10.357 -22.667 -10.781 -22.336 -10.781 -21.929 L -10.781 -18.299 C -10.781 -17.891 -10.357 -17.561 -9.834 -17.561 L -.946 -17.561 C -.424 -17.561 0 -17.891 0 -18.299 Z M 0 -32.893 C 0 -33.301 -.424 -33.632 -.946 -33.632 L -9.834 -33.632 C -10.357 -33.632 -10.781 -33.301 -10.781 -32.893 L -10.781 -29.263 C -10.781 -28.855 -10.357 -28.525 -9.834 -28.525 L -.946 -28.525 C -.424 -28.525 0 -28.855 0 -29.263 Z M 0 -43.857 C 0 -44.265 -.424 -44.596 -.946 -44.596 L -9.834 -44.596 C -10.357 -44.596 -10.781 -44.265 -10.781 -43.857 L -10.781 -40.228 C -10.781 -39.82 -10.357 -39.489 -9.834 -39.489 L -.946 -39.489 C -.424 -39.489 0 -39.82 0 -40.228 Z M 0 -54.822 C 0 -55.23 -.424 -55.561 -.946 -55.561 L -9.834 -55.561 C -10.357 -55.561 -10.781 -55.23 -10.781 -54.822 L -10.781 -51.192 C -10.781 -50.784 -10.357 -50.454 -9.834 -50.454 L -.946 -50.454 C -.424 -50.454 0 -50.784 0 -51.192 Z M 0 -65.786 C 0 -66.194 -.424 -66.525 -.946 -66.525 L -9.834 -66.525 C -10.357 -66.525 -10.781 -66.194 -10.781 -65.786 L -10.781 -62.156 C -10.781 -61.749 -10.357 -61.418 -9.834 -61.418 L -.946 -61.418 C -.424 -61.418 0 -61.749 0 -62.156 Z M 7.894 -.716 L 7.894 11.878 L 0 11.878 L 0 10.964 C 0 10.557 -.424 10.226 -.946 10.226 L -9.834 10.226 C -10.357 10.226 -10.781 10.557 -10.781 10.964 L -10.781 11.878 L -12.514 11.878 L -12.514 -76.738 L -10.781 -76.738 L -10.781 -73.121 C -10.781 -72.713 -10.357 -72.382 -9.834 -72.382 L -.946 -72.382 C -.424 -72.382 0 -72.713 0 -73.121 L 0 -76.738 L 7.894 -76.738 L 7.894 -64.144 C 5.599 -63.452 4.007 -61.993 4.007 -60.314 L 4.007 -4.545 C 4.007 -2.868 5.599 -1.408 7.894 -.716 " fill="#231f20"/>
<path transform="matrix(1,0,0,-1,232.884,239.83045)" d="M 0 0 L 29.734 -4.321 L 8.219 -25.293 L 13.298 -54.907 L -10.279 -42.512 L -10.279 20.828 Z " fill="#231f20"/>
</g>
<text fill="#131717" xml:space="preserve" transform="matrix(1 0 -0 1 0 1323.88)" font-size="43.9155" font-family="Montserrat"><tspan y="-1035.3623" x="123.6348 148.5349">86</tspan></text>
<text fill="#131717" xml:space="preserve" transform="matrix(1 0 -0 1 0 1323.88)" font-size="43.9155" font-family="Montserrat"><tspan y="-1049.064" x="92.14739 103.785">19</tspan></text>
<text fill="#131717" xml:space="preserve" transform="matrix(1 0 -0 1 0 1323.88)" font-size="43.9155" font-family="Montserrat"><tspan y="-863.0818" x="266.00886 289.7232">98</tspan></text>
<text fill="#131717" xml:space="preserve" transform="matrix(1 0 -0 1 0 1323.88)" font-size="43.9155" font-family="Montserrat"><tspan y="-877.2665" x="233.95053 245.58814">19</tspan></text>
<text xml:space="preserve" transform="matrix(1 0 -0 1 0 1323.88)" font-size="4.5146" font-family="Montserrat" font-weight="bold"><tspan y="-947.9138" x="241.4854 244.5147 249.2505 252.36557 253.72447 255.62963 258.47834 259.75596 261.11485 263.5121 264.7897 267.57524 270.6903 273.8054 276.76246 278.12135 281.24095 283.12849 285.9772 289.10133 290.37895 293.1604 295.76939 298.4199 299.77879 302.8803 305.27757 306.63645 309.26939 312.1181">Empire is appointed exclusive </tspan><tspan y="-942.4963" x="241.4854 244.6095 245.9684 248.36565 250.3295 252.25724 253.61614 256.7312 259.83274 261.71983 264.67689 266.62269 267.9003 269.61585 272.5729 274.5187 275.79634 278.45137 281.5619 283.52574 286.64533 288.4331 291.07008 293.9188 297.0384 299.00224 302.10377 304.11775 306.81748 308.0951 309.8111 312.69096 315.37715">distributor for 20th-century fox </tspan><tspan y="-937.07876" x="241.4854 242.8443 245.96389 247.24152 251.55297 254.62741">in ME.</tspan></text>
<text fill="#131717" xml:space="preserve" transform="matrix(1 0 -0 1 0 1323.88)" font-size="10.6293" font-family="Montserrat"><tspan y="-956.5332" x="241.4863 250.2661 253.56119 260.162 266.4014 274.1289 277.42399 285.47038 293.87815 300.11756 309.04618">DISTRIBUTOR</tspan></text>
<clipPath id="cp2">
<path transform="matrix(1,0,0,-1,0,1323.88)" d="M 0 1323.881 L 411 1323.881 L 411 0 L 0 0 Z "/>
</clipPath>
<g clip-path="url(#cp2)">
<path transform="matrix(1,0,0,-1,118.5031,442.39643)" d="M 0 0 L 60.404 87.796 C 60.404 87.796 73.594 82.88 74.374 64.618 C 74.451 64.618 30.394 23.232 30.394 23.232 L 4.635 -1.122 C 4.635 -1.122 2.859 -.986 0 0 " fill="#231f20"/>
<path transform="matrix(1,0,0,-1,116.4104,364.9804)" d="M 0 0 C 0 0 4.885 18.393 17.998 18.625 L 40.055 -76.21 L 37.009 -77.367 Z " fill="#231f20"/>
<path transform="matrix(1,0,0,-1,232.3957,500.2187)" d="M 0 0 C -.209 -.042 -.572 -.112 -.96 -.181 L -.96 1.042 C -.96 2.438 0 2.588 0 2.588 Z M 0 -36.694 C -.845 -36.694 -.96 -36.094 -.96 -36.094 L -.96 -17.254 C -.606 -17.175 -.283 -17.081 0 -16.985 Z M -2.936 -38.445 C -3.464 -38.595 -4.105 -38.779 -4.844 -38.968 C -5.582 -39.17 -6.419 -39.363 -7.333 -39.563 C -8.248 -39.751 -9.239 -39.96 -10.294 -40.125 C -11.346 -40.315 -12.46 -40.457 -13.612 -40.608 C -14.767 -40.715 -15.958 -40.879 -17.174 -40.93 C -17.781 -40.963 -18.394 -41.012 -19.009 -41.032 C -19.624 -41.047 -20.241 -41.062 -20.859 -41.077 C -21.477 -41.098 -22.095 -41.073 -22.71 -41.059 C -23.325 -41.042 -23.938 -41.025 -24.547 -41.008 C -25.154 -40.964 -25.757 -40.921 -26.353 -40.877 C -26.948 -40.836 -27.536 -40.788 -28.112 -40.705 C -29.267 -40.56 -30.383 -40.433 -31.434 -40.208 C -31.96 -40.108 -32.472 -40.01 -32.967 -39.916 C -33.462 -39.831 -33.94 -39.677 -34.392 -39.569 C -36.208 -39.104 -37.716 -38.669 -38.774 -38.387 C -39.831 -38.094 -40.433 -37.911 -40.433 -37.911 C -40.433 -37.911 -39.82 -37.999 -38.75 -38.178 C -37.681 -38.368 -36.15 -38.607 -34.32 -38.952 C -33.404 -39.145 -32.421 -39.252 -31.368 -39.4 C -30.321 -39.569 -29.21 -39.63 -28.063 -39.748 C -26.918 -39.877 -25.729 -39.867 -24.523 -39.958 C -23.92 -39.968 -23.312 -39.979 -22.701 -39.989 C -22.091 -39.997 -21.478 -40.013 -20.865 -39.989 C -20.252 -39.98 -19.639 -39.971 -19.027 -39.962 C -18.417 -39.95 -17.809 -39.907 -17.206 -39.881 C -15.998 -39.835 -14.812 -39.732 -13.662 -39.655 C -12.516 -39.53 -11.403 -39.456 -10.353 -39.319 C -9.301 -39.202 -8.308 -39.066 -7.39 -38.945 C -6.474 -38.803 -5.632 -38.696 -4.888 -38.57 C -4.143 -38.455 -3.495 -38.334 -2.961 -38.237 C -2.428 -38.135 -2.008 -38.055 -1.723 -38.001 C -1.437 -37.942 -1.284 -37.911 -1.284 -37.911 C -1.284 -37.911 -1.88 -38.13 -2.936 -38.445 M -18.92 -66.311 L -19.358 -64.308 L -4.245 -41.029 L -2.246 -40.546 Z M -6.546 -79.034 C -6.837 -79.287 -6.971 -79.796 -6.847 -80.261 L -6.827 -80.335 L -16.435 -65.647 L -16.11 -65.145 Z M -6.206 -80.396 C -6.104 -80.711 -5.95 -81.157 -5.783 -81.701 C -5.444 -82.787 -5.021 -84.25 -4.626 -85.727 C -4.233 -87.205 -3.868 -88.697 -3.617 -89.828 C -3.489 -90.393 -3.397 -90.87 -3.326 -91.201 C -3.259 -91.534 -3.225 -91.727 -3.225 -91.727 C -3.225 -91.727 -3.29 -91.55 -3.395 -91.236 C -3.495 -90.92 -3.65 -90.475 -3.817 -89.931 C -4.156 -88.845 -4.579 -87.382 -4.974 -85.905 C -5.366 -84.426 -5.73 -82.934 -5.982 -81.803 C -6.11 -81.239 -6.202 -80.761 -6.273 -80.43 C -6.341 -80.097 -6.375 -79.905 -6.375 -79.905 C -6.375 -79.905 -6.311 -80.082 -6.206 -80.396 M -18.436 -68.741 L -16.876 -66.329 L -6.201 -82.683 L -4.017 -90.881 Z M -25.551 -53.021 L -28.673 -53.021 L -31.419 -48.804 L -36.689 -40.711 C -35.488 -40.999 -34.282 -41.248 -33.073 -41.47 Z M -24.459 -53.021 L -24.693 -53.021 L -29.133 -46.234 Z M -15.011 -45.622 L -26.707 -45.622 L -28.998 -42.104 C -26.292 -42.433 -23.575 -42.598 -20.858 -42.598 C -18.143 -42.598 -15.426 -42.433 -12.72 -42.104 Z M -16.166 -53.021 L -8.644 -41.47 C -7.436 -41.248 -6.229 -40.999 -5.028 -40.711 L -13.044 -53.021 Z M -16.587 -48.042 L -19.829 -53.021 L -21.889 -53.021 L -25.131 -48.042 Z M -14.34 -45.705 L -18.854 -53.021 L -19.11 -53.021 Z M -15.813 -46.586 L -24.835 -46.586 L -25.246 -45.882 L -15.344 -45.882 Z M -26.491 -54.377 L -27.054 -53.434 L -13.489 -53.434 L -14.133 -54.377 Z M -19.027 -57.414 L -18.044 -55.904 L -14.922 -55.904 L -17.466 -59.811 Z M -22.808 -55.904 L -22.474 -55.904 L -21.49 -57.333 C -21.492 -57.36 -21.496 -57.387 -21.496 -57.415 C -21.496 -57.903 -21.211 -58.299 -20.858 -58.299 C -20.848 -58.299 -20.838 -58.295 -20.827 -58.294 L -18.593 -61.54 L -18.856 -61.945 Z M -20.858 -60.226 L -19.296 -62.621 L -20.858 -65.02 L -22.422 -62.621 Z M -24.251 -59.811 L -26.795 -55.904 L -23.673 -55.904 L -23.044 -56.87 L -22.69 -57.414 Z M -22.333 -57.962 L -22.113 -58.3 L -23.632 -60.762 L -23.895 -60.358 Z M 0 -100.845 C .959 -102.303 -.646 -102.721 -1.198 -101.795 L -40.662 -40.588 L -38.619 -41.082 L -21.601 -67.418 C -21.844 -67.708 -22 -68.132 -22 -68.611 C -22 -69.486 -21.489 -70.194 -20.858 -70.194 C -20.559 -70.194 -20.287 -70.03 -20.083 -69.767 Z M -41.522 -101.236 C -42.073 -102.162 -43.001 -100.706 -42.042 -99.249 L -22.76 -69.548 L -21.888 -70.896 Z M -38.84 -91.201 C -38.769 -90.87 -38.677 -90.393 -38.549 -89.828 C -38.298 -88.697 -37.933 -87.205 -37.54 -85.727 C -37.145 -84.25 -36.722 -82.787 -36.383 -81.701 C -36.216 -81.157 -36.062 -80.711 -35.96 -80.396 C -35.855 -80.082 -35.791 -79.905 -35.791 -79.905 C -35.791 -79.905 -35.825 -80.097 -35.893 -80.43 C -35.964 -80.761 -36.056 -81.239 -36.184 -81.803 C -36.436 -82.934 -36.8 -84.426 -37.192 -85.905 C -37.587 -87.382 -38.01 -88.845 -38.349 -89.931 C -38.516 -90.475 -38.671 -90.92 -38.771 -91.236 C -38.876 -91.55 -38.941 -91.727 -38.941 -91.727 C -38.941 -91.727 -38.907 -91.534 -38.84 -91.201 M -24.842 -66.329 L -23.282 -68.741 L -37.721 -90.912 L -35.431 -82.552 Z M -37.547 -81.293 L -26.31 -64.061 L -25.98 -64.568 L -35.239 -79.57 C -35.282 -79.531 -35.329 -79.497 -35.38 -79.471 C -35.763 -79.27 -36.191 -79.536 -36.336 -80.067 L -36.967 -82.37 L -37.177 -82.709 C -37.603 -83.424 -38.289 -82.42 -37.547 -81.293 M -40.188 -32.428 L -38.809 -30.764 C -38.809 -30.764 -38.704 -31.04 -37.938 -31.2 L -40.188 -33.672 Z M -40.188 -24.038 L -38.99 -23.667 L -38.99 -30.492 L -40.188 -31.885 Z M -37.977 -23.352 L -37.977 -30.604 C -38.542 -30.604 -38.628 -30.004 -38.628 -30.004 L -38.628 -23.554 Z M -38.238 -21.325 L -38.628 -21.445 L -38.628 -21.16 C -38.628 -20.029 -37.977 -20.128 -37.977 -20.128 L -37.977 -21.312 C -38.062 -21.296 -38.149 -21.297 -38.238 -21.325 M -4.587 -22.863 L -4.587 -30.604 C -5.259 -30.604 -5.361 -30.004 -5.361 -30.004 L -5.361 -21.16 C -5.361 -20.029 -4.587 -20.128 -4.587 -20.128 L -4.587 -21.561 C -4.658 -21.682 -4.714 -21.824 -4.74 -21.987 C -4.792 -22.309 -4.727 -22.627 -4.587 -22.863 M -1.53 -32.428 L -1.53 -33.672 L -3.778 -31.2 C -3.014 -31.04 -2.909 -30.764 -2.909 -30.764 Z M -2.727 -30.35 L -2.727 -23.667 L -1.53 -24.038 L -1.53 -31.776 Z M -40.188 -17.345 C -27.344 -19.385 -14.374 -19.39 -1.53 -17.361 L -1.53 -21.93 L -2.727 -21.558 L -2.727 -20.875 C -2.727 -20.048 -3.211 -19.377 -3.807 -19.377 L -4.687 -19.377 C -5.283 -19.377 -5.767 -20.048 -5.767 -20.875 L -5.767 -30.684 C -15.67 -33.712 -26.049 -33.712 -35.95 -30.684 L -35.95 -20.875 C -35.95 -20.048 -36.434 -19.377 -37.03 -19.377 L -37.91 -19.377 C -38.507 -19.377 -38.99 -20.048 -38.99 -20.875 L -38.99 -21.558 L -40.188 -21.93 Z M -38.525 -1.863 C -37.468 -1.956 -35.956 -2.056 -34.146 -2.233 C -33.239 -2.333 -32.262 -2.384 -31.223 -2.452 C -30.186 -2.531 -29.09 -2.549 -27.959 -2.616 C -26.827 -2.682 -25.656 -2.685 -24.467 -2.724 C -23.277 -2.727 -22.069 -2.744 -20.86 -2.723 C -19.652 -2.723 -18.443 -2.718 -17.254 -2.684 C -16.064 -2.667 -14.895 -2.606 -13.762 -2.567 C -12.629 -2.512 -11.534 -2.459 -10.495 -2.409 C -9.457 -2.358 -8.476 -2.291 -7.569 -2.229 C -6.664 -2.164 -5.833 -2.104 -5.097 -2.051 C -4.361 -1.991 -3.72 -1.938 -3.19 -1.895 C -2.563 -1.838 -2.101 -1.796 -1.824 -1.771 L -1.822 -1.802 C -2.097 -1.855 -2.557 -1.941 -3.181 -2.046 C -4.233 -2.211 -5.737 -2.459 -7.548 -2.667 C -9.359 -2.871 -11.474 -3.099 -13.742 -3.244 C -14.878 -3.3 -16.05 -3.378 -17.243 -3.412 C -18.435 -3.463 -19.646 -3.486 -20.858 -3.504 C -22.07 -3.511 -23.282 -3.473 -24.476 -3.453 C -25.668 -3.397 -26.842 -3.376 -27.977 -3.294 C -29.112 -3.224 -30.209 -3.147 -31.247 -3.021 C -32.284 -2.907 -33.271 -2.811 -34.172 -2.672 C -35.979 -2.425 -37.481 -2.17 -38.534 -2.015 C -39.587 -1.843 -40.188 -1.745 -40.188 -1.745 C -40.188 -1.745 -39.583 -1.788 -38.525 -1.863 M -42.536 -36.694 C -43.381 -36.694 -43.495 -36.094 -43.495 -36.094 L -43.495 1.042 C -43.495 2.438 -42.536 2.588 -42.536 2.588 Z M .67 3.478 L .226 3.478 C -.744 3.478 -1.53 2.388 -1.53 1.042 L -1.53 -.276 C -14.374 -2.306 -27.344 -2.3 -40.188 -.26 L -40.188 1.042 C -40.188 2.388 -40.974 3.478 -41.943 3.478 L -42.387 3.478 C -43.356 3.478 -44.143 2.388 -44.143 1.042 L -44.143 -36.489 L -34.192 -51.873 L -26.663 -63.514 L -38.056 -81.009 C -38.566 -81.793 -38.507 -83.009 -37.925 -83.689 C -37.774 -83.864 -37.604 -83.982 -37.428 -84.052 L -40.458 -95.116 L -42.903 -98.87 C -43.588 -99.922 -43.53 -101.545 -42.772 -102.498 C -42.011 -103.455 -40.834 -103.37 -40.148 -102.31 L -20.858 -72.487 L -1.569 -102.31 C -.883 -103.37 .294 -103.455 1.055 -102.498 C 1.812 -101.545 1.87 -99.922 1.186 -98.87 L -1.341 -94.991 L -4.258 -84.043 C -4.092 -83.971 -3.934 -83.854 -3.793 -83.689 C -3.21 -83.009 -3.15 -81.793 -3.661 -81.009 L -15.055 -63.514 L 2.425 -36.489 L 2.425 1.042 C 2.425 2.388 1.64 3.478 .67 3.478 " fill="#231f20"/>
</g>
<text xml:space="preserve" transform="matrix(1 0 -0 1 0 1323.88)" font-size="4.5146" font-family="Montserrat" font-weight="bold"><tspan y="-566.8831" x="130.5566 133.58589 138.3217 141.43677 142.79567 144.70082 147.54953 148.82717 150.18607 152.58332 153.86095 155.8248 158.97147 161.82018 163.09781 166.56502 168.50267 170.89992 172.86377 174.1414 176.0285 178.98557">Empire is the &#xfb01;rst to </tspan><tspan y="-561.4656" x="130.5566 133.4053 136.52039 139.62192 140.98082 144.09589 145.37352 146.73242 148.69628 151.09352 152.37116 155.03928 156.39818 159.54485 162.39356 167.12937 169.91487 172.31212 173.58975 177.81993 179.17884 181.14269 184.26227">equip its cinemas with </tspan><tspan y="-556.04806" x="130.5566 133.6807 135.0396 138.19982 139.55872 141.52257 144.30808 145.66698 146.94461 150.0597 151.9653 154.92237 156.30835 159.15706 161.86084 163.74884 166.7059 168.64221 171.03946">digital projectors.</tspan></text>
<text fill="#131717" xml:space="preserve" transform="matrix(1 0 -0 1 0 1323.88)" font-size="10.5554" font-family="Montserrat"><tspan y="-587.7358" x="130.4658 139.18457 142.45674 150.60552 153.87769 160.0737 167.80025 174.07016">DIGITAL </tspan><tspan y="-575.0693" x="130.4658 138.0868 145.76059 154.62712 160.04204 167.11415 174.74571 180.94173 184.2139 193.08043">PROJECTION</tspan></text>
<text fill="#131717" xml:space="preserve" transform="matrix(1 0 -0 1 0 1323.88)" font-size="43.61" font-family="Montserrat"><tspan y="-599.4106" x="127.4023 153.1322">09</tspan></text>
<text xml:space="preserve" transform="matrix(1 0 -0 1 0 1323.88)" font-size="4.5146" font-family="Montserrat" font-weight="bold"><tspan y="-682.1497" x="100.6182 103.6475 108.383319 111.49839 112.857288 114.76244 117.61115 118.88879 121.84585 124.96092 127.80963 130.92922 133.32646 134.6041 137.56116 139.3083 142.77552 145.41249 148.2612 149.53884 150.89774 154.01732">Empire opens of&#xfb01;ce in </tspan><tspan y="-676.7322" x="100.6182 103.62899 106.78921 109.48894 112.60401 114.61301 115.79583 117.07346 119.51586 122.47292 124.37718 127.50128 130.28679 133.40637 134.5892 135.86684 138.65235 141.79857 144.92267 146.2003 147.68109 149.59482 152.40741 155.52249">Egypt, Jordan, and Iraq.</tspan></text>
<text fill="#131717" xml:space="preserve" transform="matrix(1 0 -0 1 0 1323.88)" font-size="43.61" font-family="Montserrat"><tspan y="-721.4263" x="91.5693 103.125949">19</tspan></text>
<text fill="#131717" xml:space="preserve" transform="matrix(1 0 -0 1 0 1323.88)" font-size="43.61" font-family="Montserrat"><tspan y="-705.77029" x="123.09933 146.64873">99</tspan></text>
<text fill="#131717" xml:space="preserve" transform="matrix(1 0 -0 1 0 1323.88)" font-size="10.5554" font-family="Montserrat"><tspan y="-691.439" x="99.623 109.70341 118.56995 126.24372 133.31584 136.15525 145.02178 151.72446 158.42714 161.69931 169.33087 176.40299">MORE OFFICES</tspan></text>
<text xml:space="preserve" transform="matrix(1 0 -0 1 0 1323.88)" font-size="4.5146" font-family="Montserrat" font-weight="bold"><tspan y="-475.6843" x="233.1895 236.2188 240.9546 244.06967 245.42858 247.33373 250.18244 251.46007 254.24558 257.3927 260.5168 261.79444 265.01786 267.9749 269.3338 272.43534 277.17115 280.28623 281.6451 284.43064 285.70826 288.82334 290.18223 292.88603 294.84986 297.9514 299.85658 302.7053 305.10255">Empire and Columbia pictures </tspan><tspan y="-470.26679" x="233.1895 235.82602 238.67473 240.03363 242.88234 245.9974 247.91159 250.6971 252.58376 255.43247 256.71009 259.39628 262.46168 263.7393 266.37178 269.1523 271.93785 273.87416 276.2714 277.549 280.50608 282.25325 283.53086 285.9281 289.02964 291.66615 294.30265 297.15138 299.5486 301.94587">celebrate 50 years of success.</tspan></text>
<text fill="#131717" xml:space="preserve" transform="matrix(1 0 -0 1 0 1323.88)" font-size="43.61" font-family="Montserrat"><tspan y="-528.0391" x="229.7969 250.64249">20</tspan></text>
<text fill="#131717" xml:space="preserve" transform="matrix(1 0 -0 1 0 1323.88)" font-size="43.61" font-family="Montserrat"><tspan y="-512.3831" x="275.19493 287.97267">13</tspan></text>
<text fill="#131717" xml:space="preserve" transform="matrix(1 0 -0 1 0 1323.88)" font-size="10.5554" font-family="Montserrat"><tspan y="-497.9023" x="232.1953 238.89798 242.17015 248.87284 255.06885">FIFTY</tspan><tspan y="-485.23585" x="232.1953 239.02465 246.09676 253.8233 261.49708">YEARS</tspan></text>
<clipPath id="cp3">
<path transform="matrix(1,0,0,-1,0,1323.88)" d="M 0 1323.881 L 411 1323.881 L 411 0 L 0 0 Z "/>
</clipPath>
<g clip-path="url(#cp3)">
<path transform="matrix(1,0,0,-1,250.049,706.1904)" d="M 0 0 C 0 -14.43 -11.698 -26.128 -26.129 -26.128 L -26.129 -29.987 C -9.567 -29.987 3.858 -16.562 3.858 0 C 3.858 16.562 -9.567 29.987 -26.129 29.987 L -26.129 26.129 C -11.698 26.129 0 14.431 0 0 " fill="#231f20"/>
<path transform="matrix(1,0,0,-1,259.7531,706.1904)" d="M 0 0 C 0 -19.881 -16.117 -35.998 -35.999 -35.998 L -35.999 -41.315 C -13.182 -41.315 5.316 -22.817 5.316 0 C 5.316 22.818 -13.182 41.315 -35.999 41.315 L -35.999 35.999 C -16.117 35.999 0 19.882 0 0 " fill="#231f20"/>
<path transform="matrix(1,0,0,-1,244.4113,706.1904)" d="M 0 0 C 0 11.317 -9.174 20.491 -20.491 20.491 L -20.491 -20.491 C -9.174 -20.491 0 -11.316 0 0 " fill="#231f20"/>
</g>
<text xml:space="preserve" transform="matrix(1 0 -0 1 0 1323.88)" font-size="4.5146" font-family="Montserrat" font-weight="bold"><tspan y="-348.6091" x="115.0029 118.032199 122.76801 125.88309 127.24198 129.14714 131.99585 133.27349 135.91 138.91176 140.65439 143.76947 145.67462 148.63169 151.75579 154.85732 157.49384 160.34255 162.73979 164.01743 165.37633 167.34018 169.73743">Empire co-produces its </tspan><tspan y="-343.1916" x="115.0029 118.47011 120.407779 122.80503 124.76888 126.04652 129.0758 133.81162 135.17052 137.0847 139.87021 141.83406 143.19297 144.4706 149.23305 152.12285 154.82259 156.18149 159.0302">&#xfb01;rst Emirati movie </tspan><tspan y="-337.77409" x="115.0029 118.650699 121.4362 122.82218 126.97065 129.75617 131.11507 133.90058 135.1782 137.88698">Hajwala 2.</tspan></text>
<text fill="#131717" xml:space="preserve" transform="matrix(1 0 -0 1 0 1323.88)" font-size="10.5554" font-family="Montserrat"><tspan y="-368.9697" x="115.002 122.07412 132.15453 139.77553 143.0477 150.72148">EMPIRE</tspan><tspan y="-356.30323" x="115.002 122.72855 134.61394 142.34049 150.01427">AWARD</tspan></text>
<text xml:space="preserve" transform="matrix(1 0 -0 1 0 1323.88)" font-size="4.5146" font-family="Montserrat" font-weight="bold"><tspan y="-153.8362" x="105.0918 108.12109 112.85691 115.971988 117.33088 119.23604 122.08475 123.36238 126.31944 129.43451 132.28322 135.4028 137.80005 139.07769 140.43659 142.40044 144.79769 146.07532 149.18137 151.99486 155.15508 157.55233 160.6719 162.0308 165.14588">Empire opens its &#xfb02;agship </tspan><tspan y="-148.41867" x="105.0918 109.827617 112.929149 114.46411 116.42796 117.78686 120.90193 122.260829 125.04182 127.728008 129.00563 130.36454 133.48412 134.76175 138.21994 141.33502 144.4546 147.24011 148.51775 152.74793 154.10683 156.07068 159.19026">multiplex in Abha with </tspan><tspan y="-143.00115" x="105.0918 107.05565 110.202327 113.05103 114.32867 117.44374 118.802639 121.96285 125.12307 127.97178 130.36904 132.33289 133.61052 135.09131 139.40276 142.69843 145.92185 147.19948 149.59673 152.26485 154.17 157.0187 159.86742 162.987">the biggest IMAX screen </tspan><tspan y="-137.58362" x="105.0918 107.877307 111.02489 114.14899 115.42662 117.39047 120.5367 123.38541 124.66304 128.13025 130.06656 132.4638 134.42766 135.70529 138.81586 142.43161 145.65503 146.93267 148.29157 151.41115 152.68878 154.65264 157.79976 160.64847">and the &#xfb01;rst 4DX in the </tspan><tspan y="-132.16609" x="105.0918 108.38746 109.74635 112.89303 116.053249 119.177349 122.13441 126.870227">Kingdom.</tspan></text>
<text fill="#131717" xml:space="preserve" transform="matrix(1 0 -0 1 0 1323.88)" font-size="10.5554" font-family="Montserrat"><tspan y="-174.1968" x="105.0908 112.16292 122.243328 129.86432 133.13649 140.81027">EMPIRE</tspan><tspan y="-161.53032" x="105.0908 112.16292 119.2667 126.8877 133.95983 141.6336 144.90578 151.97789 160.54888 168.18044">EXPERIENCE</tspan></text>
<text xml:space="preserve" transform="matrix(1 0 -0 1 0 1323.88)" font-size="4.5146" font-family="Montserrat" font-weight="bold"><tspan y="-116.512" x="233.3506 236.3799 241.1157 244.23078 245.58968 247.49483 250.34354 251.62117 254.73624 257.83778 259.77409 262.17134 265.27287 268.12159 271.2457 272.52333 273.8822 275.84605 278.2433 279.5209 282.30146 284.98765 288.06166 290.84718 293.96678 296.364 297.7229 300.67997 303.79957">Empire pursued its expansion </tspan><tspan y="-111.09448" x="233.3506 236.05034 237.40924 239.80649 241.16539 244.12245 247.24204 248.51967 249.87857 252.99816 255.78366 258.8852 262.0454 265.14695 267.0607 269.84623 271.81007 273.16896 276.3152 279.4754 280.75303 283.53855 286.65815 287.93577 289.70549 292.68513">vision inaugurating an 18 </tspan><tspan y="-105.67696" x="233.3506 235.74785 238.41597 240.32112 243.16983 246.01854 249.13813 250.41576 255.15157 258.25309 259.78849 261.75233 263.1112 266.2263 267.58518 270.36528 273.05146 274.32908 275.68797 278.80757 280.08518 282.5276 285.3763 288.50044 291.62455 294.41007 297.52967">screen multiplex in Jeddah </tspan><tspan y="-100.259449" x="233.3506 235.0666 238.02367 239.38257 240.74147 243.63036 247.79328 250.64199 253.76609 255.04372 259.2739 260.63279 262.59663 265.71623 266.99385 269.77937 272.92695 275.884 277.84785 280.99409 283.8428 285.7886 287.06623 291.82914 294.67787 297.83808 300.6236">followed with another mega </tspan><tspan y="-94.84193" x="233.3506 236.46567 238.37082 241.32788 242.71387 245.56258 248.26636 250.23021 251.50785 252.86675 255.98633 257.26396 260.60475 263.75144 266.7085 269.7825 272.56803 274.46958 275.6524 276.93003 280.22569 281.58457 284.73216 287.89237 291.01649 293.97355 298.70936 299.98698 302.94404 304.6912">project in Khobar, Kingdom of </tspan><tspan y="-89.42441" x="233.3506 236.23091 239.01642 242.11795 245.24205 246.60095 247.87859 251.33678 253.25096 256.03648 259.15156 260.51045 263.29597 264.4788">Saudi Arabia. </tspan></text>
<text fill="#131717" xml:space="preserve" transform="matrix(1 0 -0 1 0 1323.88)" font-size="10.5554" font-family="Montserrat"><tspan y="-136.8755" x="233.3496 240.4217 250.50212 258.1231 261.3953 269.06907">EMPIRE</tspan><tspan y="-124.20902" x="233.3496 240.4217 247.5255 255.1465 262.87306 271.44404 280.16279 283.43498 292.00596">EXPANDING</tspan></text>
<text fill="#131717" xml:space="preserve" transform="matrix(1 0 -0 1 0 1323.88)" font-size="43.61" font-family="Montserrat"><tspan y="-381.1357" x="140.4717 153.24942">18</tspan></text>
<text xml:space="preserve" transform="matrix(1 0 -0 1 0 1323.88)" font-size="4.5146" font-family="Montserrat" font-weight="bold"><tspan y="-259.2327" x="234.4033 237.4326 242.16841 245.28348 246.64238 248.54753 251.39624 252.67388 254.03278 256.8183 259.91984 263.06608 265.71659 268.86329 271.712 274.10926 275.38688 278.5471 281.3326 286.06843 287.4273 290.574 293.73423 295.01185 298.29847">Empire launches gaming &#x0026; </tspan><tspan y="-253.81517" x="234.4033 235.7622 237.12111 239.75763 242.60634 245.72592 248.12317 249.48207 252.6283 255.78852 257.06614 260.19026 263.03898 266.11299 268.8985 270.91203 272.87586 277.6383 280.48704 283.60664 285.61653">licensing department.</tspan><tspan y="-248.39765" x="234.4033 237.4326 242.16841 245.28348 246.64238 248.54753 251.39624 252.67388 256.14109 259.2882 262.41233 264.80958 266.0872 268.8727 270.15034 273.29704 276.10063 280.3308 281.60844 284.75514 287.7122 292.47465 295.32337">Empire &#xfb01;nds a new home </tspan><tspan y="-242.98012" x="234.4033 235.7622 238.54772 241.64925 244.79592 247.44599 250.56557 251.92447 255.0707 258.23094 259.50856 260.86744 262.83128 265.22853 266.50614 269.97337 271.90968 274.30693 276.27076 277.54838 280.2165 281.57539 284.72163 287.57035 292.30616 295.09169 296.3693 297.72819 300.84779 302.1254 304.08924 307.23683 310.08555">launching its &#xfb01;rst cinema in the </tspan><tspan y="-237.56259" x="234.4033 237.69896 239.05786 242.20453 245.36475 248.48885 251.4459 256.18174 257.45936 260.4164 262.16358 263.4412 266.3215 269.10704 272.20857 275.33268 276.69157 277.96919 281.42738 283.34248 286.128 289.24308 290.60197 293.38749 294.5703 295.84794 298.29035 299.64924 302.10066 304.88618 308.00578">Kingdom of Saudi Arabia, Jizan.</tspan></text>
<text fill="#131717" xml:space="preserve" transform="matrix(1 0 -0 1 0 1323.88)" font-size="43.61" font-family="Montserrat"><tspan y="-314.5581" x="231.9678 252.81339">20</tspan><tspan y="-608.4895" x="84.08629 104.93187">20</tspan><tspan y="-389.74177" x="94.77074 115.61632">20</tspan></text>
<text fill="#131717" xml:space="preserve" transform="matrix(1 0 -0 1 0 1323.88)" font-size="43.61" font-family="Montserrat"><tspan y="-298.90214" x="277.67109 290.44883">19</tspan></text>
<text fill="#131717" xml:space="preserve" transform="matrix(1 0 -0 1 0 1323.88)" font-size="10.5554" font-family="Montserrat"><tspan y="-283.9927" x="233.5889 242.15988 250.5092 259.0802 267.79896 275.47273 282.54484">HUNDRED</tspan><tspan y="-271.32624" x="233.5889 240.41825 247.49036 255.2169 262.8907">YEARS</tspan></text>
<clipPath id="cp4">
<path transform="matrix(1,0,0,-1,0,1323.88)" d="M 0 1323.881 L 411 1323.881 L 411 0 L 0 0 Z "/>
</clipPath>
<g clip-path="url(#cp4)">
<path transform="matrix(1,0,0,-1,241.4631,970.7509)" d="M 0 0 C 1.164 -.018 1.828 -.027 1.828 -.027 C 1.828 -.027 1.164 -.037 0 -.055 C -1.163 -.066 -2.824 -.092 -4.818 -.106 C -6.812 -.125 -9.139 -.14 -11.631 -.149 C -12.254 -.151 -12.888 -.154 -13.529 -.156 C -13.85 -.157 -14.172 -.158 -14.496 -.16 L -14.984 -.16 L -15.229 -.161 C -15.319 -.161 -15.433 -.156 -15.531 -.143 C -15.941 -.093 -16.281 .083 -16.387 .3 C -16.401 .326 -16.411 .356 -16.419 .388 C -16.426 .421 -16.425 .427 -16.428 .464 L -16.428 .595 L -16.43 .856 C -16.431 1.207 -16.433 1.559 -16.434 1.909 C -16.432 2.261 -16.431 2.612 -16.429 2.962 L -16.428 3.225 L -16.428 3.355 C -16.425 3.408 -16.416 3.466 -16.387 3.519 C -16.281 3.735 -15.94 3.912 -15.531 3.962 C -15.484 3.969 -15.421 3.973 -15.365 3.977 L -15.303 3.979 L -15.272 3.979 L -15.229 3.979 L -14.984 3.979 C -14.821 3.979 -14.658 3.979 -14.496 3.979 C -14.172 3.978 -13.85 3.976 -13.529 3.975 C -12.888 3.973 -12.254 3.971 -11.631 3.968 C -10.385 3.962 -9.181 3.955 -8.038 3.949 C -6.896 3.94 -5.815 3.933 -4.818 3.926 C -2.824 3.91 -1.163 3.885 0 3.873 C 1.164 3.856 1.828 3.847 1.828 3.847 C 1.828 3.847 1.164 3.837 0 3.819 C -1.163 3.808 -2.824 3.783 -4.818 3.768 C -5.815 3.76 -6.896 3.752 -8.038 3.743 C -9.181 3.737 -10.385 3.731 -11.631 3.725 C -12.254 3.723 -12.888 3.721 -13.529 3.718 C -13.85 3.717 -14.172 3.716 -14.496 3.715 C -14.658 3.714 -14.821 3.714 -14.984 3.714 C -15.139 3.712 -15.34 3.718 -15.411 3.702 C -15.643 3.674 -15.837 3.572 -15.895 3.45 C -15.911 3.42 -15.914 3.39 -15.917 3.355 L -15.916 3.225 L -15.915 2.962 C -15.913 2.612 -15.912 2.261 -15.91 1.909 C -15.912 1.559 -15.913 1.207 -15.915 .856 L -15.916 .595 L -15.916 .464 C -15.915 .458 -15.914 .42 -15.91 .41 C -15.905 .397 -15.903 .385 -15.894 .369 C -15.837 .247 -15.643 .145 -15.411 .117 C -15.352 .108 -15.301 .106 -15.229 .105 L -14.984 .105 L -14.496 .105 C -14.172 .104 -13.85 .103 -13.529 .102 C -12.888 .099 -12.254 .097 -11.631 .095 C -9.139 .085 -6.812 .07 -4.818 .052 C -2.824 .036 -1.163 .012 0 0 M 3.794 7.03 C 3.803 6.798 3.699 6.56 3.515 6.411 C 3.469 6.374 3.418 6.344 3.363 6.318 C 3.311 6.296 3.252 6.277 3.182 6.268 L 3.115 6.262 L 3.039 6.26 L 2.908 6.258 C 2.732 6.254 2.555 6.251 2.374 6.247 C 1.653 6.237 .893 6.227 .106 6.216 C -.681 6.205 -1.494 6.197 -2.319 6.196 C -3.146 6.194 -3.985 6.192 -4.824 6.189 C -5.663 6.193 -6.503 6.196 -7.329 6.199 C -8.154 6.208 -8.968 6.217 -9.755 6.225 C -10.541 6.23 -11.302 6.251 -12.022 6.263 C -12.744 6.279 -13.426 6.295 -14.056 6.31 C -15.314 6.342 -16.363 6.389 -17.098 6.412 C -17.465 6.424 -17.753 6.442 -17.949 6.45 C -18.146 6.46 -18.251 6.465 -18.251 6.465 C -18.251 6.465 -18.146 6.47 -17.949 6.479 C -17.753 6.487 -17.465 6.506 -17.098 6.518 C -16.363 6.541 -15.314 6.588 -14.056 6.62 C -13.426 6.635 -12.744 6.65 -12.022 6.667 C -11.302 6.679 -10.541 6.699 -9.755 6.705 C -8.968 6.714 -8.154 6.722 -7.329 6.73 C -6.503 6.733 -5.663 6.737 -4.824 6.74 C -3.985 6.738 -3.146 6.736 -2.319 6.733 C -1.494 6.733 -.681 6.725 .106 6.715 C .893 6.703 1.653 6.692 2.374 6.683 C 2.555 6.679 2.732 6.676 2.908 6.673 L 3.039 6.67 L 3.071 6.67 L 3.088 6.669 L 3.096 6.669 L 3.1 6.669 L 3.155 6.672 C 3.17 6.676 3.194 6.68 3.222 6.69 C 3.246 6.7 3.271 6.713 3.292 6.729 C 3.382 6.795 3.438 6.91 3.438 7.023 C 3.438 7.052 3.437 7.081 3.43 7.109 C 3.427 7.135 3.411 7.187 3.401 7.225 C 3.381 7.307 3.36 7.388 3.34 7.469 C 3.176 8.111 3.021 8.699 2.896 9.224 C 2.768 9.747 2.655 10.204 2.563 10.58 C 2.47 10.956 2.402 11.253 2.355 11.455 C 2.309 11.657 2.284 11.766 2.284 11.766 C 2.284 11.766 2.319 11.661 2.387 11.465 C 2.453 11.27 2.553 10.982 2.672 10.615 C 2.792 10.248 2.938 9.802 3.105 9.291 C 3.275 8.78 3.455 8.2 3.655 7.569 C 3.68 7.49 3.705 7.41 3.73 7.33 C 3.743 7.286 3.756 7.258 3.77 7.2 C 3.784 7.146 3.792 7.088 3.794 7.03 M -.866 57.335 C -.528 57.744 -.208 58.909 -.208 58.909 C .124 58.375 1.033 57.921 1.618 57.493 C 2.202 57.064 1.116 56.817 .524 56.457 C -.068 56.096 -1.239 56.257 -1.239 56.257 C -1.239 56.257 -1.205 56.925 -.866 57.335 M -1.314 57.57 C -1.333 57.545 -1.365 57.496 -1.392 57.461 L -1.448 57.372 C -1.487 57.304 -1.526 57.233 -1.562 57.162 C -1.636 57.019 -1.703 56.874 -1.763 56.747 C -1.824 56.62 -1.877 56.51 -1.918 56.432 C -1.958 56.353 -1.985 56.307 -1.985 56.307 C -1.985 56.307 -2.007 56.356 -2.027 56.445 C -2.049 56.534 -2.069 56.662 -2.072 56.817 C -2.074 56.973 -2.059 57.155 -2.006 57.348 C -1.979 57.444 -1.942 57.543 -1.896 57.641 C -1.871 57.691 -1.837 57.747 -1.809 57.794 C -1.78 57.836 -1.758 57.865 -1.721 57.915 C -1.627 58.036 -1.531 58.189 -1.438 58.332 C -1.346 58.477 -1.256 58.614 -1.174 58.731 C -1.091 58.849 -1.018 58.946 -.963 59.014 C -.908 59.081 -.873 59.119 -.873 59.119 C -.873 59.119 -.868 59.066 -.871 58.977 C -.873 58.887 -.884 58.761 -.908 58.611 C -.934 58.463 -.975 58.293 -1.037 58.115 C -1.069 58.026 -1.106 57.937 -1.15 57.845 C -1.197 57.754 -1.246 57.661 -1.314 57.57 M -14.868 56.457 C -15.46 56.817 -16.547 57.064 -15.962 57.493 C -15.377 57.921 -14.469 58.375 -14.137 58.909 C -14.137 58.909 -13.815 57.744 -13.478 57.335 C -13.139 56.925 -13.104 56.257 -13.104 56.257 C -13.104 56.257 -14.275 56.096 -14.868 56.457 M -13.639 55.743 C -13.639 55.743 -13.746 55.71 -13.939 55.678 C -14.132 55.646 -14.411 55.611 -14.751 55.625 C -14.922 55.63 -15.107 55.65 -15.306 55.698 C -15.405 55.72 -15.508 55.753 -15.612 55.793 C -15.664 55.817 -15.716 55.843 -15.768 55.867 L -15.902 55.94 C -16.085 56.041 -16.277 56.146 -16.469 56.273 C -16.66 56.398 -16.854 56.539 -17.033 56.737 C -17.122 56.836 -17.208 56.958 -17.266 57.121 C -17.327 57.281 -17.316 57.513 -17.232 57.669 C -17.151 57.826 -17.043 57.927 -16.94 58.007 C -16.891 58.044 -16.83 58.083 -16.788 58.107 C -16.744 58.134 -16.697 58.161 -16.646 58.188 C -16.448 58.296 -16.264 58.376 -16.085 58.447 C -15.91 58.518 -15.745 58.584 -15.592 58.646 C -15.441 58.706 -15.307 58.767 -15.189 58.824 C -15.071 58.882 -14.976 58.942 -14.896 58.996 C -14.82 59.053 -14.758 59.1 -14.722 59.138 C -14.683 59.175 -14.662 59.194 -14.662 59.194 C -14.662 59.194 -14.674 59.167 -14.696 59.117 C -14.719 59.066 -14.759 58.995 -14.821 58.911 C -14.883 58.828 -14.966 58.73 -15.074 58.638 C -15.179 58.541 -15.307 58.443 -15.449 58.349 C -15.591 58.251 -15.749 58.157 -15.912 58.061 C -16.072 57.962 -16.246 57.859 -16.405 57.753 C -16.578 57.641 -16.735 57.521 -16.774 57.425 C -16.79 57.379 -16.793 57.36 -16.775 57.306 C -16.757 57.253 -16.712 57.183 -16.65 57.114 C -16.529 56.976 -16.362 56.846 -16.193 56.724 C -16.021 56.603 -15.846 56.486 -15.671 56.373 C -15.627 56.344 -15.584 56.315 -15.541 56.286 C -15.503 56.263 -15.466 56.24 -15.429 56.217 C -15.354 56.174 -15.274 56.135 -15.192 56.103 C -15.029 56.039 -14.865 55.989 -14.71 55.948 C -14.555 55.911 -14.409 55.879 -14.279 55.854 C -14.148 55.829 -14.033 55.809 -13.939 55.792 C -13.748 55.761 -13.639 55.743 -13.639 55.743 M -10.378 67.47 C -10.378 67.47 -10.424 67.437 -10.509 67.373 C -10.597 67.313 -10.726 67.224 -10.896 67.125 C -11.238 66.926 -11.733 66.652 -12.344 66.365 C -12.648 66.22 -12.98 66.066 -13.337 65.915 C -13.689 65.76 -14.076 65.615 -14.451 65.452 C -15.204 65.119 -15.959 64.641 -16.576 63.999 C -16.888 63.683 -17.164 63.329 -17.403 62.956 C -17.525 62.771 -17.63 62.579 -17.735 62.392 C -17.833 62.195 -17.936 61.989 -18.02 61.799 C -18.196 61.4 -18.373 61.018 -18.544 60.654 C -18.714 60.292 -18.883 59.952 -19.052 59.645 C -19.388 59.026 -19.739 58.563 -19.978 58.238 C -20.098 58.077 -20.197 57.954 -20.265 57.869 C -20.331 57.784 -20.367 57.739 -20.367 57.739 C -20.367 57.739 -20.245 57.937 -20.032 58.28 C -19.817 58.623 -19.521 59.119 -19.228 59.744 C -18.935 60.371 -18.634 61.128 -18.298 61.934 C -18.211 62.146 -18.121 62.338 -18.024 62.545 C -17.918 62.751 -17.811 62.961 -17.683 63.154 C -17.435 63.549 -17.146 63.926 -16.818 64.265 C -16.49 64.601 -16.124 64.894 -15.743 65.144 C -15.363 65.396 -14.961 65.591 -14.566 65.754 C -14.167 65.916 -13.787 66.035 -13.429 66.173 C -13.071 66.311 -12.732 66.44 -12.42 66.561 C -11.799 66.809 -11.28 67.02 -10.928 67.189 C -10.75 67.273 -10.612 67.341 -10.519 67.391 C -10.427 67.442 -10.378 67.47 -10.378 67.47 M -12.987 44.091 C -12.956 44.843 -12.896 45.531 -12.819 46.137 C -12.748 46.744 -12.66 47.27 -12.579 47.699 C -12.496 48.13 -12.41 48.462 -12.349 48.688 C -12.282 48.911 -12.246 49.031 -12.246 49.031 C -12.246 49.031 -12.275 48.91 -12.33 48.683 C -12.382 48.454 -12.444 48.117 -12.512 47.687 C -12.576 47.255 -12.643 46.729 -12.69 46.122 C -12.742 45.517 -12.773 44.831 -12.791 44.084 C -12.808 43.336 -12.796 42.525 -12.732 41.674 C -12.722 41.46 -12.696 41.245 -12.676 41.027 C -12.657 40.81 -12.626 40.591 -12.595 40.369 C -12.567 40.146 -12.528 39.927 -12.488 39.705 C -12.455 39.483 -12.4 39.257 -12.348 39.029 C -12.126 38.132 -11.866 37.194 -11.622 36.245 C -11.377 35.294 -11.129 34.325 -10.942 33.334 C -10.854 32.841 -10.781 32.331 -10.75 31.828 C -10.717 31.317 -10.737 30.813 -10.765 30.32 C -10.823 29.335 -10.881 28.376 -10.809 27.452 C -10.776 26.992 -10.718 26.538 -10.638 26.104 C -10.604 25.889 -10.549 25.67 -10.502 25.455 C -10.449 25.243 -10.397 25.034 -10.347 24.827 C -10.135 23.999 -9.926 23.214 -9.768 22.479 C -9.604 21.744 -9.508 21.056 -9.474 20.442 C -9.437 19.829 -9.473 19.292 -9.527 18.856 C -9.543 18.748 -9.558 18.646 -9.571 18.549 C -9.587 18.452 -9.61 18.363 -9.628 18.279 C -9.663 18.112 -9.694 17.972 -9.731 17.861 C -9.798 17.637 -9.833 17.518 -9.833 17.518 C -9.833 17.518 -9.804 17.639 -9.75 17.866 C -9.719 17.979 -9.694 18.122 -9.668 18.289 C -9.637 18.455 -9.615 18.648 -9.594 18.865 C -9.557 19.298 -9.542 19.829 -9.603 20.432 C -9.661 21.034 -9.783 21.706 -9.958 22.43 C -10.132 23.154 -10.357 23.93 -10.59 24.755 C -10.647 24.963 -10.705 25.173 -10.764 25.387 C -10.815 25.601 -10.874 25.812 -10.916 26.041 C -11.014 26.49 -11.071 26.953 -11.109 27.427 C -11.191 28.375 -11.14 29.359 -11.089 30.339 C -11.065 30.828 -11.05 31.319 -11.085 31.803 C -11.12 32.294 -11.193 32.775 -11.284 33.264 C -11.462 34.237 -11.699 35.205 -11.937 36.155 C -12.174 37.109 -12.423 38.035 -12.642 38.955 C -12.693 39.183 -12.745 39.408 -12.779 39.642 C -12.799 39.758 -12.818 39.872 -12.837 39.987 C -12.854 40.102 -12.864 40.215 -12.878 40.328 C -12.905 40.555 -12.931 40.778 -12.944 41 C -12.961 41.222 -12.98 41.44 -12.986 41.656 C -13.029 42.521 -13.022 43.338 -12.987 44.091 M -21.066 58.291 C -21.99 56.981 -22.284 55.738 -21.895 54.79 C -21.672 54.246 -21.129 53.565 -19.809 53.41 C -19.309 53.352 -18.757 53.323 -18.122 53.323 C -17.51 53.323 -16.915 53.349 -16.339 53.373 C -15.838 53.395 -15.365 53.415 -14.943 53.415 C -14.652 53.415 -14.413 53.405 -14.211 53.386 C -13.636 53.328 -13.458 53.224 -13.253 53.102 C -13.125 53.026 -12.982 52.942 -12.795 52.871 C -12.737 52.042 -12.706 50.546 -13.078 49.311 C -13.749 47.08 -14.155 41.908 -13.292 38.551 C -13.18 38.114 -13.07 37.695 -12.966 37.292 C -12.318 34.801 -11.85 33 -11.78 31.641 C -11.755 31.159 -11.784 30.623 -11.815 30.055 C -11.886 28.744 -11.975 27.112 -11.46 25.115 C -11.366 24.752 -11.268 24.391 -11.174 24.042 C -10.564 21.795 -10.038 19.854 -10.663 17.8 C -11.013 16.651 -11.568 15.706 -12.157 14.706 C -12.463 14.186 -12.772 13.654 -13.052 13.095 L -15.515 13.095 C -16.328 13.095 -17.06 12.519 -17.292 11.693 L -18.753 6.516 C -18.755 6.509 -18.755 6.503 -18.756 6.496 C -18.763 6.471 -18.767 6.445 -18.769 6.419 C -18.771 6.403 -18.772 6.389 -18.773 6.374 C -18.773 6.368 -18.774 6.363 -18.774 6.357 L -18.774 -.161 C -18.774 -1.339 -17.868 -2.298 -16.754 -2.298 L 2.41 -2.298 C 3.524 -2.298 4.431 -1.339 4.431 -.161 L 4.431 6.357 C 4.431 6.363 4.43 6.368 4.429 6.374 C 4.429 6.389 4.427 6.403 4.425 6.419 C 4.422 6.445 4.418 6.471 4.412 6.496 C 4.41 6.503 4.411 6.509 4.409 6.516 L 2.948 11.693 C 2.715 12.519 1.984 13.095 1.17 13.095 L -1.293 13.095 C -1.572 13.654 -1.881 14.186 -2.187 14.706 C -2.775 15.706 -3.331 16.651 -3.681 17.8 C -4.306 19.854 -3.78 21.795 -3.171 24.042 C -3.076 24.391 -2.979 24.752 -2.885 25.115 C -2.369 27.112 -2.458 28.744 -2.529 30.055 C -2.56 30.623 -2.589 31.159 -2.564 31.641 C -2.494 33 -2.026 34.801 -1.378 37.292 C -1.273 37.695 -1.164 38.114 -1.052 38.551 C -.188 41.908 -.595 47.08 -1.267 49.311 C -1.637 50.54 -1.605 52.04 -1.548 52.871 C -1.361 52.942 -1.219 53.026 -1.092 53.102 C -.886 53.224 -.708 53.328 -.133 53.386 C .069 53.405 .309 53.415 .6 53.415 C 1.021 53.415 1.494 53.395 1.995 53.373 C 2.57 53.349 3.166 53.323 3.778 53.323 C 4.413 53.323 4.965 53.352 5.465 53.41 C 6.784 53.565 7.328 54.246 7.551 54.79 C 7.94 55.738 7.646 56.981 6.722 58.291 C 5.679 59.77 5.55 60.067 4.549 62.388 C 3.657 64.454 2.187 65.843 .053 66.634 C -1.189 67.095 -2.949 67.868 -3.488 68.241 C -3.828 68.477 -4.122 69.066 -3.965 69.805 C -3.915 70.039 -3.857 70.216 -3.796 70.402 C -3.538 71.191 -3.378 71.875 -3.51 74.1 C -3.666 76.749 -5.51 77.689 -7.041 77.689 C -7.094 77.689 -7.138 77.688 -7.172 77.687 C -7.206 77.688 -7.25 77.689 -7.303 77.689 C -8.834 77.689 -10.678 76.749 -10.834 74.1 C -10.966 71.875 -10.807 71.191 -10.548 70.402 C -10.486 70.216 -10.429 70.039 -10.379 69.805 C -10.222 69.066 -10.517 68.477 -10.856 68.241 C -11.395 67.868 -13.154 67.095 -14.396 66.634 C -16.53 65.843 -18.001 64.454 -18.893 62.388 C -19.894 60.067 -20.022 59.77 -21.066 58.291 " fill="#231f20"/>
<path transform="matrix(1,0,0,-1,238.2082,890.05459)" d="M 0 0 C -.077 -.367 -.153 -.733 -.229 -1.1 C -.398 -1.897 -.567 -2.695 -.737 -3.492 C -.799 -3.79 -.862 -4.088 -.926 -4.385 C -.953 -4.509 -.993 -4.636 -1.001 -4.766 L -1.012 -4.766 C -1.012 -4.785 -1.061 -4.777 -1.079 -4.777 L -1.692 -4.777 L -3.388 -4.777 L -3.733 -4.777 C -3.79 -4.777 -3.863 -4.769 -3.911 -4.788 L -6.054 -4.788 C -6.159 -4.788 -6.769 -4.803 -6.807 -4.771 C -6.843 -4.739 -6.861 -4.588 -6.87 -4.538 C -6.922 -4.291 -6.975 -4.045 -7.026 -3.799 C -7.228 -2.852 -7.43 -1.904 -7.632 -.957 C -7.683 -.715 -7.733 -.472 -7.784 -.229 C -7.804 -.138 -7.85 -.024 -7.831 .074 C -7.818 .139 -7.776 .162 -7.727 .194 C -7.675 .185 -7.626 .169 -7.586 .136 C -7.532 .089 -7.499 .021 -7.46 -.035 C -7.392 -.143 -7.322 -.25 -7.253 -.357 C -6.989 -.767 -6.725 -1.175 -6.46 -1.586 C -6.382 -1.707 -6.303 -1.829 -6.225 -1.951 C -6.19 -2.008 -6.155 -2.065 -6.12 -2.122 L -6.098 -2.122 C -6.081 -2.078 -6.063 -2.033 -6.047 -1.99 C -6.005 -1.889 -5.963 -1.788 -5.92 -1.687 C -5.729 -1.233 -5.536 -.779 -5.346 -.325 C -5.294 -.208 -5.185 .206 -5.006 .175 C -4.84 .146 -4.739 -.217 -4.681 -.349 C -4.429 -.937 -4.175 -1.523 -3.923 -2.112 L -3.911 -2.112 C -3.649 -1.506 -3.389 -.901 -3.127 -.296 C -3.075 -.18 -2.962 .215 -2.777 .183 C -2.632 .157 -2.521 -.241 -2.466 -.36 C -2.219 -.948 -1.972 -1.536 -1.726 -2.122 L -1.714 -2.122 C -1.311 -1.496 -.908 -.869 -.505 -.243 C -.444 -.148 -.204 .328 -.037 .156 C 0 .116 .004 .059 0 0 " fill="#231f20"/>
</g>
<clipPath id="cp5">
<path transform="matrix(1,0,0,-1,0,1323.88)" d="M 150.029 236.013 L 191.97 236.013 L 191.97 340.012 L 150.029 340.012 Z "/>
</clipPath>
<g clip-path="url(#cp5)">
<path transform="matrix(1,0,0,-1,231.7619,1036.1786)" d="M 0 0 C -.118 1.333 -.294 3.292 -.819 5.731 C -1.344 8.168 -2.249 11.076 -3.742 14.202 C -4.5 15.757 -5.381 17.379 -6.478 18.979 C -7.562 20.584 -8.799 22.209 -10.237 23.773 C -13.121 26.888 -16.769 29.8 -21.1 32 C -25.416 34.207 -30.422 35.674 -35.678 36.067 C -38.321 36.265 -41.014 36.195 -43.706 35.835 C -46.396 35.473 -49.08 34.823 -51.686 33.889 C -56.897 32.012 -61.745 28.91 -65.727 24.942 C -69.696 20.96 -72.797 16.112 -74.674 10.901 C -75.609 8.295 -76.261 5.612 -76.622 2.921 L -76.754 1.913 L -76.837 .91 C -76.864 .576 -76.89 .242 -76.917 -.09 C -76.927 -.432 -76.937 -.772 -76.947 -1.112 C -76.956 -1.447 -76.964 -1.781 -76.973 -2.115 C -76.966 -2.449 -76.959 -2.782 -76.952 -3.115 C -76.942 -3.447 -76.942 -3.78 -76.926 -4.111 C -76.902 -4.441 -76.878 -4.771 -76.855 -5.101 C -76.459 -10.37 -74.995 -15.367 -72.788 -19.687 C -70.586 -24.018 -67.674 -27.665 -64.56 -30.549 C -61.416 -33.408 -58.11 -35.554 -54.987 -37.044 C -51.861 -38.537 -48.953 -39.442 -46.517 -39.966 C -44.077 -40.492 -42.118 -40.668 -40.786 -40.785 C -39.446 -40.844 -38.732 -40.875 -38.732 -40.875 C -38.732 -40.875 -39.447 -40.868 -40.788 -40.855 C -42.125 -40.777 -44.1 -40.688 -46.567 -40.212 C -49.032 -39.746 -51.987 -38.91 -55.189 -37.479 C -58.389 -36.054 -61.809 -33.963 -65.047 -31.086 C -68.265 -28.198 -71.298 -24.522 -73.622 -20.12 C -75.949 -15.731 -77.555 -10.616 -77.988 -5.19 C -78.437 .225 -77.785 5.936 -75.849 11.324 C -73.924 16.712 -70.734 21.73 -66.642 25.856 C -62.517 29.95 -57.497 33.139 -52.11 35.064 C -46.725 37.003 -41.001 37.652 -35.602 37.205 C -30.162 36.771 -25.056 35.168 -20.664 32.839 C -16.262 30.514 -12.586 27.481 -9.697 24.264 C -6.821 21.024 -4.729 17.605 -3.305 14.405 C -1.874 11.202 -1.038 8.247 -.573 5.782 C -.098 3.314 -.008 1.34 .07 .003 C .083 -1.337 .09 -2.053 .09 -2.053 C .09 -2.053 .059 -1.339 0 0 M -59.858 13.821 C -62.159 10.766 -63.812 7.195 -64.612 3.313 L -67.416 3.313 C -68.007 3.313 -68.555 3.58 -68.919 4.048 C -69.275 4.506 -69.399 5.088 -69.258 5.645 C -67.834 11.292 -64.854 16.438 -60.643 20.526 C -60.298 20.861 -59.843 21.042 -59.366 21.042 C -59.279 21.042 -59.19 21.036 -59.103 21.024 C -58.515 20.942 -58.008 20.601 -57.711 20.088 L -56.413 17.84 C -57.662 16.607 -58.816 15.264 -59.858 13.821 M -53.84 16.387 C -53.439 15.728 -53.005 15.013 -52.546 14.258 C -52.318 13.879 -52.084 13.49 -51.845 13.093 C -51.726 12.894 -51.605 12.692 -51.483 12.489 L -51.302 12.183 C -51.233 12.054 -51.184 11.979 -51.125 11.841 C -50.678 10.874 -50.705 9.676 -51.252 8.701 C -51.384 8.46 -51.562 8.226 -51.713 8.035 C -51.868 7.835 -52.013 7.638 -52.159 7.431 C -52.447 7.02 -52.718 6.594 -52.969 6.156 C -53.222 5.721 -53.457 5.273 -53.669 4.818 C -53.774 4.591 -53.875 4.361 -53.97 4.13 C -54.059 3.905 -54.167 3.645 -54.317 3.397 C -54.887 2.437 -55.927 1.82 -56.975 1.73 C -57.104 1.713 -57.239 1.718 -57.364 1.714 C -57.483 1.715 -57.603 1.716 -57.721 1.718 C -57.958 1.721 -58.192 1.725 -58.424 1.728 C -58.888 1.736 -59.342 1.745 -59.784 1.754 C -60.667 1.773 -61.503 1.793 -62.274 1.811 C -63.816 1.847 -65.102 1.906 -66.002 1.935 C -66.902 1.97 -67.416 1.999 -67.416 1.999 C -67.416 1.999 -66.902 2.027 -66.002 2.063 C -65.102 2.091 -63.816 2.15 -62.274 2.188 C -61.503 2.205 -60.667 2.224 -59.784 2.244 C -59.342 2.252 -58.888 2.261 -58.424 2.27 C -58.192 2.272 -57.958 2.276 -57.721 2.279 C -57.603 2.281 -57.483 2.282 -57.364 2.284 C -57.25 2.291 -57.144 2.288 -57.035 2.306 C -56.16 2.398 -55.328 2.938 -54.861 3.725 C -54.749 3.912 -54.659 4.121 -54.563 4.371 C -54.467 4.612 -54.363 4.851 -54.255 5.089 C -54.038 5.563 -53.798 6.03 -53.538 6.485 C -53.273 6.937 -52.988 7.378 -52.686 7.804 C -52.535 8.014 -52.375 8.228 -52.216 8.43 C -52.05 8.637 -51.919 8.808 -51.805 9.01 C -51.352 9.804 -51.3 10.803 -51.647 11.596 C -51.677 11.683 -51.754 11.814 -51.794 11.897 L -51.969 12.209 C -52.084 12.416 -52.198 12.62 -52.312 12.823 C -52.536 13.229 -52.755 13.627 -52.969 14.014 C -53.394 14.789 -53.795 15.521 -54.166 16.198 C -54.905 17.553 -55.497 18.695 -55.922 19.489 C -56.342 20.285 -56.574 20.745 -56.574 20.745 C -56.574 20.745 -56.292 20.314 -55.812 19.553 C -55.337 18.787 -54.644 17.704 -53.84 16.387 M -27.324 25.325 C -27.403 25.07 -27.528 24.821 -27.65 24.597 L -28.015 23.959 C -28.508 23.113 -29 22.267 -29.485 21.435 C -29.968 20.6 -30.459 19.788 -30.925 18.997 C -31.396 18.21 -31.854 17.448 -32.286 16.727 C -32.395 16.547 -32.502 16.369 -32.608 16.194 C -32.663 16.104 -32.717 16.016 -32.771 15.927 C -32.828 15.842 -32.875 15.762 -32.948 15.674 C -33.213 15.33 -33.516 15.06 -33.85 14.855 C -34.514 14.442 -35.244 14.316 -35.858 14.365 C -36.171 14.389 -36.441 14.456 -36.694 14.493 C -36.948 14.534 -37.183 14.566 -37.395 14.592 C -38.242 14.692 -38.734 14.71 -38.734 14.71 C -38.734 14.71 -38.611 14.715 -38.382 14.724 C -38.152 14.729 -37.813 14.739 -37.384 14.719 C -37.169 14.71 -36.931 14.695 -36.672 14.674 C -36.412 14.654 -36.133 14.608 -35.849 14.61 C -35.276 14.609 -34.627 14.777 -34.057 15.171 C -33.772 15.364 -33.513 15.63 -33.31 15.924 C -33.258 15.99 -33.207 16.085 -33.155 16.169 L -33.012 16.427 C -32.913 16.606 -32.813 16.788 -32.711 16.973 C -32.303 17.708 -31.871 18.483 -31.426 19.286 C -30.974 20.085 -30.517 20.917 -30.035 21.751 C -29.556 22.588 -29.069 23.437 -28.583 24.287 L -28.214 24.922 C -28.103 25.126 -28.005 25.314 -27.937 25.526 C -27.799 25.941 -27.76 26.387 -27.82 26.815 C -27.938 27.678 -28.451 28.464 -29.164 28.902 C -29.251 28.965 -29.34 29.007 -29.428 29.05 L -29.561 29.118 L -29.719 29.176 L -29.878 29.232 L -29.918 29.246 L -29.922 29.248 L -29.942 29.254 L -30.021 29.277 C -30.128 29.309 -30.233 29.34 -30.339 29.37 C -30.76 29.492 -31.174 29.603 -31.58 29.702 C -32.392 29.898 -33.165 30.062 -33.884 30.19 C -35.322 30.444 -36.537 30.585 -37.391 30.647 C -38.243 30.715 -38.734 30.739 -38.734 30.739 C -38.734 30.739 -38.611 30.744 -38.382 30.754 C -38.152 30.763 -37.815 30.777 -37.386 30.774 C -36.527 30.768 -35.296 30.745 -33.828 30.562 C -33.096 30.473 -32.303 30.351 -31.473 30.179 C -31.057 30.094 -30.632 29.998 -30.199 29.892 C -29.771 29.79 -29.308 29.663 -28.862 29.394 C -28.002 28.888 -27.342 27.961 -27.192 26.906 C -27.114 26.383 -27.158 25.836 -27.324 25.325 M -55.255 -22.188 C -54.847 -21.396 -54.358 -20.48 -53.822 -19.506 C -53.552 -19.021 -53.281 -18.514 -52.99 -18.008 C -52.701 -17.5 -52.408 -16.985 -52.115 -16.47 C -51.968 -16.215 -51.802 -15.951 -51.694 -15.723 C -51.583 -15.482 -51.503 -15.228 -51.464 -14.968 C -51.385 -14.448 -51.438 -13.915 -51.617 -13.44 C -51.664 -13.322 -51.714 -13.207 -51.773 -13.097 C -51.836 -12.986 -51.881 -12.896 -51.965 -12.78 C -52.12 -12.563 -52.272 -12.35 -52.42 -12.142 C -52.716 -11.717 -52.968 -11.298 -53.186 -10.904 C -53.624 -10.117 -53.911 -9.424 -54.09 -8.934 C -54.182 -8.69 -54.241 -8.492 -54.284 -8.36 C -54.325 -8.227 -54.347 -8.156 -54.347 -8.156 C -54.347 -8.156 -54.216 -8.425 -53.971 -8.881 C -53.727 -9.338 -53.359 -9.979 -52.866 -10.708 C -52.619 -11.072 -52.336 -11.455 -52.027 -11.852 C -51.866 -12.049 -51.701 -12.252 -51.531 -12.459 C -51.451 -12.555 -51.357 -12.699 -51.284 -12.823 C -51.208 -12.951 -51.143 -13.086 -51.082 -13.225 C -50.85 -13.782 -50.744 -14.425 -50.837 -15.062 C -50.881 -15.38 -50.974 -15.693 -51.107 -15.99 C -51.249 -16.297 -51.401 -16.537 -51.546 -16.798 C -51.846 -17.31 -52.146 -17.821 -52.44 -18.325 C -52.732 -18.83 -53.036 -19.318 -53.321 -19.795 C -53.897 -20.747 -54.447 -21.628 -54.928 -22.377 C -55.885 -23.878 -56.574 -24.85 -56.574 -24.85 C -56.574 -24.85 -56.077 -23.768 -55.255 -22.188 M -68.919 -8.152 C -68.554 -7.686 -68.007 -7.417 -67.416 -7.417 L -64.612 -7.417 C -63.445 -13.075 -60.468 -18.068 -56.315 -21.773 L -57.711 -24.193 C -58.008 -24.706 -58.515 -25.047 -59.103 -25.129 C -59.673 -25.208 -60.234 -25.026 -60.643 -24.631 C -64.854 -20.543 -67.834 -15.397 -69.258 -9.749 C -69.399 -9.192 -69.275 -8.61 -68.919 -8.152 M -38.732 24.373 C -38.813 24.373 -38.893 24.368 -38.973 24.367 C -35.941 24.718 -32.951 24.494 -30.053 23.713 L -30.442 23.039 C -33.051 23.9 -35.836 24.373 -38.732 24.373 M -31.184 -5.035 C -31.421 -4.891 -31.641 -4.745 -31.844 -4.611 C -32.659 -4.079 -33.175 -3.674 -33.175 -3.674 C -33.175 -3.674 -32.554 -3.887 -31.665 -4.281 C -31.441 -4.38 -31.2 -4.485 -30.95 -4.606 C -30.824 -4.665 -30.694 -4.727 -30.562 -4.788 C -30.433 -4.847 -30.279 -4.934 -30.205 -4.941 C -30.003 -4.994 -29.768 -4.932 -29.604 -4.795 C -29.521 -4.728 -29.457 -4.64 -29.418 -4.541 C -29.386 -4.464 -29.351 -4.27 -29.314 -4.121 C -29.249 -3.823 -29.188 -3.513 -29.148 -3.208 C -29.113 -2.901 -29.068 -2.601 -29.054 -2.307 C -29.013 -1.718 -29.019 -1.165 -29.043 -.687 C -29.071 -.212 -29.111 .189 -29.149 .471 C -29.187 .753 -29.207 .914 -29.207 .914 C -29.207 .914 -29.19 .878 -29.157 .808 C -29.128 .738 -29.072 .638 -29.022 .504 C -28.913 .238 -28.777 -.151 -28.669 -.636 C -28.613 -.877 -28.566 -1.143 -28.533 -1.426 C -28.502 -1.709 -28.473 -2.01 -28.476 -2.322 C -28.463 -2.949 -28.538 -3.608 -28.676 -4.273 C -28.723 -4.437 -28.735 -4.564 -28.822 -4.788 C -28.906 -4.986 -29.043 -5.162 -29.21 -5.291 C -29.544 -5.557 -29.994 -5.618 -30.373 -5.493 C -30.592 -5.418 -30.691 -5.338 -30.819 -5.262 C -30.943 -5.185 -31.065 -5.109 -31.184 -5.035 M -35.03 -11.115 C -34.737 -10.949 -34.4 -10.755 -34.051 -10.533 C -33.871 -10.424 -33.703 -10.305 -33.517 -10.181 C -33.343 -10.061 -33.159 -9.934 -32.984 -9.802 C -32.632 -9.54 -32.289 -9.266 -31.976 -8.995 C -31.827 -8.859 -31.658 -8.72 -31.541 -8.602 C -31.45 -8.509 -31.374 -8.366 -31.342 -8.235 C -31.273 -7.961 -31.357 -7.698 -31.459 -7.541 C -31.51 -7.463 -31.559 -7.4 -31.598 -7.364 L -31.656 -7.306 C -31.656 -7.306 -31.629 -7.315 -31.578 -7.334 C -31.526 -7.354 -31.448 -7.386 -31.363 -7.452 C -31.195 -7.574 -30.967 -7.854 -30.967 -8.27 C -30.968 -8.476 -31.012 -8.697 -31.162 -8.913 C -31.292 -9.097 -31.419 -9.246 -31.572 -9.409 C -31.868 -9.733 -32.217 -10.051 -32.594 -10.329 C -32.784 -10.468 -32.976 -10.599 -33.177 -10.719 C -33.367 -10.836 -33.577 -10.942 -33.771 -11.038 C -34.165 -11.23 -34.551 -11.37 -34.888 -11.462 C -35.224 -11.559 -35.512 -11.605 -35.714 -11.631 C -35.916 -11.655 -36.032 -11.658 -36.032 -11.658 C -36.032 -11.658 -35.632 -11.44 -35.03 -11.115 M -31.623 4.787 C -31.651 4.879 -31.682 4.955 -31.71 5.003 C -31.738 5.051 -31.753 5.077 -31.753 5.077 C -31.753 5.077 -31.729 5.06 -31.683 5.026 C -31.638 4.991 -31.57 4.936 -31.506 4.845 C -31.377 4.672 -31.241 4.322 -31.378 3.912 C -31.411 3.812 -31.46 3.71 -31.528 3.614 C -31.586 3.523 -31.712 3.413 -31.777 3.361 C -31.964 3.225 -32.12 3.109 -32.31 2.983 C -32.673 2.73 -33.067 2.473 -33.47 2.228 C -33.673 2.107 -33.876 1.987 -34.075 1.869 C -34.175 1.81 -34.276 1.754 -34.376 1.7 C -34.497 1.631 -34.644 1.575 -34.782 1.552 C -35.065 1.497 -35.349 1.557 -35.569 1.679 C -35.622 1.707 -35.684 1.747 -35.73 1.783 L -35.794 1.835 L -35.845 1.882 C -35.912 1.944 -35.979 2.004 -36.045 2.059 C -36.309 2.276 -36.547 2.446 -36.719 2.561 C -36.895 2.675 -36.994 2.74 -36.994 2.74 C -36.994 2.74 -36.874 2.729 -36.667 2.68 C -36.462 2.631 -36.168 2.541 -35.84 2.373 C -35.757 2.331 -35.673 2.285 -35.586 2.235 C -35.546 2.212 -35.506 2.188 -35.465 2.164 C -35.43 2.146 -35.404 2.137 -35.364 2.122 C -35.22 2.071 -35.057 2.074 -34.907 2.115 C -34.831 2.138 -34.767 2.169 -34.694 2.221 C -34.601 2.285 -34.505 2.35 -34.407 2.412 C -34.211 2.535 -34.012 2.661 -33.813 2.787 C -33.41 3.033 -33.001 3.268 -32.611 3.477 C -32.424 3.582 -32.213 3.687 -32.058 3.765 C -31.953 3.824 -31.928 3.842 -31.863 3.898 C -31.808 3.947 -31.76 4.004 -31.723 4.065 C -31.567 4.314 -31.568 4.601 -31.623 4.787 M -41.176 -4.267 C -41.405 -3.983 -41.566 -3.688 -41.663 -3.413 C -41.771 -3.143 -41.809 -2.892 -41.837 -2.689 C -41.852 -2.484 -41.854 -2.325 -41.841 -2.217 C -41.834 -2.109 -41.831 -2.053 -41.831 -2.053 C -41.831 -2.053 -41.821 -2.109 -41.803 -2.215 C -41.792 -2.321 -41.747 -2.473 -41.699 -2.661 C -41.635 -2.848 -41.551 -3.068 -41.417 -3.299 C -41.29 -3.533 -41.102 -3.77 -40.875 -3.994 C -40.644 -4.216 -40.36 -4.416 -40.035 -4.567 C -39.708 -4.718 -39.337 -4.806 -38.964 -4.826 C -38.561 -4.849 -38.177 -4.777 -37.8 -4.643 C -37.426 -4.504 -37.078 -4.279 -36.793 -3.992 C -36.506 -3.708 -36.281 -3.359 -36.143 -2.986 C -36.07 -2.801 -36.023 -2.602 -35.991 -2.425 C -35.969 -2.343 -35.97 -2.215 -35.958 -2.112 C -35.946 -2.032 -35.959 -1.923 -35.958 -1.83 C -35.979 -1.446 -36.066 -1.076 -36.217 -.75 C -36.369 -.425 -36.568 -.141 -36.791 .09 C -37.015 .317 -37.252 .505 -37.485 .632 C -37.717 .767 -37.938 .851 -38.124 .914 C -38.31 .962 -38.462 1.007 -38.57 1.018 C -38.676 1.036 -38.732 1.045 -38.732 1.045 C -38.732 1.045 -38.676 1.049 -38.568 1.056 C -38.461 1.068 -38.304 1.067 -38.096 1.051 C -37.894 1.023 -37.643 .984 -37.372 .877 C -37.097 .78 -36.803 .619 -36.519 .391 C -36.234 .163 -35.959 -.136 -35.749 -.507 C -35.538 -.876 -35.382 -1.312 -35.337 -1.781 C -35.332 -1.902 -35.312 -2.009 -35.319 -2.145 C -35.325 -2.258 -35.315 -2.352 -35.337 -2.485 C -35.363 -2.744 -35.412 -2.983 -35.5 -3.218 C -35.664 -3.688 -35.938 -4.13 -36.292 -4.493 C -36.655 -4.849 -37.097 -5.121 -37.567 -5.286 C -38.033 -5.456 -38.547 -5.494 -38.995 -5.449 C -39.958 -5.355 -40.728 -4.839 -41.176 -4.267 M -45.345 -9.437 C -45.113 -9.598 -44.774 -9.816 -44.363 -10.059 C -43.95 -10.298 -43.46 -10.556 -42.917 -10.786 C -42.649 -10.907 -42.36 -11.005 -42.072 -11.112 C -41.781 -11.216 -41.48 -11.303 -41.177 -11.381 L -40.95 -11.439 L -40.855 -11.464 C -40.82 -11.469 -40.765 -11.481 -40.746 -11.48 C -40.671 -11.487 -40.542 -11.473 -40.451 -11.429 C -40.256 -11.344 -40.093 -11.167 -40.047 -10.958 C -40.035 -10.904 -40.029 -10.856 -40.026 -10.795 C -40.025 -10.72 -40.023 -10.646 -40.021 -10.573 C -40.017 -10.428 -40.012 -10.284 -40.007 -10.146 C -40 -9.867 -39.985 -9.604 -39.97 -9.361 C -39.917 -8.39 -39.823 -7.74 -39.823 -7.74 C -39.823 -7.74 -39.696 -8.384 -39.593 -9.352 C -39.566 -9.594 -39.538 -9.855 -39.517 -10.133 C -39.505 -10.271 -39.493 -10.414 -39.48 -10.56 C -39.476 -10.633 -39.47 -10.706 -39.465 -10.78 C -39.461 -10.868 -39.463 -10.971 -39.479 -11.066 C -39.539 -11.454 -39.799 -11.832 -40.188 -12.007 C -40.387 -12.096 -40.583 -12.14 -40.829 -12.121 C -40.891 -12.117 -40.915 -12.109 -40.959 -12.104 C -41.038 -12.09 -41.051 -12.084 -41.1 -12.073 L -41.344 -12.017 C -41.987 -11.839 -42.615 -11.604 -43.166 -11.307 C -43.72 -11.02 -44.199 -10.685 -44.579 -10.366 C -44.961 -10.05 -45.246 -9.752 -45.433 -9.532 C -45.53 -9.427 -45.593 -9.333 -45.642 -9.274 C -45.689 -9.214 -45.714 -9.182 -45.714 -9.182 C -45.714 -9.182 -45.58 -9.274 -45.345 -9.437 M -45.096 -4.161 C -44.927 -4.047 -44.756 -3.923 -44.576 -3.809 L -44.441 -3.721 L -44.32 -3.64 C -44.282 -3.608 -44.219 -3.546 -44.183 -3.489 C -44.099 -3.372 -44.058 -3.226 -44.061 -3.081 C -44.061 -3.022 -44.081 -2.903 -44.089 -2.789 C -44.099 -2.679 -44.104 -2.568 -44.107 -2.461 C -44.116 -2.246 -44.099 -2.037 -44.074 -1.843 C -44.055 -1.654 -44.005 -1.453 -43.975 -1.316 C -43.952 -1.196 -43.956 -1.058 -43.983 -.946 C -44.013 -.833 -44.055 -.733 -44.104 -.657 C -44.202 -.503 -44.293 -.431 -44.293 -.431 C -44.293 -.431 -44.267 -.439 -44.216 -.456 C -44.168 -.477 -44.092 -.505 -44.01 -.566 C -43.847 -.685 -43.624 -.935 -43.598 -1.342 C -43.594 -1.503 -43.589 -1.678 -43.584 -1.862 C -43.575 -2.041 -43.553 -2.227 -43.531 -2.418 C -43.518 -2.513 -43.502 -2.609 -43.483 -2.706 C -43.466 -2.8 -43.438 -2.889 -43.424 -3.043 C -43.398 -3.325 -43.477 -3.621 -43.641 -3.861 C -43.729 -3.983 -43.818 -4.079 -43.954 -4.177 L -44.024 -4.224 L -44.105 -4.271 L -44.244 -4.351 C -44.429 -4.459 -44.617 -4.555 -44.795 -4.653 C -45.155 -4.846 -45.497 -5.014 -45.797 -5.148 C -46.394 -5.422 -46.821 -5.555 -46.821 -5.555 C -46.821 -5.555 -46.508 -5.234 -45.993 -4.828 C -45.737 -4.622 -45.432 -4.394 -45.096 -4.161 M -38.732 .283 C -37.442 .283 -36.396 -.763 -36.396 -2.053 C -36.396 -3.343 -37.442 -4.389 -38.732 -4.389 C -40.023 -4.389 -41.068 -3.343 -41.068 -2.053 C -41.068 -.763 -40.023 .283 -38.732 .283 M -40.395 2.459 C -40.433 2.433 -40.5 2.396 -40.531 2.381 L -40.573 2.361 L -40.624 2.334 L -40.831 2.225 L -41.038 2.115 L -41.141 2.061 L -41.193 2.033 L -41.219 2.02 L -41.226 2.016 C -41.483 1.837 -41.741 1.657 -41.994 1.48 C -42.349 1.273 -42.782 1.265 -43.142 1.428 C -43.201 1.454 -43.203 1.459 -43.259 1.489 L -43.353 1.544 C -43.414 1.582 -43.475 1.619 -43.536 1.656 C -43.655 1.731 -43.773 1.805 -43.887 1.876 C -44.117 2.017 -44.33 2.158 -44.526 2.288 C -45.313 2.806 -45.811 3.201 -45.811 3.201 C -45.811 3.201 -45.208 2.998 -44.347 2.618 C -44.13 2.523 -43.896 2.422 -43.653 2.306 C -43.416 2.194 -43.166 2.077 -42.907 1.955 C -42.726 1.889 -42.491 1.918 -42.314 2.027 C -42.074 2.204 -41.831 2.385 -41.587 2.564 L -41.532 2.598 L -41.519 2.604 L -41.492 2.617 L -41.44 2.643 L -41.334 2.695 L -41.125 2.8 L -40.916 2.903 L -40.8 2.959 C -40.762 2.977 -40.762 2.979 -40.735 2.993 C -40.558 3.104 -40.425 3.289 -40.401 3.495 C -40.392 3.778 -40.382 4.053 -40.374 4.312 C -40.366 4.581 -40.351 4.836 -40.336 5.071 C -40.282 6.012 -40.187 6.641 -40.187 6.641 C -40.187 6.641 -40.061 6.018 -39.959 5.081 C -39.932 4.847 -39.904 4.593 -39.883 4.324 C -39.872 4.19 -39.859 4.053 -39.847 3.911 C -39.842 3.841 -39.836 3.77 -39.831 3.697 L -39.825 3.589 C -39.824 3.547 -39.82 3.496 -39.824 3.449 C -39.841 3.069 -40.048 2.677 -40.395 2.459 M -50.57 -8.183 C -51.378 -6.704 -51.947 -4.969 -52.105 -3.121 C -52.12 -2.89 -52.134 -2.658 -52.148 -2.425 L -52.17 -2.074 L -52.171 -2.053 L -52.169 -2.002 L -52.168 -1.96 L -52.165 -1.875 L -52.158 -1.707 C -52.15 -1.481 -52.141 -1.256 -52.132 -1.029 L -52.117 -.687 L -52.068 -.325 C -51.996 .156 -51.953 .656 -51.818 1.117 C -51.759 1.352 -51.7 1.587 -51.641 1.823 C -51.583 2.06 -51.483 2.283 -51.406 2.515 C -50.752 4.356 -49.676 6.079 -48.283 7.497 C -46.865 8.893 -45.141 9.967 -43.3 10.621 C -41.467 11.288 -39.488 11.484 -37.68 11.322 C -35.813 11.164 -34.08 10.595 -32.602 9.786 C -31.114 8.983 -29.891 7.929 -28.943 6.82 C -27.995 5.712 -27.296 4.556 -26.861 3.462 C -26.803 3.328 -26.745 3.195 -26.687 3.065 C -26.639 2.932 -26.599 2.798 -26.555 2.668 C -26.471 2.407 -26.391 2.156 -26.312 1.915 C -26.189 1.424 -26.105 .966 -26.016 .559 C -25.973 .143 -25.934 -.229 -25.899 -.551 C -25.863 -.872 -25.89 -1.149 -25.883 -1.372 C -25.883 -1.815 -25.884 -2.053 -25.884 -2.053 C -25.884 -2.053 -25.908 -1.817 -25.953 -1.375 C -25.984 -1.156 -25.986 -.882 -26.056 -.568 C -26.118 -.256 -26.19 .104 -26.272 .506 C -26.395 .898 -26.515 1.335 -26.675 1.799 C -26.769 2.026 -26.866 2.263 -26.968 2.508 C -27.019 2.63 -27.065 2.756 -27.122 2.881 C -27.187 3.002 -27.251 3.125 -27.317 3.25 C -27.81 4.268 -28.557 5.315 -29.502 6.313 C -30.456 7.305 -31.651 8.222 -33.053 8.916 C -34.454 9.609 -36.068 10.053 -37.738 10.167 C -39.463 10.287 -41.202 10.03 -42.87 9.428 C -44.532 8.822 -46.081 7.836 -47.354 6.569 C -48.623 5.297 -49.608 3.747 -50.213 2.085 C -50.285 1.876 -50.38 1.675 -50.432 1.461 L -50.6 .823 C -50.736 .398 -50.775 -.021 -50.854 -.438 L -50.908 -.752 C -50.918 -.862 -50.923 -.978 -50.931 -1.09 C -50.945 -1.316 -50.959 -1.542 -50.973 -1.767 L -50.991 -2.072 L -50.979 -2.393 C -50.971 -2.606 -50.963 -2.818 -50.955 -3.03 C -50.841 -4.721 -50.397 -6.332 -49.703 -7.733 C -49.007 -9.135 -48.092 -10.331 -47.1 -11.284 C -46.102 -12.229 -45.053 -12.977 -44.036 -13.469 C -43.911 -13.535 -43.787 -13.6 -43.666 -13.664 C -43.542 -13.721 -43.416 -13.768 -43.293 -13.818 C -43.048 -13.92 -42.812 -14.018 -42.584 -14.111 C -42.121 -14.271 -41.683 -14.391 -41.292 -14.514 C -40.89 -14.595 -40.531 -14.667 -40.22 -14.729 C -39.906 -14.799 -39.629 -14.801 -39.41 -14.832 C -38.968 -14.877 -38.732 -14.901 -38.732 -14.901 C -38.732 -14.901 -38.97 -14.901 -39.413 -14.902 C -39.636 -14.895 -39.909 -14.922 -40.231 -14.886 C -40.555 -14.852 -40.927 -14.813 -41.343 -14.769 C -41.751 -14.679 -42.208 -14.595 -42.7 -14.472 C -42.941 -14.394 -43.192 -14.313 -43.453 -14.229 C -43.583 -14.186 -43.717 -14.146 -43.85 -14.097 C -43.98 -14.039 -44.112 -13.981 -44.247 -13.922 C -45.34 -13.487 -46.496 -12.789 -47.604 -11.841 C -48.712 -10.894 -49.767 -9.67 -50.57 -8.183 M -42.245 -33.328 C -43.947 -33.14 -45.632 -32.816 -47.274 -32.354 C -47.856 -32.188 -48.319 -31.777 -48.544 -31.223 C -48.764 -30.683 -48.722 -30.082 -48.43 -29.576 L -47.025 -27.143 C -44.417 -28.005 -41.63 -28.478 -38.732 -28.478 C -35.836 -28.478 -33.051 -28.005 -30.442 -27.144 L -29.294 -29.133 C -32.579 -30.769 -34.126 -33.187 -42.245 -33.328 M -28.876 -31.083 C -28.891 -31.13 -28.905 -31.177 -28.924 -31.223 C -29.148 -31.777 -29.611 -32.188 -30.193 -32.354 C -31.482 -32.717 -32.798 -32.992 -34.126 -33.187 C -32.198 -32.548 -30.469 -31.855 -28.876 -31.083 M -19.609 -21.767 C -19.939 -22.103 -20.266 -22.43 -20.591 -22.747 L -21.152 -21.775 C -16.998 -18.07 -14.021 -13.076 -12.854 -7.417 L -12.192 -7.417 C -13.654 -13.527 -16.68 -18.777 -19.609 -21.767 M -10.052 -7.417 C -9.461 -7.417 -8.913 -7.686 -8.549 -8.152 C -8.192 -8.61 -8.068 -9.192 -8.209 -9.749 C -9.634 -15.396 -12.613 -20.542 -16.825 -24.631 C -17.232 -25.027 -17.792 -25.208 -18.365 -25.129 C -18.835 -25.063 -19.251 -24.83 -19.552 -24.479 C -19.104 -24.051 -18.655 -23.607 -18.203 -23.146 C -15.002 -19.882 -11.693 -14.104 -10.177 -7.417 Z M -18.584 17.216 C -14.599 13.594 -12.177 8.823 -11.494 3.313 L -12.854 3.313 C -14.021 8.971 -16.998 13.966 -21.152 17.671 L -20.488 18.821 C -19.844 18.318 -19.208 17.784 -18.584 17.216 M -17.258 18.674 C -17.984 19.334 -18.71 19.938 -19.435 20.499 C -19.147 20.78 -18.777 20.967 -18.365 21.024 C -18.277 21.036 -18.189 21.043 -18.103 21.043 C -17.625 21.043 -17.17 20.861 -16.825 20.526 C -12.613 16.437 -9.634 11.292 -8.209 5.645 C -8.068 5.088 -8.192 4.506 -8.549 4.048 C -8.8 3.726 -9.14 3.501 -9.52 3.391 C -10.229 9.443 -12.875 14.689 -17.258 18.674 M -48.43 25.471 C -48.722 25.978 -48.764 26.577 -48.544 27.118 C -48.319 27.672 -47.856 28.084 -47.274 28.248 C -41.74 29.811 -35.728 29.811 -30.194 28.248 C -29.612 28.084 -29.149 27.672 -28.924 27.118 C -28.705 26.58 -28.746 25.982 -29.035 25.478 C -33.145 26.668 -36.886 26.658 -39.841 26.243 C -42.496 25.871 -45.095 25.095 -47.563 23.969 Z M -27.86 -32.622 C -28.201 -33.083 -28.66 -33.463 -29.186 -33.711 C -29.313 -33.78 -29.45 -33.828 -29.588 -33.874 C -29.729 -33.927 -29.86 -33.961 -29.985 -33.995 C -30.238 -34.067 -30.5 -34.135 -30.762 -34.202 C -31.804 -34.456 -32.856 -34.66 -33.901 -34.808 C -34.944 -34.964 -35.981 -35.04 -36.983 -35.087 C -38.99 -35.169 -40.865 -35.048 -42.45 -34.823 C -44.038 -34.606 -45.334 -34.285 -46.232 -34.043 C -46.683 -33.925 -47.03 -33.811 -47.268 -33.735 C -47.505 -33.658 -47.631 -33.617 -47.631 -33.617 C -47.631 -33.617 -47.113 -33.739 -46.204 -33.919 C -45.295 -34.105 -43.985 -34.307 -42.408 -34.448 C -41.62 -34.517 -40.763 -34.563 -39.858 -34.579 C -38.955 -34.593 -37.997 -34.567 -37.014 -34.51 C -35.046 -34.379 -32.957 -34.078 -30.92 -33.564 C -30.421 -33.434 -29.873 -33.319 -29.461 -33.128 C -29.029 -32.928 -28.651 -32.62 -28.368 -32.244 C -27.79 -31.495 -27.625 -30.47 -27.906 -29.618 C -28.027 -29.206 -28.312 -28.778 -28.535 -28.357 C -28.768 -27.938 -28.994 -27.529 -29.215 -27.13 C -29.654 -26.33 -30.068 -25.574 -30.451 -24.876 C -31.216 -23.479 -31.827 -22.3 -32.268 -21.481 C -32.702 -20.66 -32.942 -20.187 -32.942 -20.187 C -32.942 -20.187 -32.651 -20.632 -32.157 -21.418 C -31.669 -22.208 -30.954 -23.328 -30.126 -24.687 C -29.713 -25.368 -29.266 -26.105 -28.792 -26.886 C -28.557 -27.276 -28.315 -27.678 -28.068 -28.088 C -27.829 -28.503 -27.548 -28.891 -27.361 -29.429 C -26.998 -30.461 -27.161 -31.703 -27.86 -32.622 M -20.725 -25.14 C -20.835 -24.951 -20.894 -24.851 -20.894 -24.851 C -20.894 -24.851 -20.825 -24.943 -20.695 -25.119 C -20.631 -25.205 -20.532 -25.298 -20.428 -25.413 C -20.307 -25.512 -20.184 -25.644 -20.014 -25.75 C -19.689 -25.979 -19.243 -26.191 -18.702 -26.275 C -18.165 -26.366 -17.535 -26.302 -16.936 -26.034 C -16.795 -25.956 -16.635 -25.887 -16.509 -25.785 C -16.442 -25.734 -16.375 -25.696 -16.307 -25.636 C -16.238 -25.573 -16.17 -25.511 -16.101 -25.447 C -15.845 -25.181 -15.58 -24.905 -15.309 -24.622 C -15.046 -24.326 -14.774 -24.021 -14.498 -23.711 C -14.236 -23.388 -13.949 -23.073 -13.684 -22.732 C -13.144 -22.059 -12.607 -21.345 -12.096 -20.597 C -11.574 -19.854 -11.091 -19.07 -10.626 -18.276 C -10.17 -17.478 -9.726 -16.67 -9.344 -15.848 C -8.949 -15.031 -8.598 -14.211 -8.281 -13.407 C -8.123 -13.005 -7.987 -12.603 -7.839 -12.214 C -7.708 -11.82 -7.581 -11.435 -7.456 -11.06 C -7.347 -10.68 -7.229 -10.295 -7.135 -9.95 C -7.04 -9.61 -7.029 -9.268 -7.049 -8.94 C -7.115 -8.288 -7.375 -7.71 -7.723 -7.289 C -8.064 -6.862 -8.472 -6.582 -8.833 -6.416 C -8.922 -6.37 -9.009 -6.333 -9.094 -6.308 C -9.179 -6.279 -9.257 -6.247 -9.331 -6.226 C -9.482 -6.192 -9.611 -6.154 -9.72 -6.141 C -9.937 -6.116 -10.052 -6.104 -10.052 -6.104 C -10.052 -6.104 -9.936 -6.104 -9.717 -6.105 C -9.608 -6.107 -9.475 -6.132 -9.313 -6.149 C -9.159 -6.187 -8.974 -6.215 -8.783 -6.299 C -8.396 -6.442 -7.943 -6.7 -7.539 -7.129 C -7.332 -7.339 -7.154 -7.602 -6.994 -7.894 C -6.846 -8.192 -6.733 -8.53 -6.676 -8.896 C -6.631 -9.262 -6.623 -9.654 -6.708 -10.048 C -6.789 -10.433 -6.891 -10.795 -6.985 -11.188 C -7.096 -11.575 -7.21 -11.975 -7.326 -12.383 C -7.458 -12.784 -7.592 -13.196 -7.74 -13.609 C -8.047 -14.434 -8.371 -15.284 -8.771 -16.117 C -9.153 -16.959 -9.599 -17.786 -10.058 -18.605 C -10.538 -19.412 -11.038 -20.207 -11.575 -20.96 C -11.709 -21.147 -11.843 -21.335 -11.975 -21.522 C -12.115 -21.703 -12.255 -21.883 -12.394 -22.062 C -12.666 -22.424 -12.958 -22.763 -13.238 -23.102 C -13.519 -23.439 -13.813 -23.757 -14.095 -24.071 C -14.389 -24.376 -14.676 -24.673 -14.956 -24.963 C -15.252 -25.244 -15.514 -25.51 -15.813 -25.78 C -15.887 -25.84 -15.959 -25.898 -16.03 -25.957 C -16.104 -26.015 -16.197 -26.067 -16.278 -26.122 C -16.444 -26.237 -16.62 -26.302 -16.787 -26.381 C -17.134 -26.513 -17.481 -26.587 -17.815 -26.605 C -18.148 -26.613 -18.465 -26.59 -18.75 -26.516 C -19.323 -26.379 -19.772 -26.115 -20.091 -25.852 C -20.258 -25.729 -20.375 -25.581 -20.485 -25.467 C -20.58 -25.337 -20.668 -25.233 -20.725 -25.14 M -15.628 21.211 C -15.448 21.038 -15.164 20.806 -14.841 20.469 C -14.676 20.304 -14.493 20.12 -14.295 19.921 C -14.103 19.715 -13.896 19.492 -13.674 19.255 C -13.235 18.773 -12.752 18.219 -12.26 17.585 C -11.762 16.955 -11.255 16.248 -10.746 15.48 C -10.253 14.703 -9.736 13.878 -9.278 12.981 C -8.808 12.094 -8.363 11.151 -7.969 10.171 C -7.566 9.192 -7.229 8.172 -6.915 7.145 L -6.706 6.366 C -6.672 6.229 -6.636 6.127 -6.604 5.959 C -6.583 5.822 -6.548 5.712 -6.538 5.554 C -6.477 4.943 -6.575 4.372 -6.802 3.837 C -7.245 2.769 -8.24 1.999 -9.309 1.791 C -9.573 1.735 -9.849 1.72 -10.105 1.718 C -10.35 1.721 -10.593 1.725 -10.832 1.728 C -11.313 1.736 -11.781 1.745 -12.238 1.754 C -13.152 1.773 -14.017 1.793 -14.814 1.811 C -16.41 1.847 -17.739 1.906 -18.67 1.935 C -19.601 1.97 -20.132 1.999 -20.132 1.999 C -20.132 1.999 -19.601 2.027 -18.67 2.063 C -17.739 2.091 -16.41 2.15 -14.814 2.188 C -14.017 2.205 -13.152 2.224 -12.238 2.244 C -11.781 2.252 -11.313 2.261 -10.832 2.27 C -10.593 2.272 -10.35 2.276 -10.105 2.279 C -9.872 2.288 -9.653 2.306 -9.431 2.357 C -8.988 2.457 -8.564 2.664 -8.208 2.963 C -7.854 3.264 -7.568 3.651 -7.385 4.086 C -7.202 4.513 -7.131 5.016 -7.177 5.459 C -7.179 5.566 -7.221 5.713 -7.241 5.838 C -7.258 5.931 -7.306 6.082 -7.336 6.201 L -7.546 6.962 C -7.847 7.971 -8.169 8.974 -8.558 9.936 C -8.941 10.898 -9.344 11.838 -9.792 12.719 C -10.228 13.606 -10.7 14.438 -11.16 15.22 C -11.638 15.991 -12.102 16.714 -12.562 17.36 C -13.021 18.008 -13.459 18.59 -13.858 19.097 C -14.063 19.348 -14.253 19.583 -14.429 19.8 C -14.612 20.012 -14.78 20.205 -14.933 20.381 C -15.233 20.734 -15.488 20.999 -15.653 21.186 C -15.821 21.37 -15.91 21.469 -15.91 21.469 C -15.91 21.469 -15.813 21.379 -15.628 21.211 M -80.184 -37.518 C -72.641 -42.709 -65.894 -44.362 -57.522 -44.57 C -48.019 -44.807 -37.787 -43.882 -28.608 -41.393 C -28.171 -41.274 -27.734 -41.15 -27.3 -41.021 C -10.146 -35.887 2.27 -20.158 2.27 -2.053 C 2.27 20.557 -16.125 38.951 -38.734 38.951 C -61.343 38.951 -79.737 20.557 -79.737 -2.053 C -79.737 -14.948 -73.75 -26.472 -64.413 -33.993 C -68.909 -32.466 -71.265 -29.976 -74.933 -26.461 " fill="#231f20"/>
</g>
<clipPath id="cp6">
<path transform="matrix(1,0,0,-1,0,1323.88)" d="M 0 1323.881 L 411 1323.881 L 411 0 L 0 0 Z "/>
</clipPath>
<g clip-path="url(#cp6)">
<path transform="matrix(1,0,0,-1,210.2512,67.704959)" stroke-width="1" stroke-linecap="butt" stroke-miterlimit="10" stroke-linejoin="miter" fill="none" stroke="#231f20" d="M 0 0 L 0 -1191.083 "/>
<path transform="matrix(1,0,0,-1,236.4094,101.14148)" stroke-width="1" stroke-linecap="butt" stroke-miterlimit="10" stroke-linejoin="miter" fill="none" stroke="#231f20" d="M 0 0 L -24.22 0 "/>
<path transform="matrix(1,0,0,-1,210.7023,106.14392)" d="M 0 0 C -2.992 0 -5.418 2.425 -5.418 5.417 C -5.418 8.41 -2.992 10.835 0 10.835 C 2.992 10.835 5.418 8.41 5.418 5.417 C 5.418 2.425 2.992 0 0 0 " fill="#231f20"/>
<path transform="matrix(1,0,0,-1,184.0661,189.62683)" stroke-width="1" stroke-linecap="butt" stroke-miterlimit="10" stroke-linejoin="miter" fill="none" stroke="#231f20" d="M 0 0 L 24.219 0 "/>
<path transform="matrix(1,0,0,-1,209.7727,184.63416)" d="M 0 0 C 2.992 0 5.418 -2.425 5.418 -5.417 C 5.418 -8.409 2.992 -10.835 0 -10.835 C -2.992 -10.835 -5.417 -8.409 -5.417 -5.417 C -5.417 -2.425 -2.992 0 0 0 " fill="#231f20"/>
<path transform="matrix(1,0,0,-1,238.3293,282.57508)" stroke-width="1" stroke-linecap="butt" stroke-miterlimit="10" stroke-linejoin="miter" fill="none" stroke="#231f20" d="M 0 0 L -28.041 0 "/>
<path transform="matrix(1,0,0,-1,210.9211,287.56776)" d="M 0 0 C -3.113 0 -5.637 2.426 -5.637 5.417 C -5.637 8.41 -3.113 10.835 0 10.835 C 3.112 10.835 5.636 8.41 5.636 5.417 C 5.636 2.426 3.112 0 0 0 " fill="#231f20"/>
<path transform="matrix(1,0,0,-1,184.0661,369.76069)" stroke-width="1" stroke-linecap="butt" stroke-miterlimit="10" stroke-linejoin="miter" fill="none" stroke="#231f20" d="M 0 0 L 24.219 0 "/>
<path transform="matrix(1,0,0,-1,209.7727,364.768)" d="M 0 0 C 2.992 0 5.418 -2.426 5.418 -5.417 C 5.418 -8.41 2.992 -10.835 0 -10.835 C -2.992 -10.835 -5.417 -8.41 -5.417 -5.417 C -5.417 -2.426 -2.992 0 0 0 " fill="#231f20"/>
<path transform="matrix(1,0,0,-1,184.0661,609.9394)" stroke-width="1" stroke-linecap="butt" stroke-miterlimit="10" stroke-linejoin="miter" fill="none" stroke="#231f20" d="M 0 0 L 24.219 0 "/>
<path transform="matrix(1,0,0,-1,209.7727,604.9467)" d="M 0 0 C 2.992 0 5.418 -2.425 5.418 -5.417 C 5.418 -8.41 2.992 -10.835 0 -10.835 C -2.992 -10.835 -5.417 -8.41 -5.417 -5.417 C -5.417 -2.425 -2.992 0 0 0 " fill="#231f20"/>
<path transform="matrix(1,0,0,-1,238.2414,459.12403)" stroke-width="1" stroke-linecap="butt" stroke-miterlimit="10" stroke-linejoin="miter" fill="none" stroke="#231f20" d="M 0 0 L -26.052 .026 "/>
<path transform="matrix(1,0,0,-1,210.7023,464.09034)" d="M 0 0 C -2.992 0 -5.418 2.426 -5.418 5.418 C -5.418 8.41 -2.992 10.835 0 10.835 C 2.992 10.835 5.418 8.41 5.418 5.418 C 5.418 2.426 2.992 0 0 0 " fill="#231f20"/>
<path transform="matrix(1,0,0,-1,189.946,832.4579)" stroke-width="1" stroke-linecap="butt" stroke-miterlimit="10" stroke-linejoin="miter" fill="none" stroke="#231f20" d="M 0 0 L 18.339 0 "/>
<path transform="matrix(1,0,0,-1,209.7727,837.4501)" d="M 0 0 C 2.992 0 5.418 2.425 5.418 5.417 C 5.418 8.409 2.992 10.835 0 10.835 C -2.992 10.835 -5.417 8.409 -5.417 5.417 C -5.417 2.425 -2.992 0 0 0 " fill="#231f20"/>
<path transform="matrix(1,0,0,-1,234.6301,711.5683)" stroke-width="1" stroke-linecap="butt" stroke-miterlimit="10" stroke-linejoin="miter" fill="none" stroke="#231f20" d="M 0 0 L -22.44 -.027 "/>
<path transform="matrix(1,0,0,-1,210.7023,706.6025)" d="M 0 0 C -2.992 0 -5.418 -2.426 -5.418 -5.418 C -5.418 -8.409 -2.992 -10.835 0 -10.835 C 2.992 -10.835 5.418 -8.409 5.418 -5.418 C 5.418 -2.426 2.992 0 0 0 " fill="#231f20"/>
<path transform="matrix(1,0,0,-1,184.0661,1038.3251)" stroke-width="1" stroke-linecap="butt" stroke-miterlimit="10" stroke-linejoin="miter" fill="none" stroke="#231f20" d="M 0 0 L 24.219 0 "/>
<path transform="matrix(1,0,0,-1,209.7727,1043.3184)" d="M 0 0 C 2.992 0 5.418 2.426 5.418 5.418 C 5.418 8.41 2.992 10.835 0 10.835 C -2.992 10.835 -5.417 8.41 -5.417 5.418 C -5.417 2.426 -2.992 0 0 0 " fill="#231f20"/>
<path transform="matrix(1,0,0,-1,234.6301,933.16116)" stroke-width="1" stroke-linecap="butt" stroke-miterlimit="10" stroke-linejoin="miter" fill="none" stroke="#231f20" d="M 0 0 L -22.44 -.026 "/>
<path transform="matrix(1,0,0,-1,210.7023,928.19436)" d="M 0 0 C -2.992 0 -5.418 -2.426 -5.418 -5.418 C -5.418 -8.41 -2.992 -10.836 0 -10.836 C 2.992 -10.836 5.418 -8.41 5.418 -5.418 C 5.418 -2.426 2.992 0 0 0 " fill="#231f20"/>
</g>
<text fill="#131717" xml:space="preserve" transform="matrix(1 0 -0 1 0 1323.88)" font-size="43.61" font-family="Montserrat"><tspan y="-186.3628" x="149.1025 170.77667">20</tspan></text>
<text fill="#131717" xml:space="preserve" transform="matrix(1 0 -0 1 0 1323.88)" font-size="43.61" font-family="Montserrat"><tspan y="-167.6541" x="232.26676 253.11234">20</tspan><tspan y="-194.95397" x="103.79169 124.63727">20</tspan></text>
<text fill="#131717" xml:space="preserve" transform="matrix(1 0 -0 1 0 1323.88)" font-size="43.61" font-family="Montserrat"><tspan y="-151.99811" x="278.01365 299.6878">21</tspan></text>
<clipPath id="cp7">
<path transform="matrix(1,0,0,-1,0,1323.88)" d="M 0 1323.881 L 411 1323.881 L 411 0 L 0 0 Z "/>
</clipPath>
<g clip-path="url(#cp7)">
<path transform="matrix(1,0,0,-1,234.6301,1137.2227)" stroke-width="1" stroke-linecap="butt" stroke-miterlimit="10" stroke-linejoin="miter" fill="none" stroke="#231f20" d="M 0 0 L -22.44 -.026 "/>
<path transform="matrix(1,0,0,-1,210.7023,1132.2568)" d="M 0 0 C -2.992 0 -5.418 -2.425 -5.418 -5.417 C -5.418 -8.409 -2.992 -10.835 0 -10.835 C 2.992 -10.835 5.418 -8.409 5.418 -5.417 C 5.418 -2.425 2.992 0 0 0 " fill="#231f20"/>
<path transform="matrix(1,0,0,-1,254.4807,1266.7725)" d="M 0 0 C -.004 -.003 -.008 -.006 -.012 -.01 C -1.042 1.157 -3.504 3.651 -7.105 5.452 C -9.179 6.488 -11.151 7.732 -12.966 9.176 C -14.886 10.703 -16.611 12.482 -18.117 14.416 C -18.321 14.679 -18.509 14.954 -18.652 15.254 C -19.127 16.239 -19.183 17.421 -19.354 18.486 C -19.687 20.552 -20.687 22.064 -22.515 22.93 C -22.935 23.129 -23.367 23.396 -23.674 23.75 C -24.59 24.809 -25.318 26.014 -25.786 27.375 C -25.912 27.741 -26.136 27.959 -26.461 28.022 C -26.783 28.085 -27.121 28.095 -27.449 28.075 C -27.965 28.044 -28.478 27.955 -28.993 27.913 C -29.819 27.846 -30.228 28.156 -30.473 28.999 C -30.597 29.425 -30.73 29.847 -30.861 30.271 C -30.94 30.528 -31.111 30.632 -31.361 30.644 C -32.272 30.688 -33.182 30.772 -34.092 30.792 C -36.813 30.848 -39.543 30.748 -42.241 31.216 C -43.084 31.361 -43.919 31.625 -44.726 31.929 C -45.512 32.225 -46.005 32.853 -46.053 33.785 C -46.074 34.204 -46.059 34.627 -46.045 35.047 C -46.037 35.27 -46.003 35.492 -45.97 35.713 C -45.857 36.458 -46.252 36.929 -46.966 36.895 C -47.909 36.849 -48.249 37.106 -48.519 38.079 C -48.55 38.192 -48.546 38.322 -48.599 38.421 C -48.676 38.568 -48.763 38.744 -48.892 38.821 C -49.921 39.438 -50.973 40.017 -51.997 40.644 C -55.361 42.703 -58.733 44.744 -62.294 46.402 C -62.773 46.625 -63.017 46.575 -63.299 46.111 C -63.64 45.554 -64.095 45.144 -64.64 44.847 C -65.056 44.62 -65.481 44.407 -65.917 44.229 C -67.635 43.529 -69.432 43.143 -71.228 42.751 C -71.992 42.584 -72.232 41.997 -71.731 41.35 C -71.319 40.817 -70.801 40.381 -70.332 39.898 C -69.881 39.435 -69.392 39.004 -68.994 38.493 C -68.449 37.792 -68.481 37.029 -69.034 36.342 C -69.682 35.537 -70.439 34.866 -71.342 34.407 C -71.773 34.188 -72.232 34.033 -72.67 33.828 C -73.68 33.355 -74.542 32.666 -75.229 31.744 C -75.529 31.343 -75.847 31.205 -76.318 31.392 C -76.777 31.574 -77.256 31.718 -77.737 31.818 C -78.41 31.958 -79.091 32.074 -79.774 32.139 C -80.187 32.178 -80.503 31.946 -80.638 31.491 C -80.771 31.041 -80.945 30.602 -81.046 30.145 C -81.311 28.943 -81.541 27.733 -81.796 26.529 C -81.944 25.828 -81.762 25.576 -81.079 25.601 C -80.661 25.615 -80.243 25.674 -79.825 25.666 C -79.127 25.653 -78.54 25.37 -78.085 24.782 C -77.449 23.96 -77.182 22.95 -76.846 21.982 C -75.971 19.47 -74.777 17.166 -73.122 15.138 C -72.705 14.628 -72.325 14.067 -72.012 13.479 C -71.5 12.515 -71.393 11.413 -71.212 10.34 C -70.957 8.825 -70.226 7.731 -68.8 7.248 C -68.403 7.113 -68.004 6.961 -67.633 6.76 C -66.085 5.922 -65.1 4.534 -64.433 2.873 C -63.784 1.257 -63.481 -.409 -63.943 -2.162 C -64.142 -2.917 -64.15 -3.688 -64.001 -4.467 C -63.732 -5.875 -63.077 -7.061 -62.216 -8.133 C -61.001 -9.645 -59.722 -11.071 -58.076 -12.079 C -57.665 -12.331 -57.331 -12.762 -57.02 -13.161 C -56.188 -14.23 -55.877 -15.529 -55.68 -16.866 C -55.384 -18.863 -54.463 -20.35 -52.69 -21.197 C -52.276 -21.396 -51.88 -21.711 -51.575 -22.068 C -51.342 -22.344 -51.266 -22.771 -51.117 -23.131 C -50.612 -24.355 -50.115 -25.584 -49.59 -26.799 C -49.529 -26.938 -49.313 -27.063 -49.158 -27.082 C -48.544 -27.155 -48.025 -26.89 -47.592 -26.443 C -47.488 -26.336 -47.4 -26.158 -47.392 -26.007 C -47.339 -25.089 -47.307 -24.17 -47.277 -23.252 C -47.266 -22.861 -47.275 -22.47 -47.275 -22.079 L -47.156 -22.036 C -47.018 -22.196 -46.877 -22.355 -46.74 -22.518 C -45.961 -23.441 -45.039 -23.794 -43.92 -23.306 C -43.008 -22.908 -42.052 -22.821 -41.091 -22.896 C -39.028 -23.055 -36.972 -23.286 -34.908 -23.429 C -34.067 -23.487 -33.366 -23.673 -32.861 -24.48 C -32.617 -24.871 -32.186 -24.871 -31.75 -24.666 C -31.238 -24.426 -30.926 -23.971 -30.639 -23.491 C -29.692 -21.909 -28.632 -20.432 -27.239 -19.26 C -26.272 -18.446 -25.213 -17.89 -23.951 -17.812 C -21.108 -17.636 -18.295 -17.209 -15.511 -16.57 C -12.804 -15.95 -10.148 -15.129 -7.551 -14.105 C -5.482 -13.29 -3.457 -12.368 -1.518 -11.242 C -1.386 -11.165 -1.243 -11.048 -1.178 -10.911 C -.141 -8.738 .708 -6.495 1.165 -4.091 C 1.481 -2.429 1.105 -1.08 0 0 " fill="#231f20"/>
<path transform="matrix(1,0,0,-1,170.9133,872.57717)" d="M 0 0 C -.269 .03 -.504 .098 -.693 .182 C -.887 .259 -1.031 .358 -1.145 .438 C -1.256 .526 -1.331 .598 -1.376 .651 C -1.423 .703 -1.448 .731 -1.448 .731 C -1.448 .731 -1.412 .713 -1.345 .68 C -1.282 .642 -1.177 .602 -1.057 .55 C -.927 .505 -.771 .456 -.588 .424 C -.407 .388 -.197 .377 .022 .386 C .243 .397 .475 .441 .7 .516 C .926 .593 1.137 .712 1.326 .857 C 1.367 .895 1.428 .937 1.453 .969 C 1.497 1.017 1.566 1.075 1.588 1.113 C 1.648 1.191 1.72 1.291 1.77 1.393 C 1.874 1.595 1.933 1.816 1.933 2.04 C 1.933 2.264 1.874 2.485 1.77 2.688 C 1.658 2.891 1.522 3.069 1.318 3.228 C 1.138 3.366 .925 3.486 .7 3.563 C .475 3.638 .243 3.681 .022 3.693 C -.197 3.702 -.406 3.691 -.587 3.655 C -.771 3.623 -.927 3.574 -1.056 3.529 C -1.179 3.477 -1.283 3.438 -1.345 3.4 C -1.412 3.367 -1.448 3.349 -1.448 3.349 C -1.448 3.349 -1.423 3.377 -1.376 3.429 C -1.33 3.483 -1.254 3.555 -1.145 3.642 C -1.031 3.722 -.887 3.821 -.694 3.898 C -.504 3.983 -.269 4.05 0 4.08 C .535 4.149 1.22 4.054 1.795 3.669 C 2.056 3.495 2.318 3.25 2.479 2.966 C 2.649 2.684 2.737 2.361 2.741 2.04 C 2.737 1.718 2.648 1.396 2.479 1.114 C 2.397 .97 2.296 .844 2.166 .713 C 2.1 .642 2.052 .611 1.995 .561 C 1.921 .493 1.856 .458 1.787 .406 C 1.511 .22 1.19 .101 .882 .037 C .572 -.029 .268 -.032 0 0 M 4.199 22.803 L -3.901 19.097 L -3.901 30.629 L 4.199 34.335 Z M 4.199 38.688 L -3.901 34.981 L -3.901 46.514 L 4.199 50.22 Z M 4.199 54.573 L -3.901 50.867 L -3.901 62.398 L 4.199 66.104 Z M 4.199 70.458 L -3.901 66.752 L -3.901 78.283 L 4.199 81.989 Z M -1.752 2.04 C -1.752 2.699 -1.112 3.234 -.322 3.234 C .467 3.234 -.554 2.699 -.554 2.04 C -.554 1.381 .467 .846 -.322 .846 C -1.112 .846 -1.752 1.381 -1.752 2.04 M 5.841 -2.991 L 5.841 85.533 L -5.543 85.533 L -5.543 83.188 L -8.829 83.188 L -8.829 -.647 L -5.543 -.647 L -5.543 -2.991 Z " fill="#231f20"/>
<path transform="matrix(1,0,0,-1,183.2302,790.749)" d="M 0 0 L 7.879 -4.023 L 7.224 -15.542 L -.656 -11.519 Z M -.904 -15.866 L 6.976 -19.89 L 6.32 -31.409 L -1.56 -27.386 Z M -1.808 -31.733 L 6.072 -35.757 L 5.416 -47.275 L -2.464 -43.252 Z M -2.711 -47.601 L 5.168 -51.624 L 4.512 -63.143 L -3.368 -59.119 Z M 1.09 -78.454 C 1.341 -78.637 1.589 -78.893 1.733 -79.183 C 1.887 -79.472 1.957 -79.796 1.942 -80.118 C 1.92 -80.439 1.813 -80.757 1.627 -81.032 C 1.538 -81.173 1.429 -81.295 1.292 -81.42 C 1.222 -81.489 1.172 -81.518 1.113 -81.566 C 1.035 -81.631 .968 -81.663 .896 -81.712 C .609 -81.888 .283 -81.993 -.029 -82.045 C -.342 -82.099 -.646 -82.089 -.912 -82.047 C -1.179 -82.006 -1.41 -81.93 -1.594 -81.838 C -1.783 -81.753 -1.921 -81.647 -2.03 -81.563 C -2.137 -81.471 -2.208 -81.396 -2.25 -81.342 C -2.293 -81.288 -2.316 -81.259 -2.316 -81.259 C -2.316 -81.259 -2.282 -81.278 -2.217 -81.314 C -2.156 -81.355 -2.053 -81.399 -1.936 -81.456 C -1.81 -81.506 -1.656 -81.561 -1.475 -81.601 C -1.296 -81.644 -1.087 -81.662 -.868 -81.662 C -.647 -81.659 -.413 -81.625 -.183 -81.56 C .046 -81.492 .265 -81.381 .461 -81.243 C .504 -81.207 .567 -81.168 .595 -81.137 C .642 -81.091 .714 -81.035 .737 -80.997 C .803 -80.922 .879 -80.825 .936 -80.727 C 1.051 -80.528 1.123 -80.31 1.135 -80.086 C 1.148 -79.862 1.101 -79.639 1.008 -79.433 C .909 -79.226 .783 -79.042 .588 -78.875 C .417 -78.73 .211 -78.602 -.01 -78.516 C -.231 -78.432 -.46 -78.38 -.679 -78.358 C -.898 -78.341 -1.108 -78.343 -1.291 -78.372 C -1.476 -78.396 -1.634 -78.439 -1.766 -78.479 C -1.892 -78.527 -1.998 -78.563 -2.062 -78.597 C -2.131 -78.628 -2.167 -78.645 -2.167 -78.645 C -2.167 -78.645 -2.141 -78.617 -2.091 -78.567 C -2.042 -78.515 -1.962 -78.446 -1.848 -78.363 C -1.73 -78.288 -1.581 -78.195 -1.383 -78.125 C -1.189 -78.048 -.95 -77.99 -.68 -77.971 C -.142 -77.924 .537 -78.047 1.09 -78.454 M -1.05 -78.804 C -.261 -78.835 -1.312 -79.328 -1.349 -79.987 C -1.387 -80.646 -.397 -81.221 -1.186 -81.189 C -1.975 -81.157 -2.583 -80.599 -2.546 -79.939 C -2.509 -79.281 -1.839 -78.772 -1.05 -78.804 M -1.439 3.604 L -6.476 -84.819 L 4.896 -85.271 L 9.933 3.153 Z " fill="#231f20"/>
</g>
</g>
</g>
</svg>
