<svg xmlns="http://www.w3.org/2000/svg" xmlns:xlink="http://www.w3.org/1999/xlink" viewBox="0 0 242.72 1263.85"><defs><style>.cls-1,.cls-11{fill:none;}.cls-2,.cls-3{font-size:43.92px;}.cls-2,.cls-3,.cls-4,.cls-6,.cls-7,.cls-8,.cls-9{fill:#1d1d1b;}.cls-2,.cls-9{font-family:Montserrat-Thin, Montserrat;font-weight:200;}.cls-3,.cls-4,.cls-6,.cls-7,.cls-8{font-family:Montserrat-Medium, Montserrat;font-weight:500;}.cls-4{font-size:43.92px;}.cls-5{font-size:4.51px;font-family:Montserrat-Bold, Montserrat;font-weight:700;}.cls-6{font-size:10.63px;}.cls-7{font-size:10.56px;}.cls-8,.cls-9{font-size:43.61px;}.cls-10{clip-path:url(#clip-path);}.cls-11{stroke:#000;stroke-miterlimit:10;}</style><clipPath id="clip-path"><rect class="cls-1" x="65.85" y="953.85" width="41.94" height="104"/></clipPath></defs><g id="Layer_2" data-name="Layer 2"><g id="Layer_1-2" data-name="Layer 1"><text class="cls-2" transform="translate(8.35 37.33)">9</text><text class="cls-3" transform="translate(41.39 53.47)">0</text><text class="cls-2" transform="translate(146.98 143.22)">9</text><text class="cls-2" transform="translate(151.24 303.75)">9</text><text class="cls-4" transform="translate(176.48 158.78) rotate(1.23)">4</text><text class="cls-5" transform="translate(40.23 81.53)">Empire opens multiple <tspan x="0" y="5.42">locations in Lebanon and </tspan><tspan x="0" y="10.84">Syria.</tspan></text><text class="cls-6" transform="translate(39.5 72.9)">LOCATIONS</text><text class="cls-3" transform="translate(182.81 317.84)">8</text><text class="cls-5" transform="translate(40.99 288.83)">Empire becomes an <tspan x="0" y="5.42">exclusive license for </tspan><tspan x="0" y="10.84">Columba Ari-Star home </tspan><tspan x="0" y="16.25">entertainment in </tspan><tspan x="0" y="21.67">Lebanon.</tspan></text><text class="cls-5" transform="translate(157.83 461.85)">Empire opens offce in Dubai.</text><text class="cls-6" transform="translate(40.26 280.21)">LICENSEE</text><text class="cls-6" transform="translate(157.82 453.26)">OFFICES</text><rect x="101.49" y="44.78" width="76.7" height="2.09" transform="translate(185.66 -94.02) rotate(90)"/><path class="cls-1" d="M156.89,36.09c.06,9.42-8,17.06-18,17.09h-.07V19.3C148.83,19.33,156.83,26.74,156.89,36.09Z"/><path d="M138.87,53.18c10,0,18.08-7.67,18-17.09S148.83,19.33,138.8,19.3V7.08c12.55,0,24.24,7.53,28.53,19.27,2.8,7.66,1.45,15-1.39,22.36-5.91,15.21-14.83,28.88-24.75,42-.69.9-1.44,1.76-2.39,2.92V53.18Z"/><text class="cls-5" transform="translate(154.28 185.62)">Columbia pictures grant Empire <tspan x="0" y="5.42">exclusive distribution.</tspan></text><text class="cls-6" transform="translate(154.28 177.53)">EXCLUSIVE</text><rect x="50.71" y="153" width="88.62" height="6.61" transform="translate(251.33 61.29) rotate(90)"/><path d="M116.79,124.59V112H108.9v.91a.86.86,0,0,1-.94.74H99.07a.86.86,0,0,1-.95-.74V112H96.39v88.62h1.73V197a.86.86,0,0,1,.95-.74H108a.86.86,0,0,1,.94.74v3.62h7.89V188c-2.29-.69-3.88-2.15-3.88-3.83V128.42C112.91,126.74,114.5,125.29,116.79,124.59Zm-7.89,65.07a.86.86,0,0,1-.94.74H99.07a.86.86,0,0,1-.95-.74V186a.86.86,0,0,1,.95-.73H108a.86.86,0,0,1,.94.73Zm0-11a.86.86,0,0,1-.94.74H99.07a.86.86,0,0,1-.95-.74v-3.63a.86.86,0,0,1,.95-.74H108a.86.86,0,0,1,.94.74Zm0-11a.86.86,0,0,1-.94.73H99.07a.86.86,0,0,1-.95-.73v-3.63a.86.86,0,0,1,.95-.74H108a.86.86,0,0,1,.94.74Zm0-11a.86.86,0,0,1-.94.74H99.07a.86.86,0,0,1-.95-.74v-3.63a.86.86,0,0,1,.95-.74H108a.86.86,0,0,1,.94.74Zm0-11a.86.86,0,0,1-.94.73H99.07a.86.86,0,0,1-.95-.73v-3.63a.86.86,0,0,1,.95-.74H108a.86.86,0,0,1,.94.74Zm0-11a.86.86,0,0,1-.94.74H99.07a.86.86,0,0,1-.95-.74v-3.63a.86.86,0,0,1,.95-.74H108a.86.86,0,0,1,.94.74Zm0-11a.86.86,0,0,1-.94.74H99.07a.86.86,0,0,1-.95-.74v-3.63a.86.86,0,0,1,.95-.74H108a.86.86,0,0,1,.94.74Z"/><polygon points="148.7 209.82 178.44 214.14 156.92 235.11 162 264.72 138.42 252.33 138.42 188.99 148.7 209.82"/><text class="cls-3" transform="translate(39.54 258.5)">6</text><text class="cls-2" transform="translate(8.04 244.82)">9</text><text class="cls-3" transform="translate(181.9 430.8)">98</text><text class="cls-2" transform="translate(149.85 416.6)">9</text><text class="cls-5" transform="translate(157.3 345.95)">Empire is appointed exclusive <tspan x="0" y="5.42">distributor for 20th-century fox </tspan><tspan x="0" y="10.84">in ME.</tspan></text><text class="cls-6" transform="translate(157.3 337.33)">DISTRIBUTOR</text><path d="M34.32,412.38l60.41-87.79s13.18,4.91,14,23.18c.08,0-44,41.38-44,41.38L39,413.51A20.77,20.77,0,0,1,34.32,412.38Z"/><path d="M32.23,335s4.88-18.4,18-18.63l22.05,94.84-3,1.15Z"/><path d="M148.88,466.73h-.44c-1,0-1.76,1.09-1.76,2.43v1.32a123.11,123.11,0,0,1-38.65,0v-1.31c0-1.34-.79-2.43-1.76-2.43h-.44c-1,0-1.76,1.09-1.76,2.43v37.53l10,15.39,7.53,11.64-11.39,17.49a2.42,2.42,0,0,0,.13,2.69,1.3,1.3,0,0,0,.5.36l-3,11.06-2.45,3.76a3.3,3.3,0,0,0,.13,3.62h0a1.52,1.52,0,0,0,2.62-.18l19.29-29.83,19.29,29.83a1.53,1.53,0,0,0,2.63.18,3.3,3.3,0,0,0,.13-3.62l-2.53-3.88-2.91-11a1.34,1.34,0,0,0,.46-.35,2.42,2.42,0,0,0,.13-2.69l-11.39-17.49,17.48-27V469.16C150.64,467.82,149.85,466.73,148.88,466.73Zm-43.2,40.17c-.85,0-1-.6-1-.6V469.16c0-1.39,1-1.54,1-1.54Zm4-34.83c1.06.09,2.57.19,4.38.37.9.1,1.88.15,2.92.22s2.13.09,3.26.16,2.31.07,3.5.11,2.39,0,3.6,0,2.42,0,3.61,0,2.36-.08,3.49-.12l3.27-.16c1-.05,2-.11,2.92-.17l2.48-.18,1.9-.16,1.37-.12v0c-.27.05-.73.14-1.36.24-1.05.17-2.55.41-4.36.62s-3.93.43-6.2.58c-1.13.06-2.31.13-3.5.17s-2.4.07-3.61.09-2.43,0-3.62,0-2.37-.08-3.5-.16-2.24-.15-3.27-.27-2-.21-2.93-.35c-1.8-.25-3.31-.5-4.36-.66L108,472ZM108,487.55a123.11,123.11,0,0,0,38.65,0v4.57l-1.19-.38v-.68c0-.83-.49-1.5-1.08-1.5h-.88c-.6,0-1.08.67-1.08,1.5v9.81a51.27,51.27,0,0,1-30.19,0v-9.81c0-.83-.48-1.5-1.08-1.5h-.88c-.59,0-1.08.67-1.08,1.5v.68l-1.19.38Zm37.46,13v-6.69l1.19.37V502Zm1.19,2.07v1.25l-2.24-2.47c.76-.16.86-.44.86-.44Zm-3.05-9.56v7.74a.76.76,0,0,1-.78-.6v-8.84c0-1.14.78-1,.78-1v1.44a1.31,1.31,0,0,0-.16.42A1.36,1.36,0,0,0,143.63,493.07ZM110,491.53l-.39.12v-.28c0-1.14.65-1,.65-1v1.19A.46.46,0,0,0,110,491.53Zm.26,2v7.25a.68.68,0,0,1-.65-.6v-6.45Zm-2.21.68,1.19-.37v6.83L108,502.09Zm0,8.39,1.38-1.66s.1.28.86.44L108,503.88Zm2.64,48.87,11.23-17.23.33.5-9.26,15a.45.45,0,0,0-.14-.1c-.38-.2-.81.06-1,.59l-.63,2.31-.21.33C110.61,553.63,109.93,552.63,110.67,551.5Zm12.7-15,1.56,2.42-14.44,22.17,2.29-8.36Zm-14,24.88c.08-.33.17-.81.29-1.38.26-1.13.62-2.62,1-4.1s.82-2.94,1.16-4c.17-.55.32-1,.42-1.31l.17-.49s0,.19-.1.53-.16.8-.29,1.37c-.25,1.13-.62,2.62-1,4.1s-.82,2.94-1.16,4c-.16.54-.32,1-.42,1.3s-.17.49-.17.49S109.31,561.74,109.37,561.41Zm-2.68,10c-.55.93-1.48-.53-.52-2l19.28-29.7.88,1.35Zm41.52-.39c1,1.46-.64,1.88-1.19,1l-39.47-61.21,2,.5,17,26.33a1.9,1.9,0,0,0-.4,1.2c0,.87.51,1.58,1.14,1.58a1,1,0,0,0,.78-.43Zm-22.33-42.88.22.34L124.58,531l-.26-.41ZM124,530l-2.54-3.91h3.12l.63,1,.35.54Zm3.39.41,1.57,2.4-1.57,2.4-1.56-2.4Zm-1.94-4.32h.33l1,1.43v.08c0,.49.28.88.63.88h0l2.23,3.25-.26.4Zm3.78,1.51,1-1.51h3.12L130.75,530Zm-7.47-3-.56-.94h13.56l-.64.94Zm10.68-7.79h-9l-.41-.7h9.9Zm1.47-.88-4.51,7.32h-.26Zm-2.24,2.34-3.25,5h-2l-3.25-5Zm.42,5,7.52-11.55c1.21-.23,2.41-.48,3.62-.76l-8,12.31Zm1.15-7.4H121.51l-2.29-3.52a67.77,67.77,0,0,0,16.27,0Zm-9.45,7.4h-.23l-4.44-6.79Zm-1.09,0h-3.12L116.79,519h0l-5.27-8.09c1.21.28,2.41.53,3.62.76ZM129.78,539l1.56-2.42L142,552.89l2.19,8.2ZM142,550.6c.1.32.25.76.42,1.31.34,1.08.76,2.55,1.16,4s.76,3,1,4.1l.29,1.38c.06.33.1.52.1.52s-.07-.17-.17-.49-.26-.76-.42-1.3c-.34-1.09-.77-2.55-1.16-4s-.76-3-1-4.1c-.13-.57-.22-1-.29-1.37s-.1-.53-.1-.53Zm-.34-1.36a1.24,1.24,0,0,0-.3,1.23l0,.07-9.61-14.69.32-.5Zm-12.38-12.72-.43-2L144,511.23l2-.48Zm16-27.87c-.53.15-1.17.33-1.91.52s-1.57.4-2.49.6-1.91.4-3,.56-2.17.33-3.32.48-2.34.28-3.56.33c-.61,0-1.22.08-1.83.1l-1.86,0c-.61,0-1.23,0-1.85,0l-1.83-.05-1.81-.13c-.59,0-1.18-.09-1.76-.17-1.15-.14-2.27-.27-3.32-.5l-1.53-.29c-.5-.08-1-.24-1.43-.35-1.81-.46-3.32-.9-4.38-1.18s-1.66-.47-1.66-.47.61.08,1.68.26,2.6.43,4.43.78c.92.19,1.9.3,3,.45s2.15.23,3.3.34,2.34.12,3.54.21l1.82,0c.61,0,1.23,0,1.84,0l1.84,0c.61,0,1.21-.06,1.82-.08,1.21,0,2.39-.15,3.54-.23s2.26-.2,3.31-.34,2-.25,3-.37l2.51-.37c.74-.12,1.39-.24,1.92-.34l1.24-.23.44-.09S146.33,508.34,145.28,508.65Zm2.93-1.75c-.84,0-1-.6-1-.6V487.46a8.09,8.09,0,0,0,1-.27Zm0-36.69-1,.18v-1.23c0-1.39,1-1.54,1-1.54Z"/><text class="cls-5" transform="translate(46.38 726.98)">Empire is the frst to <tspan x="0" y="5.42">equip its cinemas with </tspan><tspan x="0" y="10.83">digital projectors.</tspan></text><text class="cls-7" transform="translate(46.28 706.13)">DIGITAL <tspan x="0" y="12.67">PROJECTION</tspan></text><text class="cls-8" transform="translate(43.31 694.46)">9</text><text class="cls-5" transform="translate(16.44 611.72)">Empire opens offce in <tspan x="0" y="5.42">Egypt, Jordan, and Iraq.</tspan></text><text class="cls-9" transform="translate(7.47 572.44)">9</text><text class="cls-8" transform="translate(38.99 588.11)">9</text><text class="cls-7" transform="translate(15.44 602.43)">MORE OFFICES</text><text class="cls-5" transform="translate(149.01 818.18)">Empire and Columbia pictures <tspan x="0" y="5.42">celebrate 50 years of success.</tspan></text><text class="cls-9" transform="translate(145.7 765.83)">0</text><text class="cls-8" transform="translate(191.11 781.5)">3</text><text class="cls-7" transform="translate(148.01 795.96)">FIFTY<tspan x="0" y="12.67">YEARS</tspan></text><path d="M165.87,676.18a26.13,26.13,0,0,1-26.13,26.13v3.85a30,30,0,1,0,0-60v3.86A26.13,26.13,0,0,1,165.87,676.18Z"/><path d="M175.57,676.18a36,36,0,0,1-36,36v5.31a41.32,41.32,0,1,0,0-82.63v5.32A36,36,0,0,1,175.57,676.18Z"/><path d="M160.23,676.18a20.49,20.49,0,0,0-20.49-20.49v41A20.49,20.49,0,0,0,160.23,676.18Z"/><text class="cls-5" transform="translate(30.82 945.26)">Empire co-produces its <tspan x="0" y="5.42">frst Emirati movie </tspan><tspan x="0" y="10.83">Hajwala 2.</tspan></text><text class="cls-7" transform="translate(30.82 924.9)">EMPIRE<tspan x="0" y="12.67">AWARD</tspan></text><text class="cls-5" transform="translate(20.91 1140.03)">Empire opens its fagship <tspan x="0" y="5.42">multiplex in Abha with </tspan><tspan x="0" y="10.83">the biggest IMAX screen </tspan><tspan x="0" y="16.25">and the frst 4DX in the </tspan><tspan x="0" y="21.67">Kingdom.</tspan></text><text class="cls-7" transform="translate(20.91 1119.67)">EMPIRE<tspan x="0" y="12.67">EXPERIENCE</tspan></text><text class="cls-5" transform="translate(149.17 1177.35)">Empire pursued its expansion <tspan x="0" y="5.42">vision inaugurating an 18 </tspan><tspan x="0" y="10.83">screen multiplex in Jeddah </tspan><tspan x="0" y="16.25">followed with another mega </tspan><tspan x="0" y="21.67">project in Khobar, Kingdom of </tspan><tspan x="0" y="27.09">Saudi Arabia. </tspan></text><text class="cls-7" transform="translate(149.17 1156.99)">EMPIRE<tspan x="0" y="12.67">EXPANDING</tspan></text><text class="cls-8" transform="translate(56.38 912.73)">8</text><text class="cls-5" transform="translate(150.22 1034.63)">Empire launches gaming &amp; <tspan x="0" y="5.42">licensing department.</tspan><tspan x="0" y="10.83">Empire fnds a new home </tspan><tspan x="0" y="16.25">launching its frst cinema in the </tspan><tspan x="0" y="21.67">Kingdom of Saudi Arabia, Jizan.</tspan></text><text class="cls-9" transform="translate(147.87 979.31)">0</text><text class="cls-9" transform="translate(0 685.39)">0</text><text class="cls-9" transform="translate(10.67 904.16)">0</text><text class="cls-8" transform="translate(193.55 994.98)">9</text><text class="cls-7" transform="translate(149.41 1009.87)">HUNDRED<tspan x="0" y="12.67">YEARS</tspan></text><path d="M136.22,882.45c-.93,1.31-1.22,2.55-.83,3.5a2.33,2.33,0,0,0,2.08,1.38,14.13,14.13,0,0,0,1.69.09c.61,0,1.21,0,1.78-.06s1,0,1.4,0,.53,0,.73,0a1.84,1.84,0,0,1,1,.29,3.27,3.27,0,0,0,.46.23,10.74,10.74,0,0,1-.29,3.56,25,25,0,0,0-.21,10.76l.33,1.26a33.17,33.17,0,0,1,1.18,5.65,14.23,14.23,0,0,1,0,1.58,15.05,15.05,0,0,0,.35,4.94c.1.37.19.73.29,1.08.61,2.24,1.13,4.18.51,6.24a14,14,0,0,1-1.5,3.09c-.3.52-.61,1.05-.89,1.61h-2.46A1.88,1.88,0,0,0,140,929l-1.46,5.18v0s0,0,0,.08v6.58a2.08,2.08,0,0,0,2,2.14h19.16a2.08,2.08,0,0,0,2-2.14v-6.58l0-.08v0L160.23,929a1.88,1.88,0,0,0-1.78-1.4H156c-.28-.56-.59-1.09-.9-1.61a14.45,14.45,0,0,1-1.49-3.09c-.62-2.06-.1-4,.51-6.24.1-.35.19-.71.29-1.08a15.33,15.33,0,0,0,.35-4.94,14.23,14.23,0,0,1,0-1.58,33.17,33.17,0,0,1,1.18-5.65l.33-1.26a24.86,24.86,0,0,0-.22-10.76,11,11,0,0,1-.28-3.56,3.27,3.27,0,0,0,.46-.23,1.84,1.84,0,0,1,1-.29c.2,0,.44,0,.73,0s.9,0,1.4,0,1.17.06,1.78.06a14.25,14.25,0,0,0,1.69-.09,2.33,2.33,0,0,0,2.08-1.38c.39-1,.1-2.19-.83-3.5a16.6,16.6,0,0,1-2.17-4.1,7.5,7.5,0,0,0-4.5-4.25,24,24,0,0,1-3.54-1.6,1.53,1.53,0,0,1-.47-1.57,5.47,5.47,0,0,1,.16-.59,8.55,8.55,0,0,0,.29-3.7,3.47,3.47,0,0,0-3.53-3.59H150a3.47,3.47,0,0,0-3.53,3.59,8.61,8.61,0,0,0,.28,3.7,5.35,5.35,0,0,1,.17.59,1.53,1.53,0,0,1-.48,1.57,23.07,23.07,0,0,1-3.54,1.6,7.51,7.51,0,0,0-4.49,4.25A16.6,16.6,0,0,1,136.22,882.45Zm8.07,14.2c0-.76.09-1.44.17-2s.16-1.13.24-1.56.17-.76.23-1l.1-.34-.08.35c0,.22-.11.56-.18,1s-.13,1-.18,1.57-.08,1.29-.1,2,0,1.56.06,2.41c0,.22,0,.43.06.65a5,5,0,0,0,.08.66c0,.22.06.44.1.66s.09.45.14.68c.22.9.48,1.83.73,2.78s.49,1.92.68,2.91a13,13,0,0,1,.19,1.51c0,.51,0,1,0,1.51a21.29,21.29,0,0,0-.05,2.87,11.4,11.4,0,0,0,.17,1.34c0,.22.09.44.14.65l.15.63c.22.83.43,1.61.58,2.35a12.58,12.58,0,0,1,.3,2,8.57,8.57,0,0,1-.06,1.58l0,.31-.06.27a2.61,2.61,0,0,1-.1.42l-.1.34.08-.35a2.87,2.87,0,0,0,.08-.42c0-.17.06-.36.08-.58a9.08,9.08,0,0,0,0-1.56,14,14,0,0,0-.36-2c-.17-.73-.4-1.5-.63-2.33l-.17-.63c-.05-.21-.11-.42-.15-.65a10.57,10.57,0,0,1-.2-1.39,21.77,21.77,0,0,1,0-2.91,11.87,11.87,0,0,0,0-1.46,14.43,14.43,0,0,0-.2-1.47c-.18-1-.42-1.94-.66-2.89s-.48-1.88-.7-2.8c0-.22-.1-.45-.14-.68l-.06-.35c0-.11,0-.23,0-.34s-.05-.45-.06-.67,0-.44-.05-.66C144.25,898.22,144.26,897.4,144.29,896.65Zm2.61-23.38-.13.09c-.09.06-.21.15-.39.25a15.74,15.74,0,0,1-1.44.76c-.31.15-.64.3-1,.45s-.73.3-1.11.47a6.42,6.42,0,0,0-3,2.49q-.18.29-.33.57c-.1.19-.2.4-.29.59-.17.4-.35.78-.52,1.14s-.34.71-.51,1a12.28,12.28,0,0,1-.93,1.41c-.12.16-.22.28-.28.37l-.11.13.34-.54a14.46,14.46,0,0,0,.8-1.47c.3-.62.6-1.38.93-2.19.09-.21.18-.4.28-.61a6.21,6.21,0,0,1,.34-.61,7.66,7.66,0,0,1,.86-1.11,6.93,6.93,0,0,1,1.08-.88,7.69,7.69,0,0,1,1.17-.61c.4-.16.78-.28,1.14-.42l1-.38c.62-.25,1.14-.46,1.49-.63l.41-.2ZM143.64,885a1.78,1.78,0,0,1-.3.07,3.66,3.66,0,0,1-.81.05A2.18,2.18,0,0,1,142,885a1.81,1.81,0,0,1-.31-.09l-.16-.08-.13-.07c-.18-.1-.38-.21-.57-.34a2.58,2.58,0,0,1-.56-.46,1,1,0,0,1-.23-.38.66.66,0,0,1,0-.55,1,1,0,0,1,.29-.34l.15-.1.14-.08a4.65,4.65,0,0,1,.57-.26l.49-.2.4-.18a1.39,1.39,0,0,0,.3-.17l.17-.14.06-.06,0,.08a1.28,1.28,0,0,1-.12.21,1.5,1.5,0,0,1-.25.27,4.18,4.18,0,0,1-.38.29c-.14.1-.3.19-.46.29l-.49.3a1.13,1.13,0,0,0-.37.33.13.13,0,0,0,0,.12.4.4,0,0,0,.12.19,2.55,2.55,0,0,0,.46.39l.52.35.13.09.11.07.24.12c.16.06.33.11.48.15l.43.09.34.07Zm-1.23-.71c-.59-.36-1.68-.61-1.09-1a7.39,7.39,0,0,0,1.82-1.41,6.35,6.35,0,0,0,.66,1.57,2.16,2.16,0,0,1,.38,1.08A3.44,3.44,0,0,1,142.41,884.28ZM156,883.17l-.08.11-.06.09a1,1,0,0,0-.11.21l-.2.41-.16.32-.06.12a.51.51,0,0,1-.05-.14,1.66,1.66,0,0,1,0-.37,1.76,1.76,0,0,1,.07-.53,1.66,1.66,0,0,1,.1-.29l.09-.16.09-.12c.09-.12.19-.27.28-.41l.27-.4a3.22,3.22,0,0,1,.21-.29l.09-.1v.14a2,2,0,0,1,0,.37,2.24,2.24,0,0,1-.13.49c0,.09-.07.18-.11.27A2,2,0,0,1,156,883.17Zm.44.23a6,6,0,0,0,.66-1.57,7.45,7.45,0,0,0,1.83,1.41c.58.43-.5.68-1.09,1a3.44,3.44,0,0,1-1.77.2A2.21,2.21,0,0,1,156.41,883.4Zm4.67,50.31a.82.82,0,0,1-.28.62l-.16.09-.18.05h-.8l-2.27,0-2.43,0h-5l-2.42,0c-.79,0-1.55,0-2.27,0l-2-.05c-1.26,0-2.31-.08-3-.1l-.85,0-.3,0h.3l.85,0c.74,0,1.79-.07,3-.1l2,0,2.27,0,2.42,0h5l2.43,0,2.27,0h.78l.06,0,.07,0a.38.38,0,0,0,.15-.3.25.25,0,0,0,0-.08.7.7,0,0,0,0-.12l-.06-.24c-.16-.64-.32-1.23-.44-1.76l-.34-1.35c-.09-.38-.16-.68-.2-.88l-.08-.31.11.3c.06.2.16.49.28.85l.44,1.33c.17.51.35,1.09.55,1.72l.07.24a1,1,0,0,1,0,.13A.86.86,0,0,1,161.08,933.71Zm-3.8,7,1.83,0-1.83,0c-1.16,0-2.82,0-4.82.05l-6.81,0h-3.6l-.3,0a1.14,1.14,0,0,1-.86-.44l0-.09a.25.25,0,0,0,0-.08v-2.89a.47.47,0,0,1,0-.16,1.11,1.11,0,0,1,.86-.44l.17,0h3.73l3.59,0,3.22,0,4.82.05,1.83,0-1.83,0-4.82.05-3.22,0-3.59,0H142.3a4.26,4.26,0,0,0-.43,0,.59.59,0,0,0-.48.25.32.32,0,0,0,0,.09v2.89s0,.05,0,.06l0,0a.62.62,0,0,0,.48.25h3.78l6.81.05C154.46,940.7,156.12,940.73,157.28,940.74Z"/><path d="M154,860c-.08.37-.16.73-.23,1.1l-.51,2.39c-.06.3-.13.6-.19.9a1.59,1.59,0,0,0-.07.38h0s0,0-.06,0h-2.66a.55.55,0,0,0-.18,0H148a5.93,5.93,0,0,1-.75,0s-.06-.18-.06-.23c-.06-.25-.11-.49-.16-.74-.2-1-.4-1.89-.61-2.84l-.15-.73a.75.75,0,0,1,0-.3c0-.07.05-.09.1-.12a.25.25,0,0,1,.14.06.76.76,0,0,1,.13.17l.2.32.8,1.23c.07.12.15.24.23.36s.07.12.11.17h0s0-.09,0-.13.08-.2.13-.3l.57-1.36c0-.12.16-.53.34-.5s.27.39.33.52l.75,1.76h0c.27-.6.53-1.21.79-1.81,0-.12.16-.51.35-.48s.26.42.31.54c.25.59.49,1.18.74,1.76h0c.41-.62.81-1.25,1.21-1.88.06-.09.3-.57.47-.39S154,860,154,860Z"/><g class="cls-10"><path d="M67.4,1043.68c7.54,5.19,14.29,6.85,22.66,7.06a103.47,103.47,0,0,0,28.91-3.18l1.31-.37c17.15-5.14,29.57-20.87,29.57-39a41,41,0,1,0-66.68,31.94c-4.5-1.53-6.85-4-10.52-7.53M132,985c.18.18.47.41.79.75l.55.54.62.67c.43.48.92,1,1.41,1.67s1,1.34,1.51,2.11,1,1.6,1.47,2.49a28.12,28.12,0,0,1,1.31,2.82c.4,1,.74,2,1.06,3l.2.78c0,.14.07.24.11.41a3.8,3.8,0,0,1,.06.4,3.56,3.56,0,0,1-.26,1.72,3.47,3.47,0,0,1-2.51,2,3.62,3.62,0,0,1-.8.08h-.72l-1.41,0-2.57,0c-1.6,0-2.93-.1-3.86-.13l-1.46-.06,1.46-.07,3.86-.12,2.57-.06,1.41,0h.72a3.72,3.72,0,0,0,.68-.08,2.87,2.87,0,0,0,1.22-.61,2.93,2.93,0,0,0,.82-1.12,2.89,2.89,0,0,0,.15-1.75c0-.09-.07-.25-.1-.37l-.21-.76c-.3-1-.62-2-1-3s-.78-1.9-1.23-2.78-.91-1.72-1.37-2.5-.94-1.5-1.4-2.15-.9-1.22-1.3-1.73c-.2-.25-.39-.49-.57-.7l-.5-.59c-.3-.35-.56-.61-.72-.8l-.26-.28Zm-5.09,46.36-.17-.29.19.26c.07.09.17.18.27.3a4.1,4.1,0,0,0,.42.34,3.15,3.15,0,0,0,1.31.52,3.08,3.08,0,0,0,1.76-.24,2.55,2.55,0,0,0,.43-.25l.2-.15.21-.19.79-.82.81-.91c.26-.33.55-.64.82-1,.54-.68,1.07-1.39,1.58-2.14s1-1.52,1.47-2.32.9-1.6,1.29-2.43.74-1.63,1.06-2.44c.16-.4.29-.8.44-1.19s.26-.78.38-1.16.23-.76.33-1.1a3.18,3.18,0,0,0,.08-1,3.23,3.23,0,0,0-.67-1.66,3.19,3.19,0,0,0-1.11-.87l-.26-.11-.24-.08c-.15,0-.28-.07-.39-.08l-.33,0h.33c.11,0,.25,0,.41,0a3.65,3.65,0,0,1,.53.15,3.5,3.5,0,0,1,1.24.83,3.44,3.44,0,0,1,.55.77,3.54,3.54,0,0,1,.31,1,3.19,3.19,0,0,1,0,1.15c-.08.39-.18.75-.28,1.14s-.22.79-.34,1.2-.26.81-.41,1.23c-.31.82-.63,1.67-1,2.5s-.83,1.67-1.29,2.49-1,1.6-1.52,2.36l-.4.56-.41.54c-.28.36-.57.7-.85,1s-.57.65-.86,1l-.86.89c-.29.28-.55.55-.85.82l-.22.17c-.07.06-.17.11-.25.17a3.5,3.5,0,0,1-.51.26,3.46,3.46,0,0,1-1,.22,3.13,3.13,0,0,1-.93-.09,3.43,3.43,0,0,1-1.34-.66,3,3,0,0,1-.4-.39C127,1031.5,126.91,1031.4,126.86,1031.31Zm-7.14,7.48a3.54,3.54,0,0,1-1.33,1.09,2.38,2.38,0,0,1-.4.16l-.4.12-.77.21a31.55,31.55,0,0,1-3.14.6,27.53,27.53,0,0,1-3.08.28,31.19,31.19,0,0,1-5.47-.26,30.72,30.72,0,0,1-3.78-.78c-.45-.12-.8-.23-1-.31l-.36-.12s.52.13,1.43.3a33.42,33.42,0,0,0,3.79.53c.79.07,1.65.12,2.55.14s1.86,0,2.85-.07a35.91,35.91,0,0,0,6.09-1,9.3,9.3,0,0,0,1.46-.44,2.84,2.84,0,0,0,1.09-.88,2.88,2.88,0,0,0,.46-2.63,7.05,7.05,0,0,0-.63-1.26c-.23-.42-.45-.83-.68-1.22l-1.23-2.26c-.77-1.4-1.38-2.57-1.82-3.39s-.67-1.3-.67-1.3l.78,1.23c.49.79,1.21,1.91,2,3.27l1.34,2.2.72,1.2a8,8,0,0,1,.71,1.34A3.48,3.48,0,0,1,119.72,1038.79Zm-20.57-58.1a1.9,1.9,0,0,1,1.16-2.77,31.75,31.75,0,0,1,17.08,0,1.9,1.9,0,0,1,1.16,2.77,26,26,0,0,0-10.81-.77A27.64,27.64,0,0,0,100,982.2Zm31.17,6.8c-.72-.66-1.45-1.26-2.17-1.82a1.88,1.88,0,0,1,1.06-.53l.27,0a1.79,1.79,0,0,1,1.27.52,31.36,31.36,0,0,1,8.62,14.88,1.84,1.84,0,0,1-.34,1.6,1.89,1.89,0,0,1-1,.65A24,24,0,0,0,130.32,987.49ZM129,989a22.13,22.13,0,0,1,7.09,13.9h-1.36a26.39,26.39,0,0,0-8.3-14.35l.66-1.16C127.74,987.85,128.37,988.38,129,989Zm8.53,24.63a1.88,1.88,0,0,1,1.5.74,1.83,1.83,0,0,1,.34,1.59h0a31.41,31.41,0,0,1-8.62,14.88,1.88,1.88,0,0,1-2.72-.16c.45-.42.89-.87,1.35-1.33,3.2-3.26,6.51-9,8-15.73ZM128,1027.93l-1,1-.56-1a26.42,26.42,0,0,0,8.3-14.36h.66A32,32,0,0,1,128,1027.93Zm-9.27,9.32s0,.09,0,.14a2,2,0,0,1-1.27,1.13,31,31,0,0,1-3.94.83A43.14,43.14,0,0,0,118.7,1037.25Zm-13.37,2.24a31.57,31.57,0,0,1-5-1,1.92,1.92,0,0,1-1.27-1.13,1.88,1.88,0,0,1,.11-1.65l1.4-2.43a26.53,26.53,0,0,0,16.59,0l1.15,2C115,1036.93,113.45,1039.35,105.33,1039.49ZM97,1014.35a13,13,0,0,1-1.54-5.06c0-.23,0-.47,0-.7l0-.35v-.37l0-.68v-.34l.05-.36a11.4,11.4,0,0,1,.25-1.44l.18-.71c.06-.23.16-.46.23-.69a13.22,13.22,0,0,1,8.11-8.11,13.33,13.33,0,0,1,5.62-.7,13,13,0,0,1,8.74,4.51,12.4,12.4,0,0,1,2.08,3.35l.17.4c0,.13.09.27.13.4l.25.75c.12.49.2,1,.29,1.36l.12,1.11a8.08,8.08,0,0,1,0,.82v.68s0-.24-.07-.68c0-.22,0-.49-.11-.81l-.21-1.07c-.12-.39-.24-.83-.41-1.29l-.29-.71-.15-.37-.2-.37a12.53,12.53,0,0,0-2.18-3.07,12.94,12.94,0,0,0-3.55-2.6,12.52,12.52,0,0,0-9.82-.51,12.33,12.33,0,0,0-7.34,7.34c-.07.21-.17.41-.22.62l-.17.64a8.5,8.5,0,0,0-.25,1.26l-.06.32c0,.11,0,.22,0,.34l0,.67,0,.31v.32l0,.64a12.35,12.35,0,0,0,1.25,4.7,12.79,12.79,0,0,0,2.6,3.55,12.41,12.41,0,0,0,3.06,2.18l.37.2.38.15.71.3c.46.16.9.28,1.29.4l1.07.22c.31.06.59.07.81.1l.68.07h-.68a8,8,0,0,1-.82,0l-1.11-.12c-.41-.09-.87-.17-1.36-.29l-.75-.25-.4-.13-.4-.17A12.4,12.4,0,0,1,100,1018,12.84,12.84,0,0,1,97,1014.35Zm10.18-10.64-.14.07,0,0-.05,0-.21.11-.21.11-.1.05,0,0,0,0h0l-.76.53a1.27,1.27,0,0,1-1.15.06l-.12-.06-.09-.06-.19-.11-.35-.22-.64-.41c-.78-.52-1.28-.92-1.28-.92s.6.21,1.46.59l.7.31.74.35a.71.71,0,0,0,.6-.07l.72-.54.06,0h0l0,0,.11,0,.21-.1.2-.11.12,0,.06,0a.71.71,0,0,0,.34-.5c0-.28,0-.56,0-.82s0-.52,0-.76c.06-.94.15-1.57.15-1.57s.13.63.23,1.56c0,.24.06.49.08.76l0,.41,0,.22v.25A1.28,1.28,0,0,1,107.19,1003.71Zm1.66,2.17a2.34,2.34,0,1,1-2.34,2.34A2.33,2.33,0,0,1,108.85,1005.88Zm-6.37,4.45.52-.36.14-.08.12-.09a.69.69,0,0,0,.14-.15.7.7,0,0,0,.12-.4c0-.06,0-.18,0-.3s0-.22,0-.32a3.08,3.08,0,0,1,0-.62,2.5,2.5,0,0,1,.1-.53,1.14,1.14,0,0,0,0-.37,1.58,1.58,0,0,0-.12-.29,1,1,0,0,0-.19-.22l.07,0a.86.86,0,0,1,.21.11,1,1,0,0,1,.41.78c0,.16,0,.33,0,.52a5.35,5.35,0,0,0,0,.55,2.93,2.93,0,0,0,0,.29c0,.1,0,.18.06.34a1.34,1.34,0,0,1-.22.82,1.52,1.52,0,0,1-.31.31l-.07,0-.08.05-.14.08-.56.3c-.35.19-.7.36-1,.49a8.14,8.14,0,0,1-1,.41,9.16,9.16,0,0,1,.83-.73C101.84,1010.79,102.15,1010.56,102.48,1010.33Zm-.25,5.27c.24.16.58.38,1,.62a12.81,12.81,0,0,0,1.44.73c.27.12.56.22.85.33s.59.19.89.27l.23.05.09,0,.11,0a.71.71,0,0,0,.7-.53.41.41,0,0,0,0-.16v-.65c0-.28,0-.54,0-.78,0-1,.15-1.62.15-1.62s.12.64.23,1.61c0,.24.05.5.07.78s0,.28,0,.43l0,.22a1.37,1.37,0,0,1,0,.28,1.24,1.24,0,0,1-.71.94,1.23,1.23,0,0,1-.64.12l-.13,0-.14,0-.24-.06a8.7,8.7,0,0,1-1.83-.71,8,8,0,0,1-1.41-.94,6.15,6.15,0,0,1-.85-.83c-.1-.11-.16-.2-.21-.26l-.07-.09Zm4.17-5.17a2.73,2.73,0,0,1-.48-.85,3,3,0,0,1-.18-.72,3.75,3.75,0,0,1,0-.48v-.16l0,.16a3.2,3.2,0,0,0,.1.45,4.57,4.57,0,0,0,.28.63,2.92,2.92,0,0,0,.55.7,3,3,0,0,0,.84.57,2.9,2.9,0,0,0,1.07.26,3.06,3.06,0,0,0,1.16-.18,3,3,0,0,0,1-.65,2.89,2.89,0,0,0,.8-1.57,2.72,2.72,0,0,0,0-.31,2.61,2.61,0,0,0,0-.28,2.91,2.91,0,0,0-.26-1.08,3,3,0,0,0-.57-.84,3.12,3.12,0,0,0-.7-.55,4.57,4.57,0,0,0-.63-.28,3.2,3.2,0,0,0-.45-.1l-.16,0h.63a3,3,0,0,1,.73.18,2.77,2.77,0,0,1,.85.49,2.94,2.94,0,0,1,.77.89,3.16,3.16,0,0,1,.41,1.28,2.06,2.06,0,0,1,0,.36c0,.11,0,.21,0,.34a2.5,2.5,0,0,1-.16.73,3.26,3.26,0,0,1-2.07,2.07,3.29,3.29,0,0,1-3.61-1Zm9.56-9a1.23,1.23,0,0,0-.09-.22l0-.07.07,0a.75.75,0,0,1,.17.18,1,1,0,0,1,.13.93.94.94,0,0,1-.15.3,1.18,1.18,0,0,1-.25.25,6.42,6.42,0,0,1-.53.38c-.36.25-.76.51-1.16.76l-.61.36-.3.17a1.12,1.12,0,0,1-.4.14,1.16,1.16,0,0,1-.79-.12l-.16-.11-.06,0-.05-.05-.2-.17c-.27-.22-.51-.39-.68-.51l-.27-.17a2.23,2.23,0,0,1,.32.06,3.15,3.15,0,0,1,.83.3l.25.14.13.07.1,0a.77.77,0,0,0,.45,0,.72.72,0,0,0,.22-.1l.28-.2.6-.37c.4-.25.81-.48,1.2-.69l.55-.29a1.4,1.4,0,0,0,.2-.13,1.15,1.15,0,0,0,.14-.17A1,1,0,0,0,116,1001.38Zm-3.41,15.9c.29-.16.63-.36,1-.58l.53-.35.54-.38c.35-.26.69-.54,1-.81.15-.14.32-.27.44-.39a.86.86,0,0,0,.08-1.06,1,1,0,0,0-.14-.18l-.06-.06.08,0a.82.82,0,0,1,.22.12,1,1,0,0,1,.39.82,1.1,1.1,0,0,1-.19.64,6.4,6.4,0,0,1-.41.5,8.22,8.22,0,0,1-1,.92l-.59.38a5.7,5.7,0,0,1-.59.32,5.9,5.9,0,0,1-1.12.43,7.12,7.12,0,0,1-.82.17l-.32,0Zm3.85-6.08c-.24-.14-.46-.29-.66-.42-.82-.54-1.33-.94-1.33-.94s.62.21,1.51.61l.71.32.39.18a2.36,2.36,0,0,0,.35.16.71.71,0,0,0,.61-.15.64.64,0,0,0,.18-.25c0-.08.07-.27.11-.42s.12-.61.16-.92.08-.6.1-.9a14.72,14.72,0,0,0,0-1.62c0-.47-.07-.87-.11-1.15l-.06-.45,0,.11c0,.07.09.17.14.3a7.58,7.58,0,0,1,.35,1.14c.06.24.1.51.14.79a6.51,6.51,0,0,1,0,.9,8.28,8.28,0,0,1-.2,2,4.07,4.07,0,0,1-.14.51,1.32,1.32,0,0,1-.39.51,1.28,1.28,0,0,1-1.16.2,2.62,2.62,0,0,1-.45-.23Zm-7.55-29.41h-.24a23.67,23.67,0,0,1,8.92.65l-.39.68A26.47,26.47,0,0,0,108.85,981.79Zm-30.19,32.53a1.89,1.89,0,0,1,1.5-.74H83a26.38,26.38,0,0,0,8.29,14.36l-1.39,2.42a1.89,1.89,0,0,1-1.39.93,1.85,1.85,0,0,1-1.54-.49,31.57,31.57,0,0,1-8.62-14.88A1.84,1.84,0,0,1,78.66,1014.32Zm13.67,14c.4-.79.89-1.7,1.43-2.68.27-.48.54-1,.83-1.5l.88-1.53c.14-.26.31-.52.42-.75a2.9,2.9,0,0,0,.23-.76,3.11,3.11,0,0,0-.16-1.52,2.17,2.17,0,0,0-.15-.35c-.07-.11-.11-.2-.19-.31l-.46-.64c-.3-.43-.55-.85-.77-1.24a15,15,0,0,1-.9-2c-.09-.24-.15-.44-.19-.57l-.07-.21s.13.27.38.73.61,1.09,1.1,1.82c.25.37.53.75.84,1.15l.5.6a4,4,0,0,1,.25.37c.07.13.14.26.2.4a3.46,3.46,0,0,1,.24,1.84,3.1,3.1,0,0,1-.27.93c-.14.3-.29.54-.44.8l-.89,1.53c-.29.51-.6,1-.88,1.47-.58,1-1.13,1.83-1.61,2.58C91.69,1030,91,1031,91,1031S91.5,1029.93,92.33,1028.35Zm27.93-47.51a4.39,4.39,0,0,1-.33.73l-.36.64c-.5.84-1,1.69-1.48,2.52s-1,1.65-1.43,2.44l-1.37,2.27L115,990l-.16.27-.18.25a3.15,3.15,0,0,1-.9.82,3.33,3.33,0,0,1-2,.49,8.09,8.09,0,0,1-.83-.13l-.7-.1c-.85-.1-1.34-.11-1.34-.11l.35,0c.23,0,.57,0,1,0l.71,0c.26,0,.54.07.82.07a3.21,3.21,0,0,0,1.79-.56,2.85,2.85,0,0,0,.75-.76,2.52,2.52,0,0,0,.15-.24l.15-.26.3-.55,1.28-2.31c.46-.8.91-1.63,1.4-2.47l1.45-2.53.37-.64a3.56,3.56,0,0,0,.27-.6,2.83,2.83,0,0,0,.12-1.29,3,3,0,0,0-1.34-2.09,1.74,1.74,0,0,0-.27-.14l-.13-.07-.16-.06-.16-.06h-.06l-.08,0-.32-.09c-.42-.13-.83-.24-1.24-.34-.81-.19-1.59-.36-2.3-.48a33.79,33.79,0,0,0-3.51-.46c-.85-.07-1.34-.09-1.34-.09l.35,0,1,0a31.18,31.18,0,0,1,3.56.21c.73.09,1.53.21,2.36.39.41.08.84.18,1.27.28a4.79,4.79,0,0,1,1.34.5,3.49,3.49,0,0,1,1.54,4.07Zm-26.52,8.94L95,991.91l.71,1.16c.11.2.23.4.36.61l.18.3a2.7,2.7,0,0,1,.17.34,3.48,3.48,0,0,1-.12,3.14,4.37,4.37,0,0,1-.46.67c-.16.2-.3.4-.45.6-.29.42-.56.84-.81,1.28s-.49.88-.7,1.34c-.1.23-.21.45-.3.69a5.31,5.31,0,0,1-.35.73,3.5,3.5,0,0,1-2.65,1.67H89.16l-1.36,0-2.49,0c-1.55,0-2.83-.1-3.73-.13l-1.42-.06,1.42-.07,3.73-.12,2.49-.06,1.36,0h1.06c.11,0,.22,0,.33,0a2.94,2.94,0,0,0,2.17-1.42,5,5,0,0,0,.3-.65c.09-.24.2-.48.3-.71.22-.48.46-.94.72-1.4s.55-.89.85-1.32c.16-.21.31-.42.47-.62a3.89,3.89,0,0,0,.41-.58,2.93,2.93,0,0,0,.16-2.59,2.75,2.75,0,0,0-.14-.3l-.18-.31-.34-.62-.66-1.19L93.41,990c-.74-1.36-1.33-2.5-1.75-3.29s-.65-1.26-.65-1.26l.76,1.19C92.24,987.38,92.94,988.46,93.74,989.78Zm-6,2.56A26.33,26.33,0,0,0,83,1002.85H80.16a1.89,1.89,0,0,1-1.5-.73,1.84,1.84,0,0,1-.34-1.6,31.52,31.52,0,0,1,8.62-14.88,1.79,1.79,0,0,1,1.27-.52l.27,0a1.88,1.88,0,0,1,1.39.94l1.3,2.25A31.55,31.55,0,0,0,87.72,992.34Zm59.86,13.83a43.83,43.83,0,0,0-.82-5.74,38.71,38.71,0,0,0-2.92-8.47,37.39,37.39,0,0,0-2.74-4.77,40.26,40.26,0,0,0-3.76-4.8,38.89,38.89,0,0,0-10.86-8.22A38.36,38.36,0,0,0,71,1003.24l-.13,1-.09,1c0,.33,0,.66-.08,1l0,1,0,1,0,1c0,.33,0,.67,0,1s0,.66.08,1a38.38,38.38,0,0,0,4.06,14.58A38.91,38.91,0,0,0,83,1036.71a39.87,39.87,0,0,0,9.57,6.5,38.71,38.71,0,0,0,8.47,2.92,44,44,0,0,0,5.73.82l2.06.09-2.06,0a42.06,42.06,0,0,1-5.78-.64,38.81,38.81,0,0,1-8.62-2.74,38.36,38.36,0,0,1-9.86-6.39,39.81,39.81,0,0,1-8.57-11,38.73,38.73,0,0,1-4.37-14.93,39.4,39.4,0,0,1,2.14-16.52A39.34,39.34,0,0,1,95.47,971.1,39.38,39.38,0,0,1,112,969a38.73,38.73,0,0,1,14.94,4.37,39.63,39.63,0,0,1,11,8.57,38.36,38.36,0,0,1,6.39,9.86,38.81,38.81,0,0,1,2.74,8.62,42.06,42.06,0,0,1,.64,5.78c0,1.34,0,2.06,0,2.06S147.64,1007.5,147.58,1006.17Z"/></g><line class="cls-11" x1="126.07" y1="37.69" x2="126.07" y2="1228.77"/><line class="cls-11" x1="152.23" y1="71.13" x2="128.01" y2="71.13"/><circle cx="126.52" cy="70.71" r="5.42"/><line class="cls-11" x1="99.88" y1="159.61" x2="124.1" y2="159.61"/><circle cx="125.59" cy="160.04" r="5.42"/><line class="cls-11" x1="154.15" y1="252.56" x2="126.11" y2="252.56"/><ellipse cx="126.74" cy="252.14" rx="5.64" ry="5.42"/><line class="cls-11" x1="99.88" y1="339.75" x2="124.1" y2="339.75"/><circle cx="125.59" cy="340.17" r="5.42"/><line class="cls-11" x1="99.88" y1="579.93" x2="124.1" y2="579.93"/><circle cx="125.59" cy="580.35" r="5.42"/><line class="cls-11" x1="154.06" y1="429.11" x2="128.01" y2="429.08"/><circle cx="126.52" cy="428.66" r="5.42"/><line class="cls-11" x1="105.76" y1="802.44" x2="124.1" y2="802.44"/><circle cx="125.59" cy="802.02" r="5.42"/><line class="cls-11" x1="150.45" y1="681.56" x2="128.01" y2="681.58"/><circle cx="126.52" cy="682.01" r="5.42"/><line class="cls-11" x1="99.88" y1="1008.31" x2="124.1" y2="1008.31"/><circle cx="125.59" cy="1007.89" r="5.42"/><line class="cls-11" x1="150.45" y1="903.15" x2="128.01" y2="903.17"/><circle cx="126.52" cy="903.6" r="5.42"/><text class="cls-8" transform="translate(65.01 1107.5)">0</text><text class="cls-9" transform="translate(148.18 1126.23)">0</text><text class="cls-9" transform="translate(19.72 1098.93)">0</text><text class="cls-8" transform="translate(193.93 1141.91)">1</text><line class="cls-11" x1="150.45" y1="1107.21" x2="128.01" y2="1107.24"/><circle cx="126.52" cy="1107.66" r="5.42"/><path d="M170.3,1236.76h0a24.1,24.1,0,0,0-7.1-5.46,33.59,33.59,0,0,1-5.86-3.73,30.77,30.77,0,0,1-5.15-5.24,4.58,4.58,0,0,1-.53-.84,11.73,11.73,0,0,1-.71-3.23,5.52,5.52,0,0,0-3.16-4.44,3.65,3.65,0,0,1-1.16-.82,11.06,11.06,0,0,1-2.11-3.63.87.87,0,0,0-.67-.64,3.64,3.64,0,0,0-1-.06c-.52,0-1,.12-1.54.17a1.25,1.25,0,0,1-1.48-1.09l-.39-1.27a.48.48,0,0,0-.5-.37c-.91,0-1.82-.13-2.73-.15a54.17,54.17,0,0,1-8.15-.43,13.59,13.59,0,0,1-2.49-.71,2,2,0,0,1-1.32-1.86c0-.42,0-.84,0-1.26,0-.22,0-.44.08-.66.11-.75-.28-1.22-1-1.18-.94,0-1.28-.22-1.55-1.19a1.87,1.87,0,0,0-.08-.34,1,1,0,0,0-.29-.4c-1-.62-2.08-1.2-3.11-1.82a100.93,100.93,0,0,0-10.3-5.76c-.47-.23-.72-.18-1,.29a3.44,3.44,0,0,1-1.34,1.26,12.56,12.56,0,0,1-1.28.62,31.7,31.7,0,0,1-5.31,1.48c-.76.16-1,.75-.5,1.4a17.4,17.4,0,0,0,1.4,1.45,16.08,16.08,0,0,1,1.33,1.41,1.6,1.6,0,0,1,0,2.15,7.11,7.11,0,0,1-2.3,1.93c-.43.22-.89.38-1.33.58a6.62,6.62,0,0,0-2.56,2.09.84.84,0,0,1-1.09.35,8,8,0,0,0-1.42-.43,19.68,19.68,0,0,0-2-.32.79.79,0,0,0-.86.65c-.13.45-.31.89-.41,1.35-.26,1.2-.49,2.41-.75,3.61-.15.7,0,1,.72.93.42,0,.84-.07,1.25-.07a2.17,2.17,0,0,1,1.74.89,9.15,9.15,0,0,1,1.24,2.8,22.29,22.29,0,0,0,3.73,6.84,11.17,11.17,0,0,1,1.11,1.66,10.15,10.15,0,0,1,.8,3.14,3.57,3.57,0,0,0,2.41,3.09,8.52,8.52,0,0,1,1.17.49,7.31,7.31,0,0,1,3.2,3.89,7.89,7.89,0,0,1,.49,5,5.15,5.15,0,0,0-.06,2.31,8.31,8.31,0,0,0,1.78,3.66,16.87,16.87,0,0,0,4.14,3.95,4.36,4.36,0,0,1,1.06,1.08,7.71,7.71,0,0,1,1.34,3.71,5.3,5.3,0,0,0,3,4.33,3.33,3.33,0,0,1,1.11.87,3.78,3.78,0,0,1,.46,1.06c.51,1.22,1,2.45,1.53,3.67a.59.59,0,0,0,.43.28,1.86,1.86,0,0,0,1.57-.64.75.75,0,0,0,.2-.43c0-.92.08-1.84.11-2.76,0-.39,0-.78,0-1.17l.12,0,.42.48a2.26,2.26,0,0,0,2.82.79,5.74,5.74,0,0,1,2.83-.41c2.06.15,4.12.39,6.18.53a2.31,2.31,0,0,1,2.05,1c.24.39.67.39,1.11.19a2.81,2.81,0,0,0,1.11-1.18,16.48,16.48,0,0,1,3.4-4.23,5.64,5.64,0,0,1,3.29-1.45,52.55,52.55,0,0,0,8.44-1.24,54.67,54.67,0,0,0,8-2.47,43.12,43.12,0,0,0,6-2.86.83.83,0,0,0,.34-.33,27.51,27.51,0,0,0,2.34-6.82A4.23,4.23,0,0,0,170.3,1236.76Z"/><path d="M92.57,845.56V757H81.19v2.35H77.9v83.83h3.29v2.35Zm-7.59-5a1.32,1.32,0,0,1,1.43-1.19c.79,0-.23.53-.23,1.19s1,1.2.23,1.2A1.33,1.33,0,0,1,85,840.52Zm6-68.41-8.1,3.7V764.28l8.1-3.71Zm0,15.88-8.1,3.71V780.17l8.1-3.71Zm0,15.89-8.1,3.7V796.05l8.1-3.71Zm0,15.88-8.1,3.71V811.94l8.1-3.71Zm-4.2,22.8a2.17,2.17,0,0,1-.69-.18,2,2,0,0,1-.45-.25,1,1,0,0,1-.23-.22l-.08-.08.11,0a1.92,1.92,0,0,0,.28.13,2.43,2.43,0,0,0,.47.13,2.38,2.38,0,0,0,.61,0,2.72,2.72,0,0,0,.68-.13,2.39,2.39,0,0,0,.63-.34s.1-.08.12-.12a.62.62,0,0,0,.14-.14,1.92,1.92,0,0,0,.18-.28,1.33,1.33,0,0,0,.16-.65,1.44,1.44,0,0,0-.16-.64,1.55,1.55,0,0,0-.45-.54,2.19,2.19,0,0,0-.62-.34,2.72,2.72,0,0,0-.68-.13,2.38,2.38,0,0,0-.61,0,3.54,3.54,0,0,0-.47.12l-.28.13-.11.06.07-.09.24-.21a1.67,1.67,0,0,1,.45-.25,2.16,2.16,0,0,1,.69-.19,2.67,2.67,0,0,1,1.8.42,2.07,2.07,0,0,1,.68.7,1.78,1.78,0,0,1,0,1.85,1.88,1.88,0,0,1-.31.4l-.17.15-.21.16a2.86,2.86,0,0,1-.91.37A2.64,2.64,0,0,1,86.73,842.56Z"/><path d="M97.61,757.13l-5,88.43,11.37.45,5-88.43ZM98,839.54c.79,0-.26.52-.3,1.18s1,1.24.16,1.2a1.3,1.3,0,0,1-1.36-1.24A1.36,1.36,0,0,1,98,839.54Zm2.14-.35a2.05,2.05,0,0,1,.64.73,1.79,1.79,0,0,1,.21.93,1.91,1.91,0,0,1-.31.92,2,2,0,0,1-.34.39,1.79,1.79,0,0,1-.18.14,1.43,1.43,0,0,1-.22.15,2.71,2.71,0,0,1-1.8.33,2.16,2.16,0,0,1-.69-.21,2,2,0,0,1-.43-.27,1.47,1.47,0,0,1-.22-.22l-.07-.08.1,0a2.4,2.4,0,0,0,.28.14,3.11,3.11,0,0,0,.46.15,2.87,2.87,0,0,0,.61.06,2.66,2.66,0,0,0,.68-.1,2.31,2.31,0,0,0,.65-.32s.11-.08.13-.11a1,1,0,0,0,.15-.14,1.43,1.43,0,0,0,.19-.27,1.37,1.37,0,0,0,.2-.64,1.32,1.32,0,0,0-.12-.65,1.72,1.72,0,0,0-.42-.56,2.58,2.58,0,0,0-.6-.36,3.26,3.26,0,0,0-.67-.16,3,3,0,0,0-.61,0,2.45,2.45,0,0,0-.48.11l-.29.11-.11,0,.08-.08a2.07,2.07,0,0,1,.24-.2,2,2,0,0,1,.47-.24,2.27,2.27,0,0,1,.7-.15A2.62,2.62,0,0,1,100.14,839.19Zm-3.8-30.85,7.88,4-.66,11.52-7.88-4Zm.9-15.87,7.88,4L104.46,808l-7.88-4Zm.9-15.87,7.88,4-.65,11.51-7.88-4Zm.91-15.86,7.88,4-.66,11.52-7.88-4Z"/></g></g></svg>