<svg xmlns="http://www.w3.org/2000/svg" viewBox="0 0 341.37 60">
	<defs>
		<style>
			.cls-1{fill:#fff;}.cls-2{fill:#d0222e;}.cls-3{fill:#fff;}
		</style>
	</defs>
	<g id="Layer_2" data-name="Layer 2">
		<g id="Layer_1-2" data-name="Layer 1">
			<rect class="cls-1" x="298.44" width="42.92" height="60" />
			<path class="cls-2" d="M332.28,48.06c-.51,1.75-1,3.51-1.52,5.26,0,0,0,0,0,0a7.36,7.36,0,0,1-1.63,0H308.78a4.71,4.71,0,0,1-1.31,0C306.55,53,308.92,51,309,50.5c0-.32,0-.65,0-1V37.09a4.54,4.54,0,0,0,0-1.28,1.76,1.76,0,0,0-.3-.43c-.44-.54-1.29-1.15-1.44-1.81-.08-.38.37-.42.6-.53h20.56c.71,0,2.16-.09,2.64.27a.83.83,0,0,1,.26.36,10.9,10.9,0,0,1,.22,1.41c.1.81.21,1.61.31,2.41a5.35,5.35,0,0,1,.14,1.38c-.08.44-.51.75-.9.39a2.9,2.9,0,0,1-.5-.87c-.57-1.1-1-2.49-2.27-3a8.73,8.73,0,0,0-3.1-.23h-9.41a2.3,2.3,0,0,0-.92.06l0,.05a7.08,7.08,0,0,0-.05,1.68V42h7.68a2.73,2.73,0,0,0,.76,0c.62-.23,1-1.28,1.09-1.84,0-.17,0-.48.18-.6s.71-.07.94-.07v7.31c0,.12,0,.42-.09.47a.92.92,0,0,1-.81,0,1.45,1.45,0,0,1-.18-.53c-.16-.5-.43-1.69-1-1.83l-.72,0H317a10.4,10.4,0,0,0-2.09.09,4.44,4.44,0,0,0-.06,1.43v5h11.88a3.78,3.78,0,0,0,1.08-.07,2.2,2.2,0,0,0,.73-.57,6.1,6.1,0,0,0,.82-1.09c.46-.76.92-1.53,1.37-2.3.13-.22.41-.79.65-.91a5.13,5.13,0,0,1,1.43,0c-.17.58-.33,1.16-.49,1.74" />
			<path class="cls-2" d="M336,7.5c-.31,1.5-.63,3-.94,4.5q-1,4.91-2.08,9.81c-.25,1.21-.51,2.43-.77,3.65a10.25,10.25,0,0,0-.31,1.56h0c0,.08-.2.05-.28.05H320.66a2.48,2.48,0,0,0-.73,0h-8.78a23.17,23.17,0,0,1-3.08-.07,2.43,2.43,0,0,1-.26-.95c-.21-1-.43-2-.64-3q-1.25-5.82-2.48-11.64l-.63-3a3.28,3.28,0,0,1-.18-1.24c.05-.27.22-.36.43-.5a1.26,1.26,0,0,1,.57.24,3.55,3.55,0,0,1,.51.71L306.24,9l3.25,5,1,1.5c.14.24.29.47.43.7H311l.21-.54c.17-.41.35-.82.52-1.24l2.36-5.58c.21-.48.65-2.18,1.38-2s1.1,1.61,1.34,2.15c1,2.4,2.07,4.81,3.1,7.22h.05l3.21-7.44c.21-.47.68-2.09,1.43-2s1.06,1.74,1.28,2.23l3,7.21h.05l4.95-7.69c.25-.39,1.23-2.35,1.92-1.64a.82.82,0,0,1,.15.64" />
			<rect class="cls-3" x="283.72" y="33.24" width="4.11" height="19.96" />
			<rect class="cls-3" x="65.7" y="39.98" width="1.85" height="1.96" />
			<rect class="cls-3" x="96.37" y="56.43" width="1.91" height="2.03" />
			<rect class="cls-3" x="99.6" y="56.43" width="1.91" height="2.03" />
			<path class="cls-3" d="M32.39,45.12c2.29,0,3.12,2.34,3.12,3.92,0,1.9-1,3.93-3.12,3.93s-3.1-2-3.1-3.93c0-1.58.83-3.92,3.1-3.92M139,42.65V49a2.22,2.22,0,0,1-2.39,2.49c-1.91,0-2.59-1.7-2.59-3.16v-5h-1.6V49A2.22,2.22,0,0,1,130,51.51c-1.91,0-2.6-1.63-2.6-3.16v-5H125.8v5.43a2.21,2.21,0,0,1-2.38,2.47H101.48a2.73,2.73,0,0,1-2.75-3V43.35H97.14v5.43a2.21,2.21,0,0,1-2.39,2.47H70.25a2.73,2.73,0,0,1-2.75-3V43.35H65.9v5.43a2.2,2.2,0,0,1-2.38,2.47H39.77c-1.46,0-2.33-.84-2.58-2.48-.11-2.47-1.67-5.14-4.8-5.14s-4.64,2.7-4.78,5.21a2.38,2.38,0,0,1-2.4,2.41H4a2.2,2.2,0,0,1-2.36-2.47V38.23H0V48.61c0,2.65,1.34,4.17,3.67,4.17H25.4a3.49,3.49,0,0,0,2.73-1.09,4.59,4.59,0,0,0,4.26,2.77,4.64,4.64,0,0,0,4.44-3.25,4.24,4.24,0,0,0,3.11,1.57H63.83A3.27,3.27,0,0,0,67,50.92a4.07,4.07,0,0,0,3.41,1.86H95.06a3.27,3.27,0,0,0,3.2-1.86,4.05,4.05,0,0,0,3.41,1.86h22.06a3.23,3.23,0,0,0,3.18-1.85,1.43,1.43,0,0,0,.14.2A3.55,3.55,0,0,0,130.3,53a3.46,3.46,0,0,0,3.22-1.92A4.19,4.19,0,0,0,136.87,53c3.31,0,3.67-2.93,3.67-4.19V42.65Z" />
			<path class="cls-3" d="M152,57.51a9.32,9.32,0,0,1-2.92-.74l-.58-2.92a9.35,9.35,0,0,0,3,.6,3.18,3.18,0,0,0,3.27-3.29V42.09h3.58v5a2.35,2.35,0,0,0,2.53,2.43h1.8V53h-1.59a4.72,4.72,0,0,1-2.79-.81A5.76,5.76,0,0,1,152,57.51" />
			<path class="cls-3" d="M204.89,57.54h-3.58v-3h3.58ZM162.57,53V49.5h37.24a1.42,1.42,0,0,0,1.53-1.58V41.28h3.55v6.43c0,1.5-.34,5.29-4.77,5.29Zm37.11,4.54h-3.59v-3h3.59Z" />
			<path class="cls-3" d="M213.43,53c-4.43,0-4.74-3.79-4.74-5.29V35.93h3.53v12a1.41,1.41,0,0,0,1.5,1.58H216V53Z" />
			<path class="cls-3" d="M241.06,57.54h-3.58v-3h3.58ZM215.75,53V49.5h19.67a1.84,1.84,0,0,0,2.11-2.11v-5.3h3.56v4.85a2.36,2.36,0,0,0,2.53,2.56h1.76V53h-1.55a4.39,4.39,0,0,1-3.77-1.84A4.09,4.09,0,0,1,236.42,53Z" />
			<path class="cls-3" d="M272.93,43.25c-1.84,0-2.5,1.72-2.5,3.4,0,1.87.66,3.61,2.5,3.61s2.59-1.5,2.59-3.61c0-1.87-.66-3.4-2.59-3.4M245.25,53V49.5h20a1.45,1.45,0,0,0,1.51-1.64V46.65a6,6,0,0,1,6.13-6.27,6.14,6.14,0,0,1,6.25,6.27c0,3.06-2.19,6.64-6.25,6.64a6.28,6.28,0,0,1-4.34-1.68A4,4,0,0,1,265.45,53Z" />
			<rect class="cls-3" x="283.69" y="35.93" width="3.53" height="17.08" />
		</g>
	</g>
</svg>
