<svg xmlns="http://www.w3.org/2000/svg" viewBox="0 0 24.87 15.91"><defs><style>.cls-1{fill:#fff;}.cls-2{fill:#ce1f2e;}.cls-3{fill:#fbfbfb;}</style></defs><g id="Layer_2" data-name="Layer 2"><g id="Layer_1-2" data-name="Layer 1"><path class="cls-1" d="M24.86,12.83h0a.92.92,0,0,0-.92-.83h-.09a1,1,0,0,0-.29.08l-.19-1.94a.16.16,0,0,0,0-.09,1.48,1.48,0,0,0,0-.16.61.61,0,0,0,0-.21.37.37,0,0,0-.07-.12.43.43,0,0,0,0-.07A1,1,0,0,0,23,9.24a1.05,1.05,0,0,0-.5-.15L22.14,9l-.2,0h0l.85-1.15a.29.29,0,0,0,.1-.25V7.49L22.73,6a.53.53,0,0,0,.13-.19.35.35,0,0,0,0-.17.63.63,0,0,0-.08-.29l0,0s0-.12,0-.2a.43.43,0,0,0,0-.24.67.67,0,0,0-.29-.26.81.81,0,0,0-.33,0h-.2l-.27,0,.8-1.07a.29.29,0,0,0,.07-.12.37.37,0,0,0,0-.18v0l-.17-1.83a.38.38,0,0,0,0-.16s0,0,0-.06h0a.81.81,0,0,1,0-.19l0-.09v0h0a.35.35,0,0,0,.08-.22.45.45,0,0,0-.14-.3.67.67,0,0,0-.25-.15A.86.86,0,0,0,21.91,0h-.09a2.39,2.39,0,0,0-.64.08s-.05,0-.11,0c-.21,0-.59,0-1,.09h-.21l-.59,0A.77.77,0,0,0,19,.24h0a1,1,0,0,1-.22,0h-.56l-.64,0-.39.05a1.28,1.28,0,0,0-.35.09h0l-.06,0h0a.47.47,0,0,0-.13.11A.5.5,0,0,0,16.3.47h-.06a2.59,2.59,0,0,0-.73.12h-.12c-.21,0-.58,0-1,.09H14.2l-.59,0a.64.64,0,0,0-.34.06h0a.58.58,0,0,1-.21,0c-.11,0-.23,0-.35,0H12.5l-.73.07A4.31,4.31,0,0,0,11,1L10.88,1l-.05,0h0l-.07.05a1.56,1.56,0,0,0-.25.34c-.11.18-.21.39-.29.55a.21.21,0,0,0,0,.06,1.06,1.06,0,0,0-.66-.72,2.9,2.9,0,0,0-.93-.21.71.71,0,0,0-.31.06h0a1.11,1.11,0,0,1-.31,0,2.71,2.71,0,0,1-.47,0H7.31L7,1.18a.78.78,0,0,0-.37.14,3,3,0,0,1-.27.18L6,1.67a3.26,3.26,0,0,1-.53.27,1.2,1.2,0,0,0-.57.45.62.62,0,0,0-.15.19c-.07.11-.11.23-.17.33a.63.63,0,0,1-.11.18l-.14.11a.82.82,0,0,0,0-.22,1.19,1.19,0,0,0-.14-.56A1.12,1.12,0,0,0,4,2.07.54.54,0,0,0,3.62,2L3.45,2,3.38,2,2.89,1.9H2.72a1.55,1.55,0,0,0-.34,0,.76.76,0,0,0-.4.23H2l-.18,0H1.67l-.17,0a1,1,0,0,0-.36.25l-.06.07s0,0,0,0H1C1,2.76.84,3,.73,3.19l-.15.25a.13.13,0,0,0,0,.05A.88.88,0,0,0,0,4.32a1,1,0,0,0,.34.77l1,10.55a.31.31,0,0,0,.11.2.28.28,0,0,0,.19.07h0l2.39-.23a.32.32,0,0,0,.21-.12l.71-1a3.23,3.23,0,0,0,.37.37,2.84,2.84,0,0,0,1.81.57l.43,0a3.54,3.54,0,0,0,2.45-1.13c.23-.28.57-.64.87-1.07l.12,1.23v.11a.31.31,0,0,0,.11.2.29.29,0,0,0,.22.07h.11l5.11-.5h.11a.31.31,0,0,0,.2-.11.39.39,0,0,0,.18,0h.11l5.11-.5h.1a.3.3,0,0,0,.22-.12l.41-.55a.91.91,0,0,0,.89.68H24a.93.93,0,0,0,.84-.92A.28.28,0,0,0,24.86,12.83Z"/><path class="cls-2" d="M24.57,12.85a.63.63,0,1,1-.69-.56A.63.63,0,0,1,24.57,12.85ZM23.41,13a.53.53,0,1,0,1.06-.11.53.53,0,0,0-1.06.11Zm.88.26h-.11l-.22-.3-.16,0,0,.32h-.09l-.07-.7.31,0a.25.25,0,0,1,.17,0,.17.17,0,0,1,.1.14c0,.14-.08.2-.2.21Zm-.37-.35c.1,0,.25,0,.24-.15s-.11-.11-.19-.1l-.2,0,0,.24Z"/><path class="cls-2" d="M21.88.3a2.29,2.29,0,0,0-.61.07c-.16,0-.65,0-1.13.11s-.9-.06-1.06,0a4.53,4.53,0,0,1-.88.05,5.3,5.3,0,0,0-1.3.15h0s0,0,0,0a.18.18,0,0,0-.08.07c-.07.07-.14.17-.22.27,0-.13-.18-.29-.3-.3a2.79,2.79,0,0,0-.67.1c-.17.06-.65.05-1.14.12s-.9-.07-1.05,0a4.64,4.64,0,0,1-.89.05,11.4,11.4,0,0,0-1.43.18l-.08,0,0,0,0,0c-.25.22-.52,1.06-.76,1.13s-.21.13-.22.23a1.8,1.8,0,0,0-.2-.19.22.22,0,0,0,.09-.07.66.66,0,0,0-.46-.82,1.84,1.84,0,0,0-1-.16,2.78,2.78,0,0,1-1,0,1.23,1.23,0,0,0-.66.1,6.34,6.34,0,0,1-.62.37,3.17,3.17,0,0,1-.57.3.84.84,0,0,0-.45.37c-.15.09-.25.56-.47.73-.44.33-.68.9-.39.94h0a3.3,3.3,0,0,0-.27.6L3.9,3.42,4,3.36A.87.87,0,0,0,3.77,2.3c-.13-.1-.5.05-.44,0a2.87,2.87,0,0,0-.48,0c-.08,0-.48,0-.64.16s-.49.12-.6.17a.52.52,0,0,0-.26.19l0,0,0,0h0a6.49,6.49,0,0,1-.58,1A.66.66,0,0,0,.63,4.93l1,10.68,2.39-.23.89-1.2H5l0-.21a2.46,2.46,0,0,0,.63.78,2.7,2.7,0,0,0,2,.49,3.28,3.28,0,0,0,2.25-1,7.08,7.08,0,0,0,1.31-1.88l.21,2.2v.11h.11l5.11-.5h.11l.35-.47,0,.29v.11h.1l5.11-.5h.11l.88-1.19h0v-.1l-.21-2.18,0-.06a.83.83,0,0,0,0-.23s-.05,0-.06-.09a.71.71,0,0,0-.56-.29,4,4,0,0,0-1.26-.07,5.51,5.51,0,0,1-.58.11.61.61,0,0,0-.57.33L20,9l1.61-.15h.1l.88-1.19h0V7.52l-.16-1.68a.63.63,0,0,0,.17-.21c.05-.1-.08-.23-.09-.33s0-.27,0-.32-.24-.17-.55-.16-.86.08-1,.06-.64,0-.71,0A1.53,1.53,0,0,0,19.6,5l0-.35,1.69-.16h.1l.89-1.19h0V3.15l-.19-2s.06,0,.05-.07a1,1,0,0,1,.13-.55C22.32.44,22,.31,21.88.3Z"/><path class="cls-1" d="M22,10.62l.25-.14a1.89,1.89,0,0,0,.39-.18c.17-.1.07-.19.07-.19v0s.13-.07.14-.13,0-.06-.05-.14a.17.17,0,0,0-.08-.11,1.87,1.87,0,0,0-1.34-.18,8.75,8.75,0,0,0-1,.18,1.25,1.25,0,0,0-.19.17c0,.08,0,.3.07.42a.6.6,0,0,0,.11.14l.27.59c.17-.46.34-.51.34-.51a.6.6,0,0,1,.37,0c.24.16.3.62.33.55A2.51,2.51,0,0,1,22,10.62Z"/><path class="cls-1" d="M21.69.61h-.1a1.08,1.08,0,0,0-.48.08,5.35,5.35,0,0,0-.69,0,8.54,8.54,0,0,1-1,.07h-.09a5.44,5.44,0,0,1-1.41.06h-.32A1.4,1.4,0,0,0,17,1s-.1.06-.11.13a.71.71,0,0,0,0,.22c.1.09,0,0,.25.17a1,1,0,0,1,.23.36l.07,0h.11l.08.1,0,0a1.37,1.37,0,0,1,.28.7c0,.41,0-.17.12-.38,0-.05.07-.32.11-.4v0a.45.45,0,0,1,.43-.27h0a.52.52,0,0,1,.35.25,1,1,0,0,0,.12.16l.12.12.07.11A.55.55,0,0,1,19.74,2,2.17,2.17,0,0,0,20,1.69a.79.79,0,0,1,.27-.2.44.44,0,0,1,.39-.05c.06,0,.19.11.25.13l.3.19.09.1c0-.28,0-.39,0-.43s.27-.05.24-.22,0,0,.13-.06a.47.47,0,0,0,.25-.37L21.86.61Z"/><path class="cls-1" d="M14.48,2.56c.19-.65.65.2.65.2a.88.88,0,0,0,.37-.57l.08-.11A.65.65,0,0,1,15.7,2c.11-.09.21-.06.18-.22s0,0,.12-.07a.43.43,0,0,0,.25-.37l-.07-.17h-.27a.91.91,0,0,0-.47.09,5.3,5.3,0,0,0-.69,0,8.55,8.55,0,0,1-1,.07h-.09a5.34,5.34,0,0,1-1.4.06h-.32a1.34,1.34,0,0,0-.58.12l-.11.13.05.22c.1.09,0,.13.26.28a.89.89,0,0,1,.22.24l0,.08,0,.23.15.22.32.4c.07,0,0-.3.12-.42s.18-.06.22-.14l.06,0v0a2,2,0,0,0,.12-.17.39.39,0,0,1,.25-.14,1.41,1.41,0,0,1,.61-.05C13.86,2.4,14.38,2.88,14.48,2.56Z"/><path class="cls-1" d="M22,5l-.42,0a1.2,1.2,0,0,1-.54,0,3.06,3.06,0,0,0-1.09,0l-.12.18v0c-.05.09-.08.19,0,.24l0,0,0,0,.2,0c.09,0,.12,0,.18.16a.38.38,0,0,0,.16.21l.15.25s.37-.48.76-.2a.75.75,0,0,1,.22.37l.18-.54c.27-.33.27-.1.55-.23s0-.27,0-.39S22.16,5,22,5Z"/><path class="cls-1" d="M8.17,1.78A2.42,2.42,0,0,0,6.54,2a3.45,3.45,0,0,1-.79.4c-.41.1-.74.59-.25.44l.44-.15c.12,0,.2.1.29.28s.08.36.14.37,0-.15.18-.15a.94.94,0,0,1,.11-.32c.11-.19.09-.08.25-.19s.29.36.38.49.06,0,.06,0c0-.26.23-.36.31-.41a.42.42,0,0,1,.59.22,1.12,1.12,0,0,0,.42.4,1.08,1.08,0,0,1,.16.42c-.06.17.07-.11.07-.11s.26-.22,0-.84c-.07-.18.18-.5.54-.43.17,0,0-.55-.28-.5A6.2,6.2,0,0,0,8.17,1.78Z"/><path class="cls-1" d="M11.14,8.79l0,0,0,0H11l-.22,0A1.09,1.09,0,0,0,10,8.62l-.19.13s0,0-.15,0A1.75,1.75,0,0,0,9,8.93a.21.21,0,0,0-.06.24l0,.05.23,0a1.66,1.66,0,0,1,.7.21.5.5,0,0,1,.17.2.7.7,0,0,0,.13.26l.11.18.08-.2V9.75a.54.54,0,0,1,.15-.29.62.62,0,0,0,.38-.25.39.39,0,0,1,.27-.16l.11,0,0-.06C11.29,8.87,11.2,8.82,11.14,8.79Z"/><path class="cls-1" d="M8,11.13c.07,0,.23.12.32.07s.26,0,.3.05.18-.15.13.31a.32.32,0,0,1-.11.26c-.07,0-.07.1-.08.15a2.33,2.33,0,0,0,0,.37c0,.31-.05.09-.11,0s-.15-.17-.2-.14c-.26.12-.19-.1-.22-.18A1.33,1.33,0,0,0,8,11.78.25.25,0,0,1,8,11.53a.43.43,0,0,0,0-.29S8,11.11,8,11.13Z"/><path class="cls-1" d="M3.68,2.94c0,.4-.21.5-.5.83a.58.58,0,0,0-.13.39,1.09,1.09,0,0,1-.13.5l0,.08-.09.4-.13-.39a1.26,1.26,0,0,0-.23-.36,1.27,1.27,0,0,1-.36-.7.55.55,0,0,0-.23-.12c-.15,0-.37-.11-.41-.39h0a.35.35,0,0,1,.07-.29.51.51,0,0,1,.37-.11.69.69,0,0,0,.26,0l0,0h0s.07,0,.11-.07a.29.29,0,0,1,.37-.08l.25,0c.23,0,.44-.08.63.09l.09.11Z"/><path class="cls-1" d="M16.23,5.51l-.23,0a1.12,1.12,0,0,1-.63,0,1.82,1.82,0,0,0-1.13.1.85.85,0,0,0-.17.19c-.22.28.08.3.12.38s.22,0,.22,0,.12,0,.18.17a.31.31,0,0,0,.14.17,1.43,1.43,0,0,1,.19.28c0,.06.08-.24.08-.24l0-.1a.24.24,0,0,1,.17-.12c.07,0,.18,0,.21.1a3.3,3.3,0,0,0,.4.59s.3-.29.3-.29v-.3a.4.4,0,0,1,.44-.27c.24,0-.14-.31.12-.53,0,0,0-.19-.17-.23A.74.74,0,0,0,16.23,5.51Z"/><path class="cls-1" d="M16.35,11.61a1.26,1.26,0,0,1,.13-.25l.09-.09.52-.52.1-.21v-.11a.57.57,0,0,0-.1-.12,1.22,1.22,0,0,0-.36-.13c-.93-.33-.56.14-1.66.1l-.42.09-.05.14a.45.45,0,0,0,.14.29s0,.26.23.26a.56.56,0,0,1,.48.18c.12.12.42,0,.53.09a1,1,0,0,1,.27.54S16.2,12.13,16.35,11.61Z"/><path class="cls-3" d="M4.71,14l-1.95.19-1-10.36h0L2,4l.15.36c.28.22.2.42.36.48L2.59,5l0,.09c.11.1.08.3.12.42l.15.26a4,4,0,0,1,.21-.91c.05-.21.09-.48.13-.65,0,0,.29-.46.38-.57a.32.32,0,0,1,.09-.08Z"/><path class="cls-1" d="M8.17,1.78A2.42,2.42,0,0,0,6.54,2a3.45,3.45,0,0,1-.79.4c-.41.1-.74.59-.25.44l.44-.15c.12,0,.2.1.29.28s.08.36.14.37,0-.15.18-.15a.94.94,0,0,1,.11-.32c.11-.19.09-.08.25-.19s.29.36.38.49.06,0,.06,0c0-.26.23-.36.31-.41a.42.42,0,0,1,.59.22,1.12,1.12,0,0,0,.42.4,1.08,1.08,0,0,1,.16.42c-.06.17.07-.11.07-.11s.26-.22,0-.84c-.07-.18.18-.5.54-.43.17,0,0-.55-.28-.5A6.2,6.2,0,0,0,8.17,1.78Z"/><path class="cls-1" d="M11.14,8.79l0,0,0,0H11l-.22,0A1.09,1.09,0,0,0,10,8.62l-.19.13s0,0-.15,0A1.75,1.75,0,0,0,9,8.93a.21.21,0,0,0-.06.24l0,.05.23,0a1.66,1.66,0,0,1,.7.21.5.5,0,0,1,.17.2.7.7,0,0,0,.13.26l.11.18.08-.2V9.75a.54.54,0,0,1,.15-.29.62.62,0,0,0,.38-.25.39.39,0,0,1,.27-.16l.11,0,0-.06C11.29,8.87,11.2,8.82,11.14,8.79Z"/><path class="cls-1" d="M8,11.13c.07,0,.23.12.32.07s.26,0,.3.05.18-.15.13.31a.32.32,0,0,1-.11.26c-.07,0-.07.1-.08.15a2.33,2.33,0,0,0,0,.37c0,.31-.05.09-.11,0s-.15-.17-.2-.14c-.26.12-.19-.1-.22-.18A1.33,1.33,0,0,0,8,11.78.25.25,0,0,1,8,11.53a.43.43,0,0,0,0-.29S8,11.11,8,11.13Z"/><path class="cls-3" d="M10.86,9.47c0,.08-.09.08-.15.11a.63.63,0,0,0-.18.14c-.07.08,0,.18,0,.28s-.05.21-.08.33v.13l-.2-.16a.76.76,0,0,1-.18-.18.38.38,0,0,1-.13-.26c0-.12-.08-.12-.13-.19s-.11-.06-.2-.1a.74.74,0,0,0-.3-.05.33.33,0,0,1-.13,0l.06.64a2.67,2.67,0,0,1-.13,1.43c0,.18,0,.33-.08.4a.45.45,0,0,0-.1.42c0,.11-.1.32-.13.43s-.09.24-.13.09-.2-.49-.35-.4-.42-.23-.44-.37a.81.81,0,0,0-.16-.33s0-.09,0-.14a1.5,1.5,0,0,1-.23-.74L6.92,5.29a1.41,1.41,0,0,1,.19-1.11.88.88,0,0,1,.62-.27A.6.6,0,0,1,8.16,4a2,2,0,0,1,.53,1.37L8.75,6l1.95-.19L10.61,5A3.35,3.35,0,0,0,9.55,2.57l-.06,0a.86.86,0,0,0-.3,0,1,1,0,0,0-.08.35,1.16,1.16,0,0,0,.08.32,1.62,1.62,0,0,1,0,.3c0,.1-.28.46-.31.63,0,0-.08-.11-.15-.18a1.52,1.52,0,0,1-.16-.39.33.33,0,0,0-.14-.14c-.09,0-.11-.09-.19-.24S8.15,3.09,8,3s-.11,0-.19,0-.08,0-.2.06-.18.12-.18.23c0,.49-.31,0-.31,0S7.11,3,7,3s-.1-.11-.16-.06a1.36,1.36,0,0,0-.14.19l-.06.32s-.13-.11-.24.19c-.05.11-.2-.07-.26-.38C6.12,3.11,6,3.05,6,3a.08.08,0,0,0-.12,0L5.52,3h0A4.12,4.12,0,0,0,5,5.88l.46,4.67A3.93,3.93,0,0,0,6.6,13.37a2.43,2.43,0,0,0,1.86.44c2.5-.24,2.85-2,2.71-3.51l-.1-1h0C11,9.28,10.92,9.39,10.86,9.47Z"/><path class="cls-3" d="M13.53,4v-.1h.11l2.69-.27-.18-1.79-.12,0-.27.36s-.26.76-.67.86c0,0-.39-.76-.44-.35,0,.24-.48.3-1.05-.17-.23-.19-.47,0-.65.15s-.09.13-.33.34-.22.57-.26.74a1,1,0,0,0-.4-.6c-.27-.16-.32-.66-.41-.75a.94.94,0,0,1-.14-.16L12.46,13.2l4.89-.48L17.18,11l-.21.23c-.22.23-.43.34-.52.72a1.34,1.34,0,0,1-.22.32c-.08-.29-.05-.1-.22-.44-.09-.17-.17-.35-.47-.34a.47.47,0,0,1-.4-.19c-.1-.11-.42,0-.47-.1a1.87,1.87,0,0,0-.2-.29h-.26v-.1L14,8.38v-.1h.11L16.65,8l-.14-1.48-.22,0c-.12.19,0,.29-.07.5a.49.49,0,0,1-.26.22c-.15.08-.08.2-.17.2s-.25-.28-.32-.4L15.37,7l-.16-.18c-.15.05-.22.47-.35.51-.13-.43-.38-.45-.44-.6v0l0,0a1.64,1.64,0,0,0-.26-.16c-.16-.1-.28-.17-.32-.27h-.05V6.1Z"/><path class="cls-3" d="M21.71,1.31c.11,0-.26.23-.27.4,0,.39-.22.64-.21.5s-.18-.21-.31-.31l-.36-.21c-.09-.05-.24,0-.32.09a2.46,2.46,0,0,0-.42.43c-.06.11-.37.08-.36.32S19,2.21,19,2.15s-.36-.46-.42-.28a2,2,0,0,1-.33.74c-.07.07-.05.32-.07.39C18,3.36,18,3,18,3s-.2-.79-.38-.82a.4.4,0,0,1-.36-.28,1,1,0,0,0-.12-.22l1.07,11,4.9-.48-.18-1.78-.11.19a2.2,2.2,0,0,0-.84.62c-.05.11-.1.39-.17.44a4.17,4.17,0,0,0-.26-.42c-.07-.09-.06-.35-.16-.38s-.2-.07-.28,0a.44.44,0,0,0-.13.22,2.32,2.32,0,0,0-.14.37c-.2.09-.28-.45-.41-.66a1.28,1.28,0,0,0-.29-.37h-.18v-.1l-.24-2.46V7.7h.11l2.6-.25-.15-1.51a.65.65,0,0,0-.28,0c-.11.17-.24.26-.2.39-.06.44-.27.52-.3.34s-.35-.44-.29-.35-.15-.27-.35,0c-.07.1-.22.08-.25.36-.14-.33-.27-.38-.33-.52L20.08,6V5.89c-.07-.06-.12,0-.2-.07a.8.8,0,0,1-.29-.2h-.13v-.1l-.2-2.09V3.33h.1L22,3.06l-.17-1.79C21.76,1.29,21.68,1.3,21.71,1.31Z"/></g></g></svg>