<svg xmlns="http://www.w3.org/2000/svg" viewBox="0 0 22.68 22.68"><defs><style>.cls-1{fill:#fff;}</style></defs><g id="Layer_2" data-name="Layer 2"><g id="Layer_1-2" data-name="Layer 1"><path class="cls-1" d="M0,22.67V0H22.67c0,.13,0,.25,0,.38V22.25c0,.13,0,.26,0,.43H0Zm11.39-2.4,0,.1c.13,0,.28.13.41.1a3,3,0,0,0,1-.26c1.22-.73,2.44-1.45,3.6-2.27A11.76,11.76,0,0,0,21.13,11a1.06,1.06,0,0,0-.3-1.18c-.74-.68-.79-.95-1.49.19s-1.22,2-1.92,3a12.35,12.35,0,0,1-1.51,1.56c-.1.09-.28.09-.43.13a3.57,3.57,0,0,1,0-.46.53.53,0,0,1,.11-.24c.42-.7.86-1.39,1.26-2.1a15.83,15.83,0,0,0,.82-1.65.74.74,0,0,0-.06-.6A4.57,4.57,0,0,0,17,8.78c-.42-.41-.76-.38-1.09.1a17.8,17.8,0,0,0-2.64,5.26,2,2,0,0,0,.5,2.14,1.21,1.21,0,0,0,1.36.38l1-.34A22.7,22.7,0,0,1,11.39,20.27ZM5.34,15.2a2.26,2.26,0,0,0,0,.82,1.63,1.63,0,0,0,.74,1,.65.65,0,0,0,.9-.13,8.86,8.86,0,0,0,.44-1.12,66.33,66.33,0,0,1,3.91-9.71,1.79,1.79,0,0,0-.44-2.47c-.3-.31-.54-.33-.84,0a5.93,5.93,0,0,0-.77,1,44.55,44.55,0,0,0-3.45,8.22,18.4,18.4,0,0,0-.45,1.81A3.38,3.38,0,0,0,5.34,15.2Zm4,.38a1.79,1.79,0,0,0,1,1.68c.4.16.61.08.78-.32.09-.23.18-.46.26-.7a63.1,63.1,0,0,1,3.11-8c.35-.71.72-1.41,1-2.15a1.41,1.41,0,0,0-.6-2c-.53-.4-.72-.37-1.09.18a32.28,32.28,0,0,0-3.51,7.24A17.14,17.14,0,0,0,9.37,15.58Zm-7.9.05a1.56,1.56,0,0,0,.2.92A1.39,1.39,0,0,0,3,17.2c.39,0,.41-.35.51-.61s.22-.67.32-1c.43-1.39.86-2.78,1.3-4.17.26-.84.54-1.67.81-2.51a.71.71,0,0,0-.28-.8.89.89,0,0,0-1.14,0,2.81,2.81,0,0,0-1.05,1.4c-.41,1.09-.81,2.18-1.19,3.28-.22.62-.63,1.84-.63,1.84A4.5,4.5,0,0,0,1.47,15.63ZM7.8,4.93c-.07-1-.57-1.28-1.4-.8A2.35,2.35,0,0,0,5.11,5.72a1.76,1.76,0,0,0,.06.88.76.76,0,0,0,1.29.34,10.07,10.07,0,0,0,1-1.09A1.34,1.34,0,0,0,7.8,4.93Z"/></g></g></svg>