<svg xmlns="http://www.w3.org/2000/svg" viewBox="0 0 48.96 15.9"><defs><style>.cls-1{fill:#fff;}</style></defs><g id="Layer_2" data-name="Layer 2"><g id="Layer_1-2" data-name="Layer 1"><path class="cls-1" d="M44.84,2.41c.07-.57.48-1,.36-1.6a1.41,1.41,0,0,0-1,.57,30.69,30.69,0,0,0-2.63,3c-1.07,1.51-2,3.13-3,4.71a5.44,5.44,0,0,0-.27.54l.07.07c.21-.15.43-.3.62-.46a31.93,31.93,0,0,0,4.2-4.42,2.68,2.68,0,0,1,.57-.41l.12.13c-.07.12-.14.24-.22.35A27.07,27.07,0,0,1,38,10.56a1,1,0,0,0-.35.39c-.3.8-.59,1.61-.85,2.43-.09.29-.17.67.16.85s.57-.16.74-.38c.44-.56.85-1.13,1.24-1.73a15.76,15.76,0,0,1,2.78-3.47,6.41,6.41,0,0,1,.79-.58,1.25,1.25,0,0,1,1.82.2c.48-.61,1.15-.19,1.84-.38l-.27.52q-1.34,2.33-2.66,4.66a6.6,6.6,0,0,0-.38.81.29.29,0,0,0,0,.26.3.3,0,0,0,.26,0,3.59,3.59,0,0,0,.61-.48c.47-.56.93-1.14,1.36-1.73a.53.53,0,0,1,.69-.24,4.92,4.92,0,0,1-.37.59c-.64.81-1.26,1.64-2,2.4a4.71,4.71,0,0,1-1.23.87c-.77.41-1.27.09-1.29-.79,0-.06,0-.12,0-.2-.39.3-.74.6-1.12.86a1.16,1.16,0,0,1-1.27.18c-.45-.26-.45-.71-.46-1.15a1.65,1.65,0,0,0,0-.21c-.39.36-.73.73-1.12,1s-.91.63-1.46.3A1.26,1.26,0,0,1,35,14.12c.17-.87.42-1.72.63-2.57-.58-.1-.74,0-1,.48a9.09,9.09,0,0,1-2.9,3.29c-.49.3-1,.6-1.6.24s-.55-1-.46-1.59a8.43,8.43,0,0,1,1.77-3.73A6.87,6.87,0,0,1,33.85,8,1.4,1.4,0,0,1,35.4,8a1.33,1.33,0,0,1,.31,1.51,16.54,16.54,0,0,1-.52,1.6.92.92,0,0,0,1-.56A28.29,28.29,0,0,1,41.2,3,28.5,28.5,0,0,1,43.81.69,3.09,3.09,0,0,1,44.92.2c.53-.13.85.14.78.68a4.33,4.33,0,0,1-.38,1.24C45.26,2.26,45,2.32,44.84,2.41Zm-4.77,11.3c0,.43.21.57.48.4a2.19,2.19,0,0,0,.68-.64C42.16,12,43.07,10.5,44,9a.35.35,0,0,0,0-.33.34.34,0,0,0-.32-.07A2.08,2.08,0,0,0,43,9a12.23,12.23,0,0,0-2.79,4.05A3.85,3.85,0,0,0,40.07,13.71Zm-5.74-2.16-1.4-1.23c-.44.84-.89,1.68-1.3,2.53a1.74,1.74,0,0,0-.15.75c0,.48.31.67.73.49a1.59,1.59,0,0,0,.35-.22A7.36,7.36,0,0,0,34.33,11.55Zm.3-.58A3.81,3.81,0,0,0,35.26,9c0-.47-.24-.66-.64-.55a1.54,1.54,0,0,0-1,1.27A1.28,1.28,0,0,0,34.63,11Z"/><path class="cls-1" d="M21.25,4.28c.54-.38,1.12-.12,1.76-.23-.1.21-.16.34-.23.46-1,1.68-2,3.35-2.9,5a2.28,2.28,0,0,0-.14.66c.21-.09.46-.12.6-.27.55-.57,1.08-1.16,1.58-1.77.19-.22.35-.37.66-.25,0,0,0,.07,0,.1a13.6,13.6,0,0,1-2.84,3.26,3.3,3.3,0,0,1-.77.45c-.68.27-1.13,0-1.14-.77v-.28a4.41,4.41,0,0,1-.64.56,4.35,4.35,0,0,1-1.12.56A.83.83,0,0,1,15,10.9a7.76,7.76,0,0,1,.11-1c-.42.37-.81.73-1.21,1.07a3.13,3.13,0,0,1-2,.87,1.31,1.31,0,0,1-1.36-1,2.91,2.91,0,0,1,.18-2c.21-.49.44-1,.67-1.47a1,1,0,0,0-1,.57A9.75,9.75,0,0,1,7.93,11a4.55,4.55,0,0,1-1.26.73,1,1,0,0,1-1.42-.87A5,5,0,0,1,5.45,9,9,9,0,0,1,9,4.42a3.5,3.5,0,0,1,1.28-.52.9.9,0,0,1,1.17.95,15.9,15.9,0,0,1-.31,2,1.85,1.85,0,0,0,.4-.15c.48-.37,1-.76,1.43-1.14a19.9,19.9,0,0,1,1.87-1.45,1.33,1.33,0,0,1,1.67.09,1.32,1.32,0,0,1,0,1.64,3.22,3.22,0,0,1-.65.82.58.58,0,0,1-.55.06.7.7,0,0,1-.17-.56A1.16,1.16,0,0,1,16,5.23c.11,0,.18-.18.26-.28-.11-.1-.24-.29-.32-.27a2.09,2.09,0,0,0-.81.34,8.72,8.72,0,0,0-2.39,3.27,6.49,6.49,0,0,0-.42,1.11c-.12.41-.17.87.25,1.15a.89.89,0,0,0,1.13-.18,17.85,17.85,0,0,0,1.84-1.85c.86-1,1.6-2.11,2.47-3.1A7.35,7.35,0,0,1,19.7,4.09,1.09,1.09,0,0,1,21.25,4.28ZM16.92,9.89c0,.38.25.53.5.33a4,4,0,0,0,.94-.94c.87-1.39,1.69-2.81,2.51-4.22.05-.08.08-.25,0-.29a.37.37,0,0,0-.32-.09,2,2,0,0,0-.68.42,15.09,15.09,0,0,0-2.77,4.08C17,9.43,17,9.7,16.92,9.89ZM8.61,6.43C8.33,6.9,8,7.42,7.69,8a6.64,6.64,0,0,0-.54,1.49.83.83,0,0,0,.23.7A.74.74,0,0,0,8.07,10,10.07,10.07,0,0,0,9.31,8.75a11.79,11.79,0,0,0,.78-1.23ZM11,5.31c-.11-.22-.17-.55-.32-.61a1.06,1.06,0,0,0-.75.11,1.56,1.56,0,0,0-.49.53,1,1,0,0,0,.77,1.53.33.33,0,0,0,.28-.15C10.68,6.27,10.83,5.81,11,5.31Z"/><path class="cls-1" d="M34.08.79a1.5,1.5,0,0,0-1.24.15A10.9,10.9,0,0,0,29.77,3.3a21.51,21.51,0,0,0-4.48,6.75,12,12,0,0,0-.6,2.28,2.75,2.75,0,0,0,.08,1.21,1.22,1.22,0,0,0,1.71.84A2.76,2.76,0,0,0,27.2,14,7.41,7.41,0,0,0,30,9.71a1.36,1.36,0,0,0,0-.49c0-.2-.09-.51-.22-.56a.84.84,0,0,0-.67.1,3.8,3.8,0,0,0-1.25,2,1.15,1.15,0,0,1-.39.51c-.55.43-1.11.82-1.69,1.25A6.49,6.49,0,0,1,27,9.35a3.73,3.73,0,0,1,2-1.5c.89-.25,1.46.11,1.49,1a4.54,4.54,0,0,1-.25,1.68A9.12,9.12,0,0,1,26.92,15a3.56,3.56,0,0,1-2.14.72,2.32,2.32,0,0,1-2.16-2,4.56,4.56,0,0,1,.09-2.43A18.54,18.54,0,0,1,30.54,1.06a10.49,10.49,0,0,1,2.5-1,1.61,1.61,0,0,1,1.47.28.44.44,0,0,0,.37,0A4.73,4.73,0,0,1,39.3.86c.74.44,1.49.86,2.28,1.31-.39.41-.72.8-1.09,1.16-.06.06-.28,0-.38,0-.8-.49-1.59-1-2.39-1.5A5.16,5.16,0,0,0,35.51,1c-.51,0-.54,0-.58.5A6.27,6.27,0,0,1,32.44,6a2.49,2.49,0,0,1-.69.35.79.79,0,0,1-1.16-.77,2.81,2.81,0,0,1,.19-1,7.43,7.43,0,0,1,2.8-3.44Zm.38.39A7.53,7.53,0,0,0,31.14,5c-.11.28-.21.61.08.83s.61,0,.85-.16a5.71,5.71,0,0,0,2.33-3.8A4.68,4.68,0,0,0,34.46,1.18Z"/><path class="cls-1" d="M21.09,15.79a24.4,24.4,0,0,0-2.51-.8,4.22,4.22,0,0,0-1.77,0,5.22,5.22,0,0,0-1.35.77l0,.11s-.08,0-.1-.05a3.53,3.53,0,0,0-2.95-1.58,12.28,12.28,0,0,0-3.76.46c-1.46.34-2.93.67-4.4.95a3.67,3.67,0,0,1-2.16-.3A3.55,3.55,0,0,1,0,11.9,9.44,9.44,0,0,1,1.22,7.23,15.27,15.27,0,0,1,7.62.63,5,5,0,0,1,10,0a1.21,1.21,0,0,1,1.3,1.38,2.6,2.6,0,0,1-.69,1.51,1.18,1.18,0,0,1-.44.28c-.37.13-.62-.07-.63-.46a1.26,1.26,0,0,1,.87-1.16c.19-.05.43-.09.34-.34a.75.75,0,0,0-.39-.43,1,1,0,0,0-.68.08,6.79,6.79,0,0,0-1.56.87A17.41,17.41,0,0,0,2.5,9.85a5.85,5.85,0,0,0-.32,2.46,2.51,2.51,0,0,0,2.37,2.46,7.28,7.28,0,0,0,3.07-.3c1.89-.42,3.77-.9,5.67-1.29a8.44,8.44,0,0,1,3.9.11A9.43,9.43,0,0,1,21.09,15.79Z"/><path class="cls-1" d="M42.05,4.07c.34-.41.66-.81,1-1.2a.37.37,0,0,1,.29-.1A7.4,7.4,0,0,0,48.62.53l.3-.27h0C47.72,2.92,44.2,4.79,42.05,4.07Z"/><path class="cls-1" d="M23.3,5.43c.28-.46.5-.83.74-1.19a.35.35,0,0,1,.26-.15c.4,0,.81,0,1.3,0-.28.46-.52.85-.77,1.23a.25.25,0,0,1-.19.11Z"/></g></g></svg>