<svg xmlns="http://www.w3.org/2000/svg" viewBox="0 0 30.6 30.61"><defs><style>.cls-1{fill:#fff;}.cls-2{fill:#ce1f2e;}</style></defs><g id="Layer_2" data-name="Layer 2"><g id="Layer_1-2" data-name="Layer 1"><g id="QC14ZS"><path class="cls-1" d="M0,15.28A15.3,15.3,0,1,1,15.05,30.6,15.29,15.29,0,0,1,0,15.28ZM18.88,27.17a5.2,5.2,0,0,0,.78-.29,8.43,8.43,0,0,0,2.65-2.17.94.94,0,0,0-.11-1.52c-.73-.66-1.47-1.32-2.22-2-2.05-1.8-1.43-1.72-4.14-1a.61.61,0,0,1-.69-.19,19.39,19.39,0,0,1-4.32-6.31.7.7,0,0,1,.11-.82c.31-.38.58-.8.88-1.2a1.42,1.42,0,0,0,.2-1.44C11.48,8.79,11,7.33,10.4,5.88a.9.9,0,0,0-1.22-.62A8.31,8.31,0,0,0,5.89,7.13a1.39,1.39,0,0,0-.45,1.25c.08.65.16,1.3.29,1.94A22.81,22.81,0,0,0,18.15,27,4.21,4.21,0,0,0,18.88,27.17Zm5.78-12.46-.11-.11a.76.76,0,0,0,0-.15,10.38,10.38,0,0,0-5.17-7.52c-.36-.21-.7-.2-.91.18s0,.63.32.89a21.86,21.86,0,0,1,2.49,2.11,8.49,8.49,0,0,1,2.09,4.62c.06.4.3.65.68.55S24.45,14.91,24.66,14.71Zm-4.36.69a6.2,6.2,0,0,0-3.17-4.81c-.35-.13-.65,0-.73.29a.88.88,0,0,0,.2.77,5.16,5.16,0,0,1,2.53,3.72.51.51,0,0,0,.69.46C20.05,15.75,20.21,15.49,20.3,15.4Z"/><path class="cls-2" d="M18.88,27.17a4.21,4.21,0,0,1-.73-.22A22.81,22.81,0,0,1,5.73,10.32C5.6,9.68,5.52,9,5.44,8.38a1.39,1.39,0,0,1,.45-1.25A8.31,8.31,0,0,1,9.18,5.26a.9.9,0,0,1,1.22.62C11,7.33,11.48,8.79,12,10.25a1.42,1.42,0,0,1-.2,1.44c-.3.4-.57.82-.88,1.2a.7.7,0,0,0-.11.82A19.39,19.39,0,0,0,15.15,20a.61.61,0,0,0,.69.19c2.71-.71,2.09-.79,4.14,1,.75.65,1.49,1.31,2.22,2a.94.94,0,0,1,.11,1.52,8.43,8.43,0,0,1-2.65,2.17A5.2,5.2,0,0,1,18.88,27.17Z"/><path class="cls-2" d="M24.66,14.71c-.21.2-.38.5-.62.57s-.62-.15-.68-.55a8.49,8.49,0,0,0-2.09-4.62A21.86,21.86,0,0,0,18.78,8c-.33-.26-.53-.51-.32-.89s.55-.39.91-.18a10.38,10.38,0,0,1,5.17,7.52.76.76,0,0,1,0,.15Z"/><path class="cls-2" d="M20.3,15.4c-.09.09-.25.35-.48.43a.51.51,0,0,1-.69-.46,5.16,5.16,0,0,0-2.53-3.72.88.88,0,0,1-.2-.77c.08-.3.38-.42.73-.29A6.2,6.2,0,0,1,20.3,15.4Z"/></g></g></g></svg>