<svg xmlns="http://www.w3.org/2000/svg" viewBox="0 0 17.55 19.59"><defs><style>.cls-1{fill:#fff;}</style></defs><g id="Layer_2" data-name="Layer 2"><g id="Layer_1-2" data-name="Layer 1"><g id="_8Kiwx0.tif" data-name="8Kiwx0.tif"><path class="cls-1" d="M9,9.79.11.82C0,1.43,0,18.36.09,18.65ZM1,0,1,.1,9.77,8.88l2.69-2.59-.05,0q-5.28-3-10.56-6A4,4,0,0,0,1,0ZM13.59,12.71l3.3-1.89a1.34,1.34,0,0,0,.36-.31,1,1,0,0,0,0-1.39,2.29,2.29,0,0,0-.52-.41c-.57-.34-1.16-.66-1.73-1l-1.42-.8L10.71,9.83Z"/><path class="cls-1" d="M1,19.59a1.7,1.7,0,0,1,.15-.22l8.64-8.64,0,0,2.73,2.62-.29.18L1.93,19.34a5.29,5.29,0,0,1-.54.25Z"/><path class="cls-1" d="M9,9.79.09,18.65C0,18.36,0,1.43.11.82Z"/><path class="cls-1" d="M1,0a4,4,0,0,1,.85.25l10.56,6,.05,0L9.77,8.88,1,.1Z"/><path class="cls-1" d="M13.59,12.71,10.71,9.83l2.87-2.91,1.42.8c.57.33,1.16.65,1.73,1a2.29,2.29,0,0,1,.52.41,1,1,0,0,1,0,1.39,1.34,1.34,0,0,1-.36.31Z"/></g></g></g></svg>