<svg xmlns="http://www.w3.org/2000/svg" viewBox="0 0 17.92 27.82"><defs><style>.cls-1{fill:#ce202e;}</style></defs><g id="Layer_2" data-name="Layer 2"><g id="Layer_1-2" data-name="Layer 1"><path class="cls-1" d="M3.75.16A.23.23,0,0,1,3.89,0a.36.36,0,0,1,.19.08.94.94,0,0,1,.16.23l.28.42L5.57,2.37l.32.49L6,3.09h0a1.34,1.34,0,0,1,.07-.18l.16-.4c.26-.61.52-1.21.77-1.82C7.13.54,7.27,0,7.51,0s.36.52.44.69c.33.79.67,1.57,1,2.35H9c.35-.8.7-1.61,1-2.42.07-.15.22-.68.47-.63s.34.56.42.72c.32.78.65,1.56,1,2.35h0C12.43,2.25,13,1.42,13.51.58c.08-.12.4-.76.62-.53a.29.29,0,0,1,0,.21c-.1.49-.21,1-.31,1.46-.22,1.07-.45,2.13-.67,3.19-.09.4-.17.79-.25,1.19a2.71,2.71,0,0,0-.1.51h0s-.06,0-.09,0H9.21a.62.62,0,0,0-.24,0H6.12a6.45,6.45,0,0,1-1,0A.94.94,0,0,1,5,6.3l-.21-1C4.55,4.06,4.28,2.8,4,1.53l-.21-1A1.08,1.08,0,0,1,3.75.16Z"/><circle class="cls-1" cx="8.96" cy="13.94" r="5.83"/><path class="cls-1" d="M17.92,27.75S0,27.91,0,27.75V26.13c0-2.66,3.79-4.82,8.42-4.82H9.51c4.63,0,8.41,2.16,8.41,4.82Z"/></g></g></svg>