<svg xmlns="http://www.w3.org/2000/svg" xmlns:xlink="http://www.w3.org/1999/xlink" viewBox="0 0 1191.99 206.73">
	<defs>
		<style>
			.cls-1,.cls-5,.cls-6,.cls-7{fill:none;}.cls-2,.cls-3{fill:#fff;}.cls-2{stroke:#fff;}.cls-2,.cls-5,.cls-6,.cls-7{stroke-miterlimit:10;}.cls-2,.cls-5,.cls-6{stroke-width:0.76px;}.cls-4{clip-path:url(#clip-path);}.cls-5{stroke:#333;}.cls-6{stroke:#811122;}.cls-7{stroke:#cb1f2e;}.cls-8{opacity:0.57;fill:url(#linear-gradient);}
		</style>
		<clipPath id="clip-path" transform="translate(167.63 0.34)">
			<path class="cls-1" d="M734.36,127.23a4110.74,4110.74,0,0,0-594.12-1.32c-9.07.67-18.28-.53-20.62-2.71L9.62,20.37c-2.34-2.19,5.93-4.76,18.52-5.68a5647.69,5647.69,0,0,1,825.05,1.82c12.54,1,20.67,3.59,18.2,5.76L755.16,124.6C752.69,126.77,743.39,127.93,734.36,127.23Z" />
		</clipPath>
		<linearGradient id="linear-gradient" x1="-3602" y1="4818.4" x2="-3602" y2="4820" gradientTransform="matrix(878, 0, 0, -83.17, 3162993.91, 400945.11)" gradientUnits="userSpaceOnUse">
			<stop offset="0" stop-color="#ff1d25" stop-opacity="0" />
			<stop offset="0.55" stop-color="#ff1d25" stop-opacity="0.2" />
			<stop offset="1" stop-color="#ff1d25" />
		</linearGradient>
	</defs>
	<g id="Layer_2" data-name="Layer 2">
		<g id="Layer_1-2" data-name="Layer 1">
			<g id="Group_583" data-name="Group 583">
				<g id="Group_582" data-name="Group 582">
					<g id="Group_581" data-name="Group 581">
						<g id="Group_580" data-name="Group 580">
							<g id="Group_579" data-name="Group 579">
								<g id="Group_574" data-name="Group 574">
									<path id="Path_1926" data-name="Path 1926" class="cls-2" d="M734.36,127.23a4110.74,4110.74,0,0,0-594.12-1.32c-9.07.67-18.28-.53-20.62-2.71L9.62,20.37c-2.34-2.19,5.93-4.76,18.52-5.68a5647.69,5647.69,0,0,1,825.05,1.82c12.54,1,20.67,3.59,18.2,5.76L755.16,124.6C752.69,126.77,743.39,127.93,734.36,127.23Z" transform="translate(167.63 0.34)" />
								</g>
								<g id="Group_577" data-name="Group 577">
									<path id="Path_1927" data-name="Path 1927" class="cls-3" d="M734.36,127.23a4110.74,4110.74,0,0,0-594.12-1.32c-9.07.67-18.28-.53-20.62-2.71L9.62,20.37c-2.34-2.19,5.93-4.76,18.52-5.68a5647.69,5647.69,0,0,1,825.05,1.82c12.54,1,20.67,3.59,18.2,5.76L755.16,124.6C752.69,126.77,743.39,127.93,734.36,127.23Z" transform="translate(167.63 0.34)" />
									<g class="cls-4">
										<g id="Group_576" data-name="Group 576">
											<g id="_8oZLeu" data-name=" 8oZLeu">
												<g id="Group_575" data-name="Group 575">
													<path id="Path_1928" data-name="Path 1928" class="cls-5" d="M-166.52,32.56C30.12,10.64,228.81.47,428.35,0,627.9.45,826.61,10.61,1023.25,32.5h0l-86.6,55.28-86.6,55.28h0c-139.48-15.41-280.12-22.61-421.62-23-141.5.41-282.14,7.63-421.6,23h0L-79.85,87.83Z" transform="translate(167.63 0.34)" />
												</g>
											</g>
										</g>
									</g>
									<path id="Path_1930" data-name="Path 1930" class="cls-6" d="M734.36,127.23a4110.74,4110.74,0,0,0-594.12-1.32c-9.07.67-18.28-.53-20.62-2.71L9.62,20.37c-2.34-2.19,5.93-4.76,18.52-5.68a5647.69,5647.69,0,0,1,825.05,1.82c12.54,1,20.67,3.59,18.2,5.76L755.16,124.6C752.69,126.77,743.39,127.93,734.36,127.23Z" transform="translate(167.63 0.34)" />
								</g>
								<g id="Group_578" data-name="Group 578">
									<path id="Path_1931" data-name="Path 1931" class="cls-7" d="M12.73,20.37c-2.32-2.19,5.89-4.76,18.39-5.68a5566.64,5566.64,0,0,1,819.1,1.82c12.45,1,20.52,3.59,18.07,5.76" transform="translate(167.63 0.34)" />
								</g>
							</g>
							<path id="Path_1932" data-name="Path 1932" class="cls-8" d="M0,206.39H878L769.6,135.93s-95.75-12.7-334.22-12.7-327,12.7-327,12.7Z" transform="translate(167.63 0.34)" />
						</g>
					</g>
				</g>
			</g>
		</g>
	</g>
</svg>
