<?xml version="1.0" encoding="utf-8"?>
<!-- Generator: Adobe Illustrator 23.0.4, SVG Export Plug-In . SVG Version: 6.00 Build 0)  -->
<svg version="1.1" id="Layer_1" xmlns="http://www.w3.org/2000/svg" xmlns:xlink="http://www.w3.org/1999/xlink" x="0px" y="0px"
	 viewBox="0 0 500 500" style="enable-background:new 0 0 500 500;" xml:space="preserve">
<style type="text/css">
	.st0{fill:#434345;}
</style>
<g>
	<path class="st0" d="M298.82,282.46c45.84,40.44,90.81,80.29,136.02,119.87c9.34,8.18,15.83,16.65,10.17,29.66
		c-7.56,17.37-26.72,19.92-40.2,4.78c-38.47-43.2-76.65-86.65-114.94-130.01c-2.24-2.54-4.42-5.13-7.25-8.42
		c-36.55,27.15-76.08,38.46-120.17,27.8c-33.01-7.98-59.52-26.07-79.27-53.75c-39.43-55.26-31.29-132.12,18.75-178.2
		c50.4-46.42,126.91-48.09,179.19-4.92C324.75,125.31,356.34,203.04,298.82,282.46z M194.68,76.38
		c-63.81-0.5-117.28,52.34-118.1,116.72c-0.81,63.67,51.79,117.28,116.33,118.55c63.91,1.26,119.04-53.22,119.04-117.63
		C311.96,130.09,258.92,76.89,194.68,76.38z"/>
</g>
</svg>
