<svg xmlns="http://www.w3.org/2000/svg" viewBox="0 0 25.45 25.47"><defs><style>.cls-1{fill:#fff;}</style></defs><g id="Layer_2" data-name="Layer 2"><g id="Layer_1-2" data-name="Layer 1"><path class="cls-1" d="M25.45,12.76A12.64,12.64,0,0,1,12.7,25.47,12.56,12.56,0,0,1,0,12.71,12.61,12.61,0,0,1,12.76,0,12.71,12.71,0,0,1,25.45,12.76Zm-5.08,4.1c-.06-.1-.08-.16-.12-.18a2.83,2.83,0,0,0-.36-.16,4.39,4.39,0,0,1-2.44-1.91c-.64-1-.91-1.68.65-2.17a.61.61,0,0,0,.28-.13c.15-.17.27-.35.4-.53a6.55,6.55,0,0,0-.74-.27.89.89,0,0,0-.37.1c-.6.17-.93,0-.85-.67,0-.42,0-.84,0-1.27A3.73,3.73,0,0,0,14.23,5.8a4.47,4.47,0,0,0-5,1.47,4.88,4.88,0,0,0-.61,3.42c.06,1-.05,1.11-1.05.88-.41-.1-.78-.19-1,.45.37.19.73.39,1.11.55.81.35,1,.69.61,1.47a4.77,4.77,0,0,1-2.51,2.41l-.8.32c.63.94,2.3.23,2.32,1.86,1.56-.5,2.77.13,4,.91a2.53,2.53,0,0,0,2.72,0,5,5,0,0,1,4-1C18.19,17,19.78,17.69,20.37,16.86Z"/></g></g></svg>