<svg xmlns="http://www.w3.org/2000/svg" viewBox="0 0 25.51 25.51"><defs><style>.cls-1{fill:#fff;}</style></defs><g id="Layer_2" data-name="Layer 2"><g id="Layer_1-2" data-name="Layer 1"><path class="cls-1" d="M25.51,12.77A12.76,12.76,0,1,1,12.86,0,12.76,12.76,0,0,1,25.51,12.77ZM5.76,17.26v.1c.12.07.23.15.35.21a8.35,8.35,0,0,0,3.3,1,8,8,0,0,0,6.42-2.26,8.22,8.22,0,0,0,2.47-4.93,3.36,3.36,0,0,1,1.21-2.57,1.87,1.87,0,0,0,.28-.38l-.05-.06-1.18.34,0-.08a4.71,4.71,0,0,0,.93-1.43c-.47.17-.89.31-1.3.49a.81.81,0,0,1-.88-.11,3,3,0,0,0-1-.54,2.93,2.93,0,0,0-3.68,3c0,.16,0,.32,0,.5A8.58,8.58,0,0,1,6.59,7.4a3.17,3.17,0,0,0,.71,3.88l-.08.06-1.07-.29A3.3,3.3,0,0,0,8.25,14c-.2,0-.37,0-.54,0-.49,0-.54.08-.3.51a3.3,3.3,0,0,0,1.8,1.42l.55.2A6.49,6.49,0,0,1,5.76,17.26Z"/></g></g></svg>