<svg xmlns="http://www.w3.org/2000/svg" viewBox="0 0 23.01 31"><defs><style>.cls-1{fill:#fff;}</style></defs><g id="Layer_2" data-name="Layer 2"><g id="Layer_1-2" data-name="Layer 1"><path class="cls-1" d="M10.85,13.47l.2,2.76c1.63,0,3.19.08,4.72,0a1.86,1.86,0,0,1,2.3,1.64c.52,2.11,1.27,4.17,2,6.42.54-.13,1-.2,1.5-.36.79-.27,1.14.05,1.37.78s-.07,1.1-.79,1.35c-3.44,1.22-3.43,1.24-4.48-2.15-.42-1.34-.88-2.67-1.24-4a1.3,1.3,0,0,0-1.53-1.14c-1.77.07-3.55,0-5.32,0-1,0-1.52-.23-1.54-1.38C8,14.17,7.77,11,7.61,7.81c-.06-1,.07-1.92,1.36-2s1.59.83,1.62,1.93.14,2.07.23,3.18c1.83,0,3.59.06,5.34,0,1,0,1.38.36,1.4,1.35s-.46,1.25-1.35,1.23C14.5,13.44,12.79,13.47,10.85,13.47Z"/><path class="cls-1" d="M16.56,24.76c.86,2.61.8,2.81-1.22,4.33a9.6,9.6,0,1,1-11-15.74,12.58,12.58,0,0,1,1.21-.63c.15.1,1,1.29,1.18,1.39a12.17,12.17,0,0,0-1.9,1.22,7.59,7.59,0,0,0-2.63,8A7.2,7.2,0,0,0,8.3,28.92a7.34,7.34,0,0,0,7.6-3.22C16.09,25.45,16.26,25.2,16.56,24.76Z"/><path class="cls-1" d="M11.45,2.6A2.5,2.5,0,0,1,8.81,5.08,2.48,2.48,0,0,1,6.38,2.56a2.54,2.54,0,1,1,5.07,0Z"/></g></g></svg>