<svg xmlns="http://www.w3.org/2000/svg" xmlns:xlink="http://www.w3.org/1999/xlink" viewBox="0 0 1080 1920"><defs><style>.cls-1,.cls-100,.cls-101,.cls-102,.cls-103,.cls-104,.cls-105,.cls-106,.cls-107,.cls-108,.cls-109,.cls-110,.cls-111,.cls-112,.cls-113,.cls-114,.cls-115,.cls-116,.cls-117,.cls-118,.cls-119,.cls-120,.cls-121,.cls-122,.cls-123,.cls-124,.cls-125,.cls-126,.cls-127,.cls-128,.cls-129,.cls-13,.cls-130,.cls-131,.cls-132,.cls-133,.cls-134,.cls-135,.cls-136,.cls-137,.cls-138,.cls-139,.cls-14,.cls-140,.cls-141,.cls-142,.cls-143,.cls-144,.cls-145,.cls-146,.cls-147,.cls-148,.cls-149,.cls-15,.cls-150,.cls-151,.cls-152,.cls-153,.cls-154,.cls-155,.cls-156,.cls-157,.cls-158,.cls-159,.cls-16,.cls-160,.cls-161,.cls-162,.cls-163,.cls-164,.cls-165,.cls-166,.cls-167,.cls-168,.cls-169,.cls-17,.cls-170,.cls-171,.cls-172,.cls-173,.cls-174,.cls-175,.cls-176,.cls-177,.cls-178,.cls-179,.cls-18,.cls-19,.cls-2,.cls-20,.cls-21,.cls-22,.cls-23,.cls-24,.cls-25,.cls-26,.cls-27,.cls-28,.cls-29,.cls-30,.cls-31,.cls-32,.cls-33,.cls-34,.cls-35,.cls-36,.cls-37,.cls-38,.cls-39,.cls-40,.cls-41,.cls-42,.cls-43,.cls-44,.cls-45,.cls-46,.cls-47,.cls-48,.cls-49,.cls-50,.cls-51,.cls-52,.cls-53,.cls-54,.cls-55,.cls-56,.cls-57,.cls-58,.cls-59,.cls-60,.cls-61,.cls-62,.cls-63,.cls-64,.cls-65,.cls-66,.cls-67,.cls-68,.cls-69,.cls-70,.cls-71,.cls-72,.cls-73,.cls-74,.cls-75,.cls-76,.cls-77,.cls-78,.cls-79,.cls-80,.cls-81,.cls-82,.cls-83,.cls-84,.cls-85,.cls-86,.cls-87,.cls-88,.cls-89,.cls-90,.cls-91,.cls-92,.cls-93,.cls-94,.cls-95,.cls-96,.cls-97,.cls-98,.cls-99{fill:none;}.cls-2{stroke:#050707;}.cls-100,.cls-101,.cls-102,.cls-103,.cls-104,.cls-105,.cls-106,.cls-107,.cls-108,.cls-109,.cls-110,.cls-111,.cls-112,.cls-113,.cls-114,.cls-115,.cls-116,.cls-117,.cls-118,.cls-119,.cls-120,.cls-121,.cls-122,.cls-123,.cls-124,.cls-125,.cls-126,.cls-127,.cls-128,.cls-129,.cls-13,.cls-130,.cls-131,.cls-132,.cls-133,.cls-134,.cls-135,.cls-136,.cls-137,.cls-138,.cls-139,.cls-14,.cls-140,.cls-141,.cls-142,.cls-143,.cls-144,.cls-145,.cls-146,.cls-147,.cls-148,.cls-149,.cls-15,.cls-150,.cls-151,.cls-152,.cls-153,.cls-154,.cls-155,.cls-156,.cls-157,.cls-158,.cls-159,.cls-16,.cls-160,.cls-161,.cls-162,.cls-163,.cls-164,.cls-165,.cls-166,.cls-167,.cls-168,.cls-169,.cls-17,.cls-170,.cls-171,.cls-172,.cls-173,.cls-174,.cls-175,.cls-176,.cls-177,.cls-178,.cls-179,.cls-18,.cls-19,.cls-2,.cls-20,.cls-21,.cls-22,.cls-23,.cls-24,.cls-25,.cls-26,.cls-27,.cls-28,.cls-29,.cls-30,.cls-31,.cls-32,.cls-33,.cls-34,.cls-35,.cls-36,.cls-37,.cls-38,.cls-39,.cls-40,.cls-41,.cls-42,.cls-43,.cls-44,.cls-45,.cls-46,.cls-47,.cls-48,.cls-49,.cls-50,.cls-51,.cls-52,.cls-53,.cls-54,.cls-55,.cls-56,.cls-57,.cls-58,.cls-59,.cls-60,.cls-61,.cls-62,.cls-63,.cls-64,.cls-65,.cls-66,.cls-67,.cls-68,.cls-69,.cls-70,.cls-71,.cls-72,.cls-73,.cls-74,.cls-75,.cls-76,.cls-77,.cls-78,.cls-79,.cls-80,.cls-81,.cls-82,.cls-83,.cls-84,.cls-85,.cls-86,.cls-87,.cls-88,.cls-89,.cls-90,.cls-91,.cls-92,.cls-93,.cls-94,.cls-95,.cls-96,.cls-97,.cls-98,.cls-99{stroke-miterlimit:10;}.cls-3{isolation:isolate;}.cls-4{clip-path:url(#clip-path);}.cls-5{clip-path:url(#clip-path-2);}.cls-6{fill:#fff;}.cls-7{clip-path:url(#clip-path-3);}.cls-8{clip-path:url(#clip-path-4);}.cls-9{clip-path:url(#clip-path-5);}.cls-10{clip-path:url(#clip-path-6);}.cls-11{fill:url(#New_Gradient_Swatch_1);}.cls-12{opacity:0.5;mix-blend-mode:multiply;}.cls-100,.cls-101,.cls-102,.cls-103,.cls-104,.cls-105,.cls-106,.cls-107,.cls-108,.cls-109,.cls-110,.cls-111,.cls-112,.cls-113,.cls-114,.cls-115,.cls-116,.cls-117,.cls-118,.cls-119,.cls-120,.cls-121,.cls-122,.cls-123,.cls-124,.cls-125,.cls-126,.cls-127,.cls-128,.cls-129,.cls-13,.cls-130,.cls-131,.cls-132,.cls-133,.cls-134,.cls-135,.cls-136,.cls-137,.cls-138,.cls-139,.cls-14,.cls-140,.cls-141,.cls-142,.cls-143,.cls-144,.cls-145,.cls-146,.cls-147,.cls-148,.cls-149,.cls-15,.cls-150,.cls-151,.cls-152,.cls-153,.cls-154,.cls-155,.cls-156,.cls-157,.cls-158,.cls-159,.cls-16,.cls-160,.cls-161,.cls-162,.cls-163,.cls-164,.cls-165,.cls-166,.cls-167,.cls-168,.cls-169,.cls-17,.cls-170,.cls-171,.cls-172,.cls-173,.cls-174,.cls-175,.cls-176,.cls-177,.cls-178,.cls-179,.cls-18,.cls-19,.cls-20,.cls-21,.cls-22,.cls-23,.cls-24,.cls-25,.cls-26,.cls-27,.cls-28,.cls-29,.cls-30,.cls-31,.cls-32,.cls-33,.cls-34,.cls-35,.cls-36,.cls-37,.cls-38,.cls-39,.cls-40,.cls-41,.cls-42,.cls-43,.cls-44,.cls-45,.cls-46,.cls-47,.cls-48,.cls-49,.cls-50,.cls-51,.cls-52,.cls-53,.cls-54,.cls-55,.cls-56,.cls-57,.cls-58,.cls-59,.cls-60,.cls-61,.cls-62,.cls-63,.cls-64,.cls-65,.cls-66,.cls-67,.cls-68,.cls-69,.cls-70,.cls-71,.cls-72,.cls-73,.cls-74,.cls-75,.cls-76,.cls-77,.cls-78,.cls-79,.cls-80,.cls-81,.cls-82,.cls-83,.cls-84,.cls-85,.cls-86,.cls-87,.cls-88,.cls-89,.cls-90,.cls-91,.cls-92,.cls-93,.cls-94,.cls-95,.cls-96,.cls-97,.cls-98,.cls-99{stroke-width:2px;}.cls-13{stroke:url(#radial-gradient);}.cls-14{stroke:url(#radial-gradient-2);}.cls-15{stroke:url(#radial-gradient-3);}.cls-16{stroke:url(#radial-gradient-4);}.cls-17{stroke:url(#radial-gradient-5);}.cls-18{stroke:url(#radial-gradient-6);}.cls-19{stroke:url(#radial-gradient-7);}.cls-20{stroke:url(#radial-gradient-8);}.cls-21{stroke:url(#radial-gradient-9);}.cls-22{stroke:url(#radial-gradient-10);}.cls-23{stroke:url(#radial-gradient-11);}.cls-24{stroke:url(#radial-gradient-12);}.cls-25{stroke:url(#radial-gradient-13);}.cls-26{stroke:url(#radial-gradient-14);}.cls-27{stroke:url(#radial-gradient-15);}.cls-28{stroke:url(#radial-gradient-16);}.cls-29{stroke:url(#radial-gradient-17);}.cls-30{stroke:url(#radial-gradient-18);}.cls-31{stroke:url(#radial-gradient-19);}.cls-32{stroke:url(#radial-gradient-20);}.cls-33{stroke:url(#radial-gradient-21);}.cls-34{stroke:url(#radial-gradient-22);}.cls-35{stroke:url(#radial-gradient-23);}.cls-36{stroke:url(#radial-gradient-24);}.cls-37{stroke:url(#radial-gradient-25);}.cls-38{stroke:url(#radial-gradient-26);}.cls-39{stroke:url(#radial-gradient-27);}.cls-40{stroke:url(#radial-gradient-28);}.cls-41{stroke:url(#radial-gradient-29);}.cls-42{stroke:url(#radial-gradient-30);}.cls-43{stroke:url(#radial-gradient-31);}.cls-44{stroke:url(#radial-gradient-32);}.cls-45{stroke:url(#radial-gradient-33);}.cls-46{stroke:url(#radial-gradient-34);}.cls-47{stroke:url(#radial-gradient-35);}.cls-48{stroke:url(#radial-gradient-36);}.cls-49{stroke:url(#radial-gradient-37);}.cls-50{stroke:url(#radial-gradient-38);}.cls-51{stroke:url(#radial-gradient-39);}.cls-52{stroke:url(#radial-gradient-40);}.cls-53{stroke:url(#radial-gradient-41);}.cls-54{stroke:url(#radial-gradient-42);}.cls-55{stroke:url(#radial-gradient-43);}.cls-56{stroke:url(#radial-gradient-44);}.cls-57{stroke:url(#radial-gradient-45);}.cls-58{stroke:url(#radial-gradient-46);}.cls-59{stroke:url(#radial-gradient-47);}.cls-60{stroke:url(#radial-gradient-48);}.cls-61{stroke:url(#radial-gradient-49);}.cls-62{stroke:url(#radial-gradient-50);}.cls-63{stroke:url(#radial-gradient-51);}.cls-64{stroke:url(#radial-gradient-52);}.cls-65{stroke:url(#radial-gradient-53);}.cls-66{stroke:url(#radial-gradient-54);}.cls-67{stroke:url(#radial-gradient-55);}.cls-68{stroke:url(#radial-gradient-56);}.cls-69{stroke:url(#radial-gradient-57);}.cls-70{stroke:url(#radial-gradient-58);}.cls-71{stroke:url(#radial-gradient-59);}.cls-72{stroke:url(#radial-gradient-60);}.cls-73{stroke:url(#radial-gradient-61);}.cls-74{stroke:url(#radial-gradient-62);}.cls-75{stroke:url(#radial-gradient-63);}.cls-76{stroke:url(#radial-gradient-64);}.cls-77{stroke:url(#radial-gradient-65);}.cls-78{stroke:url(#radial-gradient-66);}.cls-79{stroke:url(#radial-gradient-67);}.cls-80{stroke:url(#radial-gradient-68);}.cls-81{stroke:url(#radial-gradient-69);}.cls-82{stroke:url(#radial-gradient-70);}.cls-83{stroke:url(#radial-gradient-71);}.cls-84{stroke:url(#radial-gradient-72);}.cls-85{stroke:url(#radial-gradient-73);}.cls-86{stroke:url(#radial-gradient-74);}.cls-87{stroke:url(#radial-gradient-75);}.cls-88{stroke:url(#radial-gradient-76);}.cls-89{stroke:url(#radial-gradient-77);}.cls-90{stroke:url(#radial-gradient-78);}.cls-91{stroke:url(#radial-gradient-79);}.cls-92{stroke:url(#radial-gradient-80);}.cls-93{stroke:url(#radial-gradient-81);}.cls-94{stroke:url(#radial-gradient-82);}.cls-95{stroke:url(#radial-gradient-83);}.cls-96{stroke:url(#radial-gradient-84);}.cls-97{stroke:url(#radial-gradient-85);}.cls-98{stroke:url(#radial-gradient-86);}.cls-99{stroke:url(#radial-gradient-87);}.cls-100{stroke:url(#radial-gradient-88);}.cls-101{stroke:url(#radial-gradient-89);}.cls-102{stroke:url(#radial-gradient-90);}.cls-103{stroke:url(#radial-gradient-91);}.cls-104{stroke:url(#radial-gradient-92);}.cls-105{stroke:url(#radial-gradient-93);}.cls-106{stroke:url(#radial-gradient-94);}.cls-107{stroke:url(#radial-gradient-95);}.cls-108{stroke:url(#radial-gradient-96);}.cls-109{stroke:url(#radial-gradient-97);}.cls-110{stroke:url(#radial-gradient-98);}.cls-111{stroke:url(#radial-gradient-99);}.cls-112{stroke:url(#radial-gradient-100);}.cls-113{stroke:url(#radial-gradient-101);}.cls-114{stroke:url(#radial-gradient-102);}.cls-115{stroke:url(#radial-gradient-103);}.cls-116{stroke:url(#radial-gradient-104);}.cls-117{stroke:url(#radial-gradient-105);}.cls-118{stroke:url(#radial-gradient-106);}.cls-119{stroke:url(#radial-gradient-107);}.cls-120{stroke:url(#radial-gradient-108);}.cls-121{stroke:url(#radial-gradient-109);}.cls-122{stroke:url(#radial-gradient-110);}.cls-123{stroke:url(#radial-gradient-111);}.cls-124{stroke:url(#radial-gradient-112);}.cls-125{stroke:url(#radial-gradient-113);}.cls-126{stroke:url(#radial-gradient-114);}.cls-127{stroke:url(#radial-gradient-115);}.cls-128{stroke:url(#radial-gradient-116);}.cls-129{stroke:url(#radial-gradient-117);}.cls-130{stroke:url(#radial-gradient-118);}.cls-131{stroke:url(#radial-gradient-119);}.cls-132{stroke:url(#radial-gradient-120);}.cls-133{stroke:url(#radial-gradient-121);}.cls-134{stroke:url(#radial-gradient-122);}.cls-135{stroke:url(#radial-gradient-123);}.cls-136{stroke:url(#radial-gradient-124);}.cls-137{stroke:url(#radial-gradient-125);}.cls-138{stroke:url(#radial-gradient-126);}.cls-139{stroke:url(#radial-gradient-127);}.cls-140{stroke:url(#radial-gradient-128);}.cls-141{stroke:url(#radial-gradient-129);}.cls-142{stroke:url(#radial-gradient-130);}.cls-143{stroke:url(#radial-gradient-131);}.cls-144{stroke:url(#radial-gradient-132);}.cls-145{stroke:url(#radial-gradient-133);}.cls-146{stroke:url(#radial-gradient-134);}.cls-147{stroke:url(#radial-gradient-135);}.cls-148{stroke:url(#radial-gradient-136);}.cls-149{stroke:url(#radial-gradient-137);}.cls-150{stroke:url(#radial-gradient-138);}.cls-151{stroke:url(#radial-gradient-139);}.cls-152{stroke:url(#radial-gradient-140);}.cls-153{stroke:url(#radial-gradient-141);}.cls-154{stroke:url(#radial-gradient-142);}.cls-155{stroke:url(#radial-gradient-143);}.cls-156{stroke:url(#radial-gradient-144);}.cls-157{stroke:url(#radial-gradient-145);}.cls-158{stroke:url(#radial-gradient-146);}.cls-159{stroke:url(#radial-gradient-147);}.cls-160{stroke:url(#radial-gradient-148);}.cls-161{stroke:url(#radial-gradient-149);}.cls-162{stroke:url(#radial-gradient-150);}.cls-163{stroke:url(#radial-gradient-151);}.cls-164{stroke:url(#radial-gradient-152);}.cls-165{stroke:url(#radial-gradient-153);}.cls-166{stroke:url(#radial-gradient-154);}.cls-167{stroke:url(#radial-gradient-155);}.cls-168{stroke:url(#radial-gradient-156);}.cls-169{stroke:url(#radial-gradient-157);}.cls-170{stroke:url(#radial-gradient-158);}.cls-171{stroke:url(#radial-gradient-159);}.cls-172{stroke:url(#radial-gradient-160);}.cls-173{stroke:url(#radial-gradient-161);}.cls-174{stroke:url(#radial-gradient-162);}.cls-175{stroke:url(#radial-gradient-163);}.cls-176{stroke:url(#radial-gradient-164);}.cls-177{stroke:url(#radial-gradient-165);}.cls-178{stroke:url(#radial-gradient-166);}.cls-179{stroke:url(#radial-gradient-167);}.cls-180{clip-path:url(#clip-path-7);}.cls-181{clip-path:url(#clip-path-8);}</style><clipPath id="clip-path"><rect class="cls-1" x="-492.42" y="-1359.02" width="595.38" height="1038.76"/></clipPath><clipPath id="clip-path-2"><path class="cls-2" d="M61-1417.32a54.92,54.92,0,0,1,55,54.77V-317.48a54.92,54.92,0,0,1-55,54.77H-450.54a54.92,54.92,0,0,1-55-54.77V-1362.56a54.92,54.92,0,0,1,55-54.77Z"/></clipPath><clipPath id="clip-path-3"><rect class="cls-1" x="198.1" y="-1359.02" width="595.38" height="1038.76"/></clipPath><clipPath id="clip-path-4"><path class="cls-2" d="M751.5-1417.32a54.92,54.92,0,0,1,55,54.77V-317.48a54.92,54.92,0,0,1-55,54.77H240a54.92,54.92,0,0,1-55-54.77V-1362.56a54.92,54.92,0,0,1,55-54.77Z"/></clipPath><clipPath id="clip-path-5"><rect class="cls-1" width="1080" height="1920"/></clipPath><clipPath id="clip-path-6"><path class="cls-2" d="M1003.86-107.77c55,0,99.69,45.41,99.69,101.23V1925.14c0,55.82-44.72,101.23-99.69,101.23H76c-55,0-99.69-45.41-99.69-101.23V-6.54C-23.72-62.35,21-107.77,76-107.77Z"/></clipPath><linearGradient id="New_Gradient_Swatch_1" x1="903.23" y1="-71.2" x2="131.21" y2="2072.99" gradientUnits="userSpaceOnUse"><stop offset="0" stop-color="#ce1f2e"/><stop offset="1" stop-color="#af002e"/></linearGradient><radialGradient id="radial-gradient" cx="505.1" cy="431.57" r="250.03" gradientTransform="translate(-439.55 -814.43) scale(1.81 1.85)" gradientUnits="userSpaceOnUse"><stop offset="0" stop-color="#df6f78"/><stop offset="0.19" stop-color="#f2c4c8"/><stop offset="0.33" stop-color="#fff"/><stop offset="0.38" stop-color="#fbebec"/><stop offset="0.61" stop-color="#e8959c"/><stop offset="0.8" stop-color="#da5561"/><stop offset="0.93" stop-color="#d12e3c"/><stop offset="1" stop-color="#ce1f2e"/></radialGradient><radialGradient id="radial-gradient-2" cx="505.08" cy="438.03" r="250.02" xlink:href="#radial-gradient"/><radialGradient id="radial-gradient-3" cx="505.06" cy="444.5" r="250.01" xlink:href="#radial-gradient"/><radialGradient id="radial-gradient-4" cx="505.04" cy="450.97" r="250" xlink:href="#radial-gradient"/><radialGradient id="radial-gradient-5" cx="505.03" cy="457.43" r="249.99" xlink:href="#radial-gradient"/><radialGradient id="radial-gradient-6" cx="505.01" cy="463.9" r="249.98" xlink:href="#radial-gradient"/><radialGradient id="radial-gradient-7" cx="504.99" cy="470.37" r="249.97" xlink:href="#radial-gradient"/><radialGradient id="radial-gradient-8" cx="504.98" cy="476.83" r="249.96" xlink:href="#radial-gradient"/><radialGradient id="radial-gradient-9" cx="504.96" cy="483.3" r="249.95" xlink:href="#radial-gradient"/><radialGradient id="radial-gradient-10" cx="504.94" cy="489.77" r="249.94" xlink:href="#radial-gradient"/><radialGradient id="radial-gradient-11" cx="504.92" cy="496.23" r="249.93" xlink:href="#radial-gradient"/><radialGradient id="radial-gradient-12" cx="504.91" cy="502.7" r="249.92" xlink:href="#radial-gradient"/><radialGradient id="radial-gradient-13" cx="504.89" cy="509.16" r="249.91" xlink:href="#radial-gradient"/><radialGradient id="radial-gradient-14" cx="504.87" cy="515.63" r="249.9" xlink:href="#radial-gradient"/><radialGradient id="radial-gradient-15" cx="504.85" cy="522.1" r="249.89" xlink:href="#radial-gradient"/><radialGradient id="radial-gradient-16" cx="504.84" cy="528.56" r="249.88" xlink:href="#radial-gradient"/><radialGradient id="radial-gradient-17" cx="504.82" cy="535.03" r="249.87" xlink:href="#radial-gradient"/><radialGradient id="radial-gradient-18" cx="504.8" cy="541.49" r="249.86" xlink:href="#radial-gradient"/><radialGradient id="radial-gradient-19" cx="504.79" cy="547.96" r="249.85" xlink:href="#radial-gradient"/><radialGradient id="radial-gradient-20" cx="504.77" cy="554.43" r="249.84" xlink:href="#radial-gradient"/><radialGradient id="radial-gradient-21" cx="504.75" cy="560.89" r="249.83" xlink:href="#radial-gradient"/><radialGradient id="radial-gradient-22" cx="504.74" cy="567.36" r="249.82" xlink:href="#radial-gradient"/><radialGradient id="radial-gradient-23" cx="504.72" cy="573.83" r="249.81" xlink:href="#radial-gradient"/><radialGradient id="radial-gradient-24" cx="504.7" cy="580.3" r="249.8" xlink:href="#radial-gradient"/><radialGradient id="radial-gradient-25" cx="504.68" cy="586.76" r="249.79" xlink:href="#radial-gradient"/><radialGradient id="radial-gradient-26" cx="504.67" cy="593.23" r="249.78" xlink:href="#radial-gradient"/><radialGradient id="radial-gradient-27" cx="504.65" cy="599.69" r="249.77" xlink:href="#radial-gradient"/><radialGradient id="radial-gradient-28" cx="504.63" cy="606.16" r="249.77" xlink:href="#radial-gradient"/><radialGradient id="radial-gradient-29" cx="504.62" cy="612.63" r="249.76" xlink:href="#radial-gradient"/><radialGradient id="radial-gradient-30" cx="504.6" cy="619.09" r="249.75" xlink:href="#radial-gradient"/><radialGradient id="radial-gradient-31" cx="504.58" cy="625.56" r="249.74" xlink:href="#radial-gradient"/><radialGradient id="radial-gradient-32" cx="504.57" cy="632.02" r="249.73" xlink:href="#radial-gradient"/><radialGradient id="radial-gradient-33" cx="504.55" cy="638.49" r="249.72" xlink:href="#radial-gradient"/><radialGradient id="radial-gradient-34" cx="504.53" cy="644.96" r="249.71" xlink:href="#radial-gradient"/><radialGradient id="radial-gradient-35" cx="504.52" cy="651.42" r="249.7" xlink:href="#radial-gradient"/><radialGradient id="radial-gradient-36" cx="504.5" cy="657.89" r="249.69" xlink:href="#radial-gradient"/><radialGradient id="radial-gradient-37" cx="504.48" cy="664.36" r="249.68" xlink:href="#radial-gradient"/><radialGradient id="radial-gradient-38" cx="504.47" cy="670.82" r="249.67" xlink:href="#radial-gradient"/><radialGradient id="radial-gradient-39" cx="504.45" cy="677.29" r="249.66" xlink:href="#radial-gradient"/><radialGradient id="radial-gradient-40" cx="504.43" cy="683.75" r="249.65" xlink:href="#radial-gradient"/><radialGradient id="radial-gradient-41" cx="504.42" cy="690.22" r="249.64" xlink:href="#radial-gradient"/><radialGradient id="radial-gradient-42" cx="504.4" cy="696.69" r="249.63" xlink:href="#radial-gradient"/><radialGradient id="radial-gradient-43" cx="504.38" cy="703.15" r="249.62" xlink:href="#radial-gradient"/><radialGradient id="radial-gradient-44" cx="504.37" cy="709.62" r="249.62" xlink:href="#radial-gradient"/><radialGradient id="radial-gradient-45" cx="504.35" cy="716.09" r="249.61" xlink:href="#radial-gradient"/><radialGradient id="radial-gradient-46" cx="504.33" cy="722.55" r="249.6" xlink:href="#radial-gradient"/><radialGradient id="radial-gradient-47" cx="504.32" cy="729.02" r="249.59" xlink:href="#radial-gradient"/><radialGradient id="radial-gradient-48" cx="504.3" cy="735.49" r="249.58" xlink:href="#radial-gradient"/><radialGradient id="radial-gradient-49" cx="504.29" cy="741.95" r="249.57" xlink:href="#radial-gradient"/><radialGradient id="radial-gradient-50" cx="504.27" cy="748.42" r="249.56" xlink:href="#radial-gradient"/><radialGradient id="radial-gradient-51" cx="504.25" cy="754.89" r="249.55" xlink:href="#radial-gradient"/><radialGradient id="radial-gradient-52" cx="504.24" cy="761.36" r="249.54" xlink:href="#radial-gradient"/><radialGradient id="radial-gradient-53" cx="504.22" cy="767.82" r="249.54" xlink:href="#radial-gradient"/><radialGradient id="radial-gradient-54" cx="504.21" cy="774.29" r="249.53" xlink:href="#radial-gradient"/><radialGradient id="radial-gradient-55" cx="504.19" cy="780.76" r="249.52" xlink:href="#radial-gradient"/><radialGradient id="radial-gradient-56" cx="504.17" cy="787.23" r="249.51" xlink:href="#radial-gradient"/><radialGradient id="radial-gradient-57" cx="504.16" cy="793.69" r="249.5" xlink:href="#radial-gradient"/><radialGradient id="radial-gradient-58" cx="504.14" cy="800.16" r="249.49" xlink:href="#radial-gradient"/><radialGradient id="radial-gradient-59" cx="504.13" cy="806.63" r="249.48" xlink:href="#radial-gradient"/><radialGradient id="radial-gradient-60" cx="504.11" cy="813.1" r="249.48" xlink:href="#radial-gradient"/><radialGradient id="radial-gradient-61" cx="504.09" cy="819.57" r="249.47" xlink:href="#radial-gradient"/><radialGradient id="radial-gradient-62" cx="504.08" cy="826.04" r="249.46" xlink:href="#radial-gradient"/><radialGradient id="radial-gradient-63" cx="504.06" cy="832.5" r="249.45" xlink:href="#radial-gradient"/><radialGradient id="radial-gradient-64" cx="504.05" cy="838.97" r="249.44" xlink:href="#radial-gradient"/><radialGradient id="radial-gradient-65" cx="504.03" cy="845.44" r="249.44" xlink:href="#radial-gradient"/><radialGradient id="radial-gradient-66" cx="504.02" cy="851.91" r="249.43" xlink:href="#radial-gradient"/><radialGradient id="radial-gradient-67" cx="504" cy="858.38" r="249.42" xlink:href="#radial-gradient"/><radialGradient id="radial-gradient-68" cx="503.98" cy="864.85" r="249.41" xlink:href="#radial-gradient"/><radialGradient id="radial-gradient-69" cx="503.97" cy="871.32" r="249.4" xlink:href="#radial-gradient"/><radialGradient id="radial-gradient-70" cx="503.95" cy="877.79" r="249.4" xlink:href="#radial-gradient"/><radialGradient id="radial-gradient-71" cx="503.94" cy="884.26" r="249.39" xlink:href="#radial-gradient"/><radialGradient id="radial-gradient-72" cx="503.92" cy="890.74" r="249.38" xlink:href="#radial-gradient"/><radialGradient id="radial-gradient-73" cx="503.91" cy="897.21" r="249.37" xlink:href="#radial-gradient"/><radialGradient id="radial-gradient-74" cx="503.89" cy="903.68" r="249.36" xlink:href="#radial-gradient"/><radialGradient id="radial-gradient-75" cx="503.88" cy="910.15" r="249.36" xlink:href="#radial-gradient"/><radialGradient id="radial-gradient-76" cx="503.86" cy="916.62" r="249.35" xlink:href="#radial-gradient"/><radialGradient id="radial-gradient-77" cx="503.85" cy="923.09" r="249.34" xlink:href="#radial-gradient"/><radialGradient id="radial-gradient-78" cx="503.83" cy="929.57" r="249.33" xlink:href="#radial-gradient"/><radialGradient id="radial-gradient-79" cx="503.82" cy="936.04" r="249.33" xlink:href="#radial-gradient"/><radialGradient id="radial-gradient-80" cx="503.8" cy="942.51" r="249.32" xlink:href="#radial-gradient"/><radialGradient id="radial-gradient-81" cx="503.79" cy="948.99" r="249.31" xlink:href="#radial-gradient"/><radialGradient id="radial-gradient-82" cx="503.77" cy="955.46" r="249.31" xlink:href="#radial-gradient"/><radialGradient id="radial-gradient-83" cx="503.76" cy="961.94" r="249.3" xlink:href="#radial-gradient"/><radialGradient id="radial-gradient-84" cx="503.74" cy="968.41" r="249.29" xlink:href="#radial-gradient"/><radialGradient id="radial-gradient-85" cx="503.73" cy="974.89" r="249.28" xlink:href="#radial-gradient"/><radialGradient id="radial-gradient-86" cx="503.71" cy="981.36" r="249.28" xlink:href="#radial-gradient"/><radialGradient id="radial-gradient-87" cx="503.7" cy="987.84" r="249.27" xlink:href="#radial-gradient"/><radialGradient id="radial-gradient-88" cx="503.69" cy="994.32" r="249.26" xlink:href="#radial-gradient"/><radialGradient id="radial-gradient-89" cx="503.67" cy="1000.79" r="249.26" xlink:href="#radial-gradient"/><radialGradient id="radial-gradient-90" cx="503.66" cy="1007.27" r="249.25" xlink:href="#radial-gradient"/><radialGradient id="radial-gradient-91" cx="503.64" cy="1013.74" r="249.24" xlink:href="#radial-gradient"/><radialGradient id="radial-gradient-92" cx="503.63" cy="1020.24" r="249.24" xlink:href="#radial-gradient"/><radialGradient id="radial-gradient-93" cx="503.61" cy="1026.73" r="249.23" xlink:href="#radial-gradient"/><radialGradient id="radial-gradient-94" cx="503.6" cy="1033.23" r="249.23" xlink:href="#radial-gradient"/><radialGradient id="radial-gradient-95" cx="503.58" cy="1039.73" r="249.22" xlink:href="#radial-gradient"/><radialGradient id="radial-gradient-96" cx="503.57" cy="1046.23" r="249.22" xlink:href="#radial-gradient"/><radialGradient id="radial-gradient-97" cx="503.56" cy="1052.74" r="249.21" xlink:href="#radial-gradient"/><radialGradient id="radial-gradient-98" cx="503.54" cy="1059.24" r="249.21" xlink:href="#radial-gradient"/><radialGradient id="radial-gradient-99" cx="503.53" cy="1065.74" r="249.2" xlink:href="#radial-gradient"/><radialGradient id="radial-gradient-100" cx="503.51" cy="1072.24" r="249.19" xlink:href="#radial-gradient"/><radialGradient id="radial-gradient-101" cx="503.5" cy="1078.74" r="249.19" xlink:href="#radial-gradient"/><radialGradient id="radial-gradient-102" cx="503.49" cy="1085.25" r="249.18" xlink:href="#radial-gradient"/><radialGradient id="radial-gradient-103" cx="503.47" cy="1091.75" r="249.18" xlink:href="#radial-gradient"/><radialGradient id="radial-gradient-104" cx="503.46" cy="1098.26" r="249.18" xlink:href="#radial-gradient"/><radialGradient id="radial-gradient-105" cx="503.44" cy="1104.76" r="249.17" xlink:href="#radial-gradient"/><radialGradient id="radial-gradient-106" cx="503.43" cy="1111.27" r="249.17" xlink:href="#radial-gradient"/><radialGradient id="radial-gradient-107" cx="503.42" cy="1117.77" r="249.16" xlink:href="#radial-gradient"/><radialGradient id="radial-gradient-108" cx="503.4" cy="1124.28" r="249.16" xlink:href="#radial-gradient"/><radialGradient id="radial-gradient-109" cx="503.39" cy="1130.79" r="249.15" xlink:href="#radial-gradient"/><radialGradient id="radial-gradient-110" cx="503.37" cy="1137.29" r="249.15" xlink:href="#radial-gradient"/><radialGradient id="radial-gradient-111" cx="503.36" cy="1143.8" r="249.14" xlink:href="#radial-gradient"/><radialGradient id="radial-gradient-112" cx="503.35" cy="1150.31" r="249.14" xlink:href="#radial-gradient"/><radialGradient id="radial-gradient-113" cx="503.33" cy="1156.82" r="249.13" xlink:href="#radial-gradient"/><radialGradient id="radial-gradient-114" cx="503.32" cy="1163.33" r="249.13" xlink:href="#radial-gradient"/><radialGradient id="radial-gradient-115" cx="503.3" cy="1169.83" r="249.12" xlink:href="#radial-gradient"/><radialGradient id="radial-gradient-116" cx="503.29" cy="1176.34" r="249.12" xlink:href="#radial-gradient"/><radialGradient id="radial-gradient-117" cx="503.28" cy="1182.85" r="249.12" xlink:href="#radial-gradient"/><radialGradient id="radial-gradient-118" cx="503.26" cy="1189.36" r="249.11" xlink:href="#radial-gradient"/><radialGradient id="radial-gradient-119" cx="503.25" cy="1195.87" r="249.11" xlink:href="#radial-gradient"/><radialGradient id="radial-gradient-120" cx="503.23" cy="1202.38" r="249.1" xlink:href="#radial-gradient"/><radialGradient id="radial-gradient-121" cx="503.22" cy="1208.9" r="249.1" xlink:href="#radial-gradient"/><radialGradient id="radial-gradient-122" cx="503.2" cy="1214.94" r="249.07" xlink:href="#radial-gradient"/><radialGradient id="radial-gradient-123" cx="503.19" cy="1221.44" r="249.07" xlink:href="#radial-gradient"/><radialGradient id="radial-gradient-124" cx="503.18" cy="1227.95" r="249.06" xlink:href="#radial-gradient"/><radialGradient id="radial-gradient-125" cx="503.16" cy="1234.45" r="249.06" xlink:href="#radial-gradient"/><radialGradient id="radial-gradient-126" cx="503.15" cy="1240.96" r="249.05" xlink:href="#radial-gradient"/><radialGradient id="radial-gradient-127" cx="503.13" cy="1247.47" r="249.05" xlink:href="#radial-gradient"/><radialGradient id="radial-gradient-128" cx="503.12" cy="1253.98" r="249.04" xlink:href="#radial-gradient"/><radialGradient id="radial-gradient-129" cx="503.1" cy="1260.49" r="249.04" xlink:href="#radial-gradient"/><radialGradient id="radial-gradient-130" cx="503.09" cy="1267" r="249.04" xlink:href="#radial-gradient"/><radialGradient id="radial-gradient-131" cx="503.07" cy="1273.51" r="249.03" xlink:href="#radial-gradient"/><radialGradient id="radial-gradient-132" cx="503.06" cy="1280.02" r="249.03" xlink:href="#radial-gradient"/><radialGradient id="radial-gradient-133" cx="503.04" cy="1286.53" r="249.02" xlink:href="#radial-gradient"/><radialGradient id="radial-gradient-134" cx="503.03" cy="1293.04" r="249.02" xlink:href="#radial-gradient"/><radialGradient id="radial-gradient-135" cx="503.01" cy="1299.56" r="249.01" xlink:href="#radial-gradient"/><radialGradient id="radial-gradient-136" cx="503" cy="1306.07" r="249.01" xlink:href="#radial-gradient"/><radialGradient id="radial-gradient-137" cx="502.98" cy="1312.59" r="249" xlink:href="#radial-gradient"/><radialGradient id="radial-gradient-138" cx="502.96" cy="1319.1" r="249" xlink:href="#radial-gradient"/><radialGradient id="radial-gradient-139" cx="502.95" cy="1325.62" r="248.99" xlink:href="#radial-gradient"/><radialGradient id="radial-gradient-140" cx="502.93" cy="1332.14" r="248.99" xlink:href="#radial-gradient"/><radialGradient id="radial-gradient-141" cx="502.92" cy="1338.65" r="248.98" xlink:href="#radial-gradient"/><radialGradient id="radial-gradient-142" cx="502.9" cy="1345.17" r="248.98" xlink:href="#radial-gradient"/><radialGradient id="radial-gradient-143" cx="502.88" cy="1351.69" r="248.97" xlink:href="#radial-gradient"/><radialGradient id="radial-gradient-144" cx="502.87" cy="1358.21" r="248.97" xlink:href="#radial-gradient"/><radialGradient id="radial-gradient-145" cx="502.85" cy="1364.72" r="248.97" xlink:href="#radial-gradient"/><radialGradient id="radial-gradient-146" cx="502.83" cy="1371.18" r="248.96" xlink:href="#radial-gradient"/><radialGradient id="radial-gradient-147" cx="502.82" cy="1377.65" r="248.96" xlink:href="#radial-gradient"/><radialGradient id="radial-gradient-148" cx="502.8" cy="1384.12" r="248.96" xlink:href="#radial-gradient"/><radialGradient id="radial-gradient-149" cx="502.78" cy="1390.59" r="248.96" xlink:href="#radial-gradient"/><radialGradient id="radial-gradient-150" cx="502.76" cy="1397.05" r="248.96" xlink:href="#radial-gradient"/><radialGradient id="radial-gradient-151" cx="502.75" cy="1403.52" r="248.95" xlink:href="#radial-gradient"/><radialGradient id="radial-gradient-152" cx="502.73" cy="1409.99" r="248.95" xlink:href="#radial-gradient"/><radialGradient id="radial-gradient-153" cx="502.71" cy="1416.46" r="248.95" xlink:href="#radial-gradient"/><radialGradient id="radial-gradient-154" cx="502.69" cy="1422.93" r="248.95" xlink:href="#radial-gradient"/><radialGradient id="radial-gradient-155" cx="502.68" cy="1429.4" r="248.95" xlink:href="#radial-gradient"/><radialGradient id="radial-gradient-156" cx="502.66" cy="1435.86" r="248.94" xlink:href="#radial-gradient"/><radialGradient id="radial-gradient-157" cx="502.64" cy="1442.33" r="248.94" xlink:href="#radial-gradient"/><radialGradient id="radial-gradient-158" cx="502.62" cy="1448.8" r="248.94" xlink:href="#radial-gradient"/><radialGradient id="radial-gradient-159" cx="502.6" cy="1455.27" r="248.94" xlink:href="#radial-gradient"/><radialGradient id="radial-gradient-160" cx="502.59" cy="1461.74" r="248.94" xlink:href="#radial-gradient"/><radialGradient id="radial-gradient-161" cx="502.57" cy="1468.21" r="248.94" xlink:href="#radial-gradient"/><radialGradient id="radial-gradient-162" cx="502.55" cy="1474.68" r="248.93" xlink:href="#radial-gradient"/><radialGradient id="radial-gradient-163" cx="502.53" cy="1481.15" r="248.93" xlink:href="#radial-gradient"/><radialGradient id="radial-gradient-164" cx="502.51" cy="1487.63" r="248.93" xlink:href="#radial-gradient"/><radialGradient id="radial-gradient-165" cx="502.49" cy="1494.1" r="248.93" xlink:href="#radial-gradient"/><radialGradient id="radial-gradient-166" cx="502.48" cy="1500.57" r="248.93" xlink:href="#radial-gradient"/><radialGradient id="radial-gradient-167" cx="502.46" cy="1507.04" r="248.93" xlink:href="#radial-gradient"/><clipPath id="clip-path-7"><rect class="cls-1" x="894.1" y="-1359.02" width="595.38" height="1038.76"/></clipPath><clipPath id="clip-path-8"><path class="cls-2" d="M1447.5-1417.32a54.92,54.92,0,0,1,55,54.77V-317.48a54.92,54.92,0,0,1-55,54.77H936a54.92,54.92,0,0,1-55-54.77V-1362.56a54.92,54.92,0,0,1,55-54.77Z"/></clipPath></defs><title>Kiosk Stacks v1.2</title><g class="cls-3"><g id="Layer_1" data-name="Layer 1"><g class="cls-4"><g class="cls-5"><circle class="cls-6" cx="-194.78" cy="-93.05" r="278.14"/></g><path class="cls-2" d="M61-1417.32a54.92,54.92,0,0,1,55,54.77V-317.48a54.92,54.92,0,0,1-55,54.77H-450.54a54.92,54.92,0,0,1-55-54.77V-1362.56a54.92,54.92,0,0,1,55-54.77Z"/></g><g class="cls-7"><g class="cls-8"><circle class="cls-6" cx="495.74" cy="-93.05" r="278.14"/></g><path class="cls-2" d="M751.5-1417.32a54.92,54.92,0,0,1,55,54.77V-317.48a54.92,54.92,0,0,1-55,54.77H240a54.92,54.92,0,0,1-55-54.77V-1362.56a54.92,54.92,0,0,1,55-54.77Z"/></g><g class="cls-9"><g class="cls-10"><rect class="cls-11" x="-97.16" y="-260.92" width="1265.58" height="2421.35"/><g class="cls-12"><path class="cls-13" d="M-164.34-17.65c46.29.19,96.27-6.2,141.08,3.39C49.91,1.41,103.71,12,180.19-2.91,252.87-17.06,326.67-37.84,400.68-31,478.34-23.8,552.29,4.74,630.61-2.32c47.24-4.26,91.57-22,138.13-30.45C828-43.57,890-36.28,946.66-15.22c21.6,8,45,18,66.6,10.31,38.12-13.55,65.6-13.25,104.39-15"/><path class="cls-14" d="M-164.34-5.78C-117.92-5.58-68-11.9-23-2.2,49.83,13.53,103.44,24,179.62,9.27c72.49-14,146.11-34.63,219.94-27.94,77.93,7.06,152.14,35,230.75,27.93C677.7,5,722.21-12.53,768.93-21,828.23-31.71,890.34-24.53,947-3.42c21.58,8,45,18,66.54,10.37,38-13.46,65.48-13.27,104-15.13"/><path class="cls-15" d="M-164.34,6.08c46.55.21,96.47-6,141.53,3.78,72.55,15.79,126,26.18,201.87,11.6C251.35,7.56,324.8-12.87,398.44-6.34,476.64.6,551.1,27.93,630,20.84c47.55-4.28,92.24-21.62,139.11-30,59.37-10.65,121.53-3.58,178.24,17.57,21.56,8,44.93,18,66.49,10.43,37.94-13.36,65.35-13.29,103.66-15.25"/><path class="cls-16" d="M-164.34,17.94c46.68.22,96.57-5.94,141.75,4C49.65,37.76,102.9,48.06,178.49,33.63,250.59,19.86,323.87-.39,397.32,6,475.8,12.79,550.51,39.53,629.7,32.42,677.41,28.13,722.27,11,769.3,2.59,828.73-8,891-1,947.71,20.18c21.54,8,44.89,18,66.43,10.49,37.84-13.27,65.22-13.31,103.3-15.37"/><path class="cls-17" d="M-164.34,29.8c46.8.23,96.67-5.85,142,4.17,71.93,15.91,125,26.12,200.3,11.84,71.9-13.64,145-33.72,218.28-27.5C475,25,549.92,51.12,629.4,44c47.86-4.3,92.9-21.28,140.09-29.61C829,3.87,891.27,10.73,948.06,32c21.53,8,44.84,18.06,66.38,10.54,37.75-13.18,65.1-13.34,102.93-15.49"/><path class="cls-18" d="M-164.34,41.67c46.93.25,96.77-5.76,142.2,4.36C49.47,62,102.37,72.12,177.36,58,249.07,44.48,322,24.58,395.08,30.64c79,6.55,154.24,32.08,234,24.93,48-4.31,93.23-21.11,140.58-29.4,59.55-10.43,121.9-3.68,178.73,17.61,21.51,8,44.8,18.09,66.32,10.6,37.66-13.09,65-13.36,102.57-15.61"/><path class="cls-19" d="M-164.34,53.53c47.06.26,96.87-5.68,142.42,4.56,71.3,16,124,26.06,198.72,12.08C248.31,56.79,321.07,37.05,394,43c79.3,6.43,154.77,31.35,234.83,24.19C677,62.83,722.35,46.21,769.87,38c59.61-10.36,122-3.72,178.9,17.62,21.49,8,44.75,18.11,66.27,10.66,37.56-13,64.85-13.38,102.2-15.73"/><path class="cls-20" d="M-164.34,65.39c47.19.27,97-5.59,142.64,4.75,71,16.07,123.53,26,197.93,12.2,71.32-13.25,143.9-32.81,216.61-27.06,79.57,6.3,155.3,30.62,235.64,23.44,48.33-4.33,93.89-20.76,141.57-29C829.73,39.45,892.2,46,949.12,67.37c21.47,8,44.71,18.13,66.22,10.72,37.47-12.91,64.72-13.4,101.84-15.85"/><path class="cls-21" d="M-164.34,77.25c47.32.28,97.07-5.5,142.87,4.94,70.68,16.12,123,26,197.14,12.33C246.79,81.4,319.2,62,391.72,67.61,471.57,73.78,547.55,97.5,628.18,90.3,676.67,86,722.4,69.71,770.24,61.53,830,51.31,892.51,57.75,949.47,79.17c21.46,8,44.66,18.15,66.16,10.78,37.38-12.82,64.6-13.42,101.47-16"/><path class="cls-22" d="M-164.34,89.12c47.45.29,97.17-5.41,143.09,5.14,70.37,16.17,122.55,26,196.35,12.45C246,93.71,318.27,74.49,390.6,79.94,470.72,86,547,109.1,627.88,101.88c48.65-4.34,94.55-20.42,142.55-28.56C830.23,63.17,892.82,69.5,949.82,91c21.44,8,44.62,18.17,66.11,10.83,37.28-12.73,64.47-13.44,101.11-16.09"/><path class="cls-23" d="M-164.34,101c47.58.3,97.27-5.33,143.31,5.33C49,122.53,101,132.25,174.53,118.88,245.27,106,317.34,87,389.48,92.26c80.39,5.91,156.88,28.43,238.09,21.2,48.8-4.35,94.88-20.25,143-28.35a348.08,348.08,0,0,1,179.56,17.67c21.42,8,44.57,18.19,66.05,10.89C1053.41,101,1080.57,100.2,1117,97.45"/><path class="cls-24" d="M-164.34,112.84c47.7.31,97.37-5.24,143.54,5.53C48.94,134.64,100.76,144.28,174,131.06c70.54-12.74,142.44-31.63,214.4-26.47C469,110.36,545.77,132.29,627.27,125c49-4.36,95.21-20.08,143.53-28.14a349,349,0,0,1,179.72,17.68c21.41,8,44.53,18.21,66,10.95,37.09-12.55,64.22-13.48,100.38-16.33"/><path class="cls-25" d="M-164.34,124.7c47.83.32,97.46-5.15,143.76,5.72,69.43,16.31,121.07,25.88,194,12.81,70.35-12.61,142.07-31.33,213.84-26.33,80.94,5.65,157.93,27,239.72,19.7,49.12-4.37,95.54-19.91,144-27.93a349.84,349.84,0,0,1,179.88,17.69c21.39,8,44.48,18.23,65.94,11,37-12.46,64.1-13.5,100-16.45"/><path class="cls-26" d="M-164.34,136.57c48,.33,97.56-5.07,144,5.92,69.12,16.36,120.58,25.85,193.19,12.94,70.15-12.48,141.71-31,213.29-26.18,81.22,5.51,158.46,26.24,240.54,19,49.27-4.38,95.87-19.74,144.51-27.72a350.72,350.72,0,0,1,180,17.71c21.37,8,44.44,18.25,65.89,11.06,36.91-12.37,64-13.53,99.65-16.57"/><path class="cls-27" d="M-164.34,148.43c48.09.34,97.66-5,144.2,6.11,68.81,16.4,120.09,25.82,192.4,13.06,70-12.35,141.34-30.75,212.74-26,81.5,5.38,159,25.51,241.36,18.2,49.43-4.39,96.21-19.57,145-27.51,60.11-9.78,123-4,180.21,17.72,21.35,8,44.4,18.27,65.83,11.12,36.81-12.28,63.85-13.55,99.28-16.69"/><path class="cls-28" d="M-164.34,160.29c48.22.35,97.76-4.9,144.43,6.31C48.59,183,99.69,192.39,171.7,179.78c69.77-12.22,141-30.46,212.18-25.89,81.77,5.25,159.52,24.78,242.17,17.46,49.58-4.4,96.54-19.4,145.49-27.3,60.17-9.71,123.14-4,180.38,17.73,21.34,8,44.35,18.29,65.78,11.18,36.72-12.19,63.72-13.57,98.92-16.81"/><path class="cls-29" d="M-164.34,172.15c48.35.36,97.86-4.81,144.65,6.5C48.5,195.14,99.42,204.42,171.14,192c69.57-12.09,140.61-30.17,211.63-25.74,82.05,5.12,160,24,243,16.71,49.74-4.41,96.87-19.23,146-27.09C832,146.18,895,151.78,952.28,173.57c21.32,8,44.31,18.31,65.73,11.24,36.62-12.1,63.59-13.59,98.55-16.94"/><path class="cls-30" d="M-164.34,184c48.48.37,98-4.73,144.87,6.69,67.88,16.52,118.62,25.74,190,13.42,69.38-12,140.25-29.88,211.08-25.6,82.33,5,160.57,23.32,243.81,16,49.9-4.42,97.2-19.06,146.48-26.88,60.29-9.57,123.39-4.08,180.7,17.76,21.3,8,44.26,18.33,65.67,11.3,36.53-12,63.47-13.61,98.19-17.06"/><path class="cls-31" d="M-164.34,195.88c48.6.38,98.05-4.64,145.1,6.89C48.32,219.33,98.89,228.48,170,216.31c69.19-11.83,139.88-29.6,210.52-25.45,82.6,4.85,161.1,22.59,244.62,15.21,50.05-4.43,97.53-18.89,147-26.68,60.35-9.5,123.51-4.12,180.87,17.77,21.29,8,44.21,18.36,65.62,11.35,36.44-11.92,63.34-13.63,97.82-17.18"/><path class="cls-32" d="M-164.34,207.74c48.73.39,98.15-4.56,145.32,7.08,67.26,16.6,117.64,25.68,188.46,13.67,69-11.71,139.52-29.31,210-25.3C462.29,207.9,541,225,624.84,217.65c50.21-4.43,97.86-18.72,147.46-26.47,60.41-9.43,123.64-4.15,181,17.78,21.27,8,44.17,18.38,65.56,11.41,36.34-11.83,63.22-13.65,97.46-17.3"/><path class="cls-33" d="M-164.34,219.61c48.86.41,98.25-4.47,145.54,7.28,66.95,16.64,117.15,25.65,187.67,13.79,68.8-11.58,139.16-29,209.41-25.16,83.16,4.58,162.15,21.12,246.25,13.72,50.37-4.44,98.19-18.55,147.95-26.26,60.47-9.36,123.76-4.18,181.2,17.79,21.25,8,44.12,18.4,65.51,11.47,36.25-11.74,63.09-13.67,97.09-17.42"/><path class="cls-34" d="M-164.34,231.47c49,.42,98.35-4.39,145.77,7.47,66.64,16.67,116.66,25.63,186.88,13.91,68.61-11.45,138.79-28.74,208.86-25,83.44,4.44,162.68,20.39,247.07,13,50.52-4.45,98.52-18.38,148.44-26,60.53-9.29,123.84-4.1,181.36,17.81,21.22,8.08,44.08,18.42,65.45,11.53,36.15-11.65,63-13.69,96.73-17.54"/><path class="cls-35" d="M-164.34,243.33c49.12.43,98.44-4.31,146,7.67C48,267.7,97.82,276.59,167.74,265c68.41-11.32,138.43-28.46,208.31-24.87,83.72,4.3,163.2,19.66,247.89,12.22,50.68-4.46,98.85-18.22,148.93-25.84,60.59-9.22,124-4.13,181.53,17.82,21.2,8.08,44,18.44,65.4,11.58,36.06-11.57,62.84-13.72,96.36-17.66"/><path class="cls-36" d="M-164.34,255.19c49.25.44,98.54-4.22,146.21,7.86,66,16.74,115.68,25.57,185.3,14.15C235.39,266,305.24,249,374.93,252.49c84,4.17,163.73,18.93,248.7,11.47,50.84-4.47,99.18-18,149.42-25.63,60.66-9.15,124.08-4.16,181.69,17.83,21.18,8.09,44,18.46,65.34,11.64,36-11.48,62.72-13.74,96-17.78"/><path class="cls-37" d="M-164.34,267.06c49.38.45,98.64-4.14,146.44,8.06,65.71,16.77,115.19,25.54,184.51,14.28,68-11.06,137.7-27.9,207.2-24.57,84.28,4,164.26,18.2,249.52,10.73,51-4.48,99.51-17.88,149.91-25.42C834,241,897.44,245.93,955.09,268c21.16,8.09,43.94,18.48,65.29,11.7,35.87-11.39,62.59-13.76,95.63-17.9"/><path class="cls-38" d="M-164.34,278.92c49.5.46,98.73-4.06,146.66,8.25C47.72,304,97,312.68,166,301.57c67.84-10.93,137.34-27.62,206.65-24.43,84.55,3.89,164.79,17.47,250.33,10,51.15-4.49,99.84-17.71,150.4-25.21,60.78-9,124.33-4.23,182,17.86,21.15,8.09,43.9,18.5,65.23,11.76,35.77-11.3,62.47-13.78,95.27-18"/><path class="cls-39" d="M-164.34,290.78c49.63.47,98.83-4,146.88,8.44,65.09,16.83,114.21,25.49,182.93,14.52,67.64-10.8,137-27.34,206.09-24.28,84.83,3.75,165.31,16.74,251.15,9.23,51.31-4.5,100.17-17.54,150.89-25,60.84-8.94,124.45-4.26,182.18,17.87,21.13,8.1,43.85,18.52,65.18,11.82,35.68-11.21,62.34-13.8,94.9-18.14"/><path class="cls-40" d="M-164.34,302.64c49.76.48,98.93-3.89,147.11,8.64,64.78,16.85,113.72,25.46,182.15,14.64,67.45-10.67,136.61-27.06,205.54-24.13,85.11,3.61,165.84,16,252,8.48,51.46-4.51,100.5-17.37,151.38-24.79,60.9-8.87,124.58-4.29,182.35,17.88,21.11,8.1,43.81,18.54,65.13,11.87,35.58-11.12,62.22-13.82,94.54-18.26"/><path class="cls-41" d="M-164.34,314.51c49.89.49,99-3.81,147.33,8.83,64.48,16.88,113.23,25.44,181.36,14.76,67.26-10.54,136.25-26.78,205-24,85.39,3.47,166.37,15.28,252.78,7.74,51.62-4.52,100.83-17.2,151.87-24.58,61-8.8,124.7-4.32,182.51,17.89,21.09,8.1,43.76,18.56,65.07,11.93,35.49-11,62.09-13.84,94.17-18.38"/><path class="cls-42" d="M-164.34,326.37c50,.5,99.12-3.73,147.55,9C47.38,352.3,96,360.8,163.78,350.28c67.07-10.41,135.89-21,204.43-23.84,85.67-3.51,166.89,14.55,253.6,7,51.78-4.52,101.16-17,152.37-24.37,61-8.74,124.82-4.35,182.67,17.9,21.08,8.11,43.72,18.58,65,12,35.39-10.95,62-13.86,93.81-18.5"/><path class="cls-43" d="M-164.34,338.23c50.15.51,99.22-3.65,147.78,9.22,63.86,16.93,112.25,25.38,179.78,15,66.87-10.28,135.55-20.7,203.88-23.69C453,335,534.51,352.58,621.5,345c51.93-4.53,101.49-16.87,152.86-24.16,61.08-8.67,124.94-4.38,182.84,17.92,21.06,8.11,43.67,18.6,65,12,35.3-10.86,61.84-13.88,93.44-18.62"/><path class="cls-44" d="M-164.34,350.09c50.28.52,99.32-3.57,148,9.42,63.55,17,111.76,25.36,179,15.13,66.68-10.15,135.2-20.36,203.32-23.55,86.2-4,167.95,13.09,255.23,5.49C673.29,352,723,339.88,774.55,332.63c61.14-8.6,125.07-4.41,183,17.93,21,8.11,43.62,18.62,64.91,12.1,35.2-10.77,61.71-13.91,93.08-18.74"/><path class="cls-45" d="M-164.34,362c50.4.53,99.41-3.49,148.22,9.61,63.24,17,111.27,25.33,178.2,15.25,66.49-10,134.85-20,202.77-23.4,86.46-4.29,168.48,12.36,256,4.74,52.24-4.55,102.15-16.53,153.84-23.74,61.2-8.53,125.19-4.44,183.17,17.94,21,8.12,43.58,18.64,64.85,12.16,35.11-10.69,61.59-13.93,92.71-18.87"/><path class="cls-46" d="M-164.34,373.82c50.53.54,99.51-3.41,148.44,9.8C47,400.62,94.89,408.93,161.51,399c66.3-9.88,134.5-19.7,202.22-23.26,86.72-4.55,169,11.63,256.86,4,52.4-4.56,102.48-16.37,154.33-23.53,61.26-8.46,125.31-4.48,183.33,18,21,8.12,43.53,18.66,64.8,12.22,35-10.6,61.46-13.95,92.35-19"/><path class="cls-47" d="M-164.34,385.68c50.66.55,99.6-3.33,148.67,10C47,412.69,94.62,421,160.95,411.17c66.1-9.75,134.15-19.38,201.66-23.11,87-4.81,169.53,10.9,257.68,3.25,52.56-4.57,102.81-16.2,154.82-23.32,61.32-8.39,125.44-4.51,183.5,18,21,8.13,43.49,18.68,64.74,12.28,34.92-10.51,61.34-14,92-19.11"/><path class="cls-48" d="M-164.34,397.54c50.79.57,99.7-3.25,148.89,10.19,62.32,17,109.81,25.25,175.83,15.61s133.8-19.05,201.11-23c87.25-5.07,170.06,10.17,258.5,2.5,52.71-4.58,103.14-16,155.31-23.11,61.38-8.33,125.56-4.54,183.66,18,21,8.13,43.44,18.7,64.69,12.33,34.82-10.42,61.21-14,91.62-19.23"/><path class="cls-49" d="M-164.34,409.41c50.92.58,99.8-3.17,149.11,10.39,62,17,109.32,25.23,175,15.74s133.46-18.73,200.55-22.82c87.51-5.33,170.58,9.44,259.31,1.75,52.87-4.59,103.47-15.86,155.8-22.9,61.44-8.26,125.68-4.57,183.82,18,21,8.13,43.4,18.72,64.63,12.39,34.72-10.34,61.09-14,91.25-19.35"/><path class="cls-50" d="M-164.34,421.27c51,.59,99.89-3.09,149.34,10.58,61.71,17.06,108.83,25.2,174.25,15.86s133.11-18.42,200-22.67c87.77-5.58,171.11,8.71,260.13,1,53-4.6,103.8-15.7,156.29-22.69,61.5-8.19,125.81-4.6,184,18,20.94,8.14,43.35,18.73,64.58,12.45,34.63-10.25,61-14,90.89-19.47"/><path class="cls-51" d="M-164.34,433.13c51.18.6,100-3,149.56,10.78,61.4,17.08,108.34,25.18,173.47,16,65.34-9.23,132.76-18.1,199.45-22.52,88-5.84,171.64,8,260.95.26,53.18-4.61,104.13-15.53,156.78-22.48,61.56-8.12,125.93-4.63,184.15,18,20.92,8.14,43.3,18.75,64.53,12.51,34.53-10.16,60.84-14.05,90.52-19.59"/><path class="cls-52" d="M-164.34,445c51.3.61,100.09-2.93,149.78,11,61.09,17.09,107.85,25.15,172.68,16.1C223.26,463,290.53,454.28,357,449.69c88.3-6.1,172.17,7.24,261.76-.49,53.34-4.61,104.46-15.36,157.27-22.27,61.62-8.06,126.05-4.67,184.32,18,20.9,8.14,43.26,18.77,64.47,12.57,34.44-10.08,60.71-14.07,90.16-19.71"/><path class="cls-53" d="M-164.34,456.86c51.43.62,100.18-2.86,150,11.17C46.45,485.13,93,493.15,157.55,484.25c65-9,132.07-17.48,198.34-22.23,88.56-6.35,172.69,6.51,262.58-1.24,53.5-4.62,104.79-15.2,157.76-22.06,61.68-8,126.18-4.7,184.48,18,20.88,8.14,43.21,18.79,64.42,12.62,34.34-10,60.59-14.1,89.79-19.83"/><path class="cls-54" d="M-164.34,468.72c51.56.63,100.28-2.78,150.23,11.36C46.37,497.2,92.76,505.19,157,496.43c64.76-8.83,131.72-17.17,197.79-22.09,88.82-6.6,173.22,5.78,263.39-2,53.65-4.63,105.12-15,158.26-21.85,61.74-7.92,126.3-4.73,184.64,18.05,20.87,8.15,43.17,18.81,64.36,12.68,34.25-9.91,60.46-14.12,89.43-20"/><path class="cls-55" d="M-164.34,480.58c51.69.64,100.37-2.7,150.45,11.55C46.29,509.27,92.5,517.22,156.42,508.6c64.57-8.7,131.38-16.87,197.23-21.94,89.09-6.86,173.75,5.05,264.21-2.73,53.81-4.64,105.45-14.86,158.75-21.64,61.8-7.86,126.42-4.76,184.81,18.07,20.85,8.15,43.12,18.83,64.31,12.74,34.15-9.82,60.34-14.14,89.07-20.07"/><path class="cls-56" d="M-164.34,492.45c51.82.65,100.47-2.62,150.68,11.75,59.87,17.14,105.9,25.06,169.52,16.59,64.38-8.57,131-16.57,196.68-21.79,89.35-7.11,174.27,4.32,265-3.48,54-4.65,105.77-14.7,159.24-21.43,61.86-7.79,126.54-4.79,185,18.08C982.6,500.31,1004.84,511,1026,505c34.05-9.73,60.21-14.16,88.7-20.19"/><path class="cls-57" d="M-164.34,504.31c51.95.66,100.57-2.55,150.9,11.94C46.12,533.4,92,541.29,155.29,533c64.19-8.44,130.69-16.27,196.12-21.65,89.61-7.36,174.8,3.59,265.84-4.23,54.12-4.66,106.1-14.53,159.73-21.22C838.91,478.14,903.65,481,962.12,504c20.81,8.16,43,18.87,64.2,12.85,34-9.65,60.08-14.18,88.34-20.31"/><path class="cls-58" d="M-164.34,516.17c52.08.67,100.66-2.47,151.12,12.14,59.26,17.16,104.92,25,167.94,16.83,64-8.31,130.34-16,195.57-21.5,89.87-7.61,175.33,2.86,266.66-5,54.28-4.67,106.43-14.36,160.22-21,62-7.66,126.79-4.86,185.3,18.1,20.8,8.16,43,18.89,64.14,12.91,33.86-9.56,60-14.2,88-20.43"/><path class="cls-59" d="M-164.34,528c52.2.68,100.76-2.4,151.35,12.33,59,17.16,104.44,25,167.15,17,63.81-8.17,130-15.68,195-21.35,90.13-7.86,175.86,2.13,267.47-5.73,54.43-4.68,106.76-14.2,160.71-20.8,62-7.59,126.91-4.89,185.47,18.12,20.78,8.16,42.94,18.91,64.09,13,33.76-9.48,59.83-14.22,87.61-20.55"/><path class="cls-60" d="M-164.34,539.9c52.33.69,100.85-2.32,151.57,12.53,58.65,17.17,103.95,25,166.36,17.08,63.62-8,129.65-15.39,194.46-21.21,90.39-8.11,176.38,1.4,268.29-6.47,54.59-4.69,107.09-14,161.2-20.59,62.1-7.53,127-4.92,185.63,18.13,20.76,8.17,42.89,18.93,64,13,33.67-9.39,59.71-14.24,87.24-20.67"/><path class="cls-61" d="M-164.34,551.76c52.46.7,100.95-2.25,151.79,12.72C45.79,581.65,90.91,589.42,153,581.68c63.43-7.91,129.3-15.1,193.91-21.06,90.65-8.36,176.91.67,269.11-7.22,54.75-4.7,107.42-13.87,161.69-20.38,62.16-7.46,127.16-5,185.79,18.14,20.74,8.17,42.84,18.95,64,13.09,33.57-9.31,59.58-14.26,86.88-20.8"/><path class="cls-62" d="M-164.34,563.62c52.59.71,101-2.17,152,12.92,58,17.18,103,24.92,164.78,17.32,63.24-7.78,129-14.81,193.35-20.91,90.92-8.61,177.44-.06,269.92-8,54.9-4.7,107.75-13.7,162.18-20.17,62.22-7.4,127.28-5,186,18.15,20.73,8.17,42.8,19,63.93,13.14,33.47-9.22,59.46-14.29,86.51-20.92"/><path class="cls-63" d="M-164.34,575.48c52.72.73,101.14-2.1,152.24,13.11,57.73,17.18,102.49,24.9,164,17.44,63-7.64,128.61-14.53,192.8-20.77,91.18-8.86,178-.79,270.74-8.72,55.06-4.71,108.08-13.53,162.67-20,62.28-7.33,127.41-5,186.12,18.16,20.71,8.18,42.75,19,63.87,13.2,33.38-9.14,59.33-14.31,86.15-21"/><path class="cls-64" d="M-164.34,587.35c52.85.74,101.24-2,152.46,13.3,57.43,17.18,102,24.88,163.21,17.56,62.86-7.51,128.27-14.25,192.25-20.62,91.44-9.11,178.49-1.52,271.56-9.46,55.22-4.72,108.41-13.37,163.16-19.75,62.34-7.27,127.53-5.05,186.29,18.18,20.69,8.18,42.7,19,63.82,13.26,33.28-9.05,59.21-14.33,85.78-21.16"/><path class="cls-65" d="M-164.34,599.21c53,.75,101.33-1.95,152.68,13.5,57.12,17.18,101.51,24.86,162.42,17.69,62.67-7.38,127.92-14,191.69-20.48,91.7-9.35,179-2.25,272.37-10.21,55.37-4.73,108.74-13.2,163.66-19.54,62.4-7.2,127.65-5.08,186.45,18.19,20.68,8.18,42.66,19,63.76,13.32,33.18-9,59.08-14.35,85.42-21.28"/><path class="cls-66" d="M-164.34,611.07c53.1.76,101.43-1.88,152.91,13.69,56.82,17.18,101,24.83,161.63,17.81,62.48-7.24,127.58-13.7,191.14-20.33,92-9.6,179.54-3,273.19-11,55.53-4.74,109.07-13,164.15-19.33,62.46-7.14,127.78-5.11,186.61,18.2,20.66,8.19,42.61,19,63.71,13.37,33.09-8.88,59-14.37,85.05-21.4"/><path class="cls-67" d="M-164.34,622.93c53.23.77,101.52-1.8,153.13,13.89C45.31,654,89.33,661.64,149.63,654.75c62.29-7.11,127.23-13.42,190.59-20.18,92.22-9.84,180.07-3.71,274-11.71,55.69-4.75,109.4-12.87,164.64-19.12,62.52-7.07,127.9-5.15,186.78,18.21,20.64,8.19,42.56,19.06,63.65,13.43,33-8.8,58.83-14.39,84.69-21.52"/><path class="cls-68" d="M-164.34,634.8c53.36.78,101.62-1.73,153.35,14.08,56.21,17.18,100,24.79,160.05,18.05,62.1-7,126.89-13.15,190-20,92.48-10.09,180.6-4.44,274.82-12.46,55.84-4.76,109.73-12.71,165.13-18.91,62.58-7,128-5.18,186.94,18.23,20.62,8.19,42.52,19.08,63.6,13.49,32.89-8.72,58.71-14.41,84.32-21.64"/><path class="cls-69" d="M-164.34,646.66c53.49.79,101.72-1.66,153.58,14.28,55.91,17.18,99.56,24.77,159.26,18.17C210.41,672.26,275,666.23,338,659.22,430.72,648.89,519.1,654,613.61,646c56-4.77,110.06-12.54,165.62-18.7,62.64-6.94,128.15-5.21,187.11,18.24,20.61,8.2,42.47,19.09,63.54,13.55,32.8-8.63,58.58-14.43,84-21.76"/><path class="cls-70" d="M-164.34,658.52c53.62.8,101.81-1.59,153.8,14.47,55.61,17.18,99.08,24.75,158.47,18.29,61.72-6.71,126.19-12.61,188.92-19.74,93-10.57,181.65-5.91,276.45-14,56.16-4.78,110.39-12.38,166.11-18.49,62.7-6.88,128.27-5.24,187.27,18.25,20.59,8.2,42.42,19.11,63.49,13.61,32.7-8.55,58.45-14.45,83.59-21.88"/><path class="cls-71" d="M-164.34,670.38c53.75.81,101.91-1.52,154,14.67,55.3,17.17,98.59,24.73,157.68,18.42,61.53-6.58,125.85-12.35,188.37-19.6C429,673.06,517.92,677.23,613,669.17c56.31-4.79,110.72-12.21,166.6-18.28C842.37,644.07,908,645.61,967,669.15c20.57,8.2,42.38,19.13,63.44,13.66,32.6-8.46,58.33-14.48,83.23-22"/><path class="cls-72" d="M-164.34,682.25c53.87.82,102-1.45,154.25,14.86,55,17.17,98.1,24.71,156.89,18.54,61.34-6.44,125.5-12.09,187.82-19.45,93.52-11.05,182.71-7.37,278.08-15.45,56.47-4.79,111-12.05,167.09-18.07,62.82-6.75,128.52-5.31,187.6,18.28,20.55,8.2,42.33,19.15,63.38,13.72,32.5-8.38,58.2-14.5,82.86-22.12"/><path class="cls-73" d="M-164.34,694.11c54,.83,102.1-1.38,154.47,15.05,54.7,17.16,97.62,24.69,156.1,18.66,61.15-6.31,125.16-11.83,187.26-19.31,93.78-11.29,183.23-8.1,278.9-16.19C669,687.52,723.77,680.44,780,674.46c62.88-6.69,128.64-5.34,187.76,18.29,20.54,8.21,42.28,19.17,63.33,13.78,32.41-8.3,58.08-14.52,82.5-22.24"/><path class="cls-74" d="M-164.34,706c54.13.84,102.19-1.31,154.69,15.25,54.4,17.15,97.13,24.67,155.32,18.78,61-6.17,124.81-11.57,186.71-19.16,94-11.53,183.76-8.83,279.72-16.94,56.78-4.81,111.7-11.72,168.07-17.65,62.94-6.62,128.76-5.37,187.93,18.3,20.52,8.21,42.24,19.18,63.27,13.84,32.31-8.21,58-14.54,82.13-22.36"/><path class="cls-75" d="M-164.34,717.84c54.26.85,102.29-1.24,154.92,15.44,54.09,17.15,96.64,24.65,154.53,18.9,60.78-6,124.46-11.31,186.16-19,94.31-11.77,184.29-9.56,280.53-17.69,56.94-4.82,112-11.56,168.56-17.44,63-6.56,128.89-5.41,188.09,18.31,20.5,8.21,42.19,19.2,63.22,13.89,32.21-8.13,57.83-14.56,81.77-22.48"/><path class="cls-76" d="M-164.34,729.7C-110,730.56-62,728.53-9.2,745.34,44.59,762.47,87,770,144.53,764.36c60.59-5.9,124.12-11.06,185.6-18.87,94.57-12,184.82-10.29,281.35-18.44,57.09-4.83,112.36-11.39,169.05-17.23,63.06-6.49,129-5.44,188.26,18.33,20.48,8.22,42.14,19.22,63.16,14,32.11-8,57.7-14.58,81.4-22.6"/><path class="cls-77" d="M-164.34,741.56c54.52.87,102.48-1.1,155.36,15.83C44.51,774.52,86.69,782,144,776.54c60.4-5.77,123.77-10.81,185-18.72,94.83-12.24,185.34-11,282.17-19.19,57.25-4.84,112.69-11.23,169.55-17,63.12-6.43,129.13-5.47,188.42,18.34,20.47,8.22,42.1,19.24,63.11,14,32-8,57.58-14.6,81-22.73"/><path class="cls-78" d="M-164.34,753.42c54.65.89,102.58-1,155.59,16C44.43,786.57,86.43,794,143.4,788.72c60.21-5.63,123.43-10.56,184.49-18.57,95.09-12.48,185.87-11.75,283-19.93,57.41-4.85,113-11.07,170-16.81,63.18-6.37,129.26-5.5,188.58,18.35,20.45,8.22,42.05,19.26,63.05,14.07,31.92-7.88,57.45-14.62,80.67-22.85"/><path class="cls-79" d="M-164.34,765.29c54.77.9,102.68-1,155.81,16.22,52.89,17.11,94.7,24.58,151.37,19.39,60-5.5,123.08-10.31,183.94-18.43,95.35-12.71,186.4-12.48,283.8-20.68,57.56-4.86,113.35-10.9,170.53-16.6,63.24-6.3,129.38-5.54,188.75,18.36,20.43,8.23,42,19.27,63,14.13,31.82-7.8,57.33-14.64,80.31-23"/><path class="cls-80" d="M-164.34,777.15c54.9.91,102.77-.9,156,16.41,52.59,17.09,94.22,24.56,150.58,19.51C202.11,807.71,265,803,325.66,794.79c95.61-12.95,186.92-13.21,284.61-21.43C668,768.5,724,762.63,781.29,757c63.3-6.24,129.5-5.57,188.91,18.38,20.41,8.23,42,19.29,62.94,14.18,31.72-7.72,57.2-14.67,79.94-23.09"/><path class="cls-81" d="M-164.34,789c55,.92,102.87-.83,156.26,16.61C44.2,822.7,85.64,830.17,141.7,825.25c59.65-5.23,122.39-9.83,182.83-18.13C420.41,793.94,512,793.18,610,784.94c57.88-4.88,114-10.58,171.51-16.18,63.36-6.18,129.63-5.6,189.08,18.39,20.4,8.23,41.91,19.31,62.89,14.24,31.63-7.64,57.08-14.69,79.58-23.21"/><path class="cls-82" d="M-164.34,800.87c55.16.93,103-.77,156.48,16.8,52,17.07,93.24,24.53,149,19.76,59.46-5.09,122-9.58,182.28-18,96.13-13.41,188-14.67,286.25-22.93,58-4.88,114.34-10.41,172-16,63.42-6.12,129.75-5.64,189.24,18.4,20.38,8.23,41.86,19.33,62.84,14.3,31.53-7.56,57-14.71,79.21-23.33"/><path class="cls-83" d="M-164.34,812.74c55.29.94,103.06-.7,156.7,17C44,846.79,85.12,854.25,140.57,849.61c59.27-5,121.69-9.35,181.73-17.84,96.39-13.64,188.51-15.4,287.06-23.67,58.19-4.89,114.67-10.25,172.49-15.76,63.48-6.05,129.87-5.67,189.41,18.41,20.36,8.24,41.81,19.34,62.78,14.36,31.43-7.47,56.82-14.73,78.85-23.45"/><path class="cls-84" d="M-164.34,824.6c55.42.95,103.16-.64,156.92,17.19,51.39,17,92.27,24.49,147.42,20,59.08-4.82,121.34-9.11,181.17-17.7,96.65-13.87,189-16.13,287.88-24.42,58.35-4.9,115-10.09,173-15.55,63.54-6,130-5.7,189.57,18.42,20.35,8.24,41.77,19.36,62.73,14.41,31.33-7.39,56.7-14.75,78.48-23.57"/><path class="cls-85" d="M-164.34,836.46c55.55,1,103.26-.57,157.15,17.39,51.08,17,91.79,24.48,146.63,20.12,58.9-4.68,121-8.87,180.62-17.55,96.91-14.1,189.56-16.86,288.7-25.17,58.5-4.91,115.33-9.92,173.47-15.34,63.6-5.93,130.12-5.73,189.73,18.44,20.33,8.24,41.72,19.38,62.67,14.47,31.23-7.31,56.57-14.77,78.12-23.69"/><path class="cls-86" d="M-164.34,848.32c55.67,1,103.35-.51,157.37,17.58,50.79,17,91.3,24.46,145.85,20.24,58.71-4.54,120.65-8.64,180.06-17.4,97.18-14.33,190.09-17.59,289.51-25.92,58.66-4.92,115.65-9.76,174-15.13,63.66-5.87,130.24-5.77,189.9,18.45,20.31,8.25,41.67,19.39,62.62,14.53,31.14-7.23,56.45-14.79,77.75-23.81"/><path class="cls-87" d="M-164.34,860.19c55.8,1,103.45-.44,157.59,17.78,50.49,17,90.82,24.45,145.06,20.36,58.52-4.41,120.3-8.41,179.51-17.26,97.44-14.56,190.61-18.32,290.33-26.66,58.81-4.93,116-9.6,174.45-14.92,63.72-5.8,130.37-5.8,190.06,18.46,20.29,8.25,41.63,19.41,62.56,14.59,31-7.15,56.32-14.81,77.39-23.93"/><path class="cls-88" d="M-164.34,872c55.93,1,103.55-.38,157.82,18,50.19,17,90.33,24.43,144.27,20.49,58.33-4.27,120-8.18,179-17.11,97.7-14.78,191.14-19.05,291.14-27.41,59-4.94,116.31-9.44,174.94-14.71,63.78-5.74,130.49-5.83,190.23,18.47,20.28,8.25,41.58,19.43,62.51,14.65,30.94-7.07,56.2-14.83,77-24.05"/><path class="cls-89" d="M-164.34,883.91c56.06,1,103.64-.32,158,18.16,49.89,17,89.85,24.42,143.48,20.61,58.15-4.13,119.6-8,178.4-17,98-15,191.67-19.78,292-28.16,59.13-4.95,116.64-9.27,175.44-14.5,63.84-5.68,130.62-5.87,190.39,18.49,20.26,8.25,41.53,19.44,62.45,14.7,30.84-7,56.07-14.85,76.66-24.17"/><path class="cls-90" d="M-164.34,895.77c56.19,1,103.74-.26,158.26,18.36,49.59,16.93,89.36,24.4,142.69,20.73,58-4,119.25-7.73,177.85-16.82,98.22-15.23,192.19-20.52,292.78-28.91,59.28-5,117-9.11,175.93-14.29,63.9-5.62,130.74-5.9,190.55,18.5,20.24,8.26,41.48,19.46,62.4,14.76,30.74-6.91,55.95-14.88,76.29-24.29"/><path class="cls-91" d="M-164.34,907.64c56.32,1,103.84-.2,158.49,18.55C43.43,943.1,83,950.58,136,947c57.77-3.85,118.91-7.51,177.3-16.67,98.48-15.46,192.72-21.25,293.59-29.66,59.44-5,117.3-8.95,176.42-14.08,64-5.56,130.86-5.93,190.72,18.51,20.22,8.26,41.44,19.48,62.35,14.82,30.64-6.83,55.82-14.9,75.93-24.41"/><path class="cls-92" d="M-164.34,919.5c56.45,1,103.94-.13,158.71,18.75,49,16.89,88.4,24.37,141.11,21,57.59-3.71,118.56-7.29,176.74-16.53,98.75-15.68,193.25-22,294.41-30.4,59.6-5,117.63-8.79,176.91-13.88,64-5.5,131-6,190.88,18.52,20.21,8.26,41.39,19.49,62.29,14.88q45.82-10.12,75.56-24.53"/><path class="cls-93" d="M-164.34,931.36c56.57,1,104-.07,158.93,18.94,48.69,16.87,87.91,24.36,140.32,21.1,57.4-3.58,118.21-7.07,176.19-16.38,99-15.9,193.78-22.71,295.22-31.15,59.75-5,118-8.62,177.4-13.67,64.08-5.43,131.11-6,191,18.54C995,937,1016.11,948.25,1037,943.68c30.45-6.67,55.57-14.94,75.2-24.66"/><path class="cls-94" d="M-164.34,943.23c56.7,1.06,104.13,0,159.16,19.14,48.39,16.84,87.43,24.35,139.53,21.22,57.21-3.44,117.86-6.85,175.63-16.23,99.27-16.12,194.3-23.44,296-31.9,59.91-5,118.29-8.46,177.89-13.46,64.14-5.37,131.23-6,191.21,18.55,20.17,8.27,41.29,19.53,62.18,15,30.35-6.59,55.45-15,74.83-24.78"/><path class="cls-95" d="M-164.34,955.09c56.83,1.07,104.23,0,159.38,19.33,48.1,16.82,86.94,24.33,138.74,21.34,57-3.3,117.51-6.64,175.08-16.09C408.39,963.33,503.69,955.5,605.72,947c60.07-5,118.62-8.3,178.38-13.25,64.2-5.31,131.36-6.07,191.38,18.56,20.16,8.27,41.25,19.54,62.13,15.05,30.25-6.51,55.32-15,74.47-24.9"/><path class="cls-96" d="M-164.34,967c57,1.08,104.33.1,159.6,19.53,47.8,16.8,86.46,24.32,138,21.46,56.84-3.16,117.16-6.42,174.53-15.94,99.8-16.56,195.36-24.9,297.67-33.39,60.22-5,118.95-8.14,178.87-13,64.26-5.25,131.48-6.1,191.54,18.57,20.14,8.27,41.2,19.56,62.07,15.11,30.15-6.43,55.19-15,74.11-25"/><path class="cls-97" d="M-164.34,978.81c57.09,1.09,104.43.16,159.83,19.72,47.5,16.77,86,24.31,137.17,21.58,56.65-3,116.81-6.21,174-15.79,100.06-16.77,195.88-25.63,298.49-34.14,60.38-5,119.27-8,179.36-12.83,64.31-5.19,131.61-6.13,191.7,18.59,20.12,8.28,41.15,19.57,62,15.17,30.05-6.35,55.07-15,73.74-25.14"/><path class="cls-98" d="M-164.34,990.68c57.22,1.1,104.53.22,160,19.91,47.2,16.75,85.49,24.3,136.38,21.7,56.47-2.88,115.74-12.4,173.42-15.65,101.59-5.72,196.41-26.36,299.31-34.89,60.54-5,119.6-7.82,179.85-12.62C849,964,916.39,963,976.53,987.74c20.1,8.28,41.1,19.59,62,15.22,30-6.27,54.94-15,73.38-25.26"/><path class="cls-99" d="M-164.34,1002.54c57.35,1.11,104.63.27,160.27,20.11,46.91,16.72,85,24.29,135.59,21.83,56.28-2.74,115.38-12.16,172.86-15.5,101.87-5.91,196.94-27.09,300.12-35.64,60.69-5,119.93-7.65,180.34-12.41,64.43-5.07,131.85-6.2,192,18.61,20.09,8.28,41.06,19.6,61.91,15.28,29.86-6.19,54.82-15.07,73-25.38"/><path class="cls-100" d="M-164.34,1014.4c57.47,1.12,104.72.33,160.5,20.3C42.76,1051.4,80.68,1059,131,1056.65c56.1-2.6,115-11.93,172.31-15.35,102.16-6.1,197.47-27.82,300.94-36.39,60.85-5,120.26-7.49,180.84-12.2,64.49-5,132-6.23,192.2,18.62,20.07,8.28,41,19.62,61.85,15.34,29.76-6.11,54.69-15.09,72.65-25.5"/><path class="cls-101" d="M-164.34,1026.26c57.6,1.13,104.82.38,160.72,20.5,46.31,16.67,84,24.26,134,22.07,55.91-2.46,114.66-11.7,171.76-15.21,102.44-6.29,198-28.55,301.75-37.13,61-5.06,120.59-7.33,181.33-12,64.55-4.95,132.1-6.27,192.36,18.63,20.05,8.29,41,19.64,61.8,15.4,29.66-6,54.57-15.11,72.28-25.62"/><path class="cls-102" d="M-164.34,1038.13c57.73,1.14,104.92.44,160.94,20.69,46,16.64,83.56,24.25,133.22,22.19,55.72-2.31,114.3-11.47,171.2-15.06,102.73-6.48,198.52-29.28,302.57-37.88,61.16-5.06,120.92-7.17,181.82-11.78,64.61-4.89,132.22-6.3,192.53,18.65,20,8.29,40.91,19.65,61.75,15.45,29.56-6,54.44-15.13,71.92-25.74"/><path class="cls-103" d="M-164.34,1050c57.86,1.15,105,.49,161.16,20.89,45.72,16.61,83.08,20.32,132.43,22.31,55.54,2.24,113.94-11.24,170.65-14.92,103-6.67,199-30,303.39-38.63,61.32-5.07,121.25-7,182.31-11.57,64.67-4.83,132.35-6.33,192.69,18.66,20,8.29,40.87,19.67,61.69,15.51,29.46-5.88,54.32-15.15,71.55-25.86"/><path class="cls-104" d="M-164.34,1061.85c58,1.16,105.12.55,161.39,21.08,45.42,16.58,82.6,20.31,131.64,22.43,55.34,2.4,113.58-11,170.1-14.77,103.3-6.86,199.57-30.74,304.2-39.38,61.47-5.08,121.58-6.85,182.8-11.36,64.73-4.77,132.47-6.37,192.85,18.67,20,8.29,40.82,19.68,61.64,15.57,29.36-5.8,54.19-15.17,71.19-26"/><path class="cls-105" d="M-164.34,1073.71c58.12,1.17,105.22.6,161.61,21.28,45.13,16.55,82.13,20.29,130.85,22.56,55.14,2.56,113.22-10.79,169.54-14.62,103.58-7.06,200.1-31.47,305-40.12,61.63-5.09,121.91-6.69,183.29-11.15,64.79-4.71,132.6-6.4,193,18.68,20,8.3,40.77,19.7,61.58,15.63,29.26-5.72,54.07-15.19,70.82-26.1"/><path class="cls-106" d="M-164.34,1085.58c58.25,1.18,105.32.65,161.83,21.47,44.83,16.52,81.66,20.28,130.06,22.68,54.94,2.73,112.86-10.56,169-14.48,103.87-7.25,200.63-32.2,305.83-40.87,61.79-5.1,122.24-6.53,183.78-10.94,64.85-4.65,132.72-6.44,193.18,18.7,20,8.3,40.72,19.71,61.53,15.69,29.16-5.64,53.94-15.21,70.46-26.22"/><path class="cls-107" d="M-164.34,1097.44c58.37,1.19,105.42.7,162.06,21.66,44.54,16.49,81.19,20.26,129.27,22.8,54.75,2.89,112.5-10.33,168.43-14.33,104.15-7.45,201.16-32.93,306.65-41.62,61.94-5.11,122.57-6.37,184.27-10.73,64.91-4.59,132.84-6.47,193.35,18.71,19.95,8.3,40.67,19.73,61.47,15.74,29.06-5.56,53.82-15.23,70.09-26.34"/><path class="cls-108" d="M-164.34,1109.3c58.5,1.21,105.52.75,162.28,21.86,44.24,16.45,80.72,20.25,128.48,22.92,54.55,3,112.14-10.1,167.88-14.18,104.44-7.65,201.68-33.66,307.47-42.37,62.1-5.12,122.89-6.21,184.76-10.52,65-4.53,133-6.5,193.51,18.72,19.93,8.3,40.63,19.74,61.42,15.8,29-5.49,53.69-15.26,69.73-26.46"/><path class="cls-109" d="M-164.34,1121.16c58.63,1.22,105.63.8,162.5,22.05,43.95,16.42,80.24,20.24,127.7,23,54.35,3.21,111.78-9.88,167.33-14,104.72-7.84,202.21-34.4,308.28-43.12,62.26-5.13,123.22-6,185.25-10.31,65-4.47,133.09-6.54,193.67,18.73,19.91,8.31,40.58,19.75,61.36,15.86,28.86-5.41,53.57-15.28,69.36-26.59"/><path class="cls-110" d="M-164.34,1133c58.76,1.23,105.73.85,162.73,22.25,43.65,16.39,79.77,20.23,126.91,23.17,54.15,3.37,111.42-9.65,166.77-13.89,105-8,202.74-35.13,309.1-43.86,62.41-5.14,123.55-5.89,185.74-10.1,65.09-4.41,133.22-6.57,193.84,18.75,19.9,8.31,40.53,19.77,61.31,15.92,28.76-5.33,53.44-15.3,69-26.71"/><path class="cls-111" d="M-164.34,1144.89c58.89,1.24,105.83.9,162.95,22.44,43.36,16.35,79.3,20.22,126.12,23.29,54,3.53,111.06-9.43,166.22-13.75,105.29-8.24,203.26-35.86,309.92-44.61,62.57-5.15,123.88-5.73,186.23-9.89,65.15-4.35,133.34-6.61,194,18.76,19.88,8.31,40.48,19.78,61.25,16,28.67-5.26,53.31-15.32,68.63-26.83"/><path class="cls-112" d="M-164.34,1156.75c59,1.25,105.93.95,163.17,22.64,43.06,16.32,78.83,20.22,125.33,23.41,53.75,3.69,110.7-9.2,165.67-13.6,105.57-8.45,203.79-36.59,310.73-45.36,62.73-5.15,124.21-5.57,186.73-9.68,65.21-4.29,133.46-6.64,194.17,18.77,19.86,8.31,40.43,19.8,61.2,16,28.57-5.18,53.19-15.34,68.27-26.95"/><path class="cls-113" d="M-164.34,1168.61c59.15,1.26,106,1,163.4,22.83,42.77,16.28,78.36,20.21,124.54,23.53,53.56,3.85,110.34-9,165.11-13.45,105.86-8.65,204.32-37.32,311.55-46.11,62.88-5.16,124.54-5.41,187.22-9.47,65.27-4.23,133.59-6.67,194.33,18.78,19.85,8.32,40.39,19.81,61.15,16.09,28.47-5.1,53.06-15.36,67.9-27.07"/><path class="cls-114" d="M-164.34,1180.48c59.27,1.27,106.13,1,163.62,23,42.48,16.25,77.89,20.21,123.75,23.65,53.36,4,110-8.75,164.56-13.31,106.14-8.85,204.85-38,312.36-46.85,63-5.17,124.87-5.25,187.71-9.26,65.33-4.17,133.71-6.71,194.5,18.8,19.83,8.32,40.34,19.83,61.09,16.15,28.37-5,52.94-15.38,67.54-27.19"/><path class="cls-115" d="M-164.34,1192.34c59.4,1.28,106.24,1.08,163.84,23.22,42.18,16.21,77.42,20.2,123,23.77,53.16,4.17,109.62-8.53,164-13.16,106.42-9.06,205.37-38.78,313.18-47.6,63.2-5.18,125.2-5.09,188.2-9,65.39-4.11,133.83-6.74,194.66,18.81,19.81,8.32,40.29,19.84,61,16.21,28.27-5,52.81-15.4,67.17-27.31"/><path class="cls-116" d="M-164.34,1204.2c59.53,1.29,106.34,1.13,164.07,23.41,41.89,16.17,76.95,20.2,122.17,23.9,53,4.33,109.26-8.31,163.45-13,106.71-9.26,205.9-39.51,314-48.35,63.35-5.19,125.53-4.93,188.69-8.84,65.45-4.05,134-6.78,194.82,18.82,19.79,8.32,40.24,19.85,61,16.26,28.17-4.87,52.69-15.42,66.81-27.43"/><path class="cls-117" d="M-164.34,1216.07c59.66,1.3,106.44,1.17,164.29,23.61,41.6,16.14,76.48,20.2,121.38,24,52.76,4.48,108.9-8.09,162.9-12.87,107-9.47,206.43-40.24,314.81-49.1,63.51-5.2,125.86-4.77,189.18-8.63,65.51-4,134.08-6.81,195,18.83,19.78,8.33,40.19,19.87,60.93,16.32,28.07-4.8,52.56-15.45,66.44-27.55"/><path class="cls-118" d="M-164.34,1227.93c59.79,1.31,106.55,1.21,164.51,23.8,41.3,16.1,76,20.2,120.59,24.14,52.56,4.64,108.54-7.86,162.34-12.72,107.27-9.68,207-41,315.63-49.85,63.66-5.21,126.18-4.61,189.67-8.42,65.56-3.93,134.21-6.84,195.15,18.85,19.76,8.33,40.15,19.88,60.87,16.38,28-4.72,52.44-15.47,66.08-27.67"/><path class="cls-119" d="M-164.34,1239.79c59.92,1.32,106.65,1.25,164.73,24,41,16.06,75.54,20.2,119.8,24.26,52.37,4.8,108.18-7.64,161.79-12.57,107.56-9.89,207.48-41.7,316.45-50.59,63.82-5.22,126.51-4.45,190.16-8.21,65.62-3.88,134.33-6.88,195.32,18.86,19.74,8.33,40.1,19.89,60.82,16.44,27.87-4.65,52.31-15.49,65.71-27.79"/><path class="cls-120" d="M-164.34,1251.65c60,1.33,106.76,1.29,165,24.19,40.72,16,75.07,20.21,119,24.38,52.17,5,107.82-7.42,161.24-12.43,107.84-10.1,208-42.43,317.26-51.34,64-5.23,126.84-4.29,190.65-8,65.68-3.82,134.46-6.91,195.48,18.87,19.73,8.33,40,19.91,60.76,16.49,27.77-4.57,52.19-15.51,65.35-27.91"/><path class="cls-121" d="M-164.34,1263.52c60.17,1.34,106.86,1.33,165.18,24.39,40.43,16,74.59,20.21,118.23,24.51,52,5.11,107.46-7.2,160.68-12.28C387.87,1289.81,488.28,1257,597.82,1248,662,1242.8,725,1243.9,789,1240.25c65.74-3.76,134.58-6.95,195.64,18.88,19.71,8.34,40,19.92,60.71,16.55,27.67-4.5,52.06-15.53,65-28"/><path class="cls-122" d="M-164.34,1275.38c60.3,1.35,107,1.37,165.4,24.58,40.13,15.94,74.12,20.22,117.44,24.63,51.77,5.27,107.1-7,160.13-12.14,108.4-10.53,209.06-43.89,318.89-52.84,64.29-5.24,127.5-4,191.63-7.58,65.8-3.7,134.7-7,195.81,18.89,19.69,8.34,40,19.93,60.66,16.61,27.57-4.42,51.94-15.55,64.62-28.15"/><path class="cls-123" d="M-164.34,1287.24c60.43,1.37,107.07,1.41,165.63,24.77,39.84,15.9,73.65,20.23,116.65,24.75,51.57,5.42,106.74-6.76,159.57-12,108.68-10.75,209.59-44.62,319.71-53.59,64.45-5.25,127.83-3.81,192.12-7.37,65.86-3.64,134.83-7,196,18.91,19.67,8.34,39.9,19.94,60.6,16.67,27.47-4.35,51.81-15.57,64.25-28.27"/><path class="cls-124" d="M-164.34,1299.1c60.56,1.38,107.18,1.45,165.85,25,39.55,15.86,73.18,20.24,115.86,24.87,51.37,5.58,106.37-6.55,159-11.84,109-11,210.12-45.35,320.53-54.33,64.6-5.26,128.16-3.66,192.62-7.16,65.92-3.58,135-7.05,196.14,18.92,19.66,8.34,39.86,20,60.55,16.73,27.37-4.27,51.68-15.59,63.89-28.39"/><path class="cls-125" d="M-164.34,1311c60.69,1.39,107.29,1.48,166.07,25.16,39.26,15.81,72.71,20.25,115.07,25,51.17,5.73,106-6.33,158.47-11.7,109.25-11.18,210.64-46.08,321.34-55.08,64.76-5.27,128.49-3.5,193.11-7,66-3.53,135.08-7.08,196.3,18.93,19.64,8.35,39.81,20,60.49,16.78,27.27-4.2,51.56-15.61,63.52-28.52"/><path class="cls-126" d="M-164.34,1322.83c60.82,1.4,107.39,1.52,166.3,25.36,39,15.77,72.24,20.26,114.28,25.11,51,5.88,105.65-6.11,157.91-11.55,109.53-11.4,211.17-46.81,322.16-55.83,64.92-5.28,128.82-3.34,193.6-6.74,66-3.47,135.2-7.12,196.47,18.94,19.62,8.35,39.76,20,60.44,16.84,27.17-4.13,51.43-15.64,63.16-28.64"/><path class="cls-127" d="M-164.34,1334.69c60.95,1.41,107.5,1.55,166.52,25.55C40.86,1376,74,1380.52,115.67,1385.48c50.77,6,105.29-5.89,157.36-11.4,109.81-11.62,211.7-47.54,323-56.58,65.07-5.29,129.15-3.18,194.09-6.53,66.1-3.41,135.32-7.15,196.63,19,19.61,8.35,39.71,20,60.38,16.9,27.07-4.05,51.31-15.66,62.79-28.76"/><path class="cls-128" d="M-164.34,1346.55c61.07,1.42,107.61,1.58,166.74,25.75,38.39,15.69,71.3,20.29,112.7,25.36,50.58,6.19,104.93-5.68,156.8-11.26,110.09-11.85,212.22-48.27,323.79-57.32,65.23-5.3,129.48-3,194.58-6.32,66.16-3.35,135.45-7.19,196.79,19,19.59,8.35,39.66,20,60.33,17,27-4,51.18-15.68,62.43-28.88"/><path class="cls-129" d="M-164.34,1358.42c61.2,1.43,107.72,1.62,167,25.94,38.1,15.64,70.83,20.31,111.91,25.48,50.38,6.34,104.57-5.46,156.25-11.11,110.37-12.07,212.75-49,324.61-58.07,65.39-5.31,129.8-2.86,195.07-6.11,66.22-3.29,135.57-7.22,197,19,19.57,8.36,39.61,20,60.27,17,26.87-3.9,51.06-15.7,62.06-29"/><path class="cls-130" d="M-164.34,1370.28c61.33,1.44,107.83,1.65,167.19,26.14C40.66,1412,73.21,1416.74,114,1422c50.18,6.49,104.21-5.24,155.7-11,110.65-12.3,213.28-49.74,325.42-58.82,65.54-5.32,130.13-2.71,195.56-5.9,66.28-3.24,135.7-7.26,197.12,19,19.56,8.36,39.57,20,60.22,17.07,26.77-3.83,50.93-15.72,61.7-29.12"/><path class="cls-131" d="M-164.34,1382.14c61.46,1.45,107.93,1.68,167.41,26.33C40.59,1424,73,1428.82,113.41,1434.19c50,6.64,103.84-5,155.14-10.82,110.93-12.52,213.81-50.47,326.24-59.57,65.7-5.33,130.46-2.55,196.05-5.69,66.34-3.18,135.82-7.29,197.29,19,19.54,8.36,39.52,20,60.16,17.13,26.67-3.76,50.81-15.74,61.33-29.24"/><path class="cls-132" d="M-164.34,1394c61.59,1.46,108,1.71,167.64,26.52,37.23,15.51,69.42,20.37,109.55,25.84,49.78,6.79,103.48-4.81,154.59-10.67,111.21-12.75,214.33-51.2,327.06-60.32,65.85-5.33,130.79-2.39,196.54-5.48,66.4-3.12,135.95-7.33,197.45,19,19.52,8.36,39.47,20.05,60.11,17.19,26.57-3.69,50.68-15.76,61-29.36"/><path class="cls-133" d="M-164.34,1405.87c61.72,1.47,108.16,1.73,167.86,26.72,36.94,15.46,69,20.39,108.76,26,49.58,6.94,103.12-4.6,154-10.53,111.49-13,214.86-51.93,327.87-61.06,66-5.34,131.12-2.23,197-5.27,66.46-3.06,136.07-7.36,197.61,19,19.5,8.36,39.42,20.06,60.06,17.25,26.47-3.61,50.56-15.78,60.6-29.48"/><path class="cls-134" d="M-164.34,1417.73c61.84,1.48,108.27,1.76,168.08,26.91,36.65,15.41,68.12,24.15,108,26.09,49.83,2.42,102.76-4.38,153.48-10.38,111.77-13.21,215.39-52.66,328.69-61.81,66.17-5.35,131.45-2.08,197.52-5.06,66.52-3,136.19-7.4,197.78,19,19.49,8.37,39.37,20.07,60,17.3,26.37-3.54,50.43-15.8,60.24-29.6"/><path class="cls-135" d="M-164.34,1429.59c62,1.49,108.38,1.78,168.31,27.11,36.36,15.37,67.64,24.15,107.18,26.21,49.65,2.58,102.4-4.17,152.93-10.23,112-13.45,215.91-53.39,329.5-62.56,66.32-5.36,131.78-1.92,198-4.85,66.58-2.95,136.32-7.43,197.94,19.06,19.47,8.37,39.32,20.08,59.95,17.36,26.27-3.47,50.31-15.83,59.87-29.72"/><path class="cls-136" d="M-164.34,1441.46c62.1,1.5,108.49,1.81,168.53,27.3,36.07,15.32,67.16,24.16,106.39,26.33,49.46,2.74,102-4,152.37-10.09,112.33-13.68,216.44-54.12,330.32-63.31,66.48-5.37,132.11-1.76,198.51-4.64,66.64-2.89,136.44-7.47,198.11,19.07,19.45,8.37,39.27,20.09,59.89,17.42,26.17-3.4,50.18-15.85,59.51-29.84"/><path class="cls-137" d="M-164.34,1453.32c62.23,1.51,108.6,1.83,168.75,27.5C40.2,1496.08,71.09,1505,110,1507.27c49.28,2.9,101.67-3.74,151.82-9.94,112.6-13.92,217-54.85,331.14-64.05,66.64-5.38,132.44-1.6,199-4.43s136.57-7.5,198.27,19.08c19.44,8.37,39.23,20.1,59.84,17.48,26.07-3.32,50.05-15.87,59.15-30"/><path class="cls-138" d="M-164.34,1465.18c62.36,1.53,108.72,1.85,169,27.69,35.5,15.22,66.2,24.17,104.81,26.58,49.1,3.06,101.31-3.53,151.27-9.79,112.88-14.15,217.5-55.58,332-64.8,66.79-5.39,132.77-1.45,199.49-4.22s136.69-7.54,198.44,19.09c19.42,8.38,39.18,20.11,59.78,17.53,26-3.25,49.93-15.89,58.78-30.08"/><path class="cls-139" d="M-164.34,1477c62.49,1.54,108.83,1.87,169.2,27.89,35.21,15.17,65.71,24.18,104,26.7,48.91,3.21,100.94-3.32,150.71-9.65,113.16-14.39,218-56.31,332.77-65.55,66.95-5.4,133.1-1.29,200-4s136.82-7.57,198.6,19.11c19.4,8.38,39.13,20.12,59.73,17.59,25.87-3.18,49.8-15.91,58.42-30.2"/><path class="cls-140" d="M-164.34,1488.91c62.62,1.55,108.95,1.89,169.42,28.08,34.92,15.12,65.23,24.19,103.23,26.82,48.73,3.37,100.58-3.11,150.16-9.5,113.44-14.63,218.55-57,333.58-66.3,67.11-5.41,133.42-1.13,200.47-3.8,66.88-2.66,136.94-7.61,198.76,19.12,19.38,8.38,39.08,20.13,59.67,17.65,25.77-3.11,49.68-15.93,58.05-30.32"/><path class="cls-141" d="M-164.34,1500.77c62.74,1.56,109.06,1.91,169.64,28.27,34.64,15.07,64.75,24.2,102.44,26.94,48.55,3.54,100.22-2.9,149.61-9.36,113.71-14.87,219.08-57.77,334.4-67,67.26-5.42,133.75-1,201-3.59,66.93-2.61,137.07-7.64,198.93,19.13,19.37,8.38,39,20.14,59.62,17.71,25.67-3,49.55-16,57.69-30.45"/><path class="cls-142" d="M-164.34,1512.63c62.87,1.57,109.18,1.92,169.87,28.47,34.35,15,64.27,24.2,101.65,27.06,48.36,3.7,99.85-2.68,149.05-9.21,114-15.12,219.6-58.5,335.22-67.79,67.42-5.42,134.08-.82,201.45-3.38,67-2.55,137.19-7.68,199.09,19.14,19.35,8.38,39,20.15,59.56,17.77,25.57-3,49.43-16,57.32-30.57"/><path class="cls-143" d="M-164.34,1524.49c63,1.58,109.29,1.94,170.09,28.66,34.06,15,63.79,24.21,100.87,27.18,48.18,3.86,99.49-2.47,148.5-9.06,114.26-15.36,220.13-59.23,336-68.54,67.58-5.43,134.41-.66,201.94-3.17,67.05-2.49,137.31-7.71,199.26,19.15,19.33,8.39,38.93,20.16,59.51,17.82,25.47-2.9,49.3-16,57-30.69"/><path class="cls-144" d="M-164.34,1536.36c63.13,1.59,109.41,2,170.31,28.86,33.78,14.92,63.3,24.22,100.08,27.31,48,4,99.13-2.26,147.94-8.92,114.54-15.61,220.66-60,336.85-69.29,67.73-5.44,134.74-.51,202.43-3,67.11-2.44,137.44-7.75,199.42,19.17,19.32,8.39,38.89,20.17,59.46,17.88,25.37-2.83,49.18-16,56.59-30.81"/><path class="cls-145" d="M-164.34,1548.22c63.26,1.6,109.53,2,170.54,29.05,33.49,14.87,62.82,24.23,99.29,27.43,47.81,4.19,98.76-2.05,147.39-8.77,114.81-15.86,221.18-60.69,337.67-70,67.89-5.45,135.07-.35,202.92-2.75,67.17-2.38,137.56-7.78,199.58,19.18,19.3,8.39,38.84,20.18,59.4,17.94,25.27-2.76,49.05-16,56.23-30.93"/><path class="cls-146" d="M-164.34,1560.08c63.39,1.61,109.65,2,170.76,29.25,33.2,14.82,62.34,24.25,98.5,27.55,47.63,4.35,98.4-1.85,146.84-8.62,115.09-16.11,221.71-61.42,338.48-70.78,68-5.46,135.4-.19,203.41-2.54,67.23-2.32,137.69-7.82,199.75,19.19,19.28,8.39,38.79,20.19,59.35,18,25.17-2.69,48.93-16.06,55.86-31"/><path class="cls-147" d="M-164.34,1571.94c63.52,1.62,109.77,2,171,29.44,32.92,14.76,61.86,24.26,97.71,27.67,47.44,4.52,98-1.64,146.28-8.48,115.36-16.36,222.24-62.15,339.3-71.53,68.2-5.47,135.73,0,203.91-2.33,67.29-2.27,137.81-7.85,199.91,19.2,19.27,8.39,38.74,20.2,59.29,18.05,25.07-2.62,48.8-16.08,55.5-31.17"/><path class="cls-148" d="M-164.34,1583.81c63.64,1.63,109.89,2,171.21,29.63,32.63,14.71,61.38,24.27,96.92,27.79,47.26,4.68,97.67-1.43,145.73-8.33,115.64-16.61,222.77-62.89,340.11-72.28,68.36-5.48,136.06.12,204.4-2.12,67.35-2.21,137.94-7.89,200.08,19.22,19.25,8.4,38.69,20.21,59.24,18.11,25-2.55,48.68-16.1,55.13-31.29"/><path class="cls-149" d="M-164.34,1595.67c63.77,1.64,110,2,171.43,29.83,32.35,14.66,60.89,24.28,96.13,27.91,47.08,4.85,97.31-1.22,145.18-8.19,115.91-16.87,223.29-63.62,340.93-73,68.51-5.49,136.39.28,204.89-1.91,67.41-2.16,138.06-7.92,200.24,19.23,19.23,8.4,38.64,20.21,59.18,18.17,24.87-2.48,48.55-16.12,54.77-31.41"/><path class="cls-150" d="M-164.34,1607.53c63.9,1.65,110.13,2,171.65,30,32.06,14.61,60.41,24.3,95.34,28,46.89,5,96.94-1,144.62-8,116.18-17.12,223.82-64.35,341.75-73.78,68.67-5.5,136.72.43,205.38-1.7,67.47-2.1,138.19-8,200.41,19.24,19.22,8.4,38.6,20.22,59.13,18.23,24.77-2.41,48.42-16.14,54.4-31.53"/><path class="cls-151" d="M-164.34,1619.39c64,1.66,110.26,2,171.88,30.22,31.78,14.55,59.93,24.31,94.55,28.16,46.71,5.19,96.58-.8,144.07-7.89,116.45-17.38,224.35-65.08,342.56-74.52,68.83-5.51,137,.59,205.87-1.49,67.53-2,138.31-8,200.57,19.25,19.2,8.4,38.55,20.23,59.07,18.29,24.67-2.34,48.3-16.16,54-31.65"/><path class="cls-152" d="M-164.34,1631.26c64.16,1.67,110.38,2,172.1,30.41,31.5,14.5,59.45,24.33,93.76,28.28,46.52,5.36,96.21-.6,143.51-7.75,116.73-17.64,224.87-65.81,343.38-75.27,69-5.52,137.37.74,206.36-1.28,67.59-2,138.44-8,200.73,19.27,19.18,8.4,38.5,20.24,59,18.34,24.57-2.27,48.17-16.18,53.67-31.77"/><path class="cls-153" d="M-164.34,1643.12c64.29,1.68,110.51,2,172.32,30.61,31.21,14.44,59,24.34,93,28.4,46.34,5.53,95.85-.39,143-7.6,117-17.91,225.4-66.54,344.2-76,69.14-5.52,137.7.9,206.85-1.07,67.65-1.93,138.56-8.07,200.9,19.28,19.16,8.41,38.45,20.24,59,18.4,24.47-2.2,48-16.21,53.31-31.89"/><path class="cls-154" d="M-164.34,1655c64.42,1.7,110.63,2,172.55,30.8,30.93,14.39,58.48,24.36,92.18,28.52,46.15,5.7,95.48-.18,142.41-7.45,117.27-18.17,225.93-67.27,345-76.77,69.3-5.53,138,1.06,207.34-.87,67.71-1.88,138.69-8.1,201.06,19.29,19.15,8.41,38.4,20.25,58.91,18.46,24.37-2.13,47.92-16.23,52.94-32"/><path class="cls-155" d="M-164.34,1666.85c64.54,1.71,110.76,2,172.77,31,30.65,14.33,58,24.38,91.4,28.65,46,5.88,95.12,0,141.85-7.31,117.54-18.44,226.46-68,345.83-77.51,69.45-5.54,138.36,1.21,207.83-.66,67.77-1.82,138.81-8.14,201.23,19.3,19.13,8.41,38.35,20.26,58.86,18.52,24.27-2.06,47.8-16.25,52.58-32.13"/><path class="cls-156" d="M-164.34,1678.71c64.67,1.72,110.89,2,173,31.19,30.36,14.28,57.51,24.39,90.61,28.77,45.78,6.05,94.75.23,141.3-7.16,117.81-18.7,227-68.73,346.64-78.26,69.61-5.55,138.69,1.37,208.32-.45,67.83-1.77,138.94-8.17,201.39,19.32,19.11,8.41,38.3,20.27,58.8,18.57,24.17-2,47.67-16.27,52.21-32.25"/><path class="cls-157" d="M-164.34,1690.57c64.8,1.73,111,2,173.21,31.38,30.08,14.22,57,24.41,89.82,28.89,45.6,6.23,94.39.43,140.75-7,118.08-19,227.51-69.46,347.46-79,69.77-5.56,139,1.52,208.81-.24,67.89-1.71,139.12-8.34,201.55,19.33,19.11,8.38,38.26,20.27,58.75,18.63,24.07-1.93,47.55-16.29,51.85-32.38"/><path class="cls-158" d="M-164.34,1702.43c64.93,1.74,111.15,2,173.44,31.58,29.8,14.16,56.55,24.43,89,29,45.41,6.4,94,.64,140.19-6.87,118.35-19.24,228-70.19,348.28-79.76,69.92-5.57,139.35,1.68,209.3,0,68-1.65,139.24-8.37,201.72,19.34,19.1,8.38,38.21,20.28,58.69,18.69,24-1.86,47.42-16.31,51.48-32.5"/><path class="cls-159" d="M-164.34,1714.3c65.06,1.75,111.28,2,173.66,31.77,29.52,14.11,56.06,24.45,88.24,29.13,45.22,6.58,93.65.84,139.64-6.72C355.81,1749,465.76,1697.56,586.29,1688c70.08-5.58,139.68,1.83,209.8.18,68-1.6,139.36-8.4,201.88,19.35,19.08,8.38,38.16,20.28,58.64,18.75,23.87-1.79,47.3-16.33,51.12-32.62"/><path class="cls-160" d="M-164.34,1726.16c65.19,1.76,111.41,1.95,173.88,32,29.24,14,55.58,24.47,87.45,29.25,45,6.76,93.29,1,139.08-6.58C355,1761,465.17,1709.15,586,1699.55c70.24-5.59,140,2,210.29.39,68.07-1.54,139.49-8.44,202,19.36,19.06,8.39,38.11,20.29,58.58,18.8,23.77-1.72,47.17-16.35,50.75-32.74"/><path class="cls-161" d="M-164.34,1738C-99,1739.79-52.8,1740,9.77,1770.18c29,14,55.09,24.49,86.66,29.38,44.85,6.94,92.92,1.25,138.53-6.43,119.15-20.07,229.62-72.38,350.72-82,70.39-5.6,140.34,2.14,210.78.6,68.13-1.49,139.61-8.47,202.21,19.38,19,8.39,38.06,20.29,58.53,18.86,23.67-1.66,47-16.37,50.39-32.86"/><path class="cls-162" d="M-164.34,1749.88c65.44,1.78,111.68,1.91,174.33,32.36,28.67,13.93,54.61,24.51,85.87,29.5,44.66,7.12,92.55,1.46,138-6.28,119.42-20.35,230.15-73.11,351.54-82.75,70.55-5.61,140.67,2.3,211.27.81,68.19-1.43,139.73-8.5,202.38,19.39,19,8.39,38,20.3,58.47,18.92,23.57-1.59,46.92-16.4,50-33"/><path class="cls-163" d="M-164.34,1761.75c65.57,1.79,111.82,1.89,174.55,32.55,28.39,13.87,54.13,24.54,85.08,29.62,44.47,7.3,92.19,1.66,137.42-6.14,119.68-20.63,230.67-73.84,352.36-83.5,70.7-5.61,141,2.45,211.76,1,68.25-1.38,139.86-8.54,202.54,19.4,19,8.39,38,20.31,58.42,19,23.47-1.52,46.8-16.42,49.66-33.1"/><path class="cls-164" d="M-164.34,1773.61c65.7,1.8,112,1.87,174.78,32.75,28.11,13.82,53.64,24.56,84.29,29.74,44.29,7.49,91.82,1.86,136.87-6,119.95-20.91,231.2-74.57,353.17-84.25,70.86-5.62,141.33,2.61,212.25,1.23,68.31-1.32,140-8.57,202.7,19.41,19,8.4,37.92,20.31,58.37,19,23.38-1.46,46.67-16.44,49.29-33.22"/><path class="cls-165" d="M-164.34,1785.47c65.83,1.81,112.1,1.85,175,32.94,27.83,13.76,53.15,24.58,83.5,29.86,44.1,7.67,91.45,2.07,136.31-5.84,120.21-21.2,231.73-75.3,354-85,71-5.63,141.65,2.76,212.74,1.44,68.37-1.27,140.11-8.6,202.87,19.43,19,8.4,37.87,20.31,58.31,19.09,23.28-1.39,46.54-16.46,48.93-33.34"/><path class="cls-166" d="M-164.34,1797.33c66,1.82,112.24,1.82,175.22,33.13,27.55,13.7,52.67,24.61,82.72,30,43.91,7.86,91.08,2.27,135.76-5.7,120.48-21.48,232.25-76,354.81-85.74,71.17-5.64,142,2.92,213.23,1.65,68.43-1.21,140.23-8.64,203,19.44,19,8.4,37.82,20.32,58.26,19.15,23.18-1.32,46.42-16.48,48.56-33.46"/><path class="cls-167" d="M-164.34,1809.2C-98.26,1811-52,1811,11.1,1842.53c27.27,13.64,52.18,24.63,81.93,30.11,43.72,8,90.72,2.47,135.21-5.55C349,1845.31,461,1790.32,583.86,1780.59c71.33-5.65,142.31,3.07,213.72,1.86,68.49-1.16,140.35-8.67,203.2,19.45,18.94,8.4,37.77,20.32,58.2,19.21,23.08-1.26,46.29-16.5,48.2-33.58"/><path class="cls-168" d="M-164.34,1821.06c66.22,1.84,112.52,1.76,175.67,33.52,27,13.58,51.7,24.66,81.14,30.23,43.53,8.23,90.35,2.67,134.65-5.41,121-22.06,233.31-77.5,356.44-87.24,71.49-5.66,142.64,3.22,214.21,2.07,68.55-1.1,140.48-8.7,203.36,19.46,18.92,8.41,37.72,20.33,58.15,19.27,23-1.19,46.17-16.52,47.83-33.7"/><path class="cls-169" d="M-164.34,1832.92c66.34,1.86,112.67,1.72,175.89,33.72,26.72,13.52,51.21,24.69,80.35,30.35,43.34,8.42,90,2.88,134.1-5.26,121.26-22.36,233.83-78.23,357.25-88,71.64-5.67,143,3.38,214.7,2.28,68.61-1,140.6-8.74,203.52,19.48,18.91,8.41,37.68,20.33,58.09,19.32,22.88-1.13,46-16.54,47.47-33.82"/><path class="cls-170" d="M-164.34,1844.78c66.47,1.87,112.81,1.69,176.12,33.91,26.44,13.46,50.72,24.71,79.56,30.47,43.15,8.62,89.61,3.08,133.55-5.11,121.52-22.65,234.36-79,358.07-88.73,71.8-5.68,143.3,3.53,215.2,2.49,68.67-1,140.73-8.77,203.69,19.49,18.89,8.41,37.63,20.33,58,19.38,22.78-1.06,45.92-16.56,47.1-33.94"/><path class="cls-171" d="M-164.34,1856.65c66.6,1.88,113,1.65,176.34,34.11,26.16,13.4,50.24,24.74,78.77,30.59,43,8.81,89.24,3.28,133-5,121.78-22.95,234.89-79.69,358.89-89.48,72-5.69,143.63,3.69,215.69,2.7,68.73-.94,140.85-8.8,203.85,19.5,18.87,8.42,37.58,20.34,58,19.44,22.68-1,45.79-16.59,46.74-34.06"/><path class="cls-172" d="M-164.34,1868.51c66.73,1.89,113.11,1.61,176.56,34.3,25.89,13.34,49.75,24.77,78,30.72,42.76,9,88.87,3.48,132.44-4.82,122-23.25,235.42-80.42,359.7-90.23,72.11-5.7,144,3.84,216.18,2.91,68.79-.88,141-8.84,204,19.51,18.85,8.42,37.53,20.34,57.93,19.5,22.58-.93,45.67-16.61,46.37-34.18"/><path class="cls-173" d="M-164.34,1880.37c66.86,1.9,113.27,1.56,176.79,34.49,25.61,13.28,49.26,24.8,77.19,30.84,42.57,9.2,88.5,3.68,131.88-4.67,122.3-23.55,235.94-81.15,360.52-91,72.27-5.7,144.29,4,216.67,3.12,68.85-.83,141.1-8.87,204.18,19.53,18.84,8.42,37.48,20.34,57.87,19.56,22.48-.87,45.54-16.63,46-34.31"/><path class="cls-174" d="M-164.34,1892.23c67,1.91,113.42,1.51,177,34.69,25.33,13.22,48.77,24.83,76.4,31,42.38,9.4,88.13,3.88,131.33-4.53,122.56-23.85,236.47-81.88,361.34-91.72,72.43-5.71,144.62,4.15,217.16,3.33,68.91-.78,141.22-8.9,204.35,19.54,18.82,8.42,37.43,20.34,57.82,19.61,22.38-.8,45.42-16.65,45.64-34.43"/><path class="cls-175" d="M-164.34,1904.1c67.12,1.92,113.58,1.46,177.23,34.88,25.06,13.15,48.28,24.86,75.61,31.08,42.18,9.6,87.76,4.08,130.78-4.38,122.82-24.16,237-82.61,362.15-92.47,72.58-5.72,144.95,4.3,217.65,3.54,69-.72,141.34-8.94,204.51,19.55,18.8,8.43,37.39,20.35,57.77,19.67,22.28-.74,45.29-16.67,45.28-34.55"/><path class="cls-176" d="M-164.34,1916c67.24,1.93,113.73,1.41,177.45,35.08,24.78,13.09,47.79,24.89,74.82,31.2,42,9.8,87.39,4.28,130.22-4.23,123.07-24.47,237.52-83.34,363-93.22,72.74-5.73,145.28,4.46,218.14,3.75,69-.67,141.47-9,204.67,19.56,18.79,8.43,37.34,20.35,57.71,19.73,22.18-.67,45.17-16.69,44.91-34.67"/><path class="cls-177" d="M-164.34,1927.82c67.37,1.94,113.89,1.35,177.68,35.27,24.51,13,47.3,24.93,74,31.32,41.79,10,87,4.48,129.67-4.09,123.33-24.78,238.05-84.07,363.78-94,72.89-5.74,145.61,4.61,218.63,4,69.09-.61,141.59-9,204.84,19.58,18.77,8.43,37.29,20.35,57.66,19.79,22.09-.61,45-16.71,44.55-34.79"/><path class="cls-178" d="M-164.34,1939.69c67.5,2,114.06,1.3,177.9,35.47,24.23,13,46.81,25,73.25,31.45,41.59,10.21,86.65,4.68,129.12-3.94,123.59-25.09,238.58-84.8,364.6-94.71,73.05-5.75,145.94,4.76,219.12,4.17,69.15-.56,141.72-9,205,19.59,18.75,8.43,37.24,20.35,57.6,19.84,22-.55,44.91-16.73,44.18-34.91"/><path class="cls-179" d="M-164.34,1951.55c67.63,2,114.22,1.23,178.12,35.66,24,12.91,46.32,25,72.46,31.57,41.39,10.41,86.28,4.88,128.56-3.8,123.84-25.41,239.11-85.53,365.42-95.46,73.21-5.76,146.27,4.92,219.61,4.38,69.21-.5,141.84-9.07,205.17,19.6,18.73,8.44,37.2,20.35,57.55,19.9,21.89-.48,44.79-16.75,43.82-35"/></g></g><path class="cls-2" d="M1003.86-107.77c55,0,99.69,45.41,99.69,101.23V1925.14c0,55.82-44.72,101.23-99.69,101.23H76c-55,0-99.69-45.41-99.69-101.23V-6.54C-23.72-62.35,21-107.77,76-107.77Z"/></g><g class="cls-180"><g class="cls-181"><circle class="cls-6" cx="1191.74" cy="-93.05" r="278.14"/></g><path class="cls-2" d="M1447.5-1417.32a54.92,54.92,0,0,1,55,54.77V-317.48a54.92,54.92,0,0,1-55,54.77H936a54.92,54.92,0,0,1-55-54.77V-1362.56a54.92,54.92,0,0,1,55-54.77Z"/></g></g></g></svg>